<?xml version="1.0" encoding="UTF-8"?>
<svg width="950px" height="950px" viewBox="0 0 950 950" version="1.1" xmlns="http://www.w3.org/2000/svg" xmlns:xlink="http://www.w3.org/1999/xlink">
    <!-- Generator: Sketch 57.1 (83088) - https://sketch.com -->
    <title>Celo Logo Color Reverse</title>
    <desc>Created with Sketch.</desc>
    <g id="Page-1" stroke="none" stroke-width="1" fill="none" fill-rule="evenodd">
        <g id="Celo-Logo-Color-Reverse" fill-rule="nonzero">
            <path d="M575,650 C726.88,650 850,526.88 850,375 C850,223.12 726.88,100 575,100 C423.12,100 300,223.12 300,375 C300,526.88 423.12,650 575,650 Z M575,750 C367.9,750 200,582.1 200,375 C200,167.9 367.9,0 575,0 C782.1,0 950,167.9 950,375 C950,582.1 782.1,750 575,750 Z" id="Top_Ring" fill="#35D07F"></path>
            <path d="M375,850 C526.88,850 650,726.88 650,575 C650,423.12 526.88,300 375,300 C223.12,300 100,423.12 100,575 C100,726.88 223.12,850 375,850 Z M375,950 C167.9,950 0,782.1 0,575 C0,367.9 167.9,200 375,200 C582.1,200 750,367.9 750,575 C750,782.1 582.1,950 375,950 Z" id="Bottom_Ring" fill="#FBCC5C"></path>
            <path d="M587.3,749.8 C613.289577,718.309477 631.916475,681.411001 641.82,641.8 C681.429544,631.897854 718.327616,613.274577 749.82,587.29 C748.384149,633.15307 738.505739,678.358493 720.68,720.64 C678.393564,738.475003 633.181093,748.360252 587.31,749.8 L587.3,749.8 Z M308.19,308.18 C268.580456,318.082146 231.682384,336.705423 200.19,362.69 C201.625851,316.82693 211.504261,271.621507 229.33,229.34 C271.617747,211.511863 316.83017,201.633404 362.7,200.2 C336.71806,231.686551 318.094921,268.577517 308.19,308.18 L308.19,308.18 Z" id="Rings_Overlap" fill="#ECFF8F"></path>
        </g>
    </g>
</svg>