<svg width="104px" height="104px" viewBox="0 0 104 104" version="1.1" xmlns="http://www.w3.org/2000/svg" xmlns:xlink="http://www.w3.org/1999/xlink">
    <g id="Page-1" stroke="none" stroke-width="1" fill="none" fill-rule="evenodd">
        <g id="Group-3" fill="#E5E5E5" fill-rule="nonzero">
            <path d="M51.5,90 C72.7629629,90 90,72.7629629 90,51.5 C90,30.2370371 72.7629629,13 51.5,13 C30.2370371,13 13,30.2370371 13,51.5 C13,72.7629629 30.2370371,90 51.5,90 Z M51.5,83.4208861 C33.8705814,83.4208861 19.5791139,69.1294186 19.5791139,51.5 C19.5791139,33.8705814 33.8705814,19.5791139 51.5,19.5791139 C69.1294186,19.5791139 83.4208861,33.8705814 83.4208861,51.5 C83.4208861,69.1294186 69.1294186,83.4208861 51.5,83.4208861 Z" id="Oval"></path>
            <polygon id="Line" points="4.12425547 104 104 4.12425547 99.8757445 0 0 99.8757445"></polygon>
        </g>
    </g>
</svg>
