<svg width="100px" height="100px" viewBox="0 0 100 100" version="1.1" xmlns="http://www.w3.org/2000/svg" xmlns:xlink="http://www.w3.org/1999/xlink">
    <defs>
        <linearGradient x1="23.884516%" y1="77.0466588%" x2="78.2608188%" y2="21.0688923%" id="linearGradient-1">
            <stop stop-color="#E5E5E5" offset="0%"></stop>
            <stop stop-color="#9FA2A5" stop-opacity="0" offset="43.1033573%"></stop>
            <stop stop-color="#9FA2A5" offset="59%"></stop>
            <stop stop-color="#E5E5E5" offset="100%"></stop>
        </linearGradient>
    </defs>
    <g id="Page-1" stroke="none" stroke-width="1" fill="none" fill-rule="evenodd">
        <g id="Group-2" fill-rule="nonzero">
            <path d="M11.0514291,100 C14.3816909,100.004055 17.547931,98.5567713 19.7212504,96.0370253 L19.7212504,96.0370253 L98,5.36111766 C95.9118831,2.02520824 92.2498018,-2.84217094e-14 88.3101998,-2.84217094e-14 L88.3101998,-2.84217094e-14 C84.9985437,-0.00381516982 81.8484724,1.42874932 79.6774687,3.92593277 L1,94.0648035 C3.01127822,97.729978 6.86606613,100.006159 11.0514291,100 Z" id="Path" fill="url(#linearGradient-1)"></path>
            <path d="M11.4259259,100 C13.2488535,100 15.0454685,99.5650171 16.6666667,98.7314815 L16.6666667,23.0185185 L77.3888889,95.8888889 C79.5642831,98.4932688 82.7825304,99.9989609 86.1759259,100 L88.5740741,100 C94.8823226,99.9948942 99.9948942,94.8823226 100,88.5740741 L100,11.4259259 C99.9948942,5.1176774 94.8823226,0.00510582892 88.5740741,-2.84217094e-14 C86.7654656,0.0026890811 84.9828644,0.430894003 83.3703704,1.25 L83.3703704,76.9814815 L22.6111111,4.11111111 C20.4357169,1.50673124 17.2174696,0.00103912161 13.8240741,-2.84217094e-14 L11.4259259,-2.84217094e-14 C5.1176774,0.00510582892 0.00510582892,5.1176774 0,11.4259259 L0,88.5740741 C0.00510582892,94.8823226 5.1176774,99.9948942 11.4259259,100 Z" id="Path" fill="#E5E5E5"></path>
        </g>
    </g>
</svg>
