<svg width="144" height="145" viewBox="0 0 144 145" fill="none" xmlns="http://www.w3.org/2000/svg">
<path d="M115.58 7.81L85.48 52.5C85.0513 53.1436 84.8702 53.9207 84.9701 54.6875C85.07 55.4543 85.4443 56.159 86.0236 56.6713C86.6029 57.1835 87.3481 57.4686 88.1214 57.4739C88.8947 57.4792 89.6437 57.2043 90.23 56.7L119.86 31C120.034 30.8446 120.249 30.7432 120.479 30.7081C120.709 30.6729 120.945 30.7056 121.157 30.8021C121.369 30.8986 121.549 31.0547 121.673 31.2515C121.798 31.4482 121.863 31.677 121.86 31.91V112.37C121.86 112.616 121.784 112.857 121.643 113.058C121.501 113.26 121.301 113.413 121.07 113.497C120.838 113.582 120.586 113.592 120.348 113.528C120.111 113.464 119.898 113.329 119.74 113.14L30.18 5.93C28.7395 4.22895 26.9457 2.86205 24.9235 1.92433C22.9013 0.986612 20.6991 0.500571 18.47 0.500001H15.34C11.2716 0.500001 7.36979 2.11617 4.49298 4.99298C1.61617 7.86979 0 11.7716 0 15.84V129.16C0 133.228 1.61617 137.13 4.49298 140.007C7.36979 142.884 11.2716 144.5 15.34 144.5V144.5C17.9632 144.501 20.5427 143.829 22.8326 142.549C25.1224 141.27 27.046 139.425 28.42 137.19L58.52 92.5C58.9487 91.8564 59.1298 91.0793 59.0299 90.3125C58.93 89.5457 58.5557 88.841 57.9764 88.3287C57.3971 87.8165 56.6519 87.5314 55.8786 87.5261C55.1053 87.5208 54.3563 87.7957 53.77 88.3L24.14 114C23.9664 114.155 23.7512 114.257 23.5209 114.292C23.2906 114.327 23.055 114.294 22.8429 114.198C22.6309 114.101 22.4515 113.945 22.3266 113.749C22.2018 113.552 22.137 113.323 22.14 113.09V32.61C22.1401 32.3637 22.216 32.1233 22.3574 31.9216C22.4988 31.7199 22.6988 31.5666 22.9303 31.4825C23.1619 31.3985 23.4137 31.3877 23.6515 31.4516C23.8894 31.5155 24.1019 31.6511 24.26 31.84L113.81 139.07C115.251 140.771 117.044 142.138 119.067 143.076C121.089 144.013 123.291 144.499 125.52 144.5H128.65C130.665 144.501 132.661 144.106 134.523 143.335C136.386 142.565 138.078 141.435 139.503 140.011C140.929 138.586 142.06 136.894 142.831 135.033C143.603 133.171 144 131.175 144 129.16V15.84C144 11.7716 142.384 7.86979 139.507 4.99298C136.63 2.11617 132.728 0.500001 128.66 0.500001C126.037 0.499311 123.457 1.17087 121.167 2.45058C118.878 3.73029 116.954 5.57545 115.58 7.81V7.81Z" fill="white"/>
</svg>
