<?xml version="1.0" encoding="UTF-8"?>
<svg width="950px" height="768px" viewBox="0 0 950 768" version="1.1" xmlns="http://www.w3.org/2000/svg" xmlns:xlink="http://www.w3.org/1999/xlink">
    <!-- Generator: Sketch 57.1 (83088) - https://sketch.com -->
    <title>light-explorer-logo.306f645a</title>
    <desc>Created with Sketch.</desc>
    <g id="Page-1" stroke="none" stroke-width="1" fill="none" fill-rule="evenodd">
        <g id="light-explorer-logo.306f645a" fill="#1DD79B" fill-rule="nonzero">
            <path d="M813.312393,179.121206 C807.614131,184.806433 799.883686,188 791.822842,188 L30.4486796,188 C3.53921748,188 -10.0908969,155.691933 8.72151235,136.503446 L133.60803,9.11915792 C139.326658,3.28745587 147.158939,0 155.33746,0 L919.549438,0 C946.624099,0 960.181798,32.6457052 941.038989,51.7396262 L813.312393,179.121206 Z" id="Path"></path>
            <path d="M813.312393,759.123495 C807.614131,764.806444 799.883686,768 791.822842,768 L30.4486796,768 C3.53921748,768 -10.0908969,735.692049 8.72151235,716.503631 L133.60803,589.120254 C139.326658,583.288347 147.158939,580 155.33746,580 L919.549438,580 C946.624099,580 960.181798,612.64649 941.038989,631.740117 L813.312393,759.123495 Z" id="Path"></path>
            <path d="M813.312393,298.876612 C807.614131,293.193594 799.883686,290 791.822842,290 L30.4486796,290 C3.53921748,290 -10.0908969,322.308339 8.72151235,341.496987 L133.60803,468.881894 C139.326658,474.713871 147.158939,478 155.33746,478 L919.549438,478 C946.624099,478 960.181798,445.355375 941.038989,426.261519 L813.312393,298.876612 Z" id="Path"></path>
        </g>
    </g>
</svg>