<?xml version="1.0" encoding="UTF-8"?>
<svg width="105px" height="100px" viewBox="0 0 105 100" version="1.1" xmlns="http://www.w3.org/2000/svg" xmlns:xlink="http://www.w3.org/1999/xlink">
    <!-- Generator: Sketch 57.1 (83088) - https://sketch.com -->
    <title>Group</title>
    <desc>Created with Sketch.</desc>
    <defs>
        <polygon id="path-1" points="0.000299465241 0.0593582888 49.7489626 0.0593582888 49.7489626 99.4249853 0.000299465241 99.4249853"></polygon>
    </defs>
    <g id="Page-1" stroke="none" stroke-width="1" fill="none" fill-rule="evenodd">
        <g id="Group">
            <path d="M105,16.6803763 L105,83.597043 C105,92.1013441 98.119858,99 89.6383798,99 L56,99 L56,73.8241935 C67.9259727,72.1594086 77.1122747,61.883871 77.1122747,49.4615591 C77.1122747,37.0466398 67.9259727,26.7725806 56,25.0974462 L56,0 L88.3643887,0 C97.5506906,0 105,7.46935484 105,16.6803763" id="Fill-1" fill="#F79823"></path>
            <g id="Group-5">
                <mask id="mask-2" fill="white">
                    <use xlink:href="#path-1"></use>
                </mask>
                <g id="Clip-4"></g>
                <path d="M28.3192299,49.7035147 C28.3192299,62.1717233 37.6370909,72.4763222 49.7489626,74.1561618 L49.7489626,99.4249853 L16.7074652,99.4249853 C7.4764492,99.4249853 0.000299465241,92.0051992 0.000299465241,82.8580869 L0.000299465241,15.3350655 C0.000299465241,6.8958008 6.89848128,0.059209893 15.4032941,0.059209893 L49.7489626,0.059209893 L49.7489626,25.2493837 C37.6370909,26.9307072 28.3192299,37.2442099 28.3192299,49.7035147" id="Fill-3" fill="#102649" mask="url(#mask-2)"></path>
            </g>
        </g>
    </g>
</svg>