<svg width="83px" height="118px" viewBox="0 0 83 118" version="1.1" xmlns="http://www.w3.org/2000/svg" xmlns:xlink="http://www.w3.org/1999/xlink">
    <g id="Page-1" stroke="none" stroke-width="1" fill="none" fill-rule="evenodd">
        <g id="Zilliqa_Logo" fill-rule="nonzero">
            <g id="Group" fill="#49C1BF">
                <polygon id="path0_fill" points="82.838835 48.356422 65.9702265 55.8701835 21.2200647 78.6261468 65.9702265 100.120872 65.9702265 64.5915138 82.838835 56.9972477 82.838835 109.486239 65.9702265 117 0.0805825243 85.4958716 0.0805825243 68.7509174 45.6902913 46.3974771 0.0805825243 24.5002294 0.0805825243 7.51376147 17.2177994 0 82.838835 31.5577982"></polygon>
            </g>
            <g id="Group" fill="#077A8F">
                <polygon id="path1_fill" points="0.0805825243 7.47945205 65.9702265 38.8931507 82.838835 31.4136986 17.2177994 0"></polygon>
            </g>
            <g id="Group" transform="translate(66.000000, 31.000000)" fill="#298E97">
                <polygon id="path2_fill" points="0.159375 7.48695652 16.840625 0.182608696 16.840625 16.5130435 0.159375 23.8173913 0.159375 7.48695652"></polygon>
            </g>
            <g id="Group" transform="translate(0.000000, 7.000000)" fill="#49C1BF">
                <polygon id="path3_fill" points="0.0804878049 0 0.0804878049 17.0661765 45.6365854 39.0661765 0.0804878049 61.5245098 0.0804878049 78.3480392 65.8926829 110 65.8926829 93.0686275 21.195122 71.4460784 65.8926829 48.5833333 65.8926829 31.7058824"></polygon>
            </g>
            <g id="Group" transform="translate(66.000000, 57.000000)" fill="#298E97">
                <polygon id="path4_fill" points="0.159375 60.3222222 16.840625 52.7819444 16.840625 0.107718254 0.159375 7.72878472"></polygon>
            </g>
        </g>
    </g>
</svg>
