<?xml version="1.0" encoding="utf-8"?>
<!-- Generator: Adobe Illustrator 22.1.0, SVG Export Plug-In . SVG Version: 6.00 Build 0)  -->
<svg version="1.1" id="Regular" xmlns="http://www.w3.org/2000/svg" xmlns:xlink="http://www.w3.org/1999/xlink" x="0px" y="0px"
	 viewBox="0 0 24 24" style="enable-background:new 0 0 24 24;" xml:space="preserve">
<title>single-neutral-actions-up-down</title>
<g>
	<path d="M14.249,24c-0.087,0-0.174-0.016-0.258-0.046c-0.006-0.002-0.011-0.004-0.017-0.006c-0.104-0.042-0.186-0.097-0.256-0.167
		l-3-3c-0.292-0.292-0.292-0.768,0-1.061c0.142-0.142,0.33-0.22,0.53-0.22s0.389,0.078,0.53,0.22l1.72,1.72V14.25
		c0-0.414,0.336-0.75,0.75-0.75s0.75,0.336,0.75,0.75v7.189l1.72-1.72c0.142-0.142,0.33-0.22,0.53-0.22s0.389,0.078,0.53,0.22
		c0.292,0.292,0.292,0.768,0,1.061l-3,3c-0.07,0.07-0.152,0.125-0.245,0.163c-0.008,0.003-0.017,0.007-0.026,0.01
		C14.427,23.984,14.339,24,14.249,24z"/>
	<path d="M20.249,24c-0.414,0-0.75-0.336-0.75-0.75v-7.189l-1.72,1.72c-0.142,0.142-0.33,0.22-0.53,0.22s-0.389-0.078-0.53-0.22
		c-0.292-0.292-0.292-0.768,0-1.061l3-3c0.07-0.07,0.152-0.125,0.245-0.163c0.008-0.003,0.017-0.007,0.026-0.01
		c0.082-0.031,0.17-0.047,0.259-0.047c0.087,0,0.174,0.016,0.258,0.046c0.006,0.002,0.011,0.004,0.017,0.006
		c0.104,0.042,0.186,0.097,0.256,0.167l3,3c0.292,0.292,0.292,0.768,0,1.061c-0.142,0.142-0.33,0.22-0.53,0.22
		s-0.389-0.078-0.53-0.22l-1.72-1.72v7.189C20.999,23.664,20.663,24,20.249,24z"/>
	<path d="M5.999,7.5c-2.068,0-3.75-1.682-3.75-3.75S3.932,0,5.999,0s3.75,1.682,3.75,3.75S8.067,7.5,5.999,7.5z M5.999,1.5
		c-1.241,0-2.25,1.009-2.25,2.25S4.759,6,5.999,6s2.25-1.009,2.25-2.25S7.24,1.5,5.999,1.5z"/>
	<path d="M3.749,24c-0.387,0-0.708-0.29-0.746-0.675L2.321,16.5H0.749c-0.414,0-0.75-0.336-0.75-0.75V13.5c0-3.308,2.692-6,6-6
		s6,2.692,6,6v2.25c0,0.414-0.336,0.75-0.75,0.75H9.678l-0.682,6.825C8.957,23.71,8.636,24,8.249,24H3.749z M7.571,22.5l0.682-6.825
		C8.292,15.29,8.612,15,8.999,15h1.5v-1.5c0-2.481-2.019-4.5-4.5-4.5s-4.5,2.019-4.5,4.5V15h1.5c0.387,0,0.708,0.29,0.746,0.675
		L4.428,22.5H7.571z"/>
</g>
</svg>
