<?xml version="1.0" encoding="utf-8"?>
<!-- Generator: Adobe Illustrator 22.1.0, SVG Export Plug-In . SVG Version: 6.00 Build 0)  -->
<svg version="1.1" id="Layer_1" xmlns="http://www.w3.org/2000/svg" xmlns:xlink="http://www.w3.org/1999/xlink" x="0px" y="0px"
	 viewBox="0 0 24 24" style="enable-background:new 0 0 24 24;" xml:space="preserve">
<title>archive-locker</title>
<g>
	<path d="M2.251,24c-1.241,0-2.25-1.009-2.25-2.25V2.25C0.001,1.009,1.01,0,2.251,0H21.75C22.99,0,24,1.009,24,2.25v19.5
		C24,22.991,22.99,24,21.75,24H2.251z M1.501,21.75c0,0.414,0.336,0.75,0.75,0.75H21.75c0.414,0,0.75-0.336,0.75-0.75V16.5H1.501
		V21.75z M22.5,15V9H1.501v6H22.5z M22.5,7.5V2.25c0-0.414-0.336-0.75-0.75-0.75H2.251c-0.414,0-0.75,0.336-0.75,0.75V7.5H22.5z"/>
	<path d="M9.75,20.25c-0.827,0-1.5-0.673-1.5-1.5C8.25,18.336,8.586,18,9,18s0.75,0.336,0.75,0.75h4.5c0-0.414,0.336-0.75,0.75-0.75
		s0.75,0.336,0.75,0.75c0,0.827-0.673,1.5-1.5,1.5H9.75z"/>
	<path d="M9.75,12.75c-0.827,0-1.5-0.673-1.5-1.5c0-0.414,0.336-0.75,0.75-0.75s0.75,0.336,0.75,0.75h4.5
		c0-0.414,0.336-0.75,0.75-0.75s0.75,0.336,0.75,0.75c0,0.827-0.673,1.5-1.5,1.5H9.75z"/>
	<path d="M9.75,5.25c-0.827,0-1.5-0.673-1.5-1.5C8.25,3.336,8.586,3,9,3s0.75,0.336,0.75,0.75h4.5C14.25,3.336,14.586,3,15,3
		s0.75,0.336,0.75,0.75c0,0.827-0.673,1.5-1.5,1.5H9.75z"/>
</g>
</svg>
