<?xml version="1.0" encoding="utf-8"?>
<!-- Generator: Adobe Illustrator 22.1.0, SVG Export Plug-In . SVG Version: 6.00 Build 0)  -->
<svg version="1.1" id="Layer_1" xmlns="http://www.w3.org/2000/svg" xmlns:xlink="http://www.w3.org/1999/xlink" x="0px" y="0px"
	 viewBox="0 0 24 24" style="enable-background:new 0 0 24 24;" xml:space="preserve">
<title>arrow-down</title>
<g>
	<path fill="#00DAFF" d="M15.001,14.25c-0.414,0-0.75-0.336-0.75-0.75V2.561l-1.72,1.72c-0.142,0.142-0.33,0.22-0.53,0.22s-0.389-0.078-0.53-0.22
		c-0.142-0.141-0.22-0.33-0.22-0.53s0.078-0.389,0.22-0.53l3-3c0.07-0.07,0.153-0.125,0.245-0.163
		c0.007-0.003,0.016-0.006,0.024-0.009C14.82,0.017,14.91,0,15.001,0c0.089,0,0.176,0.016,0.261,0.048
		c0.011,0.004,0.022,0.008,0.032,0.012c0.085,0.035,0.167,0.09,0.238,0.16l3,3c0.142,0.141,0.22,0.33,0.22,0.53
		s-0.078,0.389-0.22,0.53s-0.33,0.22-0.53,0.22s-0.389-0.078-0.53-0.22l-1.72-1.72V13.5C15.751,13.914,15.414,14.25,15.001,14.25z"
		/>
</g>
</svg>
