<?xml version="1.0" encoding="utf-8"?>
<!-- Generator: Adobe Illustrator 22.1.0, SVG Export Plug-In . SVG Version: 6.00 Build 0)  -->
<svg version="1.1" id="Regular" xmlns="http://www.w3.org/2000/svg" xmlns:xlink="http://www.w3.org/1999/xlink" x="0px" y="0px"
	 viewBox="0 0 24 24" style="enable-background:new 0 0 24 24;" xml:space="preserve">
<title>arrow-button-down</title>
<g>
	<path d="M12,20.13c-0.398,0-0.776-0.153-1.065-0.43L0.422,9.476C0.139,9.182-0.007,8.807,0.001,8.41
		c0.008-0.397,0.17-0.767,0.455-1.041L3.22,4.682c0.291-0.28,0.67-0.433,1.068-0.433c0.398,0,0.776,0.153,1.064,0.43L12,11.143
		c0,0,6.652-6.468,6.656-6.471c0.292-0.275,0.665-0.423,1.057-0.423c0.398,0,0.776,0.153,1.065,0.43l2.795,2.718
		C23.859,7.694,24.008,8.072,24,8.469c-0.008,0.397-0.17,0.767-0.456,1.042L13.068,19.697C12.778,19.976,12.399,20.13,12,20.13z
		 M11.978,18.621c0.005,0.005,0.013,0.008,0.022,0.008c0.01,0,0.018-0.003,0.025-0.01L22.494,8.439l-2.759-2.682
		c-0.012-0.003-0.021-0.005-0.028-0.005c-0.01,0-0.015,0.003-0.019,0.007l-7.165,6.966c-0.141,0.137-0.327,0.212-0.523,0.212
		c-0.196,0-0.382-0.075-0.523-0.212L4.31,5.758L4.288,5.75c-0.01,0-0.018,0.004-0.025,0.011L1.507,8.439L11.978,18.621z"/>
</g>
</svg>
