<svg width="24" height="24" viewBox="0 0 24 24" fill="none" xmlns="http://www.w3.org/2000/svg">
<path fill-rule="evenodd" clip-rule="evenodd" d="M0.535645 12C0.535645 11.5858 0.871431 11.25 1.28564 11.25H22.7142C23.1284 11.25 23.4642 11.5858 23.4642 12C23.4642 12.4142 23.1284 12.75 22.7142 12.75H1.28564C0.871431 12.75 0.535645 12.4142 0.535645 12Z" fill="#00DAFF"/>
<path fill-rule="evenodd" clip-rule="evenodd" d="M12.1839 1.46967C12.4768 1.17678 12.9517 1.17678 13.2446 1.46967L23.2446 11.4697C23.3852 11.6103 23.4642 11.8011 23.4642 12C23.4642 12.1989 23.3852 12.3897 23.2446 12.5303L13.2446 22.5303C12.9517 22.8232 12.4768 22.8232 12.1839 22.5303C11.891 22.2374 11.891 21.7626 12.1839 21.4697L21.6536 12L12.1839 2.53033C11.891 2.23744 11.891 1.76256 12.1839 1.46967Z" fill="#00DAFF"/>
</svg>
