<svg width="28" height="27" viewBox="0 0 28 27" fill="none" xmlns="http://www.w3.org/2000/svg">
<path fill-rule="evenodd" clip-rule="evenodd" d="M0 13.4375C0 13.0233 0.335786 12.6875 0.75 12.6875H27C27.4142 12.6875 27.75 13.0233 27.75 13.4375C27.75 13.8517 27.4142 14.1875 27 14.1875H0.75C0.335786 14.1875 0 13.8517 0 13.4375Z" fill="#00DAFF"/>
<path fill-rule="evenodd" clip-rule="evenodd" d="M14.2291 0.21045C14.527 -0.0772609 15.0018 -0.068931 15.2896 0.229055L27.5396 12.9166C27.8201 13.2072 27.8201 13.6678 27.5396 13.9584L15.2896 26.6459C15.0018 26.9439 14.527 26.9523 14.2291 26.6646C13.9311 26.3768 13.9227 25.902 14.2104 25.6041L25.9575 13.4375L14.2104 1.27095C13.9227 0.972961 13.9311 0.49816 14.2291 0.21045Z" fill="#00DAFF"/>
</svg>
