<?xml version="1.0" encoding="utf-8"?>
<!-- Generator: Adobe Illustrator 22.1.0, SVG Export Plug-In . SVG Version: 6.00 Build 0)  -->
<svg version="1.1" id="Layer_1" xmlns="http://www.w3.org/2000/svg" xmlns:xlink="http://www.w3.org/1999/xlink" x="0px" y="0px"
	 viewBox="0 0 24 24" style="enable-background:new 0 0 24 24;" xml:space="preserve">
<title>bin</title>
<g>
	<path d="M9.75,17.25C9.336,17.25,9,16.914,9,16.5v-6c0-0.414,0.336-0.75,0.75-0.75s0.75,0.336,0.75,0.75v6
		C10.5,16.914,10.164,17.25,9.75,17.25z"/>
	<path d="M14.25,17.25c-0.414,0-0.75-0.336-0.75-0.75v-6c0-0.414,0.336-0.75,0.75-0.75S15,10.086,15,10.5v6
		C15,16.914,14.664,17.25,14.25,17.25z"/>
	<path d="M6.75,21.75c-1.241,0-2.25-1.009-2.25-2.25V6.75H2.25C1.836,6.75,1.5,6.414,1.5,6s0.336-0.75,0.75-0.75H7.5V4.5
		c0-1.241,1.009-2.25,2.25-2.25h4.5c1.241,0,2.25,1.009,2.25,2.25v0.75h5.25c0.414,0,0.75,0.336,0.75,0.75s-0.336,0.75-0.75,0.75
		H19.5V19.5c0,1.241-1.009,2.25-2.25,2.25H6.75z M6,19.5c0,0.414,0.336,0.75,0.75,0.75h10.5c0.414,0,0.75-0.336,0.75-0.75V6.75H6
		V19.5z M15,5.25V4.5c0-0.414-0.336-0.75-0.75-0.75h-4.5C9.336,3.75,9,4.086,9,4.5v0.75H15z"/>
</g>
</svg>
