<?xml version="1.0" encoding="UTF-8"?>
<svg width="14px" height="22px" viewBox="0 0 14 22" version="1.1" xmlns="http://www.w3.org/2000/svg" xmlns:xlink="http://www.w3.org/1999/xlink">
    <!-- Generator: Sketch 57.1 (83088) - https://sketch.com -->
    <title>Path</title>
    <desc>Created with Sketch.</desc>
    <g id="New-Moonlet-Logo" stroke="none" stroke-width="1" fill="none" fill-rule="evenodd">
        <path d="M7.93523879,11.1434062 L5.9308,9.37478376 L5.9308,13.0299368 L7.93523879,11.1434062 Z M12.8198235,6.54614999 C13.1549919,6.23069743 13.1295703,5.69056406 12.7662555,5.40798584 L7.14125546,1.03298584 C6.64861195,0.649818666 5.93079095,1.00088887 5.93079095,1.625 L5.93079095,9.37478376 L2.17701623,6.06262161 C1.86642322,5.78856895 1.39247426,5.81819076 1.11842161,6.12878377 C0.844368953,6.43937678 0.873990763,6.91332574 1.18458377,7.18737839 L5.70861928,11.1791744 L1.16677648,15.45385 C0.865146163,15.7377374 0.850762652,16.2123932 1.13465001,16.5140235 C1.41853736,16.8156538 1.89319321,16.8300373 2.19482352,16.54615 L5.93079095,13.0299368 L5.93079095,20.375 C5.93079095,20.9991111 6.64861195,21.3501813 7.14125546,20.9670142 L12.7662555,16.5920142 C13.1372815,16.3034384 13.154469,15.7486093 12.8020162,15.4376216 L7.93523879,11.1434062 L12.8198235,6.54614999 Z M11.1309754,15.9636063 L7.4308,18.8415205 L7.4308,12.6987457 L11.1309754,15.9636063 Z M7.4308,3.15847952 L11.1538886,6.05421508 L7.4308,9.55829845 L7.4308,3.15847952 Z" id="Path" fill="#9A99A2" fill-rule="nonzero"></path>
    </g>
</svg>