<svg width="28" height="28" viewBox="0 0 28 28" fill="none" xmlns="http://www.w3.org/2000/svg">
<path d="M20.486 6.96172C18.8892 4.83984 16.5759 3.5 14.0001 3.5C11.4243 3.5 9.11104 4.83984 7.51416 6.96172C7.86416 7.81484 8.37822 8.60234 9.05088 9.275C10.3743 10.5984 12.1298 11.3258 14.0001 11.3258C15.8704 11.3258 17.6259 10.5984 18.9493 9.275C19.622 8.60234 20.1415 7.82031 20.486 6.96172Z" fill="#9A99A2"/>
<path d="M6.67176 8.20321C6.67176 8.20321 6.46395 8.11571 6.34911 8.02275C6.23426 7.92978 6.07567 7.75478 5.99364 7.56337C6.28895 6.9454 6.05926 6.19618 5.45223 5.85165C4.80692 5.49071 3.98114 5.73134 3.64208 6.39853C3.39598 6.88525 3.48348 7.48134 3.84989 7.88056C3.94833 7.98447 4.05223 8.0665 4.16161 8.13212C4.31473 8.21962 4.42958 8.35087 4.51161 8.504C4.65926 8.78837 4.86161 9.08915 5.11864 9.30243C5.34833 9.49384 5.59989 9.69071 5.94989 9.88759C5.55614 10.9977 5.31551 12.2009 5.26629 13.4642C4.66473 13.4751 4.24911 13.579 3.87176 13.6884C3.64208 13.754 3.42333 13.8743 3.22645 14.011C3.17176 14.0056 3.12254 14.0001 3.06786 14.0001C2.31317 14.0001 1.71161 14.6345 1.75536 15.4001C1.79364 16.0454 2.31864 16.5759 2.96942 16.6251C3.57098 16.6688 4.09598 16.3024 4.29833 15.7774C4.4077 15.4876 4.66473 15.2743 4.97645 15.236C5.08036 15.2251 5.18973 15.2142 5.31551 15.2142C5.49051 17.0188 6.04286 18.6868 6.87958 20.0923C6.10301 20.6938 5.62723 21.3501 5.42489 22.0774C5.42489 22.0774 5.38114 22.0993 5.32098 22.154C5.26629 22.1977 5.21708 22.2415 5.16786 22.2962C4.68114 22.8376 4.72489 23.6634 5.26629 24.1501C5.8077 24.6368 6.63348 24.5931 7.1202 24.0517C7.45926 23.6743 7.53583 23.1602 7.37176 22.7118C7.25145 22.3837 7.33348 22.0173 7.58504 21.7821C7.67254 21.7001 7.77645 21.6126 7.89676 21.5142C9.37879 23.2477 11.1452 24.3579 13.3491 24.4892V12.7368C10.4343 12.5782 7.89676 10.6806 6.67176 8.20321ZM24.9374 14.0056C24.8827 14.0056 24.828 14.011 24.7788 14.0165C24.5819 13.8798 24.3577 13.7649 24.1335 13.6938C23.7561 13.5845 23.346 13.4806 22.739 13.4696C22.6843 12.2063 22.4436 10.9977 22.0554 9.89306C22.4054 9.69618 22.6569 9.49931 22.8866 9.3079C23.1546 9.08368 23.3624 8.76103 23.5155 8.47118C23.5866 8.33446 23.696 8.22509 23.8327 8.14853C23.8327 8.14853 23.8382 8.14853 23.8382 8.14306C24.4725 7.78759 24.6968 6.98915 24.3413 6.35478C23.9858 5.7204 23.1874 5.49618 22.553 5.85165C21.946 6.19071 21.7163 6.93993 22.0116 7.56337C21.9241 7.74931 21.8257 7.87509 21.6561 8.02275C21.5304 8.13212 21.3335 8.2579 21.3335 8.2579C20.1085 10.7352 17.571 12.5782 14.6616 12.7368V24.5001C16.8655 24.3688 18.6319 23.2532 20.114 21.5251C20.2288 21.6181 20.3272 21.7001 20.4093 21.7767C20.6718 22.0173 20.7593 22.3946 20.639 22.7337C20.4749 23.1767 20.5569 23.6907 20.896 24.0626C21.3827 24.604 22.2085 24.6477 22.7499 24.161C23.2913 23.6743 23.335 22.8485 22.8483 22.3071C22.7991 22.2524 22.7499 22.2087 22.6952 22.1649C22.635 22.1157 22.5913 22.0884 22.5913 22.0884C22.389 21.361 21.9132 20.7048 21.1366 20.1032C21.9733 18.6977 22.5257 17.0298 22.7007 15.2251C22.8155 15.2251 22.9249 15.236 23.0233 15.247C23.346 15.2852 23.6085 15.504 23.7288 15.8048C23.9311 16.3188 24.4507 16.6743 25.0468 16.6306C25.6921 16.5813 26.2171 16.0563 26.2608 15.4056C26.2936 14.6399 25.6921 14.0056 24.9374 14.0056Z" fill="#9A99A2"/>
</svg>
