<?xml version="1.0" encoding="utf-8"?>
<!-- Generator: Adobe Illustrator 22.1.0, SVG Export Plug-In . SVG Version: 6.00 Build 0)  -->
<svg version="1.1" id="Layer_1" xmlns="http://www.w3.org/2000/svg" xmlns:xlink="http://www.w3.org/1999/xlink" x="0px" y="0px"
	 viewBox="0 0 24 24" style="enable-background:new 0 0 24 24;" xml:space="preserve">
<title>business-contract-approve</title>
<g>
	<path d="M7.501,22.5c-1.241,0-2.25-1.009-2.25-2.25v-6.573l-0.134-0.113c-1.8-1.514-3.661-3.081-3.615-5.006l0-4.188L0.163,2.683
		c-0.257-0.324-0.202-0.797,0.122-1.054C0.417,1.525,0.582,1.467,0.75,1.467c0.23,0,0.445,0.103,0.588,0.284l1.5,1.892
		C2.943,3.775,3.001,3.94,3.001,4.109v4.467c-0.023,0.977,0.957,2.006,2.25,3.132V8.451L4.695,7.882
		C4.406,7.586,4.412,7.11,4.708,6.821c0.141-0.138,0.327-0.213,0.524-0.213c0.204,0,0.394,0.08,0.537,0.226L6.48,7.562
		c0.042,0.035,0.08,0.074,0.113,0.115l0.945,0.968c0.089,0.091,0.208,0.141,0.336,0.141c0.123,0,0.239-0.047,0.327-0.132
		C8.29,8.568,8.34,8.451,8.341,8.326c0.002-0.125-0.046-0.243-0.133-0.333l-2.75-2.806C5.321,5.047,5.245,4.861,5.245,4.663V3.265
		c-0.137-0.754-0.423-1.46-0.851-2.097c-0.23-0.343-0.139-0.81,0.205-1.041C4.723,0.044,4.867,0,5.016,0
		C5.267,0,5.5,0.124,5.64,0.332c0.558,0.832,0.927,1.755,1.095,2.742c0.007,0.043,0.01,0.084,0.01,0.126v1.157l2.537,2.588
		C9.65,7.323,9.848,7.82,9.841,8.346C9.834,8.871,9.623,9.363,9.247,9.73c-0.369,0.36-0.857,0.558-1.373,0.558
		c-0.408,0-0.796-0.122-1.123-0.35V20.25c0,0.414,0.336,0.75,0.75,0.75h7.5c0.414,0,0.75,0.336,0.75,0.75s-0.336,0.75-0.75,0.75
		H7.501z"/>
	<path d="M18.989,23.996c-0.251,0-0.484-0.124-0.623-0.332c-0.558-0.831-0.926-1.752-1.094-2.737
		c-0.007-0.041-0.011-0.083-0.011-0.126v-1.155l-2.54-2.589c-0.759-0.779-0.743-2.028,0.034-2.785
		c0.37-0.361,0.846-0.559,1.339-0.559c0.023,0,0.046,0,0.07,0.001c0.516,0.006,1.008,0.218,1.375,0.594l0.463,0.474v-3.477
		c0-0.291,0.17-0.558,0.434-0.68c0.1-0.046,0.207-0.07,0.316-0.07c0.177,0,0.348,0.063,0.483,0.177
		c1.812,1.531,3.309,2.942,3.267,4.711v4.187l1.338,1.687c0.124,0.157,0.18,0.353,0.157,0.552c-0.023,0.199-0.122,0.377-0.279,0.502
		c-0.132,0.104-0.297,0.162-0.466,0.162l0,0c-0.23,0-0.445-0.103-0.588-0.284l-1.5-1.892c-0.104-0.132-0.162-0.297-0.162-0.466
		v-4.466c0.019-0.802-0.675-1.662-1.5-2.453v3.651c0,0.306-0.183,0.579-0.467,0.695c-0.09,0.037-0.185,0.055-0.282,0.055
		c-0.201,0-0.396-0.082-0.537-0.226l-1.75-1.792c-0.088-0.09-0.205-0.14-0.33-0.142c-0.084,0.002-0.224,0.027-0.332,0.133
		c-0.185,0.18-0.189,0.477-0.009,0.662l2.753,2.806c0.138,0.141,0.215,0.328,0.215,0.525v1.396c0.137,0.753,0.423,1.457,0.851,2.094
		c0.112,0.166,0.152,0.366,0.113,0.563s-0.152,0.366-0.318,0.478C19.283,23.952,19.139,23.996,18.989,23.996z"/>
	<path d="M9.001,18.75c-0.414,0-0.75-0.336-0.75-0.75s0.336-0.75,0.75-0.75h3.978c0.414,0,0.75,0.336,0.75,0.75
		s-0.336,0.75-0.75,0.75H9.001z"/>
	<path d="M9.001,15c-0.414,0-0.75-0.336-0.75-0.75s0.336-0.75,0.75-0.75h1.5c0.414,0,0.75,0.336,0.75,0.75S10.914,15,10.501,15
		H9.001z"/>
	<path d="M15.751,10.5c-2.895,0-5.25-2.355-5.25-5.25S12.856,0,15.751,0c0.414,0,0.75,0.336,0.75,0.75s-0.336,0.75-0.75,0.75
		c-2.068,0-3.75,1.682-3.75,3.75S13.683,9,15.751,9s3.75-1.682,3.75-3.75c0-0.414,0.336-0.75,0.75-0.75s0.75,0.336,0.75,0.75
		C21.001,8.145,18.646,10.5,15.751,10.5z"/>
	<path d="M15.751,6.89c-0.349,0-0.678-0.136-0.926-0.382l-1.293-1.294c-0.292-0.293-0.292-0.768,0-1.061
		c0.142-0.142,0.33-0.219,0.531-0.219c0.201,0,0.389,0.078,0.531,0.22l1.158,1.159l3.97-3.969c0.142-0.142,0.33-0.22,0.53-0.22
		s0.389,0.078,0.53,0.22c0.142,0.142,0.22,0.33,0.22,0.53c0,0.2-0.078,0.389-0.22,0.53l-4.1,4.1
		c-0.246,0.248-0.575,0.385-0.927,0.386c0,0-0.001,0-0.001,0H15.751z"/>
</g>
</svg>
