<?xml version="1.0" encoding="utf-8"?>
<!-- Generator: Adobe Illustrator 22.1.0, SVG Export Plug-In . SVG Version: 6.00 Build 0)  -->
<svg version="1.1" id="Layer_1" xmlns="http://www.w3.org/2000/svg" xmlns:xlink="http://www.w3.org/1999/xlink" x="0px" y="0px"
	 viewBox="0 0 24 24" style="enable-background:new 0 0 24 24;" xml:space="preserve">
<title>button-refresh-one</title>
<g>
	<path d="M11.25,16.498c-0.414,0-0.75-0.336-0.75-0.75s0.336-0.75,0.75-0.75H12V9l-1.8,1.35c-0.131,0.098-0.286,0.15-0.45,0.15
		c-0.235,0-0.46-0.112-0.6-0.3c-0.12-0.16-0.171-0.358-0.142-0.556C9.036,9.446,9.14,9.27,9.3,9.15l1.8-1.35
		c0.258-0.192,0.575-0.298,0.895-0.299c0.829,0,1.503,0.672,1.505,1.497v6h0.75c0.414,0,0.75,0.336,0.75,0.75s-0.336,0.75-0.75,0.75
		H11.25z"/>
	<path d="M20.25,13.498c-0.414,0-0.75-0.336-0.75-0.75v-6c0-0.414-0.336-0.75-0.75-0.75H2.561l1.72,1.72
		c0.142,0.141,0.22,0.33,0.22,0.53s-0.078,0.389-0.22,0.53c-0.141,0.142-0.33,0.22-0.53,0.22S3.361,8.92,3.22,8.778l-3-3
		c-0.07-0.07-0.125-0.152-0.163-0.245C0.053,5.526,0.05,5.517,0.047,5.508C0.016,5.422,0,5.335,0,5.248
		C0,5.16,0.016,5.072,0.048,4.987C0.05,4.98,0.052,4.973,0.055,4.967c0.04-0.097,0.095-0.18,0.166-0.25L3.22,1.718
		c0.142-0.142,0.33-0.22,0.53-0.22s0.389,0.078,0.53,0.22c0.142,0.141,0.22,0.33,0.22,0.53s-0.078,0.389-0.22,0.53l-1.72,1.72H18.75
		c1.241,0,2.25,1.009,2.25,2.25v6C21,13.162,20.664,13.498,20.25,13.498z"/>
	<path d="M20.25,22.498c-0.2,0-0.389-0.078-0.53-0.22s-0.22-0.33-0.22-0.53s0.078-0.389,0.22-0.53l1.72-1.72H5.25
		c-1.241,0-2.25-1.009-2.25-2.25v-6c0-0.414,0.336-0.75,0.75-0.75s0.75,0.336,0.75,0.75v6c0,0.414,0.336,0.75,0.75,0.75h16.189
		l-1.72-1.72c-0.142-0.142-0.22-0.33-0.22-0.53s0.078-0.389,0.22-0.53s0.33-0.22,0.53-0.22s0.389,0.078,0.53,0.22l3,3
		c0.07,0.07,0.125,0.152,0.163,0.245c0.003,0.008,0.007,0.017,0.01,0.026C23.984,18.571,24,18.659,24,18.748
		c0,0.087-0.016,0.174-0.046,0.258c-0.002,0.006-0.004,0.011-0.006,0.016c-0.043,0.104-0.098,0.186-0.168,0.256l-3,3
		C20.639,22.42,20.45,22.498,20.25,22.498z"/>
</g>
</svg>
