<?xml version="1.0" encoding="utf-8"?>
<!-- Generator: Adobe Illustrator 22.1.0, SVG Export Plug-In . SVG Version: 6.00 Build 0)  -->
<svg version="1.1" id="Layer_1" xmlns="http://www.w3.org/2000/svg" xmlns:xlink="http://www.w3.org/1999/xlink" x="0px" y="0px"
	 viewBox="0 0 24 24" style="enable-background:new 0 0 24 24;" xml:space="preserve">
<title>accounting-coins-stack</title>
<g>
	<path d="M6.749,22.5C2.902,22.5,0,20.888,0,18.75v-15C0,1.612,2.902,0,6.75,0s6.75,1.612,6.75,3.75v6c0,0.414-0.336,0.75-0.75,0.75
		S12,10.164,12,9.75V9.152C10.75,10.006,8.858,10.5,6.75,10.5s-4-0.494-5.25-1.348V9.75C1.5,10.812,3.745,12,6.75,12
		c0.744-0.007,1.452-0.077,2.102-0.208c0.048-0.01,0.099-0.015,0.15-0.015c0.355,0,0.663,0.253,0.734,0.602
		c0.082,0.405-0.181,0.802-0.587,0.884C8.367,13.42,7.566,13.5,6.768,13.5c-2.124,0-4.018-0.494-5.268-1.348v0.598
		C1.5,13.812,3.745,15,6.75,15c0.716,0,1.417-0.07,2.102-0.208c0.051-0.01,0.099-0.014,0.148-0.014c0.356,0,0.666,0.253,0.736,0.601
		c0.082,0.405-0.181,0.802-0.587,0.884C8.367,16.42,7.566,16.5,6.768,16.5c-2.124,0-4.018-0.494-5.268-1.348v0.598
		C1.5,16.812,3.745,18,6.75,18c0.717-0.001,1.425-0.072,2.102-0.208c0.051-0.01,0.099-0.015,0.148-0.015
		c0.356,0,0.665,0.253,0.736,0.602c0.082,0.405-0.181,0.802-0.587,0.884C8.367,19.42,7.566,19.5,6.768,19.5
		c-2.124,0-4.018-0.494-5.268-1.348v0.598C1.5,19.812,3.745,21,6.75,21c0.74-0.006,1.448-0.076,2.102-0.208
		c0.051-0.01,0.099-0.015,0.148-0.015c0.356,0,0.665,0.253,0.736,0.602c0.082,0.405-0.181,0.802-0.587,0.884
		C8.367,22.42,7.566,22.5,6.768,22.5H6.749z M1.5,6.75C1.5,7.812,3.745,9,6.75,9S12,7.812,12,6.75V6.152
		C10.75,7.006,8.858,7.5,6.75,7.5s-4-0.494-5.25-1.348V6.75z M6.75,1.5C3.745,1.5,1.5,2.688,1.5,3.75S3.745,6,6.75,6
		S12,4.812,12,3.75S9.755,1.5,6.75,1.5z"/>
	<path d="M17.25,24c-3.848,0-6.75-1.612-6.75-3.75v-6c0-2.138,2.902-3.75,6.75-3.75S24,12.112,24,14.25v6
		C24,22.388,21.098,24,17.25,24z M12,20.25c0,1.062,2.245,2.25,5.25,2.25s5.25-1.188,5.25-2.25v-0.598
		C21.25,20.506,19.358,21,17.25,21s-4-0.494-5.25-1.348V20.25z M12,17.25c0,1.062,2.245,2.25,5.25,2.25s5.25-1.188,5.25-2.25v-0.598
		C21.25,17.506,19.358,18,17.25,18s-4-0.494-5.25-1.348V17.25z M17.25,12C14.245,12,12,13.188,12,14.25s2.245,2.25,5.25,2.25
		s5.25-1.188,5.25-2.25S20.255,12,17.25,12z"/>
</g>
</svg>
