<svg width="28" height="28" viewBox="0 0 28 28" fill="none" xmlns="http://www.w3.org/2000/svg">
<path d="M19.2501 6.28896H24.172C24.3524 6.28896 24.5001 6.14131 24.5001 5.96084C24.5001 5.5124 24.2978 5.08584 23.9532 4.796L19.7368 1.28506C19.4688 1.06084 18.9603 0.880371 18.6103 0.880371C18.386 0.880371 18.2056 1.06084 18.2056 1.28506V5.2499C18.211 5.82412 18.6759 6.28896 19.2501 6.28896Z" fill="#9A99A2"/>
<path d="M16.7891 5.25V0.875H9.625C8.6625 0.875 7.875 1.6625 7.875 2.625V21C7.875 21.9625 8.6625 22.75 9.625 22.75H22.75C23.7125 22.75 24.5 21.9625 24.5 21V7.71094H19.25C17.8938 7.71094 16.7891 6.60625 16.7891 5.25Z" fill="#9A99A2"/>
<path d="M6.34375 22.5312V4.375H5.25C4.2875 4.375 3.5 5.1625 3.5 6.125V25.375C3.5 26.3375 4.2875 27.125 5.25 27.125H19.25C20.2125 27.125 21 26.3375 21 25.375V24.2812H8.09375C7.13125 24.2812 6.34375 23.4937 6.34375 22.5312Z" fill="#9A99A2"/>
</svg>
