<?xml version="1.0" encoding="utf-8"?>
<!-- Generator: Adobe Illustrator 22.1.0, SVG Export Plug-In . SVG Version: 6.00 Build 0)  -->
<svg version="1.1" id="Layer_1" xmlns="http://www.w3.org/2000/svg" xmlns:xlink="http://www.w3.org/1999/xlink" x="0px" y="0px"
	 viewBox="0 0 24 24" style="enable-background:new 0 0 24 24;" xml:space="preserve">
<title>dashboard</title>
<g>
	<path fill-rule="evenodd" clip-rule="evenodd" d="M12.75 14.4382C12.7509 14.888 12.3873 15.2535 11.9375 15.2549H5.4375C5.22143 15.2544 5.01439 15.1681 4.86199 15.0149C4.7096 14.8618 4.62434 14.6543 4.625 14.4382V5.44655C4.62456 5.2304 4.71 5.02292 4.86253 4.86977C5.01506 4.71661 5.22219 4.63032 5.43834 4.62988L11.9383 4.64072C12.3878 4.64255 12.7509 5.00792 12.75 5.45738V14.4382Z" stroke="#9A99A2" stroke-width="1.5" stroke-linecap="round" stroke-linejoin="round"/>
    <path fill-rule="evenodd" clip-rule="evenodd" d="M23.3717 9.45324C23.3685 9.89888 23.0048 10.2577 22.5592 10.2549H16.0592C15.8451 10.2565 15.6392 10.1728 15.4868 10.0225C15.3344 9.87211 15.248 9.66733 15.2467 9.45324V5.4424C15.2494 4.99722 15.6123 4.63843 16.0575 4.64074L22.5575 4.6299C23.0036 4.62667 23.368 4.98546 23.3717 5.43157V9.45324Z" stroke="#9A99A2" stroke-width="1.5" stroke-linecap="round" stroke-linejoin="round"/>
    <path fill-rule="evenodd" clip-rule="evenodd" d="M12.75 22.5757C12.7487 22.7903 12.6622 22.9956 12.5095 23.1464C12.3568 23.2973 12.1504 23.3812 11.9358 23.3799L5.43583 23.3691C4.99019 23.3709 4.6273 23.0114 4.625 22.5657V18.5582C4.6261 18.3439 4.71235 18.1388 4.86475 17.9882C5.01715 17.8375 5.22319 17.7536 5.4375 17.7549H11.9375C12.3836 17.7526 12.7472 18.1121 12.75 18.5582V22.5757Z" stroke="#9A99A2" stroke-width="1.5" stroke-linecap="round" stroke-linejoin="round"/>
    <path fill-rule="evenodd" clip-rule="evenodd" d="M16.06 23.3799C15.8437 23.3794 15.6365 23.293 15.4839 23.1397C15.3314 22.9864 15.246 22.7787 15.2467 22.5624V13.5724C15.246 13.3562 15.3312 13.1487 15.4836 12.9954C15.636 12.842 15.843 12.7555 16.0592 12.7549H22.5592C22.7753 12.7555 22.9824 12.842 23.1347 12.9954C23.2871 13.1487 23.3723 13.3562 23.3717 13.5724V22.5516C23.3726 23.0012 23.0096 23.3668 22.56 23.3691L16.06 23.3799Z" stroke="#9A99A2" stroke-width="1.5" stroke-linecap="round" stroke-linejoin="round"/>
</g>
</svg>