<svg width="28" height="28" viewBox="0 0 28 28" fill="none" xmlns="http://www.w3.org/2000/svg">
<path fill-rule="evenodd" clip-rule="evenodd" d="M14.001 3.87354C14.4152 3.87354 14.751 4.20932 14.751 4.62354V15.8735C14.751 16.2878 14.4152 16.6235 14.001 16.6235C13.5868 16.6235 13.251 16.2878 13.251 15.8735V4.62354C13.251 4.20932 13.5868 3.87354 14.001 3.87354Z" fill="#00DAFF"/>
<path fill-rule="evenodd" clip-rule="evenodd" d="M13.4706 4.09321C13.7635 3.80031 14.2384 3.80031 14.5313 4.09321L17.6563 7.21821C17.9492 7.5111 17.9492 7.98597 17.6563 8.27887C17.3634 8.57176 16.8885 8.57176 16.5956 8.27887L14.001 5.6842L11.4063 8.27887C11.1134 8.57176 10.6385 8.57176 10.3456 8.27887C10.0528 7.98597 10.0528 7.5111 10.3456 7.21821L13.4706 4.09321Z" fill="#00DAFF"/>
<path fill-rule="evenodd" clip-rule="evenodd" d="M10.1078 12.1738C10.4007 12.4666 10.4007 12.9415 10.1078 13.2344C7.96007 15.3823 7.96016 18.8647 10.108 21.0125C12.2559 23.1603 15.7382 23.1603 17.8861 21.0125C20.034 18.8647 20.0341 15.3823 17.8863 13.2344C17.5934 12.9415 17.5934 12.4666 17.8863 12.1738C18.1792 11.8809 18.6541 11.8809 18.947 12.1738C21.6805 14.9075 21.6804 19.3396 18.9468 22.0732C16.2131 24.8068 11.781 24.8068 9.04738 22.0732C6.31373 19.3396 6.31362 14.9075 9.04714 12.1738C9.34002 11.8809 9.81489 11.8809 10.1078 12.1738Z" fill="#00DAFF"/>
</svg>
