<svg width="28" height="28" viewBox="0 0 28 28" fill="none" xmlns="http://www.w3.org/2000/svg">
<path d="M13.9893 6.125C9.59243 6.125 6.12524 8.89219 1.97993 13.4148C1.67914 13.7484 1.67368 14.2461 1.97446 14.5797C5.52368 18.5008 8.6518 21.875 13.9893 21.875C19.2612 21.875 23.2151 17.6258 26.026 14.5469C26.3159 14.2297 26.3323 13.7484 26.0534 13.4148C23.1877 9.94219 19.2229 6.125 13.9893 6.125ZM14.2299 18.9164C11.3315 19.0477 8.94711 16.6633 9.08383 13.7703C9.19868 11.2438 11.244 9.19844 13.7706 9.08359C16.669 8.95234 19.0534 11.3367 18.9166 14.2297C18.8018 16.7563 16.7565 18.8016 14.2299 18.9164Z" fill="#9A99A2"/>
<path d="M13.9999 11.4297C13.9999 11.1016 14.0601 10.7898 14.1695 10.5055C14.1148 10.5055 14.0601 10.5 13.9999 10.5C11.982 10.5 10.3577 12.2172 10.5109 14.268C10.6421 15.9797 12.0202 17.3578 13.732 17.4891C15.7827 17.6422 17.4999 16.018 17.4999 14C17.4999 13.9289 17.4945 13.8578 17.4945 13.7867C17.1882 13.9234 16.8546 14 16.4991 14C15.121 14 13.9999 12.8461 13.9999 11.4297Z" fill="#9A99A2"/>
</svg>
