<?xml version="1.0" encoding="utf-8"?>
<!-- Generator: Adobe Illustrator 22.1.0, SVG Export Plug-In . SVG Version: 6.00 Build 0)  -->
<svg version="1.1" id="Layer_1" xmlns="http://www.w3.org/2000/svg" xmlns:xlink="http://www.w3.org/1999/xlink" x="0px" y="0px"
	 viewBox="0 0 24 24" style="enable-background:new 0 0 24 24;" xml:space="preserve">
<title>face-id</title>
<g>
	<path d="M12,19.385c-1.848,0-3.626-0.693-5.005-1.95c-0.148-0.135-0.235-0.319-0.244-0.52s0.06-0.392,0.195-0.54
		c0.142-0.156,0.344-0.245,0.554-0.245c0.187,0,0.367,0.07,0.505,0.196c1.102,1.004,2.521,1.557,3.995,1.557
		s2.893-0.553,3.995-1.557c0.138-0.126,0.318-0.196,0.505-0.196c0.21,0,0.413,0.089,0.554,0.245c0.135,0.148,0.204,0.34,0.195,0.54
		s-0.096,0.385-0.244,0.52C15.626,18.693,13.848,19.385,12,19.385z"/>
	<path d="M6.75,9.624C6.336,9.624,6,9.288,6,8.874v-2.25c0-0.414,0.336-0.75,0.75-0.75S7.5,6.21,7.5,6.624v2.25
		C7.5,9.288,7.164,9.624,6.75,9.624z"/>
	<path d="M17.25,9.624c-0.414,0-0.75-0.336-0.75-0.75v-2.25c0-0.414,0.336-0.75,0.75-0.75S18,6.21,18,6.624v2.25
		C18,9.288,17.664,9.624,17.25,9.624z"/>
	<path d="M9.75,14.124c-0.414,0-0.75-0.336-0.75-0.75s0.336-0.75,0.75-0.75h0.75c0.414,0,0.75-0.336,0.75-0.75v-5.25
		c0-0.414,0.336-0.75,0.75-0.75s0.75,0.336,0.75,0.75v5.25c0,1.241-1.009,2.25-2.25,2.25H9.75z"/>
	<path d="M18.75,23.874c-0.414,0-0.75-0.336-0.75-0.75s0.336-0.75,0.75-0.75h3c0.414,0,0.75-0.336,0.75-0.75v-3
		c0-0.414,0.336-0.75,0.75-0.75S24,18.21,24,18.624v3c0,1.241-1.009,2.25-2.25,2.25H18.75z"/>
	<path d="M23.25,5.874c-0.414,0-0.75-0.336-0.75-0.75v-3c0-0.414-0.336-0.75-0.75-0.75h-3c-0.414,0-0.75-0.336-0.75-0.75
		s0.336-0.75,0.75-0.75h3c1.241,0,2.25,1.009,2.25,2.25v3C24,5.538,23.664,5.874,23.25,5.874z"/>
	<path d="M0.75,5.874C0.336,5.874,0,5.538,0,5.124v-3c0-1.241,1.009-2.25,2.25-2.25h3C5.664-0.126,6,0.21,6,0.624
		s-0.336,0.75-0.75,0.75h-3c-0.414,0-0.75,0.336-0.75,0.75v3C1.5,5.538,1.164,5.874,0.75,5.874z"/>
	<path d="M2.25,23.874c-1.241,0-2.25-1.009-2.25-2.25v-3c0-0.414,0.336-0.75,0.75-0.75s0.75,0.336,0.75,0.75v3
		c0,0.414,0.336,0.75,0.75,0.75h3c0.414,0,0.75,0.336,0.75,0.75s-0.336,0.75-0.75,0.75H2.25z"/>
</g>
</svg>
