<?xml version="1.0" encoding="utf-8"?>
<!-- Generator: Adobe Illustrator 22.1.0, SVG Export Plug-In . SVG Version: 6.00 Build 0)  -->
<svg version="1.1" id="Layer_1" xmlns="http://www.w3.org/2000/svg" xmlns:xlink="http://www.w3.org/1999/xlink" x="0px" y="0px"
	 viewBox="0 0 24 24" style="enable-background:new 0 0 24 24;" xml:space="preserve">
<title>failed</title>
<g>
	<path d="M11.998,24c-3.174,0-6.166-1.231-8.43-3.468c-0.018-0.012-0.038-0.028-0.058-0.049c-0.013-0.013-0.028-0.032-0.042-0.051
		C1.231,18.169-0.002,15.176-0.002,12c0-3.174,1.232-6.167,3.469-8.43c0.012-0.017,0.027-0.036,0.046-0.055
		c0.014-0.014,0.033-0.029,0.052-0.043C5.829,1.232,8.822,0,11.998,0c3.176,0,6.17,1.233,8.433,3.471
		c0.015,0.011,0.032,0.024,0.049,0.041c0.014,0.014,0.029,0.032,0.043,0.051c2.241,2.264,3.475,5.259,3.475,8.437
		c0,3.177-1.233,6.171-3.472,8.434c-0.011,0.016-0.026,0.033-0.043,0.051c-0.013,0.013-0.031,0.028-0.049,0.041
		C18.17,22.767,15.176,24,11.998,24z M5.128,19.931c1.912,1.66,4.336,2.569,6.87,2.569c2.533,0,4.958-0.909,6.87-2.569l-6.87-6.871
		L5.128,19.931z M19.928,18.871c1.66-1.912,2.57-4.337,2.57-6.871s-0.91-4.959-2.57-6.871L13.058,12L19.928,18.871z M4.067,5.13
		C2.407,7.042,1.498,9.466,1.498,12s0.91,4.958,2.569,6.87l6.87-6.87L4.067,5.13z M11.998,10.939l6.87-6.87
		c-1.912-1.66-4.336-2.569-6.87-2.569c-2.534,0-4.958,0.91-6.87,2.569L11.998,10.939z"/>
</g>
</svg>
