<?xml version="1.0" encoding="utf-8"?>
<!-- Generator: Adobe Illustrator 22.1.0, SVG Export Plug-In . SVG Version: 6.00 Build 0)  -->
<svg version="1.1" id="Layer_1" xmlns="http://www.w3.org/2000/svg" xmlns:xlink="http://www.w3.org/1999/xlink" x="0px" y="0px"
	 viewBox="0 0 24 24" style="enable-background:new 0 0 24 24;" xml:space="preserve">
<title>flash-off</title>
<g>
	<path d="M16.961,13.497c-0.139,0-0.275-0.039-0.393-0.112c-0.17-0.105-0.29-0.27-0.336-0.465c-0.046-0.195-0.014-0.396,0.091-0.567
		l0.887-1.441c0.039-0.063,0.05-0.134,0.033-0.206c-0.017-0.072-0.059-0.131-0.122-0.169c-0.043-0.027-0.093-0.041-0.143-0.041H13.5
		c-0.414,0-0.75-0.336-0.75-0.75V3.398l-1.842,2.995c-0.138,0.224-0.377,0.357-0.64,0.357l0,0c-0.138,0-0.274-0.038-0.392-0.111
		c-0.171-0.105-0.29-0.27-0.337-0.465C9.493,5.979,9.525,5.778,9.63,5.607l3.231-5.253c0.137-0.224,0.375-0.357,0.638-0.357
		c0.069,0,0.137,0.01,0.204,0.028c0.322,0.091,0.546,0.388,0.546,0.722v8.25h2.727c0.328,0,0.649,0.091,0.928,0.263
		c0.403,0.248,0.686,0.638,0.796,1.099c0.11,0.461,0.033,0.937-0.215,1.34L17.6,13.14C17.462,13.364,17.223,13.497,16.961,13.497z"
		/>
	<path d="M10.5,23.997c-0.069,0-0.137-0.01-0.203-0.028c-0.322-0.091-0.547-0.388-0.547-0.722v-8.25H7.023
		c-0.329,0-0.65-0.091-0.93-0.263c-0.832-0.513-1.092-1.606-0.58-2.438L6.4,10.854c0.137-0.224,0.376-0.357,0.639-0.357
		c0.138,0,0.274,0.038,0.392,0.111c0.353,0.217,0.463,0.68,0.246,1.032l-0.887,1.442c-0.038,0.062-0.05,0.135-0.033,0.206
		s0.06,0.131,0.122,0.169c0.043,0.027,0.092,0.041,0.142,0.041H10.5c0.414,0,0.75,0.336,0.75,0.75v6.352l1.842-2.992
		c0.137-0.224,0.376-0.357,0.639-0.357c0.139,0,0.275,0.039,0.393,0.112c0.17,0.105,0.29,0.27,0.336,0.465
		c0.046,0.195,0.014,0.396-0.091,0.567l-3.231,5.247C11.003,23.86,10.759,23.997,10.5,23.997z"/>
	<path d="M21.75,22.497c-0.2,0-0.389-0.078-0.53-0.22l-19.5-19.5C1.578,2.636,1.5,2.448,1.5,2.247s0.078-0.389,0.22-0.53
		c0.141-0.142,0.33-0.22,0.53-0.22s0.389,0.078,0.53,0.22l19.5,19.5c0.142,0.142,0.22,0.33,0.22,0.53s-0.078,0.389-0.22,0.53
		S21.95,22.497,21.75,22.497z"/>
</g>
</svg>
