<?xml version="1.0" encoding="utf-8"?>
<!-- Generator: Adobe Illustrator 22.1.0, SVG Export Plug-In . SVG Version: 6.00 Build 0)  -->
<svg version="1.1" id="Layer_1" xmlns="http://www.w3.org/2000/svg" xmlns:xlink="http://www.w3.org/1999/xlink" x="0px" y="0px"
	 viewBox="0 0 24 24" style="enable-background:new 0 0 24 24;" xml:space="preserve">
<title>login-1</title>
<g>
	<path d="M11.249,16.504c-0.2,0-0.389-0.078-0.53-0.22l-3.75-3.75c-0.009-0.009-0.019-0.02-0.028-0.031
		c-0.023-0.026-0.045-0.052-0.064-0.081c-0.009-0.014-0.023-0.038-0.031-0.053c-0.008-0.012-0.025-0.043-0.039-0.076
		c-0.006-0.015-0.016-0.043-0.02-0.059c-0.008-0.023-0.017-0.052-0.023-0.082c-0.01-0.048-0.015-0.098-0.015-0.148
		s0.005-0.1,0.015-0.148c0.006-0.031,0.015-0.06,0.025-0.088c0.004-0.014,0.01-0.033,0.018-0.051
		c0.014-0.033,0.031-0.065,0.049-0.096c0.007-0.012,0.015-0.025,0.021-0.035c0.026-0.039,0.057-0.077,0.092-0.112l3.75-3.75
		c0.142-0.142,0.33-0.22,0.53-0.22s0.389,0.078,0.53,0.22c0.142,0.141,0.22,0.33,0.22,0.53s-0.078,0.389-0.22,0.53l-2.47,2.47
		h13.939c0.414,0,0.75,0.336,0.75,0.75c0,0.413-0.336,0.75-0.75,0.75H9.309l2.47,2.47c0.292,0.292,0.292,0.768,0,1.061
		C11.637,16.426,11.449,16.504,11.249,16.504z"/>
	<path d="M2.093,23.25C0.885,23.189-0.055,22.165,0,20.966L-0.001,3c-0.055-1.172,0.876-2.189,2.076-2.249l12.31-0.001
		c1.228,0.06,2.167,1.085,2.113,2.284L16.499,7.5c0,0.414-0.336,0.75-0.75,0.75s-0.75-0.336-0.75-0.75V3
		c0.018-0.403-0.275-0.732-0.652-0.751L2.112,2.25C1.771,2.268,1.481,2.596,1.498,2.966L1.499,21
		c-0.018,0.403,0.275,0.732,0.651,0.751l12.235-0.001c0.341-0.018,0.632-0.346,0.615-0.716L14.999,16.5
		c0-0.414,0.336-0.75,0.75-0.75s0.75,0.336,0.75,0.75V21c0.054,1.173-0.878,2.189-2.077,2.249L2.112,23.25
		C2.106,23.25,2.099,23.25,2.093,23.25z"/>
</g>
</svg>
