<?xml version="1.0" encoding="utf-8"?>
<!-- Generator: Adobe Illustrator 22.1.0, SVG Export Plug-In . SVG Version: 6.00 Build 0)  -->
<svg version="1.1" id="Layer_1" xmlns="http://www.w3.org/2000/svg" xmlns:xlink="http://www.w3.org/1999/xlink" x="0px" y="0px"
	 viewBox="0 0 24 24" style="enable-background:new 0 0 24 24;" xml:space="preserve">
<title>key-lock-1</title>
<g>
	<path d="M3.75,24C1.682,24,0,22.318,0,20.25s1.682-3.75,3.75-3.75c1.799,0,3.323,1.268,3.673,3h6.827c0.414,0,0.75,0.336,0.75,0.75
		v2.25c0,0.414-0.336,0.75-0.75,0.75s-0.75-0.336-0.75-0.75V21H12v0.75c0,0.414-0.336,0.75-0.75,0.75s-0.75-0.336-0.75-0.75V21
		H7.423C7.073,22.732,5.549,24,3.75,24z M3.75,18c-1.241,0-2.25,1.009-2.25,2.25s1.009,2.25,2.25,2.25S6,21.491,6,20.25
		S4.991,18,3.75,18z"/>
	<path d="M17.25,24c-0.414,0-0.75-0.336-0.75-0.75s0.336-0.75,0.75-0.75h4.5c0.414,0,0.75-0.336,0.75-0.75v-10.5
		c0-0.414-0.336-0.75-0.75-0.75H8.25c-0.414,0-0.75,0.336-0.75,0.75V15c0,0.414-0.336,0.75-0.75,0.75S6,15.414,6,15v-3.75
		C6,10.009,7.009,9,8.25,9H9V6c0-3.308,2.692-6,6-6c3.308,0,6,2.692,6,6v3h0.75C22.991,9,24,10.009,24,11.25v10.5
		c0,1.241-1.009,2.25-2.25,2.25H17.25z M19.5,9V6c0-2.481-2.019-4.5-4.5-4.5S10.5,3.519,10.5,6v3H19.5z"/>
	<path d="M16.522,18.906c-0.209,0-0.411-0.088-0.552-0.243c-0.135-0.147-0.206-0.339-0.197-0.539c0.008-0.2,0.094-0.385,0.242-0.521
		c0.458-0.421,0.609-1.091,0.375-1.667c-0.23-0.57-0.777-0.938-1.393-0.938c-0.192,0-0.381,0.037-0.56,0.11
		c-0.372,0.15-0.662,0.436-0.819,0.805c-0.156,0.369-0.16,0.777-0.009,1.148c0.075,0.186,0.073,0.389-0.005,0.574
		c-0.078,0.185-0.224,0.328-0.41,0.403c-0.091,0.036-0.185,0.055-0.281,0.055c-0.307,0-0.58-0.184-0.695-0.469
		c-0.3-0.743-0.294-1.558,0.019-2.296c0.312-0.738,0.894-1.31,1.637-1.61c0.359-0.145,0.737-0.219,1.122-0.219
		c1.231,0,2.324,0.736,2.785,1.875c0.467,1.153,0.165,2.493-0.751,3.334C16.891,18.836,16.71,18.906,16.522,18.906z"/>
</g>
</svg>
