<svg width="24" height="24" viewBox="0 0 24 24" fill="none" xmlns="http://www.w3.org/2000/svg">
<path d="M16.8562 9.92734C16.1453 9.92734 15.4562 9.92734 14.8109 10.1516C12.0437 7.79453 4.73202 1.57109 4.17421 0.991406C3.91718 0.723438 3.6328 0.625 3.3539 0.625C2.88905 0.625 2.44061 0.909375 2.18905 1.15C1.81171 1.51094 0.384364 3.05312 0.657802 3.3375C1.47811 4.17969 1.69686 4.34922 2.03593 4.69375C2.54452 5.21328 3.58358 4.63906 4.00468 4.81953C4.4203 5 4.5078 5.19141 4.57343 5.50312C4.63905 5.81484 4.41483 6.36719 4.40936 6.79922C4.4039 7.25312 4.5953 7.49922 4.91249 7.83828C5.16405 8.11172 5.39921 8.30859 5.76561 8.31406C6.2578 8.325 6.90858 7.61406 7.42811 8.14453C7.94765 8.675 7.08905 9.44063 7.15468 10.0039C7.2203 10.5672 8.00233 11.2508 8.33593 11.3219C8.66952 11.393 9.52811 10.682 10.0148 10.7914C10.1789 10.8297 10.5617 11.1633 10.6164 11.4148C10.6711 11.6664 10.2391 12.782 10.2937 13.0336C10.3594 13.3398 10.682 13.6953 10.8625 13.9852C10.4961 14.8328 10.3484 15.6039 10.3484 16.5938C10.3484 20.3398 13.2687 23.375 16.8672 23.375C20.4656 23.375 23.375 20.3398 23.375 16.5938C23.375 12.8477 20.4547 9.92734 16.8562 9.92734ZM18.125 19.875C17.157 19.875 16.375 19.093 16.375 18.125C16.375 17.157 17.157 16.375 18.125 16.375C19.093 16.375 19.875 17.157 19.875 18.125C19.875 19.093 19.093 19.875 18.125 19.875Z" fill="#9A99A2"/>
</svg>