<?xml version="1.0" encoding="utf-8"?>
<!-- Generator: Adobe Illustrator 22.1.0, SVG Export Plug-In . SVG Version: 6.00 Build 0)  -->
<svg version="1.1" id="Layer_1" xmlns="http://www.w3.org/2000/svg" xmlns:xlink="http://www.w3.org/1999/xlink" x="0px" y="0px"
	 viewBox="0 0 24 24" style="enable-background:new 0 0 24 24;" xml:space="preserve">
<title>keyboard-shift</title>
<g>
	<path d="M6.75,23.999c-1.241,0-2.25-1.009-2.25-2.25v-8.25h-3c-0.367,0-0.719-0.134-0.994-0.377
		c-0.3-0.265-0.479-0.632-0.503-1.032c-0.024-0.4,0.108-0.786,0.374-1.086l9.99-10.304c0.023-0.025,0.057-0.059,0.093-0.093
		C10.879,0.216,11.425,0,11.999,0c0.62,0,1.219,0.259,1.642,0.71l9.96,10.271c0.264,0.299,0.398,0.646,0.399,1.016
		c0.001,0.827-0.672,1.501-1.499,1.502H19.5v8.25c0,1.241-1.009,2.25-2.25,2.25H6.75z M5.25,11.999c0.414,0,0.75,0.336,0.75,0.75v9
		c0,0.414,0.336,0.75,0.75,0.75h10.5c0.414,0,0.75-0.336,0.75-0.75v-9c0-0.414,0.336-0.75,0.75-0.75h3.75L12.556,1.745
		c-0.15-0.16-0.346-0.245-0.557-0.245c-0.191,0-0.372,0.072-0.511,0.202c-0.011,0.011-9.98,10.292-9.98,10.292L5.25,11.999z"/>
</g>
</svg>
