<?xml version="1.0" encoding="utf-8"?>
<!-- Generator: Adobe Illustrator 22.1.0, SVG Export Plug-In . SVG Version: 6.00 Build 0)  -->
<svg version="1.1" id="Layer_1" xmlns="http://www.w3.org/2000/svg" xmlns:xlink="http://www.w3.org/1999/xlink" x="0px" y="0px"
	 viewBox="0 0 24 24" style="enable-background:new 0 0 24 24;" xml:space="preserve">
<title>keyboard-delete</title>
<g>
	<path d="M16.5,14.997c-0.2,0-0.389-0.078-0.53-0.22l-1.72-1.72l-1.72,1.72c-0.142,0.142-0.33,0.22-0.53,0.22
		s-0.389-0.078-0.53-0.22c-0.292-0.292-0.292-0.768,0-1.061l1.72-1.72l-1.72-1.72c-0.142-0.141-0.22-0.33-0.22-0.53
		s0.078-0.389,0.22-0.53c0.141-0.142,0.33-0.22,0.53-0.22s0.389,0.078,0.53,0.22l1.72,1.72l1.72-1.72
		c0.142-0.142,0.33-0.22,0.53-0.22s0.389,0.078,0.53,0.22c0.142,0.141,0.22,0.33,0.22,0.53s-0.078,0.389-0.22,0.53l-1.72,1.72
		l1.72,1.72c0.292,0.292,0.292,0.768,0,1.061C16.889,14.919,16.7,14.997,16.5,14.997z"/>
	<path d="M11.121,18.75c-0.601,0-1.166-0.234-1.59-0.659l-5.325-5.018C3.912,12.78,3.753,12.402,3.752,12
		c-0.002-0.401,0.154-0.779,0.437-1.062L9.547,5.89c0.412-0.41,0.973-0.64,1.572-0.64H18c1.241,0,2.25,1.009,2.25,2.25v9
		c0,1.241-1.009,2.25-2.25,2.25H11.121z M10.575,17.015c0.152,0.152,0.348,0.235,0.546,0.235H18c0.414,0,0.75-0.336,0.75-0.75v-9
		c0-0.414-0.336-0.75-0.75-0.75c0,0-6.885,0-6.889,0c-0.21,0.008-0.387,0.084-0.521,0.218l-5.339,5.029L10.575,17.015z"/>
</g>
</svg>
