<?xml version="1.0" encoding="utf-8"?>
<!-- Generator: Adobe Illustrator 22.1.0, SVG Export Plug-In . SVG Version: 6.00 Build 0)  -->
<svg version="1.1" id="Layer_1" xmlns="http://www.w3.org/2000/svg" xmlns:xlink="http://www.w3.org/1999/xlink" x="0px" y="0px"
	 viewBox="0 0 24 24" style="enable-background:new 0 0 24 24;" xml:space="preserve">
<title>laptop</title>
<g>
	<path d="M2.249,21.75c-1.241,0-2.25-1.009-2.25-2.25c0-0.317,0.065-0.625,0.194-0.914l2.056-4.5V4.5c0-1.241,1.009-2.25,2.25-2.25
		h15c1.241,0,2.25,1.009,2.25,2.25v9.587c0,0,2.055,4.495,2.057,4.5c0.503,1.134-0.009,2.466-1.143,2.97
		c-0.29,0.128-0.597,0.194-0.914,0.194H2.249z M1.56,19.203c-0.04,0.091-0.061,0.192-0.061,0.298c0,0.413,0.337,0.75,0.75,0.75h19.5
		c0.106,0,0.208-0.022,0.305-0.065c0.377-0.167,0.548-0.611,0.381-0.989L20.517,15H3.481L1.56,19.203z M20.249,13.5v-9
		c0-0.414-0.336-0.75-0.75-0.75h-15c-0.414,0-0.75,0.336-0.75,0.75v9H20.249z"/>
	<path d="M10.499,18.75c-0.414,0-0.75-0.336-0.75-0.75s0.336-0.75,0.75-0.75h3c0.414,0,0.75,0.336,0.75,0.75s-0.336,0.75-0.75,0.75
		H10.499z"/>
</g>
</svg>
