<?xml version="1.0" encoding="utf-8"?>
<!-- Generator: Adobe Illustrator 22.1.0, SVG Export Plug-In . SVG Version: 6.00 Build 0)  -->
<svg version="1.1" id="Layer_1" xmlns="http://www.w3.org/2000/svg" xmlns:xlink="http://www.w3.org/1999/xlink" x="0px" y="0px"
	 viewBox="0 0 24 24" style="enable-background:new 0 0 24 24;" xml:space="preserve">
<title>megaphone</title>
<g>
	<path d="M9,21.25c-0.193,0-0.377-0.073-0.517-0.207C7.098,19.726,6.218,17.904,6.036,16H4.5C2.019,16,0,13.981,0,11.5
		C0,9.019,2.019,7,4.5,7h2.25c4.267,0,8.399-1.251,11.95-3.618l1.134-0.756C19.958,2.544,20.102,2.5,20.25,2.5
		c0.123,0,0.246,0.031,0.354,0.089C20.848,2.719,21,2.973,21,3.25v16.5c0,0.277-0.152,0.531-0.396,0.661
		c-0.108,0.058-0.23,0.089-0.354,0.089c-0.148,0-0.292-0.043-0.416-0.126L18.7,19.618c-3.32-2.213-7.168-3.453-11.153-3.6
		c0.18,1.489,0.885,2.906,1.97,3.938c0.3,0.285,0.312,0.761,0.027,1.06C9.402,21.165,9.204,21.25,9,21.25z M7.5,14.512
		c4.283,0.138,8.423,1.461,12,3.836V4.651c-3.576,2.375-7.717,3.698-12,3.837V14.512z M4.5,8.5c-1.654,0-3,1.346-3,3
		c0,1.654,1.346,3,3,3H6v-6H4.5z"/>
	<path d="M23.25,13.75c-0.414,0-0.75-0.336-0.75-0.75v-3c0-0.414,0.336-0.75,0.75-0.75S24,9.586,24,10v3
		C24,13.414,23.664,13.75,23.25,13.75z"/>
</g>
</svg>
