<?xml version="1.0" encoding="utf-8"?>
<!-- Generator: Adobe Illustrator 22.1.0, SVG Export Plug-In . SVG Version: 6.00 Build 0)  -->
<svg version="1.1" id="Layer_1" xmlns="http://www.w3.org/2000/svg" xmlns:xlink="http://www.w3.org/1999/xlink" x="0px" y="0px"
	 viewBox="0 0 24 24" style="enable-background:new 0 0 24 24;" xml:space="preserve">
<title>money-wallet-1</title>
<g>
	<path d="M3,23.25c-1.654,0-3-1.346-3-3V3.75c0-1.654,1.346-3,3-3h15.75C19.991,0.75,21,1.759,21,3v1.629
		c0.885,0.314,1.5,1.162,1.5,2.121v3.129C23.385,10.192,24,11.04,24,12v4.5c0,0.96-0.615,1.808-1.5,2.121V21
		c0,1.241-1.009,2.25-2.25,2.25H3z M3,2.25c-0.827,0-1.5,0.673-1.5,1.5v16.5c0,0.827,0.673,1.5,1.5,1.5h17.25
		c0.414,0,0.75-0.336,0.75-0.75v-2.25h-3c-2.481,0-4.5-2.019-4.5-4.5c0-2.481,2.019-4.5,4.5-4.5h3v-3C21,6.336,20.664,6,20.25,6
		H5.625C5.604,6.001,5.566,6.002,5.527,6.002c-0.896,0-1.727-0.491-2.17-1.28C3.155,4.361,3.283,3.903,3.644,3.701
		c0.112-0.063,0.239-0.096,0.367-0.096c0.271,0,0.522,0.147,0.654,0.383C4.846,4.31,5.172,4.502,5.539,4.502l0.05-0.001L19.5,4.5V3
		c0-0.414-0.336-0.75-0.75-0.75H3z M18,11.25c-1.654,0-3,1.346-3,3s1.346,3,3,3h3.75c0.414,0,0.75-0.336,0.75-0.75V12
		c0-0.414-0.336-0.75-0.75-0.75H18z"/>
	<circle cx="18" cy="14.25" r="1.125"/>
</g>
</svg>
