<?xml version="1.0" encoding="utf-8"?>
<!-- Generator: Adobe Illustrator 22.1.0, SVG Export Plug-In . SVG Version: 6.00 Build 0)  -->
<svg version="1.1" id="Layer_1" xmlns="http://www.w3.org/2000/svg" xmlns:xlink="http://www.w3.org/1999/xlink" x="0px" y="0px"
	 viewBox="0 0 24 24" style="enable-background:new 0 0 24 24;" xml:space="preserve">
<title>monitor</title>
<g>
	<path d="M6,24c-0.414,0-0.75-0.336-0.75-0.75S5.586,22.5,6,22.5h1.615l0.5-3H3.75C1.682,19.5,0,17.818,0,15.75v-12
		C0,1.682,1.682,0,3.75,0h16.5C22.318,0,24,1.682,24,3.75v12c0,2.068-1.682,3.75-3.75,3.75h-4.365l0.5,3H18
		c0.414,0,0.75,0.336,0.75,0.75S18.414,24,18,24H6z M14.865,22.5l-0.5-3H9.635l-0.5,3H14.865z M1.632,16.5
		C1.945,17.379,2.79,18,3.75,18h16.5c0.96,0,1.805-0.621,2.118-1.5H1.632z M22.5,15V3.75c0-1.241-1.009-2.25-2.25-2.25H3.75
		C2.509,1.5,1.5,2.509,1.5,3.75V15H22.5z"/>
</g>
</svg>
