<?xml version="1.0" encoding="utf-8"?>
<!-- Generator: Adobe Illustrator 22.1.0, SVG Export Plug-In . SVG Version: 6.00 Build 0)  -->
<svg version="1.1" id="Layer_1" xmlns="http://www.w3.org/2000/svg" xmlns:xlink="http://www.w3.org/1999/xlink" x="0px" y="0px"
	 viewBox="0 0 24 24" style="enable-background:new 0 0 24 24;" xml:space="preserve">
<title>notes-list</title>
<g>
	<path d="M2.25,21C1.009,21,0,19.991,0,18.75V2.25C0,1.009,1.009,0,2.25,0h16.5C19.991,0,21,1.009,21,2.25v8.379
		c0,0.317-0.066,0.625-0.196,0.916c-0.12,0.263-0.273,0.485-0.463,0.674l-8.122,8.122c-0.189,0.189-0.411,0.343-0.659,0.456
		c-0.004,0.002-0.021,0.01-0.025,0.011C11.254,20.934,10.946,21,10.629,21H2.25z M2.25,1.5C1.836,1.5,1.5,1.836,1.5,2.25v16.5
		c0,0.414,0.336,0.75,0.75,0.75h8.25v-6.75c0-1.241,1.009-2.25,2.25-2.25h6.75V2.25c0-0.414-0.336-0.75-0.75-0.75H2.25z M12.75,12
		C12.336,12,12,12.336,12,12.75v5.689L18.439,12H12.75z"/>
	<path d="M6.75,24C6.336,24,6,23.664,6,23.25s0.336-0.75,0.75-0.75h15c0.414,0,0.75-0.336,0.75-0.75V10.5
		c0-0.414,0.336-0.75,0.75-0.75S24,10.086,24,10.5v11.25c0,1.241-1.009,2.25-2.25,2.25H6.75z"/>
</g>
</svg>
