<?xml version="1.0" encoding="utf-8"?>
<!-- Generator: Adobe Illustrator 22.1.0, SVG Export Plug-In . SVG Version: 6.00 Build 0)  -->
<svg version="1.1" id="Layer_1" xmlns="http://www.w3.org/2000/svg" xmlns:xlink="http://www.w3.org/1999/xlink" x="0px" y="0px"
	 viewBox="0 0 24 24" style="enable-background:new 0 0 24 24;" xml:space="preserve">
<title>logout-1</title>
<g>
	<path d="M19.499,16.504c-0.2,0-0.389-0.078-0.53-0.22c-0.292-0.292-0.292-0.768,0-1.061l2.47-2.47H7.499
		c-0.414,0-0.75-0.336-0.75-0.75c0-0.414,0.336-0.75,0.75-0.75h13.939l-2.47-2.47c-0.142-0.141-0.22-0.33-0.22-0.53
		s0.078-0.389,0.22-0.53s0.33-0.22,0.53-0.22s0.389,0.078,0.53,0.22l3.75,3.75c0.035,0.035,0.066,0.073,0.094,0.114
		c0.007,0.01,0.015,0.025,0.022,0.038c0.017,0.028,0.032,0.057,0.045,0.087c0.007,0.016,0.016,0.045,0.021,0.061
		c0.008,0.02,0.017,0.051,0.023,0.084c0.009,0.043,0.015,0.094,0.015,0.146c0,0.05-0.005,0.1-0.015,0.148
		c-0.006,0.03-0.015,0.059-0.025,0.088c-0.004,0.016-0.012,0.038-0.021,0.058c-0.009,0.023-0.025,0.053-0.043,0.083
		c-0.001,0.003-0.01,0.021-0.021,0.037c-0.022,0.032-0.042,0.057-0.064,0.081c-0.001,0.003-0.015,0.02-0.031,0.035l-3.75,3.75
		C19.887,16.426,19.699,16.504,19.499,16.504z"/>
	<path d="M2.093,23.25C0.885,23.189-0.055,22.165,0,20.966L-0.001,3c-0.055-1.172,0.876-2.189,2.076-2.249l12.31-0.001
		c1.228,0.06,2.167,1.085,2.113,2.284L16.499,7.5c0,0.414-0.336,0.75-0.75,0.75s-0.75-0.336-0.75-0.75V3
		c0.018-0.403-0.275-0.732-0.652-0.751L2.112,2.25C1.771,2.268,1.481,2.596,1.498,2.966L1.499,21
		c-0.018,0.403,0.275,0.732,0.651,0.751l12.235-0.001c0.341-0.018,0.632-0.346,0.615-0.716L14.999,16.5
		c0-0.414,0.336-0.75,0.75-0.75s0.75,0.336,0.75,0.75V21c0.054,1.173-0.878,2.189-2.077,2.249L2.112,23.25
		C2.106,23.25,2.099,23.25,2.093,23.25z"/>
</g>
</svg>
