<?xml version="1.0" encoding="utf-8"?>
<!-- Generator: Adobe Illustrator 22.1.0, SVG Export Plug-In . SVG Version: 6.00 Build 0)  -->
<svg version="1.1" id="Layer_1" xmlns="http://www.w3.org/2000/svg" xmlns:xlink="http://www.w3.org/1999/xlink" x="0px" y="0px"
	 viewBox="0 0 24 24" style="enable-background:new 0 0 24 24;" xml:space="preserve">
<title>performance-money-increase</title>
<g>
	<path d="M0.75,12c-0.229,0-0.443-0.103-0.586-0.281c-0.258-0.323-0.206-0.796,0.117-1.054l6.614-5.292
		c0.396-0.317,0.895-0.491,1.406-0.491c0.473,0,0.925,0.145,1.308,0.418l3.293,2.351c0.129,0.092,0.28,0.141,0.437,0.141
		c0.199,0,0.387-0.078,0.53-0.221l6.07-6.07H15.75C15.336,1.5,15,1.164,15,0.75S15.336,0,15.75,0h6c0.089,0,0.176,0.016,0.261,0.048
		c0.011,0.004,0.022,0.008,0.031,0.012c0.176,0.073,0.325,0.221,0.401,0.405c0.003,0.008,0.007,0.017,0.01,0.026
		C22.484,0.572,22.5,0.661,22.5,0.75v6c0,0.414-0.336,0.75-0.75,0.75S21,7.164,21,6.75V2.561l-6.07,6.07
		c-0.426,0.426-0.991,0.661-1.59,0.661l0,0c-0.471,0-0.923-0.146-1.309-0.421L8.737,6.519C8.61,6.429,8.459,6.381,8.301,6.381
		c-0.171,0-0.337,0.058-0.469,0.163l-6.614,5.292C1.086,11.942,0.92,12,0.75,12z"/>
	<path d="M3,24c-0.827,0-1.5-0.673-1.5-1.5V21C0.673,21,0,20.327,0,19.5V18c0-0.827,0.673-1.5,1.5-1.5V15c0-0.827,0.673-1.5,1.5-1.5
		h7.5c0.827,0,1.5,0.673,1.5,1.5v1.5c0,0.827-0.673,1.5-1.5,1.5v1.5c0.827,0,1.5,0.673,1.5,1.5v1.5c0,0.827-0.673,1.5-1.5,1.5H3z
		 M3,22.5h7.5V21H3V22.5z M1.5,19.5H9V18H1.5V19.5z M3,16.5h7.5V15H3V16.5z"/>
	<path d="M15,24c-0.827,0-1.5-0.673-1.5-1.5V21c-0.827,0-1.5-0.673-1.5-1.5V18c0-0.827,0.673-1.5,1.5-1.5V15
		c0-0.264,0.072-0.522,0.205-0.75c-0.134-0.228-0.205-0.486-0.205-0.75V12c0-0.827,0.673-1.5,1.5-1.5h7.5c0.827,0,1.5,0.673,1.5,1.5
		v1.5c0,0.264-0.072,0.522-0.205,0.75C23.928,14.478,24,14.736,24,15v1.5c0,0.827-0.673,1.5-1.5,1.5v1.5c0.827,0,1.5,0.673,1.5,1.5
		v1.5c0,0.827-0.673,1.5-1.5,1.5H15z M15,22.5h7.5V21H15V22.5z M13.5,19.5H21V18h-7.5V19.5z M15,16.5h7.5V15H15V16.5z M15,13.5h7.5
		V12H15V13.5z"/>
</g>
</svg>
