<?xml version="1.0" encoding="utf-8"?>
<!-- Generator: Adobe Illustrator 22.1.0, SVG Export Plug-In . SVG Version: 6.00 Build 0)  -->
<svg version="1.1" id="Layer_1" xmlns="http://www.w3.org/2000/svg" xmlns:xlink="http://www.w3.org/1999/xlink" x="0px" y="0px"
	 viewBox="0 0 24 24" style="enable-background:new 0 0 24 24;" xml:space="preserve">
<title>products-give-gift</title>
<g>
	<path d="M0.75,23.98C0.336,23.98,0,23.644,0,23.23v-6c0-0.414,0.336-0.75,0.75-0.75H6c1.8,0,3.324,1.268,3.675,3h3.075
		c2.068,0,3.75,1.682,3.75,3.75c0,0.414-0.336,0.75-0.75,0.75H0.75z M14.871,22.48c-0.313-0.879-1.159-1.5-2.121-1.5H6
		c-0.414,0-0.75-0.336-0.75-0.75S5.586,19.48,6,19.48h2.118C7.805,18.601,6.96,17.98,6,17.98H1.5v4.5H14.871z"/>
	<path d="M11.25,17.98c-0.414,0-0.75-0.336-0.75-0.75s0.336-0.75,0.75-0.75h3v-6H9v3.75c0,0.414-0.336,0.75-0.75,0.75
		S7.5,14.644,7.5,14.23v-3.75c-0.827,0-1.5-0.673-1.5-1.5V6.73c0-0.827,0.673-1.5,1.5-1.5h3.888
		c-0.387-0.24-0.761-0.501-1.117-0.781c-0.024-0.019-0.047-0.04-0.069-0.062C9.39,3.576,8.995,2.841,8.996,2.142
		c0.001-0.528,0.228-1.021,0.676-1.466c0.452-0.449,0.948-0.677,1.472-0.677c0.695,0,1.428,0.395,2.242,1.209
		c0.021,0.02,0.041,0.043,0.06,0.068c0.62,0.79,1.141,1.648,1.555,2.56c0.414-0.911,0.934-1.77,1.554-2.56
		c0.021-0.026,0.039-0.047,0.059-0.066c0.815-0.815,1.549-1.21,2.244-1.21c0.525,0,1.02,0.228,1.472,0.677
		c0.454,0.45,0.675,0.93,0.676,1.466c0.001,0.699-0.395,1.434-1.209,2.248c-0.022,0.022-0.044,0.041-0.066,0.059
		c-0.357,0.28-0.731,0.541-1.118,0.782H22.5c0.827,0,1.5,0.673,1.5,1.5v2.25c0,0.827-0.673,1.5-1.5,1.5v6c0,0.827-0.673,1.5-1.5,1.5
		H11.25z M21,16.48v-6h-5.25v6H21z M22.5,8.98V6.73h-6.75v2.25H22.5z M7.5,8.98h6.75V6.73H7.5V8.98z M17.706,2.237
		c-0.609,0.784-1.107,1.637-1.485,2.545c0.908-0.378,1.761-0.876,2.545-1.485c0.666-0.674,0.738-1.031,0.738-1.153
		c0-0.08-0.027-0.199-0.233-0.404c-0.147-0.146-0.248-0.235-0.405-0.235C18.709,1.506,18.351,1.601,17.706,2.237z M11.233,3.297
		c0.784,0.609,1.637,1.107,2.546,1.485c-0.378-0.908-0.875-1.762-1.485-2.545c-0.644-0.636-1.003-0.731-1.16-0.731
		s-0.258,0.089-0.405,0.235c-0.206,0.205-0.233,0.323-0.233,0.404C10.495,2.267,10.567,2.623,11.233,3.297z"/>
</g>
</svg>
