<?xml version="1.0" encoding="utf-8"?>
<!-- Generator: Adobe Illustrator 22.1.0, SVG Export Plug-In . SVG Version: 6.00 Build 0)  -->
<svg version="1.1" id="Layer_1" xmlns="http://www.w3.org/2000/svg" xmlns:xlink="http://www.w3.org/1999/xlink" x="0px" y="0px"
	 viewBox="0 0 24 24" style="enable-background:new 0 0 24 24;" xml:space="preserve">
<title>qr-code-scan</title>
<g>
	<path d="M5.25,9C4.836,9,4.5,8.664,4.5,8.25v-3c0-0.414,0.336-0.75,0.75-0.75h3C8.664,4.5,9,4.836,9,5.25v3C9,8.664,8.664,9,8.25,9
		H5.25z M7.5,7.5V6H6v1.5H7.5z"/>
	<path d="M5.25,19.5c-0.414,0-0.75-0.336-0.75-0.75v-3C4.5,15.336,4.836,15,5.25,15h3C8.664,15,9,15.336,9,15.75v3
		c0,0.414-0.336,0.75-0.75,0.75H5.25z M7.5,18v-1.5H6V18H7.5z"/>
	<path d="M15.75,9C15.336,9,15,8.664,15,8.25v-3c0-0.414,0.336-0.75,0.75-0.75h3c0.414,0,0.75,0.336,0.75,0.75v3
		C19.5,8.664,19.164,9,18.75,9H15.75z M18,7.5V6h-1.5v1.5H18z"/>
	<path d="M11.25,15c-0.414,0-0.75-0.336-0.75-0.75V13.5H5.25c-0.414,0-0.75-0.336-0.75-0.75S4.836,12,5.25,12h6
		c0.414,0,0.75,0.336,0.75,0.75v1.5C12,14.664,11.664,15,11.25,15z"/>
	<path d="M14.25,19.5c-0.414,0-0.75-0.336-0.75-0.75v-4.5c0-0.414,0.336-0.75,0.75-0.75S15,13.836,15,14.25V18h3v-3h-0.75
		c-0.414,0-0.75-0.336-0.75-0.75s0.336-0.75,0.75-0.75h1.5c0.414,0,0.75,0.336,0.75,0.75v4.5c0,0.414-0.336,0.75-0.75,0.75H14.25z"
		/>
	<path d="M11.25,19.5c-0.414,0-0.75-0.336-0.75-0.75v-1.5c0-0.414,0.336-0.75,0.75-0.75S12,16.836,12,17.25v1.5
		C12,19.164,11.664,19.5,11.25,19.5z"/>
	<path d="M11.25,10.5c-0.414,0-0.75-0.336-0.75-0.75v-4.5c0-0.414,0.336-0.75,0.75-0.75S12,4.836,12,5.25V9h0.75
		c0.414,0,0.75,0.336,0.75,0.75s-0.336,0.75-0.75,0.75H11.25z"/>
	<path d="M15.75,12C15.336,12,15,11.664,15,11.25s0.336-0.75,0.75-0.75h3c0.414,0,0.75,0.336,0.75,0.75S19.164,12,18.75,12H15.75z"
		/>
	<path d="M0.75,6.75C0.336,6.75,0,6.414,0,6V2.25C0,1.009,1.009,0,2.25,0H6c0.414,0,0.75,0.336,0.75,0.75S6.414,1.5,6,1.5H2.25
		C1.836,1.5,1.5,1.836,1.5,2.25V6C1.5,6.414,1.164,6.75,0.75,6.75z"/>
	<path d="M23.25,6.75c-0.414,0-0.75-0.336-0.75-0.75V2.25c0-0.414-0.336-0.75-0.75-0.75H18c-0.414,0-0.75-0.336-0.75-0.75
		S17.586,0,18,0h3.75C22.991,0,24,1.009,24,2.25V6C24,6.414,23.664,6.75,23.25,6.75z"/>
	<path d="M18,24c-0.414,0-0.75-0.336-0.75-0.75S17.586,22.5,18,22.5h3.75c0.414,0,0.75-0.336,0.75-0.75V18
		c0-0.414,0.336-0.75,0.75-0.75S24,17.586,24,18v3.75c0,1.241-1.009,2.25-2.25,2.25H18z"/>
	<path d="M2.25,24C1.009,24,0,22.991,0,21.75V18c0-0.414,0.336-0.75,0.75-0.75S1.5,17.586,1.5,18v3.75c0,0.414,0.336,0.75,0.75,0.75
		H6c0.414,0,0.75,0.336,0.75,0.75S6.414,24,6,24H2.25z"/>
</g>
</svg>
