<svg viewBox="0 0 33 33" fill="none" xmlns="http://www.w3.org/2000/svg">
<path d="M29.6211 1.53214L19.6461 11.5071C18.9424 12.2112 17.8327 12.303 17.0227 11.7243L12.5523 8.53363C11.8112 8.00406 10.8086 8.03122 10.0972 8.60013L1.12109 15.7821" stroke="#00DAFF" stroke-width="1.5" stroke-linecap="round" stroke-linejoin="round"/>
<path d="M21.4785 1.53214H29.6214V9.67499" stroke="#00DAFF" stroke-width="1.5" stroke-linecap="round" stroke-linejoin="round"/>
<path fill-rule="evenodd" clip-rule="evenodd" d="M19.4424 28.7464C19.4424 28.3322 19.7782 27.9964 20.1924 27.9964H30.9067C31.3209 27.9964 31.6567 28.3322 31.6567 28.7464V31.3179C31.6567 31.7321 31.3209 32.0679 30.9067 32.0679H20.1924C19.7782 32.0679 19.4424 31.7321 19.4424 31.3179V28.7464Z" stroke="#00DAFF" stroke-width="1.5" stroke-linecap="round" stroke-linejoin="round"/>
<path fill-rule="evenodd" clip-rule="evenodd" d="M3.15723 28.7464C3.15723 28.3322 3.49301 27.9964 3.90723 27.9964H14.6215C15.0357 27.9964 15.3715 28.3322 15.3715 28.7464V31.3179C15.3715 31.7321 15.0357 32.0679 14.6215 32.0679H3.90723C3.49301 32.0679 3.15723 31.7321 3.15723 31.3179V28.7464Z" stroke="#00DAFF" stroke-width="1.5" stroke-linecap="round" stroke-linejoin="round"/>
<path fill-rule="evenodd" clip-rule="evenodd" d="M1.12109 24.675C1.12109 24.2608 1.45688 23.925 1.87109 23.925H12.5854C12.9996 23.925 13.3354 24.2608 13.3354 24.675V27.2464C13.3354 27.6606 12.9996 27.9964 12.5854 27.9964H1.87109C1.45688 27.9964 1.12109 27.6606 1.12109 27.2464V24.675Z" stroke="#00DAFF" stroke-width="1.5" stroke-linecap="round" stroke-linejoin="round"/>
<path fill-rule="evenodd" clip-rule="evenodd" d="M3.15723 20.6036C3.15723 20.1894 3.49301 19.8536 3.90723 19.8536H14.6215C15.0357 19.8536 15.3715 20.1894 15.3715 20.6036V23.175C15.3715 23.5892 15.0357 23.925 14.6215 23.925H3.90723C3.49301 23.925 3.15723 23.5892 3.15723 23.175V20.6036Z" stroke="#00DAFF" stroke-width="1.5" stroke-linecap="round" stroke-linejoin="round"/>
<path fill-rule="evenodd" clip-rule="evenodd" d="M17.4072 24.675C17.4072 24.2608 17.743 23.925 18.1572 23.925H28.8715C29.2857 23.925 29.6215 24.2608 29.6215 24.675V27.2464C29.6215 27.6606 29.2857 27.9964 28.8715 27.9964H18.1572C17.743 27.9964 17.4072 27.6606 17.4072 27.2464V24.675Z" stroke="#00DAFF" stroke-width="1.5" stroke-linecap="round" stroke-linejoin="round"/>
<path fill-rule="evenodd" clip-rule="evenodd" d="M19.4424 20.6036C19.4424 20.1894 19.7782 19.8536 20.1924 19.8536H30.9067C31.3209 19.8536 31.6567 20.1894 31.6567 20.6036V23.175C31.6567 23.5892 31.3209 23.925 30.9067 23.925H20.1924C19.7782 23.925 19.4424 23.5892 19.4424 23.175V20.6036Z" stroke="#00DAFF" stroke-width="1.5" stroke-linecap="round" stroke-linejoin="round"/>
<path fill-rule="evenodd" clip-rule="evenodd" d="M19.4424 16.5321C19.4424 16.1179 19.7782 15.7821 20.1924 15.7821H30.9067C31.3209 15.7821 31.6567 16.1179 31.6567 16.5321V19.1036C31.6567 19.5178 31.3209 19.8536 30.9067 19.8536H20.1924C19.7782 19.8536 19.4424 19.5178 19.4424 19.1036V16.5321Z" stroke="#00DAFF" stroke-width="1.5" stroke-linecap="round" stroke-linejoin="round"/>
</svg>
