<svg viewBox="0 0 33 33" fill="none" xmlns="http://www.w3.org/2000/svg">
<path d="M1.53223 3.52307L3.56794 6.09078V12.1531C3.51366 14.444 6.16958 16.496 8.65587 18.6023" stroke="#00DAFF" stroke-width="1.5" stroke-linecap="round" stroke-linejoin="round"/>
<path d="M7.61356 10.5001L10.0143 12.9593C10.4265 13.3823 11.033 13.5534 11.6054 13.408C12.1779 13.2626 12.6292 12.8228 12.7895 12.2544C12.9498 11.6859 12.7947 11.0752 12.3826 10.6521L8.64906 6.84263V4.85713C8.44679 3.6674 7.99441 2.53411 7.32178 1.53214" stroke="#00DAFF" stroke-width="1.5" stroke-linecap="round" stroke-linejoin="round"/>
<path d="M8.65723 11.5587V27.9964C8.65723 29.1207 9.56865 30.0321 10.6929 30.0321H20.8715" stroke="#00DAFF" stroke-width="1.5" stroke-linecap="round" stroke-linejoin="round"/>
<path d="M32.0679 30.0756L30.0322 27.5079V21.4469C30.0797 19.4668 28.1037 17.6659 25.9608 15.8554V23.0727L23.5858 20.6407C22.9487 19.9868 21.9021 19.9731 21.2481 20.6102C20.5941 21.2473 20.5805 22.2939 21.2176 22.9479L24.9565 26.7587V28.7429C25.1598 29.9306 25.6121 31.0619 26.2838 32.0624" stroke="#00DAFF" stroke-width="1.5" stroke-linecap="round" stroke-linejoin="round"/>
<path d="M18.1275 24.9428H12.7288" stroke="#00DAFF" stroke-width="1.5" stroke-linecap="round" stroke-linejoin="round"/>
<path d="M14.7645 19.8536H12.7288" stroke="#00DAFF" stroke-width="1.5" stroke-linecap="round" stroke-linejoin="round"/>
<path d="M27.9965 7.63928C27.9965 11.0122 25.2623 13.7464 21.8894 13.7464C18.5165 13.7464 15.7822 11.0122 15.7822 7.63928C15.7822 4.2664 18.5165 1.53214 21.8894 1.53214" stroke="#00DAFF" stroke-width="1.5" stroke-linecap="round" stroke-linejoin="round"/>
<path d="M27.9965 3.05759L22.4322 8.62187C22.2886 8.76641 22.0932 8.84768 21.8894 8.84768C21.6856 8.84768 21.4902 8.76641 21.3465 8.62187L19.5972 6.87116" stroke="#00DAFF" stroke-width="1.5" stroke-linecap="round" stroke-linejoin="round"/>
</svg>
