<svg id="Layer_1" data-name="Layer 1" xmlns="http://www.w3.org/2000/svg" xmlns:xlink="http://www.w3.org/1999/xlink" viewBox="0 0 628.56 842.18">
  <title>saturn-icon</title>
  <path id="Fill-4" d="M301.23,632.33c-9.15,11-18.23,21.81-27.18,32.22,86.39,11.36,176.15-23.29,231.43-98.36s61.69-171,25.14-250.07c-35.05,56-76.25,116.61-122,178.8-31.78,43.17-63.49,83.93-94.33,121.63" style="fill: #00daff"/>
  <g style="mask: url(#mask)">
    <path id="Fill-1" d="M546,94.07c17.31,12.77-4.41,74.66-52.08,160a245.43,245.43,0,0,0-39.37-36.38C345,136.86,190.89,160.51,110.21,270.47s-57.35,264.6,52.11,345.39a244.28,244.28,0,0,0,46.34,26.89c-67,71-119.47,110.22-136.78,97.44C56.71,729,59.75,688.28,95.81,596.56,20,725.15-17.06,820.94,7.57,839.11c37.7,27.83,205.58-136.77,375-367.64S658.68,30.89,621,3.07C596.36-15.11,516.18,48.83,416.33,159.7,487.42,101.77,530.77,82.87,546,94.07Z" style="fill: #00daff"/>
  </g>
</svg>
