<?xml version="1.0" encoding="utf-8"?>
<!-- Generator: Adobe Illustrator 22.1.0, SVG Export Plug-In . SVG Version: 6.00 Build 0)  -->
<svg version="1.1" id="Layer_1" xmlns="http://www.w3.org/2000/svg" xmlns:xlink="http://www.w3.org/1999/xlink" x="0px" y="0px"
	 viewBox="0 0 24 24" style="enable-background:new 0 0 24 24;" xml:space="preserve">
<title>settings-on</title>
<g>
	<path d="M6.748,19c-3.722,0-6.75-3.028-6.75-6.75S3.026,5.5,6.748,5.5h10.5c3.722,0,6.75,3.028,6.75,6.75S20.97,19,17.248,19H6.748
		z M6.748,7c-2.895,0-5.25,2.355-5.25,5.25c0,2.895,2.355,5.25,5.25,5.25h10.5c2.895,0,5.25-2.355,5.25-5.25
		c0-2.895-2.355-5.25-5.25-5.25H6.748z"/>
	<path d="M17.248,16c-0.414,0-0.75-0.336-0.75-0.75v-6c0-0.414,0.336-0.75,0.75-0.75s0.75,0.336,0.75,0.75v6
		C17.998,15.664,17.662,16,17.248,16z"/>
	<path d="M14.248,16c-0.414,0-0.75-0.336-0.75-0.75v-6c0-0.414,0.336-0.75,0.75-0.75s0.75,0.336,0.75,0.75v6
		C14.998,15.664,14.662,16,14.248,16z"/>
</g>
</svg>
