<?xml version="1.0" encoding="utf-8"?>
<!-- Generator: Adobe Illustrator 22.1.0, SVG Export Plug-In . SVG Version: 6.00 Build 0)  -->
<svg version="1.1" id="Layer_1" xmlns="http://www.w3.org/2000/svg" xmlns:xlink="http://www.w3.org/1999/xlink" x="0px" y="0px"
	 viewBox="0 0 24 24" style="enable-background:new 0 0 24 24;" xml:space="preserve">
<title>settings-off</title>
<g>
	<path d="M6.748,18.75c-3.722,0-6.75-3.028-6.75-6.75s3.028-6.75,6.75-6.75h10.5c3.722,0,6.75,3.028,6.75,6.75
		s-3.028,6.75-6.75,6.75H6.748z M6.748,6.75c-2.895,0-5.25,2.355-5.25,5.25c0,2.895,2.355,5.25,5.25,5.25h10.5
		c2.895,0,5.25-2.355,5.25-5.25c0-2.895-2.355-5.25-5.25-5.25H6.748z"/>
	<path d="M6.748,15.75c-0.414,0-0.75-0.336-0.75-0.75V9c0-0.414,0.336-0.75,0.75-0.75S7.498,8.586,7.498,9v6
		C7.498,15.414,7.162,15.75,6.748,15.75z"/>
	<path d="M9.748,15.75c-0.414,0-0.75-0.336-0.75-0.75V9c0-0.414,0.336-0.75,0.75-0.75s0.75,0.336,0.75,0.75v6
		C10.498,15.414,10.162,15.75,9.748,15.75z"/>
</g>
</svg>
