<?xml version="1.0" encoding="utf-8"?>
<!-- Generator: Adobe Illustrator 22.1.0, SVG Export Plug-In . SVG Version: 6.00 Build 0)  -->
<svg version="1.1" id="Layer_1" xmlns="http://www.w3.org/2000/svg" xmlns:xlink="http://www.w3.org/1999/xlink" x="0px" y="0px"
	 viewBox="0 0 24 24" style="enable-background:new 0 0 24 24;" xml:space="preserve">
<title>content-write</title>
<g>
	<path d="M1.824,24c-1.008,0-1.827-0.819-1.828-1.825V1.826C-0.003,0.819,0.817,0,1.824,0h15.095c0.491,0,0.947,0.188,1.291,0.529
		c0.347,0.344,0.539,0.802,0.541,1.289v5.388c0,0.414-0.336,0.75-0.75,0.75s-0.75-0.336-0.75-0.75V1.826
		c0-0.089-0.034-0.169-0.097-0.232C17.091,1.533,17.011,1.5,16.923,1.5H1.824c-0.089,0-0.169,0.033-0.232,0.096
		C1.53,1.658,1.496,1.738,1.496,1.827v20.347c0,0.179,0.147,0.326,0.327,0.326h11.861c0.414,0,0.75,0.336,0.75,0.75
		S14.098,24,13.684,24H1.824z"/>
	<path d="M7.204,7.125c-0.414,0-0.75-0.336-0.75-0.75s0.336-0.75,0.75-0.75h6.456c0.414,0,0.75,0.336,0.75,0.75
		s-0.336,0.75-0.75,0.75H7.204z"/>
	<circle cx="3.805" cy="6.375" r="1.125"/>
	<circle cx="3.805" cy="10.236" r="1.125"/>
	<path d="M17.251,24c-0.29,0-0.557-0.169-0.679-0.432l-1.555-3.318H12.75c-0.804,0-1.534-0.429-1.933-1.103l-1.233,0.762
		c-0.1,0.062-0.214,0.099-0.331,0.109l-3.599,0.311c-0.02,0.002-0.043,0.003-0.065,0.003c-0.259,0-0.504-0.137-0.64-0.358
		c-0.149-0.244-0.148-0.546,0.003-0.789l1.911-3.063c0.061-0.098,0.145-0.182,0.244-0.242l1.121-0.687l0.229-1.608
		c0.128-0.902,0.627-1.724,1.367-2.255l1.846-1.319c0.482-0.344,1.049-0.526,1.639-0.526c0.435,0,0.871,0.103,1.262,0.298
		l1.182,0.591c0.059,0.029,0.118,0.061,0.18,0.096l1.266-0.776c0.371-0.228,0.798-0.348,1.232-0.348c0.832,0,1.586,0.422,2.02,1.128
		c0.33,0.538,0.43,1.173,0.283,1.787c-0.147,0.614-0.525,1.134-1.064,1.464l-0.741,0.454l4.953,7.922
		c0.106,0.17,0.14,0.371,0.095,0.566c-0.045,0.195-0.164,0.361-0.333,0.467c-0.118,0.074-0.256,0.114-0.397,0.114
		c-0.26,0-0.498-0.132-0.636-0.353l-4.96-7.933l-1.283,0.786H16.5c0.414,0,0.75,0.336,0.75,0.75s-0.336,0.75-0.75,0.75h-3.75
		c-0.414,0-0.75,0.336-0.75,0.75s0.336,0.75,0.75,0.75h2.742c0.29,0,0.556,0.169,0.679,0.431l1.758,3.75
		c0.176,0.375,0.014,0.822-0.361,0.998C17.469,23.976,17.361,24,17.251,24z M7.02,18.706l1.927-0.167l1.6-0.989
		c0.21-1.039,1.127-1.801,2.204-1.801h0.746l5.391-3.303c0.196-0.12,0.334-0.31,0.388-0.535s0.018-0.457-0.103-0.653
		c-0.158-0.258-0.434-0.412-0.739-0.412c-0.158,0-0.314,0.044-0.45,0.127l-9.94,6.092L7.02,18.706z M13.31,10.985
		c-0.276,0-0.541,0.085-0.767,0.246l-1.845,1.318c-0.409,0.293-0.684,0.748-0.756,1.248l-0.054,0.378l4.543-2.785l-0.531-0.266
		C13.718,11.033,13.514,10.985,13.31,10.985z"/>
</g>
</svg>
