<?xml version="1.0" encoding="utf-8"?>
<!-- Generator: Adobe Illustrator 22.1.0, SVG Export Plug-In . SVG Version: 6.00 Build 0)  -->
<svg version="1.1" id="Regular" xmlns="http://www.w3.org/2000/svg" xmlns:xlink="http://www.w3.org/1999/xlink" x="0px" y="0px"
	 viewBox="0 0 24 24" style="enable-background:new 0 0 24 24;" xml:space="preserve">
<title>single-neutral-actions-text</title>
<g>
	<path d="M12.75,24c-1.241,0-2.25-1.009-2.25-2.25v-9c0-1.241,1.009-2.25,2.25-2.25h9c1.241,0,2.25,1.009,2.25,2.25v9
		c0,1.241-1.009,2.25-2.25,2.25H12.75z M12.75,12C12.336,12,12,12.336,12,12.75v9c0,0.414,0.336,0.75,0.75,0.75h9
		c0.414,0,0.75-0.336,0.75-0.75v-9c0-0.414-0.336-0.75-0.75-0.75H12.75z"/>
	<path d="M14.25,15c-0.414,0-0.75-0.336-0.75-0.75s0.336-0.75,0.75-0.75h6c0.414,0,0.75,0.336,0.75,0.75S20.664,15,20.25,15H14.25z"
		/>
	<path d="M14.25,18c-0.414,0-0.75-0.336-0.75-0.75s0.336-0.75,0.75-0.75h6c0.414,0,0.75,0.336,0.75,0.75S20.664,18,20.25,18H14.25z"
		/>
	<path d="M14.25,21c-0.414,0-0.75-0.336-0.75-0.75s0.336-0.75,0.75-0.75h2.25c0.414,0,0.75,0.336,0.75,0.75S16.914,21,16.5,21H14.25
		z"/>
	<path d="M6,7.5c-2.068,0-3.75-1.682-3.75-3.75S3.932,0,6,0s3.75,1.682,3.75,3.75S8.068,7.5,6,7.5z M6,1.5
		c-1.241,0-2.25,1.009-2.25,2.25S4.759,6,6,6s2.25-1.009,2.25-2.25S7.241,1.5,6,1.5z"/>
	<path d="M3.75,24c-0.387,0-0.708-0.29-0.746-0.675L2.321,16.5H0.75C0.336,16.5,0,16.164,0,15.75V13.5c0-1.473,0.54-2.891,1.52-3.99
		C2.586,8.313,4.054,7.603,5.654,7.51C5.773,7.503,5.891,7.5,6.009,7.5c1.467,0,2.882,0.54,3.982,1.52
		c0.309,0.275,0.336,0.75,0.061,1.059c-0.142,0.16-0.346,0.251-0.56,0.251l0,0c-0.184,0-0.361-0.068-0.499-0.19
		C8.168,9.405,7.106,9,6.003,9C5.916,9,5.828,9.003,5.74,9.008c-1.2,0.069-2.301,0.602-3.1,1.499C1.905,11.332,1.5,12.395,1.5,13.5
		V15H3c0.387,0,0.708,0.29,0.746,0.675L4.429,22.5h3.142l0.191-1.91c0.038-0.385,0.358-0.676,0.743-0.676
		c0.027,0,0.054,0.001,0.082,0.004c0.408,0.041,0.709,0.409,0.668,0.82l-0.258,2.585C8.958,23.71,8.637,24,8.25,24H3.75z"/>
</g>
</svg>
