<?xml version="1.0" encoding="utf-8"?>
<!-- Generator: Adobe Illustrator 22.1.0, SVG Export Plug-In . SVG Version: 6.00 Build 0)  -->
<svg version="1.1" id="Layer_1" xmlns="http://www.w3.org/2000/svg" xmlns:xlink="http://www.w3.org/1999/xlink" x="0px" y="0px"
	 viewBox="0 0 24 24" style="enable-background:new 0 0 24 24;" xml:space="preserve">
<title>synchronize-arrows-square-1</title>
<g>
	<path d="M7.501,21.25c-2.068,0-3.75-1.682-3.75-3.75v-4.942l-2.47,2.47c-0.142,0.142-0.33,0.22-0.53,0.22s-0.389-0.078-0.53-0.22
		c-0.292-0.292-0.292-0.768,0-1.061l3.75-3.75c0.016-0.016,0.036-0.032,0.057-0.047c0.058-0.048,0.119-0.085,0.183-0.111
		c0.009-0.004,0.019-0.008,0.029-0.011C4.325,10.016,4.412,10,4.501,10s0.176,0.016,0.26,0.047c0.008,0.002,0.015,0.005,0.021,0.008
		c0.072,0.03,0.135,0.068,0.192,0.115c0.021,0.014,0.041,0.031,0.056,0.046l3.75,3.75c0.292,0.292,0.292,0.768,0,1.061
		c-0.142,0.142-0.33,0.22-0.53,0.22s-0.389-0.078-0.53-0.22l-2.47-2.47V17.5c0,1.241,1.009,2.25,2.25,2.25h8.25
		c0.414,0,0.75,0.336,0.75,0.75s-0.336,0.75-0.75,0.75H7.501z"/>
	<path d="M19.501,14.5c-0.212,0-0.416-0.092-0.559-0.252l-3.721-3.721c-0.142-0.142-0.22-0.33-0.22-0.53
		c0-0.2,0.078-0.389,0.22-0.53s0.33-0.22,0.53-0.22s0.389,0.078,0.53,0.22l2.47,2.47V7c0-1.241-1.009-2.25-2.25-2.25h-8.25
		c-0.414,0-0.75-0.336-0.75-0.75s0.336-0.75,0.75-0.75h8.25c2.068,0,3.75,1.682,3.75,3.75v4.936l2.47-2.47
		c0.142-0.142,0.33-0.22,0.53-0.22s0.389,0.078,0.53,0.22c0.142,0.141,0.22,0.33,0.22,0.53c0,0.2-0.078,0.389-0.22,0.53
		l-3.736,3.736C19.917,14.408,19.713,14.5,19.501,14.5z"/>
</g>
</svg>
