<svg width="28" height="28" viewBox="0 0 28 28" fill="none" xmlns="http://www.w3.org/2000/svg">
<path d="M24.6531 9.95313C24.1828 8.61875 23.543 7.49766 22.8484 6.80859C22.7062 6.66641 22.5203 6.58984 22.318 6.58984C22.1156 6.58984 21.9297 6.66641 21.7875 6.80859C21.4977 7.09844 21.4977 7.57422 21.7875 7.86953C22.3289 8.41094 22.8594 9.36797 23.2531 10.5C23.6523 11.6594 23.8766 12.8844 23.8766 13.9508C23.8766 14.1148 23.8711 14.3664 23.8656 14.5031C23.8547 14.7055 23.9258 14.8914 24.0625 15.0391C24.1992 15.1867 24.3797 15.2742 24.582 15.2797H24.6148C25.0141 15.2797 25.3422 14.968 25.3641 14.5633C25.3695 14.3938 25.375 14.1203 25.375 13.9453C25.375 12.6984 25.118 11.2766 24.6531 9.95313ZM7.82031 6.04844C7.97891 6.04844 8.12656 5.99922 8.25781 5.90625C9.89297 4.73594 11.8781 4.11797 14 4.11797C16.2312 4.11797 18.3805 4.92734 20.218 6.45859C20.3547 6.56797 20.5242 6.63359 20.6992 6.63359C20.9234 6.63359 21.1313 6.53516 21.2734 6.36563C21.5359 6.04844 21.4922 5.57813 21.1805 5.31016C19.0641 3.55469 16.5867 2.625 14 2.625C11.5609 2.625 9.275 3.34141 7.38281 4.69219C7.21875 4.80703 7.11484 4.98203 7.08203 5.17891C7.04922 5.37578 7.09297 5.57266 7.21328 5.73672C7.35 5.93359 7.57969 6.04844 7.82031 6.04844ZM4.12344 13.9453C4.12344 11.5555 4.9875 9.25313 6.55703 7.45391C6.68828 7.30078 6.75391 7.10938 6.7375 6.9125C6.72656 6.71563 6.63359 6.52969 6.48047 6.39844C6.34375 6.27813 6.16875 6.2125 5.98828 6.2125C5.76953 6.2125 5.56719 6.30547 5.425 6.46953C3.62031 8.54219 2.625 11.1945 2.625 13.9453C2.625 15.7391 2.94766 17.1609 3.46719 18.8781C3.56563 19.1953 3.85 19.4086 4.18359 19.4086C4.25469 19.4086 4.33125 19.3977 4.40234 19.3758C4.59375 19.3156 4.75234 19.1898 4.84531 19.0148C4.93828 18.8398 4.96016 18.6375 4.9 18.4461C4.41875 16.8602 4.12344 15.5586 4.12344 13.9453Z" fill="#9A99A2"/>
<path d="M19.4522 7.09834C17.9593 5.80225 16.1327 5.11865 14.164 5.11865C11.5226 5.11865 9.16553 6.09209 7.51943 7.8585C5.9499 9.54287 5.17881 11.7796 5.34834 14.153C5.47412 15.9413 5.67646 16.9257 5.85693 17.7952C6.09209 18.9491 6.27803 19.8624 6.13584 22.3944C6.11396 22.7608 6.33818 23.089 6.68271 23.1929C6.74834 23.2147 6.80849 23.2202 6.87959 23.2202C7.27334 23.2202 7.60146 22.9085 7.62881 22.5147C7.7874 19.7585 7.58506 18.7577 7.32803 17.489C7.15849 16.6632 6.96709 15.728 6.84678 14.0382C6.70459 12.0858 7.33896 10.2483 8.61865 8.87021C9.9749 7.41006 11.9491 6.60615 14.164 6.60615C15.7663 6.60615 17.2538 7.16397 18.4679 8.21943C19.6874 9.2749 20.6116 10.8116 21.1476 12.6546C21.771 14.8038 21.9405 17.5382 21.6452 20.5569C21.6069 20.9671 21.9077 21.3335 22.3179 21.3772C22.3397 21.3772 22.3671 21.3827 22.389 21.3827C22.7772 21.3827 23.0944 21.0929 23.1327 20.7046C23.4499 17.4944 23.2585 14.5687 22.5804 12.239C21.9733 10.128 20.8905 8.34522 19.4522 7.09834Z" fill="#9A99A2"/>
<path d="M20.4257 14.6287C20.1031 12.5779 19.3374 10.8662 18.2054 9.67402C17.0679 8.4709 15.6132 7.83105 13.9999 7.83105C12.9609 7.83105 11.9382 8.05527 11.0413 8.4873C10.839 8.58574 10.6913 8.76621 10.6367 8.98496C10.582 9.20918 10.6312 9.43887 10.7734 9.61934C10.9156 9.80527 11.1288 9.90918 11.364 9.90918C11.4788 9.90918 11.5828 9.88184 11.6867 9.83809C12.3757 9.50996 13.1742 9.33496 13.9945 9.33496C15.2195 9.33496 16.3187 9.83809 17.1827 10.7896C18.0632 11.7631 18.6757 13.174 18.9382 14.8693C19.1952 16.4881 19.321 17.7951 19.3265 18.867C19.3374 21.0381 19.064 22.8428 19.064 22.8646C19.0312 23.0615 19.0804 23.2584 19.2007 23.4225C19.321 23.5865 19.4906 23.6904 19.6874 23.7232C19.7257 23.7287 19.764 23.7342 19.8023 23.7342C20.1742 23.7342 20.4859 23.4662 20.5406 23.0998C20.5515 23.0232 20.8359 21.1748 20.8249 18.8615C20.8249 17.6967 20.6937 16.3186 20.4257 14.6287ZM10.1335 11.1287C10.3523 10.8115 10.2921 10.385 9.99682 10.1334C9.8601 10.0186 9.69057 9.9584 9.51557 9.9584C9.26948 9.9584 9.03979 10.0787 8.8976 10.2811C8.0937 11.4568 7.82026 12.9662 8.1101 14.6451C8.59682 17.4506 9.03432 20.7209 8.62416 23.6686C8.59682 23.8764 8.65151 24.0896 8.78276 24.2537C8.90854 24.4178 9.09448 24.5162 9.29682 24.5326C9.3187 24.5326 9.34057 24.5381 9.36245 24.5381C9.73432 24.5381 10.0515 24.2592 10.1007 23.8928C10.5492 20.7373 10.0898 17.3193 9.58119 14.3881C9.35698 13.0865 9.54291 11.9873 10.1335 11.1287ZM17.3632 21.2186H17.3359C16.9202 21.235 16.5976 21.5795 16.614 21.9951C16.614 22.0061 16.6468 22.974 16.4718 23.8928C16.4007 24.2701 16.614 24.642 16.9695 24.7568C17.046 24.7787 17.1226 24.7951 17.2046 24.7951C17.5656 24.7951 17.8718 24.5381 17.9374 24.1881C18.1452 23.0889 18.107 21.9896 18.107 21.9404C18.096 21.5303 17.7679 21.2186 17.3632 21.2186Z" fill="#9A99A2"/>
<path d="M16.1109 11.2604C15.4984 10.6861 14.7328 10.3799 13.8961 10.3799C12.8132 10.3799 11.889 10.7791 11.2929 11.501C10.839 12.0533 10.3632 13.076 10.6968 14.7822C11.3695 18.2002 11.5172 21.4322 11.1398 24.3854C11.0851 24.7955 11.3804 25.1729 11.7851 25.2221C11.8179 25.2275 11.8507 25.2275 11.8781 25.2275C12.2554 25.2275 12.5726 24.9486 12.6218 24.5713C13.0211 21.4541 12.8679 18.0635 12.1679 14.4869C11.9929 13.59 12.0914 12.8846 12.4468 12.4471C12.7531 12.0752 13.2671 11.8729 13.8906 11.8729C15.2578 11.8729 15.8101 13.3822 15.9851 14.0275C16.3625 15.433 16.5812 17.4729 16.614 19.9174C16.6195 20.3221 16.9531 20.6557 17.3632 20.6557H17.3742C17.571 20.6502 17.757 20.5736 17.8992 20.4314C18.0359 20.2893 18.1125 20.0979 18.1125 19.901C18.0742 17.3307 17.839 15.1705 17.4289 13.6447C17.1609 12.633 16.7125 11.8291 16.1109 11.2604Z" fill="#9A99A2"/>
<path d="M14.5031 13.4478C14.3883 13.1688 14.1148 12.9829 13.8086 12.9829C13.7102 12.9829 13.6117 13.0048 13.5242 13.0376C13.1414 13.1962 12.9609 13.6337 13.1195 14.0165C13.4805 14.8915 13.7648 16.5431 13.8906 18.5446C14.0219 20.5626 13.9836 22.7501 13.7812 24.5384C13.7594 24.7353 13.8141 24.9321 13.9398 25.0907C14.0656 25.2493 14.2406 25.3423 14.443 25.3642C14.4703 25.3696 14.4977 25.3696 14.525 25.3696C14.9078 25.3696 15.225 25.0853 15.2687 24.7024C15.482 22.761 15.5203 20.5134 15.3781 18.3696C15.2414 16.2204 14.9297 14.4704 14.5031 13.4478Z" fill="#9A99A2"/>
</svg>
