<svg viewBox="0 0 33 33" fill="none" xmlns="http://www.w3.org/2000/svg">
<path fill-rule="evenodd" clip-rule="evenodd" d="M8.125 1.75C4.60418 1.75 1.75 4.60418 1.75 8.125V13.2143C1.75 13.6285 1.41421 13.9643 1 13.9643C0.585786 13.9643 0.25 13.6285 0.25 13.2143V8.125C0.25 3.77576 3.77576 0.25 8.125 0.25C12.4742 0.25 16 3.77576 16 8.125V12.4643H30.0357C31.2784 12.4643 32.2857 13.4716 32.2857 14.7143V30.0357C32.2857 31.2784 31.2784 32.2857 30.0357 32.2857H10.6429C9.40021 32.2857 8.39286 31.2784 8.39286 30.0357V14.7143C8.39286 13.4716 9.40021 12.4643 10.6429 12.4643H14.5V8.125C14.5 4.60418 11.6458 1.75 8.125 1.75ZM10.6429 13.9643C10.2286 13.9643 9.89286 14.3001 9.89286 14.7143V30.0357C9.89286 30.4499 10.2286 30.7857 10.6429 30.7857H30.0357C30.4499 30.7857 30.7857 30.4499 30.7857 30.0357V14.7143C30.7857 14.3001 30.4499 13.9643 30.0357 13.9643H10.6429ZM16.5357 22.375C16.5357 20.2743 18.2386 18.5714 20.3393 18.5714C22.4399 18.5714 24.1429 20.2743 24.1429 22.375C24.1429 24.4757 22.4399 26.1786 20.3393 26.1786C18.2386 26.1786 16.5357 24.4757 16.5357 22.375ZM20.3393 20.0714C19.0671 20.0714 18.0357 21.1028 18.0357 22.375C18.0357 23.6472 19.0671 24.6786 20.3393 24.6786C21.6115 24.6786 22.6429 23.6472 22.6429 22.375C22.6429 21.1028 21.6115 20.0714 20.3393 20.0714Z" fill="black"/>
</svg>
