<svg viewBox="0 0 33 33" fill="none" xmlns="http://www.w3.org/2000/svg">
<path d="M1.53223 13.7464V8.65713C1.53223 4.72211 4.7222 1.53214 8.65723 1.53214C12.5923 1.53214 15.7822 4.72211 15.7822 8.65713V13.7464" stroke="#00DAFF" stroke-width="1.5" stroke-linecap="round" stroke-linejoin="round"/>
<path fill-rule="evenodd" clip-rule="evenodd" d="M9.67505 15.2464C9.67505 14.418 10.3466 13.7464 11.175 13.7464H30.5679C31.3963 13.7464 32.0679 14.418 32.0679 15.2464V30.5679C32.0679 31.3963 31.3963 32.0679 30.5679 32.0679H11.175C10.3466 32.0679 9.67505 31.3963 9.67505 30.5679V15.2464Z" stroke="#00DAFF" stroke-width="1.5" stroke-linecap="round" stroke-linejoin="round"/>
<path fill-rule="evenodd" clip-rule="evenodd" d="M20.8714 25.9607C22.5579 25.9607 23.925 24.5936 23.925 22.9071C23.925 21.2207 22.5579 19.8536 20.8714 19.8536C19.185 19.8536 17.8179 21.2207 17.8179 22.9071C17.8179 24.5936 19.185 25.9607 20.8714 25.9607Z" stroke="#00DAFF" stroke-width="1.5" stroke-linecap="round" stroke-linejoin="round"/>
</svg>
