<?xml version="1.0" encoding="utf-8"?>
<!-- Generator: Adobe Illustrator 22.1.0, SVG Export Plug-In . SVG Version: 6.00 Build 0)  -->
<svg version="1.1" id="Layer_1" xmlns="http://www.w3.org/2000/svg" xmlns:xlink="http://www.w3.org/1999/xlink" x="0px" y="0px"
	 viewBox="0 0 24 24" style="enable-background:new 0 0 24 24;" xml:space="preserve">
<title>business-contract-break</title>
<g>
	<path d="M20.25,22.16c-0.414,0-0.75-0.336-0.75-0.75v-2.13c0-0.152,0.045-0.298,0.131-0.423l2.654-3.882
		c0.504-0.896,0.023-2.471-0.544-3.997l-1.651,2.98l0.484,1.751c0.11,0.399-0.125,0.812-0.523,0.923
		c-0.067,0.018-0.133,0.027-0.2,0.027c-0.336,0-0.634-0.226-0.723-0.55l-0.95-3.441c-0.056-0.214-0.242-0.36-0.455-0.36
		c-0.039,0-0.079,0.005-0.118,0.015c-0.122,0.032-0.223,0.108-0.286,0.216c-0.063,0.108-0.081,0.234-0.049,0.355l1.054,3.805
		c0.053,0.19,0.029,0.39-0.066,0.563l-0.674,1.217c-0.293,0.949-0.438,1.933-0.432,2.925c0.001,0.2-0.076,0.389-0.216,0.532
		c-0.141,0.143-0.329,0.222-0.529,0.223c-0.416,0-0.752-0.334-0.755-0.745c-0.007-1.175,0.169-2.338,0.524-3.458
		c0.015-0.048,0.035-0.093,0.058-0.136l0.563-1.016l-0.977-3.527c-0.134-0.514-0.061-1.043,0.205-1.496
		c0.266-0.453,0.692-0.776,1.201-0.909c0.164-0.043,0.332-0.064,0.499-0.064c0.347,0,0.69,0.094,0.993,0.271
		c0.345,0.202,0.615,0.498,0.782,0.851l2.613-4.714c0.056-0.102,0.022-0.238-0.076-0.302L17.25,3.725V6.5
		c0,0.414-0.336,0.75-0.75,0.75h-1.586L13.5,10.308v4.442c0,0.326-0.208,0.612-0.517,0.713c-0.076,0.025-0.154,0.037-0.233,0.037
		c-0.238,0-0.465-0.115-0.605-0.307l-3-4.1C9.05,10.963,8.999,10.81,8.999,10.65v-3.4h-1.5c-0.414,0-0.75-0.336-0.75-0.75V3.725
		l-4.78,3.185C1.865,6.979,1.831,7.112,1.889,7.217L4.5,11.929c0.319-0.673,1.007-1.121,1.778-1.121
		c0.167,0,0.334,0.021,0.496,0.064c0.509,0.133,0.935,0.456,1.201,0.909c0.266,0.454,0.339,0.984,0.206,1.492
		c0,0-0.978,3.531-0.978,3.531l0.562,1.015c0.024,0.043,0.044,0.09,0.059,0.137c0.355,1.119,0.531,2.283,0.524,3.458
		c-0.003,0.411-0.339,0.745-0.75,0.745c-0.205-0.001-0.393-0.08-0.534-0.223s-0.218-0.332-0.216-0.532
		c0.006-0.993-0.139-1.978-0.432-2.926l-0.674-1.217c-0.096-0.173-0.12-0.373-0.067-0.563l1.05-3.79
		c0.035-0.133,0.02-0.259-0.045-0.37c-0.063-0.108-0.165-0.185-0.286-0.216c-0.038-0.01-0.078-0.015-0.117-0.015
		c-0.214,0-0.401,0.144-0.454,0.35l-0.953,3.451c-0.089,0.324-0.387,0.55-0.724,0.55c-0.066,0-0.132-0.009-0.196-0.026
		c-0.401-0.111-0.636-0.525-0.526-0.923l0.484-1.751l-1.652-2.981c-0.567,1.526-1.048,3.101-0.544,3.998l2.655,3.882
		C4.455,18.982,4.5,19.129,4.5,19.281v2.13c0,0.414-0.336,0.75-0.75,0.75S3,21.824,3,21.41v-1.898l-2.541-3.715
		c-0.012-0.018-0.021-0.031-0.029-0.046c-0.973-1.662-0.104-3.933,0.737-6.129l0.138-0.365L0.576,7.943
		C0.141,7.155,0.389,6.152,1.143,5.659l5.183-3.454c0.208-0.135,0.443-0.205,0.682-0.205c0.086,0,0.173,0.009,0.258,0.027
		c0.324,0.069,0.602,0.26,0.783,0.537c0.131,0.201,0.2,0.434,0.2,0.674V5.75H9.26c0.683,0,1.239,0.556,1.239,1.239v3.416l1.5,2.05
		V10.25c0-0.192,0.046-0.385,0.132-0.556l1.497-3.239c0.219-0.439,0.646-0.705,1.118-0.705h1.003V3.239
		c0-0.332,0.13-0.644,0.365-0.878c0.231-0.23,0.531-0.355,0.87-0.361c0.248,0,0.481,0.07,0.682,0.201l5.196,3.462
		c0.749,0.49,0.997,1.492,0.561,2.28l-0.73,1.317l0.137,0.361c0.841,2.198,1.71,4.471,0.736,6.133l-0.025,0.041L21,19.513v1.898
		C21,21.824,20.663,22.16,20.25,22.16z"/>
	<path d="M14.71,20.652c-0.139,0-0.276-0.039-0.395-0.112l-2.316-1.436l-2.316,1.436c-0.118,0.073-0.255,0.113-0.395,0.113
		c-0.261,0-0.5-0.133-0.638-0.355c-0.106-0.171-0.139-0.372-0.093-0.567s0.165-0.361,0.335-0.466l2.655-1.646
		c0.099-0.073,0.214-0.121,0.335-0.139c0.009-0.001,0.017-0.002,0.025-0.003c0.022-0.003,0.057-0.006,0.092-0.006
		c0.029,0,0.058,0.002,0.088,0.006c0.005,0,0.023,0.003,0.028,0.003c0.121,0.019,0.235,0.066,0.333,0.139l2.656,1.647
		c0.351,0.218,0.46,0.681,0.243,1.032C15.21,20.519,14.972,20.652,14.71,20.652z"/>
</g>
</svg>
