<svg viewBox="0 0 33 28" fill="none" xmlns="http://www.w3.org/2000/svg">
<path d="M27.228 26.5721V23.6814L30.8516 18.3804C32.0445 16.3446 30.5992 13.135 29.4239 10" stroke="#00DAFF" stroke-width="1.5" stroke-linecap="round" stroke-linejoin="round"/>
<path d="M26.6851 19.1064L25.3958 14.4365C25.2456 13.8609 24.7976 13.4104 24.2229 13.2569C23.6482 13.1034 23.0353 13.2706 22.6181 13.6947C22.2009 14.1187 22.0437 14.7343 22.2065 15.3064L23.6315 20.45L22.6666 22.1912C22.2176 23.6073 21.9937 25.0852 22.003 26.5707" stroke="#00DAFF" stroke-width="1.5" stroke-linecap="round" stroke-linejoin="round"/>
<path d="M4.83639 26.5721V23.6814L1.21011 18.3804C0.0171806 16.3419 1.46254 13.135 2.63782 10" stroke="#00DAFF" stroke-width="1.5" stroke-linecap="round" stroke-linejoin="round"/>
<path d="M5.37793 19.1064L6.66722 14.4365C6.81745 13.8609 7.26539 13.4104 7.84013 13.2569C8.41487 13.1034 9.02776 13.2706 9.44496 13.6947C9.86217 14.1187 10.0193 14.7343 9.8565 15.3064L8.4315 20.45L9.39643 22.1912C9.84554 23.6078 10.0695 25.0861 10.0601 26.5721" stroke="#00DAFF" stroke-width="1.5" stroke-linecap="round" stroke-linejoin="round"/>
<path d="M16.0316 22.2441L16.0261 22.2401L19.7108 24.5241" stroke="#00DAFF" stroke-width="1.5" stroke-linecap="round" stroke-linejoin="round"/>
<path d="M6.14339 16.3256L1.41917 7.80143C1.08264 7.19265 1.27263 6.42735 1.85482 6.04664L8.89703 1.35364C9.10132 1.22088 9.36186 1.21047 9.57609 1.3265C9.79033 1.44254 9.92396 1.66643 9.92439 1.91007V6.33571H12.3143C12.6808 6.33571 12.978 6.63284 12.978 6.99936V11.9679L17.0494 17.5321V11.425C17.0495 11.3218 17.0737 11.22 17.12 11.1278L19.1665 6.70214C19.2792 6.4772 19.5094 6.33531 19.761 6.33571H22.1387V1.91007C22.1391 1.66643 22.2727 1.44254 22.487 1.3265C22.7012 1.21047 22.9617 1.22088 23.166 1.35364L30.2082 6.04664C30.7904 6.42735 30.9804 7.19265 30.6439 7.80143L25.9197 16.3256" stroke="#00DAFF" stroke-width="1.5" stroke-linecap="round" stroke-linejoin="round"/>
<path d="M16.0315 22.2441L16.0369 22.2401L12.3523 24.5241" stroke="#00DAFF" stroke-width="1.5" stroke-linecap="round" stroke-linejoin="round"/>
</svg>
