<?xml version="1.0" encoding="UTF-8"?>
<svg width="14px" height="22px" viewBox="0 0 14 22" version="1.1" xmlns="http://www.w3.org/2000/svg" xmlns:xlink="http://www.w3.org/1999/xlink">
    <!-- Generator: Sketch 57.1 (83088) - https://sketch.com -->
    <title>cable</title>
    <desc>Created with Sketch.</desc>
    <g id="New-Moonlet-Logo" stroke="none" stroke-width="1" fill="none" fill-rule="evenodd">
        <g id="cable" fill="#9A99A2" fill-rule="nonzero">
            <path d="M12.125,7.875 C12.125,8.28921356 11.7892136,8.625 11.375,8.625 L2.625,8.625 C2.21078644,8.625 1.875,8.28921356 1.875,7.875 L1.875,2.25 C1.875,1.49060644 2.49060644,0.875 3.25,0.875 L10.75,0.875 C11.5094104,0.875 12.125,1.49060324 12.125,2.25 L12.125,7.875 Z M10.625,7.125 L10.625,2.375 L3.375,2.375 L3.375,7.125 L10.625,7.125 Z" id="Path"></path>
            <path d="M4.375,4.125 L4.375,5.375 C4.375,5.78921356 4.71078644,6.125 5.125,6.125 C5.53921356,6.125 5.875,5.78921356 5.875,5.375 L5.875,4.125 C5.875,3.71078644 5.53921356,3.375 5.125,3.375 C4.71078644,3.375 4.375,3.71078644 4.375,4.125 Z" id="Path"></path>
            <path d="M8.125,4.125 L8.125,5.375 C8.125,5.78921356 8.46078644,6.125 8.875,6.125 C9.28921356,6.125 9.625,5.78921356 9.625,5.375 L9.625,4.125 C9.625,3.71078644 9.28921356,3.375 8.875,3.375 C8.46078644,3.375 8.125,3.71078644 8.125,4.125 Z" id="Path"></path>
            <path d="M5.875,18.625 L8.125,18.625 L8.125,20.375 C8.125,20.7892136 8.46078644,21.125 8.875,21.125 C9.28921356,21.125 9.625,20.7892136 9.625,20.375 L9.625,17.875 C9.625,17.4607864 9.28921356,17.125 8.875,17.125 L5.125,17.125 C4.71078644,17.125 4.375,17.4607864 4.375,17.875 L4.375,20.375 C4.375,20.7892136 4.71078644,21.125 5.125,21.125 C5.53921356,21.125 5.875,20.7892136 5.875,20.375 L5.875,18.625 Z" id="Path"></path>
            <path d="M8.875,18.625 L5.125,18.625 C2.63968644,18.625 0.625,16.6103136 0.625,14.125 L0.625,9.125 C0.625,8.02039654 1.52041633,7.125 2.625,7.125 L11.375,7.125 C12.4796136,7.125 13.375,8.02038644 13.375,9.125 L13.375,14.125 C13.375,16.6103136 11.3603136,18.625 8.875,18.625 Z M8.875,17.125 C10.5318864,17.125 11.875,15.7818864 11.875,14.125 L11.875,9.125 C11.875,8.84881356 11.6511864,8.625 11.375,8.625 L2.625,8.625 C2.34883604,8.625 2.125,8.84883109 2.125,9.125 L2.125,14.125 C2.125,15.7818864 3.46811356,17.125 5.125,17.125 L8.875,17.125 Z" id="Path"></path>
        </g>
    </g>
</svg>