<svg viewBox="0 0 33 33" fill="none" xmlns="http://www.w3.org/2000/svg">
<path fill-rule="evenodd" clip-rule="evenodd" d="M25.914 18.5906C25.9952 18.9967 25.7317 19.3918 25.3256 19.473L18.8289 20.7718C18.4227 20.853 18.0276 20.5896 17.9464 20.1834C17.8652 19.7772 18.1287 19.3821 18.5349 19.3009L25.0315 18.0021C25.4377 17.9209 25.8328 18.1844 25.914 18.5906Z" fill="black"/>
<path fill-rule="evenodd" clip-rule="evenodd" d="M19.5947 9.27936C19.0885 9.09015 18.5258 9.12403 18.0459 9.37279L18.0356 9.37812L14.9792 10.9028C14.3934 11.2186 14.134 11.9219 14.3757 12.543L14.379 12.5513C14.497 12.8657 14.7359 13.1197 15.0425 13.2566C15.3368 13.3882 15.6724 13.3934 15.9705 13.271L19.0346 11.9762C19.4162 11.815 19.8562 11.9936 20.0174 12.3751C20.1786 12.7567 20 13.1967 19.6185 13.3579L16.5459 14.6563C15.8666 14.9371 15.1016 14.9261 14.4306 14.6261C13.7593 14.3262 13.2357 13.7706 12.9762 13.0828C12.4604 11.7513 13.0216 10.2439 14.2832 9.57401L14.3001 9.56531L17.361 8.03824C18.2191 7.59542 19.2247 7.53695 20.1285 7.87754L20.139 7.8815L26.4347 10.3624C26.8201 10.5143 27.0094 10.9498 26.8576 11.3352C26.7057 11.7205 26.2702 11.9098 25.8848 11.758L19.5947 9.27936Z" fill="black"/>
<path fill-rule="evenodd" clip-rule="evenodd" d="M16.929 12.9156C17.237 12.6386 17.7112 12.6637 17.9882 12.9716L21.1734 16.5124C21.1858 16.5261 21.1976 16.5403 21.2089 16.555C21.834 17.3625 21.7057 18.5204 20.919 19.1715L15.1369 23.9464C14.3783 24.5728 13.2695 24.5047 12.5928 23.8034L8.70728 20.8393H6.78927C6.37505 20.8393 6.03927 20.5035 6.03927 20.0893C6.03927 19.6751 6.37505 19.3393 6.78927 19.3393H8.9607C9.12508 19.3393 9.2849 19.3933 9.41559 19.493L13.5535 22.6497C13.5922 22.6792 13.628 22.7125 13.6603 22.749C13.7947 22.9009 14.0253 22.9189 14.1818 22.7898V22.7898L19.9626 18.0159V18.0159C20.12 17.8852 20.1504 17.656 20.0349 17.4896L16.873 13.9748C16.596 13.6669 16.6211 13.1926 16.929 12.9156Z" fill="black"/>
<path fill-rule="evenodd" clip-rule="evenodd" d="M11.3474 9.18593C12.3682 8.77732 13.5277 8.92587 14.4125 9.57862C14.4216 9.5853 14.4305 9.59218 14.4392 9.59927L14.7744 9.8707C15.0963 10.1314 15.146 10.6036 14.8853 10.9255C14.6247 11.2475 14.1524 11.2971 13.8305 11.0365L13.5096 10.7766C13.0464 10.4414 12.444 10.3655 11.9119 10.5757L7.07514 12.6364C6.69407 12.7988 6.25354 12.6215 6.09119 12.2404C5.92883 11.8593 6.10614 11.4188 6.48721 11.2564L11.3322 9.19223L11.3474 9.18593Z" fill="black"/>
<path fill-rule="evenodd" clip-rule="evenodd" d="M5.21038 10.1786C6.46277 10.1232 7.53048 11.0831 7.60576 12.3371C7.60665 12.3521 7.6071 12.3671 7.6071 12.3821V19.6523C7.6071 19.6671 7.60667 19.6818 7.6058 19.6966C7.53157 20.9515 6.46353 21.9125 5.21039 21.8571H1.61853C1.20432 21.8571 0.868533 21.5214 0.868533 21.1071C0.868533 20.6929 1.20432 20.3571 1.61853 20.3571H5.22853C5.2419 20.3571 5.25527 20.3575 5.26862 20.3582C5.70105 20.3814 6.07186 20.0559 6.1071 19.6265V12.4082C6.07137 11.9793 5.70074 11.6544 5.26866 11.6775C5.2553 11.6782 5.24192 11.6786 5.22853 11.6786H1.61853C1.20432 11.6786 0.868533 11.3428 0.868533 10.9286C0.868533 10.5144 1.20432 10.1786 1.61853 10.1786H5.21038Z" fill="black"/>
<path fill-rule="evenodd" clip-rule="evenodd" d="M25.9286 12.4082V19.6265C25.9638 20.0559 26.3346 20.3814 26.7671 20.3582C26.7804 20.3575 26.7938 20.3571 26.8071 20.3571H30.4171C30.8314 20.3571 31.1671 20.6929 31.1671 21.1071C31.1671 21.5214 30.8314 21.8571 30.4171 21.8571H26.8253C25.5721 21.9125 24.5041 20.9515 24.4299 19.6966C24.429 19.6818 24.4286 19.6671 24.4286 19.6523V12.3821C24.4286 12.3671 24.429 12.3521 24.4299 12.3371C24.5052 11.0831 25.5729 10.1232 26.8253 10.1786H30.4171C30.8314 10.1786 31.1671 10.5144 31.1671 10.9286C31.1671 11.3428 30.8314 11.6786 30.4171 11.6786H26.8071C26.7938 11.6786 26.7804 11.6782 26.767 11.6775C26.3349 11.6544 25.9643 11.9793 25.9286 12.4082Z" fill="black"/>
<path fill-rule="evenodd" clip-rule="evenodd" d="M0 16.0179C0 7.17144 7.17144 0 16.0179 0C24.8643 0 32.0357 7.17144 32.0357 16.0179C32.0357 24.8643 24.8643 32.0357 16.0179 32.0357C7.17144 32.0357 0 24.8643 0 16.0179ZM16.0179 1.5C7.99987 1.5 1.5 7.99987 1.5 16.0179C1.5 24.0358 7.99987 30.5357 16.0179 30.5357C24.0358 30.5357 30.5357 24.0358 30.5357 16.0179C30.5357 7.99987 24.0358 1.5 16.0179 1.5Z" fill="black"/>
</svg>
