<svg viewBox="0 0 33 33" fill="none" xmlns="http://www.w3.org/2000/svg">
<path d="M25.9608 19.5197L19.4641 20.8185" stroke="black" stroke-width="1.5" stroke-linecap="round" stroke-linejoin="round"/>
<path d="M20.1089 13.4492L17.0418 14.7453C16.5527 14.9474 16.0021 14.9395 15.5191 14.7236C15.0294 14.5049 14.6476 14.0992 14.4591 13.5971C14.0785 12.619 14.4902 11.5108 15.4173 11.0185L18.4831 9.48905C19.1534 9.14158 19.9398 9.0952 20.6463 9.36148L26.9421 11.8423" stroke="black" stroke-width="1.5" stroke-linecap="round" stroke-linejoin="round"/>
<path d="M7.57153 20.8714H9.74296L13.8809 24.0281C14.2832 24.4828 14.9735 24.5368 15.4416 24.1503L21.223 19.3758C21.698 18.9827 21.7755 18.2837 21.3981 17.7961L18.2129 14.2553" stroke="black" stroke-width="1.5" stroke-linecap="round" stroke-linejoin="round"/>
<path d="M15.0848 11.2357L14.7495 10.9643C14.0738 10.4657 13.1881 10.3522 12.4085 10.6643L7.56348 12.7286" stroke="black" stroke-width="1.5" stroke-linecap="round" stroke-linejoin="round"/>
<path d="M2.40088 21.8893H6.01088C6.86149 21.9348 7.58915 21.2848 7.63945 20.4344V13.1642C7.58844 12.3144 6.86099 11.6652 6.01088 11.7107H2.40088" stroke="black" stroke-width="1.5" stroke-linecap="round" stroke-linejoin="round"/>
<path d="M31.1993 21.8893H27.5893C26.7387 21.9348 26.011 21.2848 25.9607 20.4344V13.1642C26.0117 12.3144 26.7392 11.6652 27.5893 11.7107H31.1993" stroke="black" stroke-width="1.5" stroke-linecap="round" stroke-linejoin="round"/>
<path fill-rule="evenodd" clip-rule="evenodd" d="M16.8001 32.0678C25.2323 32.0678 32.0679 25.2322 32.0679 16.8C32.0679 8.36779 25.2323 1.53214 16.8001 1.53214C8.36788 1.53214 1.53223 8.36779 1.53223 16.8C1.53223 25.2322 8.36788 32.0678 16.8001 32.0678Z" stroke="black" stroke-width="1.5" stroke-linecap="round" stroke-linejoin="round"/>
</svg>
