<svg width="28" height="28" viewBox="0 0 28 28" fill="none" xmlns="http://www.w3.org/2000/svg">
<path d="M12.5179 4.36953L2.83272 22.0445C2.22022 23.1492 3.03507 24.5 4.31475 24.5H23.6905C24.9648 24.5 25.7796 23.1492 25.1726 22.0445L15.4819 4.36953C14.8421 3.21016 13.1577 3.21016 12.5179 4.36953ZM14.9624 11.7031L14.7655 18.375H13.2343L13.0374 11.7031H14.9624ZM13.9999 22.0063C13.4148 22.0063 12.9554 21.5633 12.9554 21C12.9554 20.4367 13.4148 19.9937 13.9999 19.9937C14.5851 19.9937 15.0444 20.4367 15.0444 21C15.0444 21.5633 14.5851 22.0063 13.9999 22.0063Z" fill="#9A99A2"/>
</svg>
