<svg xmlns="http://www.w3.org/2000/svg" viewBox="0 0 24 24"><defs><style>.a{fill:none;stroke:currentColor;stroke-linecap:round;stroke-linejoin:round;stroke-width:1.5px;}</style></defs><title>accounting-withdraw-alternate</title><path class="a" d="M14.758,21.375H2.25a.75.75,0,0,1-.742-.861l.206-.974A37.775,37.775,0,0,1,7.379,6.375h10.5A35.685,35.685,0,0,0,15.5,20.514.75.75,0,0,1,14.758,21.375Z"/><path class="a" d="M12.525,11.2,10.556,10.7a1.341,1.341,0,0,0-1.125,2.382l1.793,1.312A1.341,1.341,0,0,1,10.1,16.772l-1.97-.5"/><line class="a" x1="11.072" y1="10.828" x2="11.445" y2="9.375"/><line class="a" x1="9.21" y1="18.093" x2="9.582" y2="16.64"/><path class="a" d="M2.25,10.125H1.5a.75.75,0,0,1-.75-.75v-6a.75.75,0,0,1,.75-.75h21a.75.75,0,0,1,.75.75v6a.75.75,0,0,1-.75.75H20.25"/></svg>