<svg viewBox="0 0 33 28" fill="none" xmlns="http://www.w3.org/2000/svg">
<path fill-rule="evenodd" clip-rule="evenodd" d="M20.5432 26.5232H3.56802C3.27171 26.5233 2.99006 26.3943 2.79663 26.1698C2.60319 25.9454 2.51717 25.6478 2.56102 25.3547L2.84059 24.0329C4.2397 17.6412 6.8494 11.5765 10.5288 6.16608H24.7788C22.4155 12.278 21.3171 18.8059 21.5502 25.3547C21.594 25.6478 21.508 25.9454 21.3146 26.1698C21.1211 26.3943 20.8395 26.5233 20.5432 26.5232V26.5232Z" stroke="#00DAFF" stroke-width="1.5" stroke-linecap="round" stroke-linejoin="round"/>
<path d="M17.5125 12.7143L14.8403 12.0357C13.9946 11.8176 13.1132 12.2311 12.7402 13.0208C12.3673 13.8105 12.6079 14.7538 13.3135 15.2684L15.7469 17.049C16.4439 17.5662 16.6788 18.5036 16.3079 19.2883C15.937 20.0731 15.0635 20.4866 14.2214 20.2763L11.5479 19.5977" stroke="#00DAFF" stroke-width="1.5" stroke-linecap="round" stroke-linejoin="round"/>
<path d="M3.56794 11.2554H2.55008C1.98794 11.2554 1.53223 10.7996 1.53223 10.2375V2.09464C1.53223 1.53249 1.98794 1.07678 2.55008 1.07678H31.0501C31.6122 1.07678 32.0679 1.53249 32.0679 2.09464V10.2375C32.0679 10.7996 31.6122 11.2554 31.0501 11.2554H27.9965" stroke="#00DAFF" stroke-width="1.5" stroke-linecap="round" stroke-linejoin="round"/>
</svg>
