<svg viewBox="0 0 400 188" fill="none" xmlns="http://www.w3.org/2000/svg">
<path fill-rule="evenodd" clip-rule="evenodd" d="M14.1025 0.31671C22.2889 -1.26585 30.4425 3.20564 33.5387 10.9756L60.8696 79.5627V17.4592C60.8696 7.81769 68.6559 0.00171484 78.2609 0.00171484C87.8658 0.00171484 95.6522 7.81769 95.6522 17.4592V170.212C95.6522 178.581 89.7361 185.772 81.5497 187.355C73.3633 188.937 65.2097 184.466 62.1134 176.696L34.7826 108.109V170.212C34.7826 179.854 26.9963 187.669 17.3913 187.669C7.78635 187.669 0 179.854 0 170.212V17.4592C0 9.09064 5.91607 1.89927 14.1025 0.31671ZM169.565 34.9167C162.361 34.9167 156.522 40.7786 156.522 48.0098V91.6534H200C209.605 91.6534 217.391 99.4694 217.391 109.111C217.391 118.752 209.605 126.568 200 126.568H156.522V139.661C156.522 146.893 162.361 152.755 169.565 152.755H200C209.605 152.755 217.391 160.571 217.391 170.212C217.391 179.854 209.605 187.669 200 187.669H169.565C143.152 187.669 121.739 166.176 121.739 139.661V48.0098C121.739 21.4956 143.152 0.00171484 169.565 0.00171484H200C209.605 0.00171484 217.391 7.81769 217.391 17.4592C217.391 27.1007 209.605 34.9167 200 34.9167H169.565ZM260.87 0.00171484C270.475 0.00171484 278.261 7.81769 278.261 17.4592V58.5395C278.256 78.2404 281.756 97.7768 288.584 116.223L305.017 58.4891C307.15 50.9946 313.974 45.8276 321.739 45.8276C329.504 45.8276 336.328 50.9946 338.461 58.4891L354.893 116.22C361.715 97.7716 365.214 78.2403 365.217 58.5395C365.217 58.5387 365.217 58.5403 365.217 58.5395V17.4592C365.217 7.81769 373.004 0.00171484 382.609 0.00171484C392.214 0.00171484 400 7.81769 400 17.4592V58.5395C399.997 84.0753 395.14 109.378 385.69 133.087C385.69 133.088 385.691 133.086 385.69 133.087L368.322 176.693C365.561 183.625 358.715 188.028 351.287 187.647C343.859 187.266 337.495 182.186 335.452 175.008L321.739 126.831L308.026 175.008C305.983 182.186 299.619 187.266 292.191 187.647C284.764 188.028 277.917 183.625 275.156 176.693L257.792 133.097C257.792 133.097 257.792 133.098 257.792 133.097C248.332 109.388 243.473 84.0797 243.478 58.5395C243.478 58.5381 243.478 58.541 243.478 58.5395V17.4592C243.478 7.81769 251.265 0.00171484 260.87 0.00171484Z" fill="#FF0057"/>
</svg>
