<svg xmlns="http://www.w3.org/2000/svg" viewBox="0 0 30 30.04"><defs><style>.cls-1{fill:#78909c;}.cls-2{fill:#455a64;}.cls-3{fill:#ffe0b2;}.cls-4{fill:#e6caa0;}.cls-5{fill:#fff;}</style></defs><g id="Layer_2" data-name="Layer 2"><g id="Layer_1-2" data-name="Layer 1"><g id="anonymity"><path class="cls-1" d="M17.5,14.54a1.28,1.28,0,0,1-1.2-1L16,12.1,15.5,9.54h7L22,12.05l-.11.53a2.54,2.54,0,0,1-2.39,2Z"/><path class="cls-2" d="M19.5,15h-2a1.78,1.78,0,0,1-1.69-1.38l-.29-1.46a.51.51,0,0,1,.39-.59.5.5,0,0,1,.59.39l.29,1.46a.79.79,0,0,0,.71.58h2a2,2,0,0,0,1.9-1.56l.61-3a.49.49,0,0,1,.59-.39.5.5,0,0,1,.39.59l-.61,3A3,3,0,0,1,19.5,15Z"/><path class="cls-1" d="M12.5,14.54a1.28,1.28,0,0,0,1.2-1L14,12.1l.51-2.56h-7L8,12.05l.11.53a2.54,2.54,0,0,0,2.39,2Z"/><path class="cls-2" d="M15,9.64l-1-.2-.8,4a.79.79,0,0,1-.71.58h-2a2,2,0,0,1-1.9-1.56L8.49,12a.5.5,0,0,0-1,.19h0l.11.53A3,3,0,0,0,10.5,15h2a1.78,1.78,0,0,0,1.69-1.38Z"/><path class="cls-3" d="M15,5.54c8,0,14.5,1.12,14.5,2.5S23,10.54,15,10.54.5,9.42.5,8c0-.83,2.36-1.57,6-2Z"/><path class="cls-4" d="M21.61,5.82s0,.07,0,.12c0,2.06-4,3.83-9.63,4.55,1,0,2,0,3,0,8,0,14.5-1.12,14.5-2.5C29.5,7.07,26.29,6.23,21.61,5.82Z"/><path class="cls-2" d="M15,11c-.61,0-15,0-15-3,0-.42,0-1.72,6.43-2.52A.5.5,0,0,1,7,6a.49.49,0,0,1-.43.56C2.25,7.05,1.07,7.82,1,8.05c.23.7,5.1,2,14,2S28.77,8.75,29,8c-.23-.7-5.1-2-14-2a.5.5,0,0,1,0-1c.61,0,15,0,15,3S15.61,11,15,11Z"/><path class="cls-4" d="M7.78,16.26C10,25,18,29.54,18,29.54L4,22l2-3L.5,15a16.27,16.27,0,0,1,6-2Z"/><path class="cls-4" d="M22.22,16.2A14.07,14.07,0,0,1,19,22.94c-.89.89-1.71,1.69-2.46,2.41L15,26.8c-1.88,1.74,1,.54,1,.54L26,22l-2-3,5.5-4a16.27,16.27,0,0,0-6-2Z"/><path class="cls-2" d="M16,27.84a.5.5,0,0,1-.24-.94l9.52-5.1-1.7-2.54a.5.5,0,0,1,.13-.68l4.85-3.53a14.83,14.83,0,0,0-5.07-1.55.5.5,0,1,1,.07-1,16.53,16.53,0,0,1,6.19,2.05A.49.49,0,0,1,30,15a.5.5,0,0,1-.21.43L24.68,19.1l1.74,2.6a.57.57,0,0,1,.07.4.54.54,0,0,1-.25.32l-10,5.36A.53.53,0,0,1,16,27.84Z"/><path class="cls-2" d="M16.54,25.85a.49.49,0,0,1-.36-.15.5.5,0,0,1,0-.71q1.13-1.08,2.46-2.4a13.59,13.59,0,0,0,3.08-6.47.5.5,0,0,1,1,.16,14.64,14.64,0,0,1-3.36,7c-.89.88-1.71,1.69-2.47,2.41A.49.49,0,0,1,16.54,25.85Z"/><path class="cls-3" d="M6.93,14.18l-.45-1.12a16.27,16.27,0,0,0-6,2l2.73,2A13,13,0,0,1,6.93,14.18Z"/><path class="cls-2" d="M18,30a.53.53,0,0,1-.24-.06l-14-7.5a.49.49,0,0,1-.24-.32.51.51,0,0,1,.06-.4l1.74-2.6L.21,15.44A.49.49,0,0,1,0,15a.48.48,0,0,1,.25-.4,16.53,16.53,0,0,1,6.19-2A.51.51,0,0,1,7,13a.5.5,0,0,1-.47.54,14.62,14.62,0,0,0-5.07,1.55l4.85,3.53a.49.49,0,0,1,.13.68l-1.7,2.54,9.84,5.27c-1.09-1-2.42-2.28-3.91-3.78-2.14-2.13-3.15-5.78-3.36-7a.5.5,0,0,1,1-.17c.19,1.07,1.14,4.53,3.08,6.48,4.11,4.1,6.94,6.48,7,6.51a.48.48,0,0,1,.09.66A.49.49,0,0,1,18,30Z"/><path class="cls-5" d="M11.39.6a1.3,1.3,0,0,0-1.79.89A30.69,30.69,0,0,0,8.5,8s1.5.5,6.5.5S21.5,8,21.5,8a30.69,30.69,0,0,0-1.1-6.55A1.3,1.3,0,0,0,18.61.6L15,2Z"/><path class="cls-3" d="M11.43,2.19c-1.3.47-2.1,4.07-2.1,6.06,0,0,.67.29,5.67.29S21.5,8,21.5,8a30.69,30.69,0,0,0-1.1-6.55A1.3,1.3,0,0,0,18.61.6L15,2.54S12.67,1.75,11.43,2.19Z"/><path class="cls-4" d="M20.4,1.49a1.28,1.28,0,0,0-1.4-1,6.28,6.28,0,0,1,.13,1.24,7.68,7.68,0,0,1-4.61,6.79H15c5,0,6.5-.5,6.5-.5A30.69,30.69,0,0,0,20.4,1.49Z"/><path class="cls-2" d="M15,9c-5,0-6.59-.5-6.66-.53A.49.49,0,0,1,8,8,30.4,30.4,0,0,1,9.12,1.36,1.83,1.83,0,0,1,11.58.13L15,1.5,18.42.13a1.83,1.83,0,0,1,2.46,1.23A31,31,0,0,1,22,8a.49.49,0,0,1-.34.47C21.59,8.54,20,9,15,9ZM9,7.65A33.23,33.23,0,0,0,15,8a33.23,33.23,0,0,0,6-.39,33.78,33.78,0,0,0-1.07-6,.83.83,0,0,0-1.13-.55L15.19,2.5a.5.5,0,0,1-.38,0l-3.6-1.44a.82.82,0,0,0-1.12.55A33,33,0,0,0,9,7.65Z"/></g></g></g></svg>