<?xml version="1.0" encoding="utf-8"?>
<!-- Generator: Adobe Illustrator 17.0.0, SVG Export Plug-In . SVG Version: 6.00 Build 0)  -->
<!DOCTYPE svg PUBLIC "-//W3C//DTD SVG 1.1//EN" "http://www.w3.org/Graphics/SVG/1.1/DTD/svg11.dtd">
<svg version="1.1" id="Layer_1" xmlns="http://www.w3.org/2000/svg" xmlns:xlink="http://www.w3.org/1999/xlink" x="0px" y="0px"
	 width="400px" height="294.232px" viewBox="0 0 400 294.232" enable-background="new 0 0 400 294.232" xml:space="preserve">
<path fill="#367E99" d="M877.773-877.602c-0.631,0-1.261-0.242-1.74-0.726l-38.846-39.199c-0.952-0.96-0.945-2.512,0.016-3.464
	c0.961-0.954,2.511-0.944,3.464,0.016l38.846,39.199c0.952,0.96,0.945,2.512-0.016,3.464
	C879.019-877.838,878.397-877.602,877.773-877.602z"/>
<path fill="#367E99" d="M965.201-921.882c-0.603-0.185-1.135-0.601-1.452-1.203l-25.676-48.85c-0.63-1.197-0.169-2.679,1.029-3.308
	c1.198-0.631,2.678-0.168,3.308,1.029l25.676,48.85c0.63,1.197,0.169,2.679-1.029,3.308
	C966.462-921.743,965.797-921.699,965.201-921.882z"/>
<path fill="#367E99" d="M1067.412-938.388c-0.339-0.532-0.473-1.194-0.323-1.858l12.195-53.822c0.298-1.319,1.611-2.147,2.931-1.848
	c1.321,0.298,2.146,1.611,1.848,2.931l-12.195,53.822c-0.298,1.319-1.611,2.147-2.931,1.848
	C1068.281-937.464,1067.747-937.862,1067.412-938.388z"/>
<g>
	<g>
		<g>
			<g>
				<g>
					<g>
						<g>
							<g>
								<g>
									<g>
										<circle fill="#00E676" cx="191.103" cy="110.476" r="18.917"/>
									</g>
								</g>
							</g>
						</g>
					</g>
				</g>
			</g>
		</g>
	</g>
	<path fill="#FFFFFF" d="M200.008,115.338l-5.881-4.884l5.884-4.906c0.423-0.353,0.667-0.876,0.664-1.426
		c-0.002-0.551-0.25-1.072-0.676-1.421l-8.175-6.703c-0.552-0.453-1.316-0.547-1.961-0.241c-0.646,0.305-1.057,0.956-1.057,1.67
		v8.608l-5.133-4.263l-2.361,2.842l7.039,5.846l-7.042,5.872l2.366,2.838l5.131-4.278v8.634c0,0.716,0.413,1.367,1.061,1.672
		c0.251,0.118,0.519,0.176,0.786,0.176c0.422,0,0.84-0.145,1.178-0.424l8.175-6.766c0.424-0.351,0.669-0.872,0.669-1.422
		C200.675,116.211,200.431,115.689,200.008,115.338L200.008,115.338z M192.5,101.33l3.428,2.811L192.5,107V101.33z M192.5,119.598
		v-5.693l3.433,2.851L192.5,119.598z"/>
	<path fill="#FFFFFF" d="M188.351,110.46l-7.042,5.872l2.366,2.838l5.131-4.278v8.634c0,0.716,0.413,1.367,1.061,1.672
		c0.251,0.118,0.519,0.176,0.786,0.176c0.422,0,0.84-0.145,1.178-0.424l8.175-6.766c0.424-0.351,0.669-0.872,0.669-1.422
		c0-0.55-0.244-1.071-0.667-1.423l-5.881-4.884L188.351,110.46z M192.5,119.598v-5.693l3.433,2.851L192.5,119.598z"/>
</g>
<path fill="#ED985F" d="M377.659,124.215L377.659,124.215c0.538,0.64,1.096,1.285,1.675,1.927
	C378.81,125.484,378.261,124.836,377.659,124.215z"/>
<path fill="none" stroke="#ED985F" stroke-miterlimit="10" d="M396.264,141.29"/>
<g>
	<path fill="#01DAFF" d="M118.697,216.624H60.023c-4.629,0-8.382-3.753-8.382-8.382V88.799c0-4.629,3.753-8.382,8.382-8.382h58.674
		c4.629,0,8.382,3.753,8.382,8.382v119.444C127.079,212.872,123.327,216.624,118.697,216.624z"/>
	<path opacity="0.4" fill="#0BC7DB" d="M51.718,86.438C51.462,87.242,51,87.91,51,88.799v119.444c0,4.629,4.394,8.758,9.023,8.758
		h49.416C72.698,189,56.181,112.05,51.718,86.438z"/>
	<path fill="#5C6B7B" d="M122.469,208.242H56.252c-1.389,0-2.515-1.126-2.515-2.515V91.313c0-1.389,1.126-2.515,2.515-2.515h66.218
		c1.389,0,2.515,1.126,2.515,2.515v114.414C124.984,207.116,123.858,208.242,122.469,208.242z"/>
	<path fill="#060707" d="M95.365,85.678H81.115c-0.694,0-1.257-0.563-1.257-1.257c0-0.694,0.563-1.257,1.257-1.257h14.249
		c0.694,0,1.257,0.563,1.257,1.257C96.622,85.115,96.059,85.678,95.365,85.678z"/>
	<path fill="#060707" d="M96.485,214.529H82.236c-0.694,0-1.257-0.563-1.257-1.257v-1.676c0-0.694,0.563-1.257,1.257-1.257h14.249
		c0.694,0,1.257,0.563,1.257,1.257v1.676C97.742,213.966,97.18,214.529,96.485,214.529z"/>
</g>
<g>
	<path fill="#34414C" d="M113,144c0,1.657-1.343,3-3,3H68c-1.657,0-3-1.343-3-3v-33c0-1.657,1.343-3,3-3h42c1.657,0,3,1.343,3,3V144
		z"/>
	<path fill="#979CA0" d="M114,143c0,1.657-1.343,3-3,3H69c-1.657,0-3-1.343-3-3v-33c0-1.657,1.343-3,3-3h42c1.657,0,3,1.343,3,3V143
		z"/>
</g>
<g>
	<path fill="#00E676" d="M70.63,130.439c0-2.614,1.639-4.862,4.753-4.862c1.178,0,2.113,0.352,3.102,1.205
		c0.365,0.338,0.406,0.935,0.041,1.314c-0.366,0.325-0.921,0.284-1.246-0.041c-0.555-0.583-1.124-0.745-1.896-0.745
		c-2.086,0-3.087,1.476-3.087,3.128c0,1.679,0.989,3.223,3.087,3.223c0.772,0,1.49-0.311,2.113-0.867
		c0.42-0.325,1.002-0.162,1.246,0.163c0.217,0.298,0.325,0.799-0.149,1.273c-0.948,0.88-2.086,1.056-3.21,1.056
		C72.107,135.287,70.63,133.053,70.63,130.439z"/>
	<path fill="#00E676" d="M85.265,135.328c-2.505,0.108-5.105-1.557-5.105-4.876c0-3.331,2.6-4.97,5.105-4.97
		c2.37,0.122,4.848,1.76,4.848,4.97C90.113,133.662,87.635,135.328,85.265,135.328z M85.116,127.243c-1.517,0-3.169,1.07-3.169,3.21
		c0,2.126,1.652,3.21,3.169,3.21c1.557,0,3.223-1.083,3.223-3.21C88.339,128.313,86.673,127.243,85.116,127.243z"/>
	<path fill="#00E676" d="M92.694,135.193c-0.447,0-0.935-0.244-0.935-0.84v-7.692c0-0.488,0.488-0.84,0.935-0.84h3.101
		c6.189,0,6.053,9.372,0.122,9.372H92.694z M93.547,127.473v6.067h2.248c3.657,0,3.819-6.067,0-6.067H93.547z"/>
	<path fill="#00E676" d="M102.804,135.193c-0.474,0-0.84-0.366-0.84-0.84v-7.692c0-0.488,0.366-0.84,0.84-0.84h4.862
		c1.246,0,1.219,1.761,0,1.761h-3.9v2.031h3.413c1.205,0,1.205,1.774,0,1.774h-3.413v2.031h4.131c1.232,0,1.327,1.774,0,1.774
		H102.804z"/>
</g>
<g>
	<rect x="66" y="116" fill="#878C8E" width="48" height="1"/>
</g>
<path fill="#9DA2A5" d="M368.119,128.062c-5.273-1.108-15.524-3.334-15.524-3.334l-10.597-5.038c-1.032,1.163-1.906,2.5-2.557,4.005
	l-34.452,79.731c0,0,1.553,1.474,4.809,2.423l0.146-0.29l22.601,9.726l34.435-79.69
	C368.043,133.135,368.386,130.549,368.119,128.062z"/>
<rect x="257.417" y="112.898" transform="matrix(0.9963 0.086 -0.086 0.9963 12.0657 -26.191)" fill="#5C6B7B" width="105" height="28"/>
<path fill="#526270" d="M294.613,111.524l-35.798-3.091l-2.409,27.896l68.553,5.919
	C309.558,132.484,299.387,118.906,294.613,111.524z"/>
<path fill="#526270" d="M335.114,143.125l8.241-17.941c0,0,3.472-7.27,10.907-8.134l-15.66,26.376L335.114,143.125z"/>
<path fill="#B3B8BD" d="M337.355,217.708l34.435-79.69c3.286-7.605-0.215-16.434-7.819-19.719
	c-7.607-3.289-16.434,0.215-19.719,7.819l-34.452,79.731L337.355,217.708z"/>
<path fill="#878C8E" d="M324.503,196.036l-1.585,3.791l5.116,2.139l2.139-5.116l-3.791-1.585
	C325.648,194.958,324.81,195.302,324.503,196.036z M322.424,201.008l-0.273,0.652c-0.307,0.734,0.037,1.572,0.771,1.879l0.652,0.273
	l0.827-1.977L322.424,201.008z M324.755,204.305l0.827-1.977l1.977,0.827l-0.827,1.977L324.755,204.305z M332.513,200.126
	l0.273-0.652c0.307-0.734-0.037-1.572-0.771-1.879l-0.631-0.264l-0.827,1.977L332.513,200.126z M329.236,202.469l0.827-1.977
	l1.977,0.827l-0.827,1.977L329.236,202.469z M327.915,205.627l0.652,0.273c0.734,0.307,1.572-0.037,1.879-0.771l0.273-0.652
	l-1.977-0.827L327.915,205.627z M327.7,189.878l-0.324,0.774l7.234,3.025l1.713-4.097l-0.692-0.289l-1.389,3.322L327.7,189.878z
	 M332.044,184.871c-0.631,1.508,0.047,3.036,1.656,3.709l0.185,0.077c0.701,0.269,1.482,0.236,2.183-0.069
	c0.654-0.302,1.182-0.822,1.463-1.495l0.042-0.101c0.298-0.713,0.314-1.497,0.088-2.214l-0.012-0.03l-0.715,0.108l0.004,0.049
	c0.209,0.59,0.211,1.214-0.027,1.783c-0.392,0.937-1.404,1.639-2.795,1.129l1.636-3.913l-0.04-0.017c0,0-0.236-0.123-0.358-0.174
	C333.885,183.105,332.589,183.567,332.044,184.871L332.044,184.871z M333.471,187.527c-0.85-0.546-1.159-1.466-0.793-2.342
	c0.273-0.652,0.959-1.203,2.105-0.796L333.471,187.527z M335.434,178.484l0.266,0.111c-0.687,0.097-1.288,0.562-1.553,1.195
	l-0.026,0.061c-0.58,1.386,0.121,2.804,1.731,3.477c1.631,0.682,3.114,0.224,3.685-1.141c0.452-1.08,0.004-1.842-0.213-2.124
	l0.795,0.333l0.307-0.734l-7.195-3.009l-0.315,0.753l2.527,1.057L335.434,178.484z M338.906,181.804
	c-0.401,0.958-1.479,1.248-2.702,0.737c-1.182-0.494-1.736-1.516-1.344-2.453c0.333-0.795,1.295-1.325,2.681-0.745
	C339.049,179.973,339.229,181.03,338.906,181.804z M337.725,173.29l0.04,0.017c-0.305,0.041-1.021,0.267-1.473,1.347
	c-0.571,1.365,0.094,2.696,1.683,3.361c1.589,0.664,3.061,0.179,3.64-1.207c0.315-0.753,0.263-1.375-0.141-1.95l0.713,0.298
	c0.998,0.417,1.306,1.287,0.836,2.409c-0.196,0.468-0.523,0.907-0.926,1.241l-0.038,0.031l0.512,0.549l0.038-0.031
	c0.487-0.419,0.876-0.95,1.115-1.522c0.503-1.202,0.428-2.741-1.264-3.449l-5.011-2.095l-0.315,0.753L337.725,173.29z
	 M340.986,176.425c-0.417,0.998-1.464,1.326-2.667,0.823c-1.223-0.512-1.677-1.371-1.268-2.35c0.452-1.08,1.295-1.325,2.58-0.788
	C340.904,174.619,341.395,175.447,340.986,176.425L340.986,176.425z M338.614,169.16c-0.631,1.508,0.056,3.015,1.646,3.68
	l0.184,0.077c0.701,0.269,1.482,0.236,2.183-0.069c0.654-0.302,1.182-0.822,1.463-1.495l0.042-0.101
	c0.298-0.713,0.314-1.497,0.088-2.214l-0.012-0.03l-0.723,0.129l0.004,0.049c0.209,0.59,0.211,1.214-0.027,1.783
	c-0.392,0.937-1.404,1.639-2.795,1.129l1.644-3.931l-0.04-0.017c0,0-0.236-0.123-0.358-0.174
	C340.464,167.372,339.167,167.835,338.614,169.16z M340.049,171.796c-0.85-0.546-1.159-1.466-0.793-2.342
	c0.273-0.652,0.959-1.203,2.105-0.796L340.049,171.796z M340.956,163.842c-0.063,0.093-0.098,0.175-0.159,0.268
	c-0.298,0.713-0.096,1.492,0.529,2.113l-1.162-0.486l-0.315,0.753l5.165,2.135l0.04,0.017l0.324-0.774l-2.18-0.911
	c-0.327-0.137-0.656-0.322-0.919-0.553c-0.693-0.577-0.971-1.34-0.699-1.992c0.034-0.082,0.068-0.163,0.123-0.236l0.017-0.04
	l-0.753-0.315L340.956,163.842z"/>
<path opacity="0.3" fill="#A5A8AA" d="M369.309,122.212c1.23,2.549,1.897,6.221,0.271,11.176
	c-3.188,9.709-28.162,67.278-36.809,82.347l4.585,1.973l34.435-79.69C374.158,132.537,372.987,126.431,369.309,122.212z"/>
<path fill="#34414C" d="M269.732,131.502c-4.41,0-7.998-3.588-7.998-7.998s3.588-7.997,7.998-7.997s7.998,3.587,7.998,7.997
	S274.142,131.502,269.732,131.502z M269.732,116.507c-3.858,0-6.998,3.139-6.998,6.997s3.139,6.998,6.998,6.998
	s6.998-3.139,6.998-6.998S273.59,116.507,269.732,116.507z"/>
<g>
	<g>
		<path fill="#00E676" d="M326.45,134.282c-0.166,1.926-1.862,3.353-3.787,3.187l-34.871-3.004
			c-1.926-0.166-3.353-1.862-3.187-3.787l0.944-10.959c0.166-1.926,1.862-3.353,3.787-3.187l34.871,3.004
			c1.926,0.166,3.353,1.862,3.187,3.787L326.45,134.282z M326.398,123.237c0.118-1.376-0.901-2.587-2.276-2.705l-34.871-3.004
			c-1.376-0.119-2.587,0.901-2.705,2.276l-0.944,10.959c-0.118,1.376,0.901,2.587,2.276,2.705l34.871,3.004
			c1.376,0.118,2.587-0.901,2.705-2.276L326.398,123.237z"/>
	</g>
	<g>
		<path fill="#00E676" d="M289.001,125.49c0.202-2.341,1.843-4.228,4.633-3.988c1.055,0.091,1.865,0.478,2.685,1.319
			c0.301,0.331,0.292,0.868-0.065,1.18c-0.352,0.263-0.846,0.184-1.113-0.133c-0.452-0.565-0.949-0.754-1.641-0.813
			c-1.868-0.161-2.879,1.084-3.007,2.564c-0.13,1.504,0.637,2.963,2.517,3.125c0.692,0.06,1.358-0.164,1.959-0.613
			c0.401-0.259,0.91-0.068,1.103,0.242c0.172,0.284,0.23,0.741-0.231,1.128c-0.917,0.715-1.95,0.785-2.957,0.699
			C289.949,129.946,288.799,127.83,289.001,125.49z"/>
		<path fill="#00E676" d="M301.731,130.997c-2.253-0.097-4.453-1.789-4.197-4.761c0.257-2.984,2.712-4.251,4.957-4.057
			c2.113,0.292,4.207,1.951,3.959,4.825C306.202,129.879,303.853,131.18,301.731,130.997z M302.221,123.744
			c-1.358-0.117-2.921,0.714-3.086,2.63c-0.164,1.904,1.232,3.002,2.59,3.119c1.395,0.12,2.971-0.722,3.135-2.626
			C305.025,124.952,303.616,123.865,302.221,123.744z"/>
		<path fill="#00E676" d="M308.395,131.449c-0.401-0.035-0.818-0.29-0.772-0.824l0.594-6.889c0.038-0.437,0.501-0.715,0.902-0.68
			l2.777,0.239c5.544,0.478,4.699,8.861-0.613,8.403L308.395,131.449z M309.754,124.601l-0.468,5.434l2.013,0.173
			c3.275,0.282,3.889-5.139,0.468-5.434L309.754,124.601z"/>
		<path fill="#00E676" d="M317.45,132.229c-0.425-0.037-0.724-0.392-0.687-0.817l0.594-6.889c0.038-0.437,0.392-0.724,0.817-0.687
			l4.354,0.375c1.116,0.096,0.956,1.671-0.136,1.577l-3.493-0.301l-0.157,1.819l3.057,0.263c1.08,0.093,0.943,1.682-0.137,1.589
			l-3.057-0.263l-0.157,1.819l3.7,0.319c1.104,0.095,1.052,1.691-0.137,1.589L317.45,132.229z"/>
	</g>
</g>
<g>
	<path fill="#00E676" d="M147.831,118.202c-2.575,0.5-5.178,1.043-7.735,1.611c-0.264,0.059-0.43,0.32-0.372,0.584
		c0.051,0.228,0.253,0.383,0.478,0.383c0.035,0,0.071-0.004,0.107-0.011c2.549-0.567,5.143-1.108,7.709-1.607
		c0.266-0.052,0.439-0.308,0.387-0.574C148.353,118.323,148.095,118.148,147.831,118.202z"/>
	<path fill="#00E676" d="M132.407,121.634c-1.828,0.46-3.629,0.94-5.407,1.427v1.015c1.854-0.51,3.736-1.012,5.646-1.493
		c0.262-0.066,0.421-0.332,0.355-0.594C132.935,121.727,132.669,121.568,132.407,121.634z"/>
	<path fill="#00E676" d="M163.416,115.593c-2.594,0.364-5.221,0.768-7.809,1.202c-0.267,0.044-0.446,0.297-0.402,0.564
		c0.04,0.239,0.248,0.409,0.482,0.409c0.027,0,0.054-0.002,0.081-0.007c2.579-0.432,5.198-0.835,7.783-1.198
		c0.268-0.038,0.455-0.285,0.417-0.553C163.93,115.742,163.679,115.552,163.416,115.593z"/>
	<path fill="#00E676" d="M226.455,113.977c-2.595-0.256-5.243-0.472-7.872-0.643c-0.273-0.02-0.503,0.187-0.52,0.457
		s0.187,0.502,0.457,0.52c2.618,0.17,5.255,0.385,7.839,0.64c0.016,0.001,0.033,0.002,0.049,0.002c0.249,0,0.461-0.189,0.487-0.442
		C226.921,114.243,226.725,114.003,226.455,113.977z"/>
	<path fill="#00E676" d="M257.574,119.307c-2.53-0.631-5.12-1.224-7.701-1.763c-0.269-0.055-0.524,0.114-0.579,0.379
		c-0.055,0.264,0.114,0.524,0.379,0.579c2.569,0.537,5.147,1.128,7.664,1.756c0.04,0.01,0.079,0.014,0.119,0.014
		c0.22,0,0.42-0.149,0.475-0.371C257.996,119.638,257.836,119.372,257.574,119.307z"/>
	<path fill="#00E676" d="M242.112,116.073c-2.568-0.438-5.196-0.837-7.81-1.186c-0.264-0.038-0.514,0.152-0.55,0.42
		c-0.036,0.268,0.152,0.514,0.42,0.55c2.603,0.348,5.219,0.745,7.775,1.181c0.028,0.005,0.055,0.007,0.083,0.007
		c0.234,0,0.441-0.169,0.482-0.407C242.557,116.371,242.379,116.118,242.112,116.073z"/>
</g>
<g>
	<path fill="#9DA2A5" d="M357.084,142.51c-5.082-0.439-8.859-4.93-8.42-10.011c0.439-5.082,4.93-8.859,10.011-8.42
		s8.859,4.93,8.42,10.011S362.166,142.948,357.084,142.51z M358.59,125.074c-4.532-0.391-8.538,2.978-8.929,7.51
		s2.978,8.538,7.51,8.929c4.532,0.391,8.538-2.978,8.929-7.51C366.491,129.472,363.122,125.466,358.59,125.074z"/>
</g>
</svg>
