<?xml version="1.0" encoding="utf-8"?>
<!-- Generator: Adobe Illustrator 17.0.0, SVG Export Plug-In . SVG Version: 6.00 Build 0)  -->
<!DOCTYPE svg PUBLIC "-//W3C//DTD SVG 1.1//EN" "http://www.w3.org/Graphics/SVG/1.1/DTD/svg11.dtd">
<svg version="1.1" id="Layer_1" xmlns="http://www.w3.org/2000/svg" xmlns:xlink="http://www.w3.org/1999/xlink" x="0px" y="0px"
	 width="400px" height="294.232px" viewBox="0 0 400 294.232" enable-background="new 0 0 400 294.232" xml:space="preserve">
<path fill="#367E99" d="M877.773-877.602c-0.631,0-1.261-0.242-1.74-0.726l-38.846-39.199c-0.952-0.96-0.945-2.512,0.016-3.464
	c0.961-0.954,2.511-0.944,3.464,0.016l38.846,39.199c0.952,0.96,0.945,2.512-0.016,3.464
	C879.019-877.838,878.397-877.602,877.773-877.602z"/>
<path fill="#367E99" d="M965.201-921.882c-0.603-0.185-1.135-0.601-1.452-1.203l-25.676-48.85c-0.63-1.197-0.169-2.679,1.029-3.308
	c1.198-0.631,2.678-0.168,3.308,1.029l25.676,48.85c0.63,1.197,0.169,2.679-1.029,3.308
	C966.462-921.743,965.797-921.699,965.201-921.882z"/>
<path fill="#367E99" d="M1067.412-938.388c-0.339-0.532-0.473-1.194-0.323-1.858l12.195-53.822c0.298-1.319,1.611-2.147,2.931-1.848
	c1.321,0.298,2.146,1.611,1.848,2.931l-12.195,53.822c-0.298,1.319-1.611,2.147-2.931,1.848
	C1068.281-937.464,1067.747-937.862,1067.412-938.388z"/>
<g id="path-1_4_">
</g>
<g id="path-1_6_">
</g>
<ellipse cx="-581.82" cy="548.841" rx="52.18" ry="8.492"/>
<path fill="#04D2EF" d="M-589.178,475.332c0,0,27.492,16.57,55.585,16.619L-549,554c0,0-45.833,6.5-77-2.242L-589.178,475.332z"/>
<path fill="#09C5D8" d="M-544.002,491.228l-23.062,64.495C-556.306,555.035-549,554-549,554l15.407-62.049
	C-537.089,491.945-540.576,491.682-544.002,491.228z"/>
<path fill="#F3A56E" d="M-286.5,55"/>
<g>
	<polyline fill="#E08546" points="95.116,122.809 88.349,60.115 115.922,60.206 138.57,85.496 135.558,105.324 126.059,118.141 	"/>
	<path fill="#E08546" d="M302.157,68.514c0,0-20.48,3.07-37.043,13.597c-16.563,10.527,5.638,21.151,5.638,21.151l38.164,19.052
		l15.892-7.958l18.747-36.635"/>
	<polyline fill="#5C6B7B" points="259.147,88 259.897,76.417 258.425,75.673 248.147,75.583 246.397,80.25 246.147,86.167 
		245.677,88.632 250.23,89.083 255.48,88.5 258.314,88.25 	"/>
	<polygon fill="#4B5966" points="257.311,150.288 254.021,158.457 255.082,159.412 259.008,150.818 	"/>
	<polygon fill="#5C6B7B" points="265.481,154.319 261.024,162.383 255.082,159.412 259.327,150.075 	"/>
	<path fill="#F3A56E" d="M98.156,220.634l3.501-20.053c0,0,28.648,5.73,47.428-5.093l0.637,22.6
		C149.722,218.087,111.525,228.91,98.156,220.634z"/>
	<g>
		<ellipse cx="117.161" cy="275.106" rx="55.161" ry="8.977"/>
		<path fill="#04D2EF" d="M154.924,280.295l-4.353-71.439c0,0-22.388,13.051-51.354,2.865l-19.307,68.222
			C79.911,279.943,107.043,287.428,154.924,280.295z"/>
		<path fill="#09C5D8" d="M141.128,217.132c6.119-3.443,9.549-7.321,9.549-7.321l4.247,70.487
			c-9.385,1.398-17.943,2.209-25.658,2.619L141.128,217.132z"/>
	</g>
	<path fill="#E5925A" d="M257.629,107.422l20.593,1.898c7.565-13.242,19.721-33.95,25.88-41.368l36.499,19.735l0.849,16.34
		l-21.008,34.802l-2.971,0.424l-17.613-11.883l-22.734-5.128c-0.766-0.149-1.59-0.332-2.451-0.553l-3.038-0.685
		c0,0,0.043-0.077,0.106-0.191C265.914,118.814,259.48,114.937,257.629,107.422z"/>
	<path fill="#E08546" d="M311.741,117.82l-4.669-8.064l-2.971-26.313l-4.992-8.634c1.889-2.806,3.596-5.175,4.992-6.857
		l36.499,19.735l0.849,16.34l-21.008,34.802l-2.971,0.424l-7.591-5.122C309.996,129.757,310.391,121.722,311.741,117.82z"/>
	<path fill="#F3A56E" d="M399.647,134.667c0,0-18.355-44.699-21.857-46.608s-40.107-20.213-53.953-24.351l-5.252-2.069
		c0,0-33.9,3.82-40.584,11.618c0,0,3.82,9.39,23.077,6.207c0,0,12.573,0.796,17.03-1.592c0,0,9.868,8.753,14.961,10.822
		c0,0-18.303,29.603-17.507,48.701c0,0,19.523,20.743,26.95,25.624c7.427,4.881,18.25,12.732,33.529,13.369l14.43,12.52
		L399.647,134.667z"/>
	<path fill="#ED985F" d="M298.797,76.44c4.421,0.769,15.63-2.814,17.704-3.497c-0.517-4.172,0.73-7.579,0.799-7.763
		c0.124-0.329,0.492-0.495,0.821-0.371c0.329,0.124,0.495,0.492,0.371,0.821c-0.017,0.044-1.352,3.678-0.615,7.893l17.844,11.83
		c0,0,2.334-2.122-0.637,0.849c-0.682,0.682-1.407,1.625-2.122,2.667c0.062-0.102,0.106-0.173,0.106-0.173
		c-5.093-2.069-14.961-10.822-14.961-10.822c-4.456,2.387-17.03,1.592-17.03,1.592c-15.234,2.518-20.803-2.829-22.467-5.174
		C287.701,78.318,298.797,76.44,298.797,76.44z"/>
	<g>
		<path fill="#ED985F" d="M320.299,114.79c8.302,3.34,19.116,19.951,24.758,31.041c6.154,12.096,30.982,13.581,30.982,13.581
			l14.594,9.189l-0.164,20.307l-14.43-12.52c-15.279-0.637-26.101-8.488-33.529-13.369c-7.427-4.881-26.95-25.624-26.95-25.624
			C315.277,130.589,317.424,122.45,320.299,114.79z"/>
	</g>
	<g>
		<path fill="#E08546" d="M317.682,121.852c0.234,0,0.458-0.129,0.57-0.352c0.157-0.315,0.03-0.697-0.285-0.854l-13.741-6.845
			l-9.549-1.91c-0.351-0.073-0.68,0.154-0.749,0.499c-0.069,0.345,0.155,0.68,0.499,0.749l9.466,1.893l13.504,6.752
			C317.49,121.83,317.587,121.852,317.682,121.852z"/>
	</g>
	<path fill="#526270" d="M274.424,96.595l7.19-15.654c0,0,3.029-6.343,9.517-7.097l-13.664,23.013L274.424,96.595z"/>
	<path fill="#5C6B7B" d="M207.852,66.324l-2.102,24.34l91.276,7.881l2.102-24.34L207.852,66.324z M255.333,84.43
		c-0.847,1.155-2.223,1.688-3.547,1.513c0.137-0.16,0.276-0.326,0.417-0.495l0.199-0.243c0.473-0.58,0.959-1.207,1.446-1.871
		c0.702-0.956,1.333-1.889,1.87-2.75C256.278,81.799,256.18,83.275,255.333,84.43z M253.438,83.017
		c-2.602,3.537-5.182,6.058-5.762,5.631c-0.379-0.279,0.189-1.747,1.354-3.717c-0.553,1.406-0.6,2.029-0.366,2.201
		c0.266,0.196,1.072-0.404,2.102-1.492c-0.247-0.109-0.486-0.246-0.713-0.413c-1.684-1.24-2.045-3.61-0.805-5.295
		c1.24-1.685,3.61-2.045,5.294-0.806c0.227,0.167,0.428,0.355,0.606,0.558c0.732-1.307,1.065-2.255,0.799-2.451
		c-0.233-0.172-0.9,0.117-1.992,1.005c1.534-1.698,2.766-2.677,3.145-2.399C257.68,76.267,256.041,79.48,253.438,83.017z"/>
	<g>
		<path fill="#00E676" d="M271.254,88.512c-0.111-0.01-0.219-0.062-0.296-0.154c-0.155-0.184-0.131-0.459,0.053-0.615l4.241-3.567
			l-3.47-4.424c-0.149-0.189-0.116-0.464,0.074-0.612c0.189-0.15,0.464-0.116,0.612,0.074l3.991,5.087l-4.887,4.11
			C271.48,88.489,271.366,88.522,271.254,88.512z"/>
	</g>
	<g>
		<path fill="#00E676" d="M236.384,85.061c0.111,0.01,0.226-0.023,0.318-0.101c0.184-0.155,0.208-0.43,0.053-0.615l-3.567-4.242
			l4.177-3.764c0.179-0.161,0.193-0.437,0.032-0.616c-0.161-0.18-0.437-0.194-0.616-0.032l-4.804,4.328l4.11,4.887
			C236.165,85,236.273,85.052,236.384,85.061z"/>
	</g>
	<g>
		<path fill="#34414C" d="M218.65,86.453c-3.848,0-6.978-3.131-6.978-6.978s3.131-6.978,6.978-6.978c3.848,0,6.978,3.13,6.978,6.978
			S222.497,86.453,218.65,86.453z M218.65,73.369c-3.367,0-6.106,2.739-6.106,6.105c0,3.367,2.739,6.106,6.106,6.106
			s6.106-2.739,6.106-6.106C224.755,76.108,222.016,73.369,218.65,73.369z"/>
	</g>
	<g>
		<path fill="#00E676" d="M257.238,90.446c-0.103,0-0.207-0.005-0.312-0.016l-10.416-1.058c-0.812-0.083-1.543-0.476-2.058-1.108
			c-0.516-0.632-0.754-1.427-0.672-2.239l0.97-9.549c0.17-1.668,1.648-2.906,3.347-2.73l10.417,1.058
			c1.674,0.17,2.9,1.671,2.729,3.347l-0.97,9.549C260.114,89.266,258.809,90.446,257.238,90.446z M247.785,74.603
			c-1.122,0-2.054,0.843-2.167,1.961l-0.97,9.549c-0.059,0.579,0.111,1.147,0.48,1.599c0.368,0.451,0.89,0.732,1.47,0.791
			l10.417,1.058c1.207,0.127,2.269-0.758,2.391-1.95l0.97-9.548c0.121-1.197-0.754-2.269-1.95-2.391l-10.417-1.058
			C247.933,74.607,247.859,74.603,247.785,74.603z"/>
	</g>
	<path opacity="0.4" fill="#505F6D" d="M207.852,66.324l0.07,0.006c2.823,9.577,16.405,25.559,74.747,28.784
		c5.208,0.288,10.073,0.389,14.625,0.327l-0.268,3.105l-91.276-7.881L207.852,66.324z"/>
	<path fill="#B3B8BD" d="M250.617,146.559l31.879-66.571c3.042-6.353,10.358-8.884,16.34-5.654
		c5.986,3.231,8.366,10.999,5.324,17.352l-31.895,66.605L250.617,146.559z"/>
	<g>
		<path fill="#9DA2A5" d="M287.996,80.388c2.942-3.082,7.696-3.048,10.598,0.076c2.902,3.124,2.87,8.172-0.072,11.254
			c-2.942,3.082-7.696,3.048-10.598-0.076C285.022,88.518,285.054,83.47,287.996,80.388z M288.565,81.001
			c-2.623,2.748-2.652,7.251-0.064,10.037c2.588,2.786,6.829,2.816,9.452,0.068s2.652-7.251,0.064-10.037
			C295.429,78.283,291.189,78.252,288.565,81.001z"/>
	</g>
	<path fill="#878C8E" d="M265.846,139.428l-1.567,3.12l4.165,1.841l2.115-4.21l-3.086-1.364
		C266.875,138.55,266.149,138.824,265.846,139.428z M263.79,143.52l-0.27,0.537c-0.303,0.604-0.067,1.303,0.531,1.567l0.531,0.235
		l0.817-1.627L263.79,143.52z M265.544,146.284l0.817-1.627l1.609,0.711l-0.817,1.627L265.544,146.284z M272.321,142.925l0.27-0.537
		c0.303-0.604,0.067-1.303-0.531-1.567l-0.514-0.227l-0.817,1.627L272.321,142.925z M269.422,144.821l0.817-1.627l1.609,0.711
		l-0.817,1.627L269.422,144.821z M268.116,147.421l0.531,0.235c0.598,0.264,1.323-0.009,1.626-0.614l0.27-0.537l-1.609-0.711
		L268.116,147.421z M268.915,134.368l-0.32,0.637l5.889,2.603l1.694-3.372l-0.564-0.249l-1.374,2.735L268.915,134.368z
		 M272.876,130.277c-0.624,1.241-0.149,2.516,1.161,3.096l0.151,0.067c0.572,0.232,1.231,0.215,1.838-0.028
		c0.568-0.241,1.044-0.665,1.322-1.219l0.042-0.083c0.295-0.587,0.357-1.236,0.211-1.833l-0.008-0.025l-0.607,0.08l0,0.041
		c0.139,0.492,0.102,1.008-0.134,1.477c-0.387,0.771-1.281,1.339-2.418,0.898l1.618-3.221l-0.033-0.014c0,0-0.191-0.105-0.29-0.149
		C274.532,128.838,273.415,129.204,272.876,130.277L272.876,130.277z M273.909,132.497c-0.68-0.464-0.883-1.23-0.52-1.951
		c0.27-0.537,0.88-0.984,1.818-0.631L273.909,132.497z M276.12,125.03l0.216,0.096c-0.583,0.071-1.117,0.448-1.379,0.969
		l-0.025,0.05c-0.573,1.141-0.073,2.325,1.238,2.905c1.328,0.587,2.602,0.227,3.166-0.896c0.447-0.889,0.118-1.526-0.047-1.763
		l0.647,0.286l0.303-0.604l-5.858-2.589l-0.311,0.62l2.057,0.909L276.12,125.03z M278.831,127.827
		c-0.396,0.788-1.32,1.015-2.316,0.574c-0.962-0.425-1.364-1.28-0.976-2.051c0.329-0.654,1.171-1.081,2.299-0.582
		C279.065,126.312,279.151,127.19,278.831,127.827z M278.368,120.756l0.033,0.014c-0.258,0.03-0.875,0.208-1.321,1.097
		c-0.564,1.123-0.089,2.236,1.205,2.807s2.56,0.189,3.133-0.951c0.311-0.62,0.306-1.136,0.002-1.618l0.581,0.257
		c0.813,0.359,1.017,1.084,0.553,2.008c-0.194,0.386-0.496,0.744-0.855,1.016l-0.034,0.026l0.396,0.462l0.034-0.026
		c0.435-0.34,0.795-0.776,1.031-1.246c0.497-0.99,0.53-2.266-0.848-2.875l-4.08-1.803l-0.311,0.62L278.368,120.756z
		 M280.913,123.398c-0.413,0.821-1.313,1.079-2.292,0.647c-0.996-0.44-1.324-1.158-0.919-1.964c0.447-0.889,1.171-1.081,2.216-0.618
		C280.956,121.9,281.318,122.593,280.913,123.398L280.913,123.398z M279.372,117.346c-0.624,1.241-0.141,2.499,1.154,3.071
		l0.149,0.066c0.572,0.232,1.231,0.215,1.838-0.028c0.568-0.241,1.044-0.665,1.322-1.219l0.042-0.083
		c0.295-0.587,0.357-1.236,0.211-1.833l-0.008-0.025l-0.616,0.097l0,0.041c0.139,0.492,0.102,1.008-0.134,1.477
		c-0.387,0.771-1.281,1.339-2.418,0.898l1.625-3.235l-0.033-0.014c0,0-0.191-0.105-0.29-0.149
		C281.037,115.889,279.919,116.256,279.372,117.346z M280.414,119.549c-0.68-0.464-0.883-1.23-0.52-1.951
		c0.27-0.537,0.88-0.984,1.818-0.631L280.414,119.549z M281.67,112.971c-0.059,0.076-0.093,0.144-0.151,0.22
		c-0.295,0.587-0.173,1.235,0.313,1.758l-0.946-0.418l-0.311,0.62l4.206,1.838l0.033,0.014l0.32-0.637l-1.774-0.784
		c-0.266-0.118-0.531-0.275-0.738-0.47c-0.546-0.488-0.733-1.124-0.463-1.66c0.034-0.068,0.067-0.134,0.118-0.194l0.017-0.033
		l-0.613-0.271L281.67,112.971z"/>
	<path opacity="0.3" fill="#A5A8AA" d="M293.634,72.948c-2.226,0.585-4.86,2.161-7.108,5.959
		c-4.405,7.444-27.384,55.601-32.307,69.603l-3.602-1.952l31.879-66.571C284.688,75.409,289.101,72.831,293.634,72.948z"/>
	<g>
		<g>
			<path fill="#F3A56E" d="M351.318,108.589c0,0-19.841-5.836-30.77-17.931c0,0-21.963-18.037-32.255-8.7
				c0,0-5.411,5.836-0.212,12.414c0,0,9.549,11.141,25.783,16.552c0,0,6.472,1.379,13.899,13.157
				c7.427,11.777,21.327,41.062,47.216,27.693C374.979,151.773,372.22,113.152,351.318,108.589z"/>
			<path fill="#ED985F" d="M288.293,81.957c10.292-9.337,32.255,8.7,32.255,8.7c0.301,0.333,0.612,0.66,0.926,0.984
				c-0.82,3.724-2.985,11.185-8.241,19.052c-15.842-5.487-25.152-16.323-25.152-16.323
				C282.881,87.793,288.293,81.957,288.293,81.957z"/>
			<g>
				<path fill="#E08546" d="M295.661,83.885c-2.224,0-3.764,0.706-4.578,2.097c-2.627,4.493,4.858,9.874,6.909,11.234l7.39-10.684
					C303.739,85.769,299.314,83.885,295.661,83.885z M297.837,98.63c-0.471-0.285-11.499-7.052-7.852-13.29
					c1.058-1.81,2.968-2.727,5.677-2.727c4.869,0,10.714,2.977,10.96,3.104l0.645,0.332l-8.918,12.892L297.837,98.63z"/>
			</g>
			<g>
				<path fill="#E08546" d="M317.259,109.119c0.178,0,0.354-0.074,0.481-0.219c4.319-4.967,5.208-11.312,5.243-11.58
					c0.047-0.348-0.198-0.668-0.546-0.715c-0.345-0.045-0.668,0.198-0.716,0.546c-0.008,0.062-0.88,6.242-4.942,10.913
					c-0.231,0.265-0.203,0.668,0.063,0.898C316.962,109.068,317.11,109.119,317.259,109.119z"/>
			</g>
		</g>
	</g>
	<g>
		<path fill="#E08546" d="M376.662,160c0.01,0,0.017,0,0.019,0c0.352-1,0.634-0.154,0.632-0.505
			c-0.003-0.35-0.287-0.495-0.637-0.495c-0.005,0-0.008,0-0.022,0c-0.783,0-25.573-0.395-36.584-16.911l-4.103-6.274
			c-8.647-13.005-12.227-18.442-14.713-20.355c-0.279-0.214-0.678-0.19-0.893,0.09c-0.214,0.279-0.162,0.665,0.117,0.879
			c2.319,1.783,6.114,7.483,14.429,19.989l4.104,6.244C350.392,159.733,375.813,160,376.662,160z"/>
	</g>
	<g>
		<path fill="#E08546" d="M364.581,119.093c0.122,0,0.247-0.035,0.356-0.109c0.292-0.196,0.368-0.592,0.171-0.883
			c-0.221-0.328-5.534-8.071-14.354-10.653c-8.756-2.563-19.031-8.28-21.855-10.5c-0.278-0.219-0.677-0.168-0.894,0.107
			c-0.218,0.277-0.169,0.677,0.107,0.894c2.891,2.271,13.376,8.114,22.284,10.721c8.384,2.453,13.605,10.067,13.657,10.143
			C364.176,118.995,364.377,119.093,364.581,119.093z"/>
	</g>
	<path fill="#E08546" d="M149.746,193.267c0,0,8.38-16.76,3.451-32.534s-36.477-19.225-36.477-19.225"/>
	<polyline fill="#5C6B7B" points="157.256,165.991 160.014,174.479 149.616,177.025 147.706,168.325 	"/>
	<g>
		<path fill="#01DAFF" d="M126.36,176.005l56.783-14.578c4.48-1.15,7.179-5.714,6.029-10.194L159.496,35.639
			c-1.15-4.48-5.714-7.179-10.194-6.029L92.519,44.188c-4.48,1.15-7.179,5.714-6.029,10.194l29.676,115.594
			C117.316,174.455,121.88,177.155,126.36,176.005z"/>
		<path fill="#5C6B7B" d="M120.628,168.83l64.083-16.452c1.344-0.345,2.154-1.714,1.809-3.058L158.093,38.593
			c-0.345-1.344-1.714-2.154-3.058-1.809L90.951,53.236c-1.344,0.345-2.154,1.714-1.809,3.058l28.427,110.726
			C117.914,168.365,119.284,169.175,120.628,168.83z"/>
		<path fill="#060707" d="M116.407,43.482l13.79-3.54c0.672-0.173,1.077-0.857,0.904-1.529c-0.173-0.672-0.857-1.077-1.529-0.904
			l-13.79,3.54c-0.672,0.173-1.077,0.857-0.904,1.529C115.05,43.25,115.735,43.655,116.407,43.482z"/>
		<path fill="#060707" d="M147.336,168.458l13.79-3.54c0.672-0.173,1.077-0.857,0.904-1.529l-0.417-1.622
			c-0.173-0.672-0.857-1.077-1.529-0.904l-13.79,3.54c-0.672,0.173-1.077,0.857-0.904,1.529l0.417,1.622
			C145.98,168.226,146.664,168.631,147.336,168.458z"/>
	</g>
	<path fill="#F3A56E" d="M99.742,195.648c-0.356-1.593-0.556-3.241-0.598-4.931L86.91,89.831c2.06,0.053,3.972,0.463,5.747,1.166
		c18.605,7.375,22.091,47.061,22.091,47.061c36.391,8.78,36.016,43.632,35.248,52.91c-0.474,13.647-11.657,24.573-25.42,24.573
		c-12.128,0-22.257-8.486-24.82-19.839c-0.001,0-0.008-0.002-0.008-0.002L99.742,195.648z"/>
	<path fill="#ED985F" d="M110.782,142.86c-1.064-26.433-17.248-46.922-22.53-52.936c1.554,0.162,3.022,0.525,4.405,1.073
		c18.605,7.375,22.091,47.061,22.091,47.061c36.391,8.78,36.016,43.632,35.248,52.91c-0.474,13.647-11.657,24.573-25.42,24.573
		c-0.863,0-1.711-0.054-2.552-0.138C146.485,184.139,110.782,142.86,110.782,142.86z"/>
	<g>
		<path fill="#5C6B7B" d="M190.656,247.422c21.363,0,38.752-33.233,52.837-60.149c5.565-10.635,10.371-19.819,14.601-25.439
			c0.634-0.842,0.465-2.04-0.378-2.675c-0.842-0.633-2.04-0.464-2.675,0.378c-4.417,5.869-9.289,15.181-14.933,25.965
			c-14.115,26.974-31.691,60.547-51.626,57.96c-27.61-3.575-32.46-69.089-32.505-69.751c-0.073-1.052-0.983-1.844-2.037-1.774
			c-1.052,0.073-1.846,0.985-1.774,2.037c0.195,2.828,5.13,69.301,35.825,73.276C188.885,247.366,189.776,247.422,190.656,247.422z"
			/>
	</g>
	<polyline fill="#04D2EF" points="400,198 400,135 400,133 389.324,189 399.912,199 	"/>
	<g>
		<path fill="#E08546" d="M90.959,113.682c0.038,0,0.077-0.003,0.116-0.011c1.348-0.247,2.449-0.986,3.273-2.195
			c3.177-4.656,1.221-14.985,1.136-15.423l-0.111-0.574l-6.55,0.699c-0.349,0.037-0.602,0.351-0.565,0.701
			c0.038,0.349,0.351,0.601,0.701,0.565l5.375-0.573c0.359,2.217,1.443,10.254-1.038,13.888c-0.635,0.931-1.437,1.473-2.451,1.66
			c-0.346,0.063-0.574,0.395-0.511,0.741C90.39,113.468,90.658,113.682,90.959,113.682z"/>
	</g>
	<g>
		<path fill="#B3B8BD" d="M160.744,104.615c0.57,2.269-0.808,4.571-3.077,5.141l-33.899,8.512c-2.269,0.57-4.571-0.808-5.141-3.077
			l-8.512-33.899c-0.57-2.269,0.808-4.571,3.077-5.141l33.899-8.512c2.269-0.57,4.571,0.808,5.141,3.077L160.744,104.615z"/>
		<path fill="#AAADAF" d="M159.707,107.716l-33.899,8.512c-2.269,0.57-4.571-0.808-5.141-3.077l-8.512-33.899
			c-0.249-0.99-0.109-1.977,0.296-2.833c-1.815,0.836-2.84,2.864-2.336,4.873l8.512,33.899c0.57,2.269,2.871,3.647,5.141,3.077
			l33.899-8.512c1.279-0.321,2.258-1.202,2.781-2.308C160.213,107.556,159.967,107.65,159.707,107.716z"/>
		<g id="Page-1">
			<g id="Group-6" transform="translate(-6.817185, -22.000000)">
				
					<g id="Group-3" transform="translate(76.564123, 117.738076) rotate(-78.000000) translate(-76.564123, -117.738076) translate(-31.935877, 62.738076)">
					<g id="Fill-1-Clipped">
						<g>
							<g id="path-1_1_">
							</g>
							<defs>
								
									<filter id="Adobe_OpacityMaskFilter" filterUnits="userSpaceOnUse" x="106.414" y="-127.363" width="37.431" height="17.307">
									<feColorMatrix  type="matrix" values="1 0 0 0 0  0 1 0 0 0  0 0 1 0 0  0 0 0 1 0"/>
								</filter>
							</defs>
							<mask maskUnits="userSpaceOnUse" x="106.414" y="-127.363" width="37.431" height="17.307" id="mask-2_1_">
								<g filter="url(#Adobe_OpacityMaskFilter)">
									<polygon id="path-1_2_" fill="#FFFFFF" points="106.542,108.758 143.717,108.758 143.717,127.633 106.542,127.633 
																			"/>
								</g>
							</mask>
							<path id="Fill-1" mask="url(#mask-2_1_)" fill="#00E676" d="M139.562,124.952c-0.349,0.771-2.9,0.441-6.56-0.696
								c0.415-0.553,0.778-1.158,1.074-1.813c2.207-4.875,0.043-10.615-4.833-12.821c-4.876-2.206-10.617-0.043-12.824,4.832
								c-0.297,0.656-0.512,1.327-0.654,2.004c-3.271-1.999-5.202-3.697-4.853-4.468c0.306-0.676,1.892-0.892,5.705-0.254
								c-5.551-1.867-9.527-2.509-10.024-1.412c-0.76,1.679,6.923,6.795,17.159,11.426c10.237,4.632,19.151,7.026,19.911,5.347
								c0.496-1.097-2.61-3.66-7.677-6.597C138.79,122.762,139.868,124.277,139.562,124.952z"/>
						</g>
					</g>
				</g>
				<path id="Fill-4" fill="#00E676" d="M141.865,122.913c-0.359,0.434-0.715,0.858-1.066,1.268
					c3.388,0.447,6.908-0.917,9.076-3.871c2.168-2.955,2.419-6.731,0.986-9.842c-1.374,2.203-2.99,4.59-4.786,7.037
					c-1.246,1.699-2.49,3.303-3.699,4.787"/>
			</g>
		</g>
	</g>
	<g>
		<g>
			<path fill="#00E676" d="M258.723,91.002c-0.114,0.002-0.228-0.002-0.344-0.012l-11.507-1c-0.897-0.078-1.709-0.5-2.288-1.189
				c-0.579-0.689-0.855-1.562-0.777-2.459l0.916-10.549c0.16-1.842,1.772-3.232,3.648-3.065l11.508,1
				c1.85,0.161,3.226,1.797,3.065,3.648l-0.916,10.549C261.877,89.653,260.457,90.976,258.723,91.002z M248.041,73.678
				c-1.237,0.018-2.252,0.963-2.359,2.199l-0.916,10.549c-0.056,0.64,0.141,1.264,0.555,1.756c0.413,0.492,0.994,0.794,1.635,0.849
				l11.508,1c1.334,0.121,2.491-0.873,2.606-2.19l0.916-10.549c0.114-1.322-0.868-2.491-2.19-2.606l-11.508-1
				C248.204,73.679,248.122,73.676,248.041,73.678z"/>
		</g>
		<g>
			<path fill="#00E676" d="M245.943,89.347l12.972,1.054l2.245-1.457l1.033-9.632l-0.116-4.165l-5.38-1.203l-9.392-0.824
				l-1.977,1.714l-0.911,8.839l-0.025,3.771C244.391,87.445,244.413,88.969,245.943,89.347z"/>
			<path fill="#5C6B7B" d="M255.673,78.273c1.048,0.596,1.81,1.592,2.111,2.76l-1.638-0.157c-0.453-0.965-1.383-1.617-2.444-1.715
				c-1.649-0.159-3.113,1.026-3.271,2.645c-0.158,1.62,1.052,3.061,2.701,3.219c1.061,0.106,2.099-0.357,2.729-1.218l1.638,0.157
				c-0.521,1.089-1.46,1.921-2.604,2.307l-0.181,1.865l-1.493-0.143l0.144-1.481c-0.25-0.004-0.5-0.028-0.747-0.072l-0.144,1.481
				l-1.493-0.144l0.181-1.865c-1.474-0.843-2.396-2.475-2.223-4.25c0.173-1.775,1.392-3.202,3.002-3.749l0.181-1.865l1.493,0.143
				l-0.144,1.481c0.25,0.004,0.5,0.028,0.747,0.072l0.144-1.481l1.493,0.144L255.673,78.273z"/>
		</g>
	</g>
</g>
</svg>
