<?xml version="1.0" encoding="utf-8"?>
<!-- Generator: Adobe Illustrator 17.0.0, SVG Export Plug-In . SVG Version: 6.00 Build 0)  -->
<!DOCTYPE svg PUBLIC "-//W3C//DTD SVG 1.1//EN" "http://www.w3.org/Graphics/SVG/1.1/DTD/svg11.dtd">
<svg version="1.1" id="Layer_1" xmlns="http://www.w3.org/2000/svg" xmlns:xlink="http://www.w3.org/1999/xlink" x="0px" y="0px"
	 width="400px" height="294.232px" viewBox="0 0 400 294.232" enable-background="new 0 0 400 294.232" xml:space="preserve">
<path fill="#F3A56E" d="M763.868,890.83c0,0,29.132,12.512,29.132,23.237s0,96.522,0,96.522s-33.898-14.3-33.898-53.624
	c0,0-15.162-2.383-11.587,44.09c0,0,23.997-3.575,22.806,9.533c-1.192,13.108-25.538,36.941-49.37,26.216
	c0,0-32.431,4.766-45.539-11.916c0,0-15.62-5.958-19.194-16.683l-16.747-5.958c0,0-0.362-51.24,11.555-95.331
	C662.941,862.827,686.412,866.402,763.868,890.83z"/>
<path opacity="0.5" fill="#3B443F" d="M1452.339,628.422l13.109-63.466c26.203-141.397,89.631-284.147,74.269-406.293
	c-11.931-94.86-123.193-178.599-204.112-223.124c-50.003,102.882-40.488,894.996-37.586,1009.648
	c18.29-3.342,86.544,5.304,102.694-0.031l80.923,4.745L1452.339,628.422z"/>
<path fill="#3B443F" d="M997.189,790.06c21.293,2.921,44.394,5.662,68.879,7.923c37.615,3.472,82.114,6.035,128.763,6.035
	c34.761,0,70.169-1.455,109.169-4.987v-13.385c-114,10.827-225.229,1.903-307.595-9.483L997.189,790.06z"/>
<path fill="#F3A56E" d="M1564.694,908.305c0,0-30.694,12.512-30.694,23.237c0,10.725,0,96.522,0,96.522s35.46-14.3,35.46-53.623
	c0,0,15.943-2.383,12.368,44.09c0,0-23.607-3.575-22.415,9.533c1.192,13.108,25.733,36.941,49.566,26.216
	c0,0,32.528,4.766,45.636-11.916c0,0,15.668-5.958,19.243-16.683l16.771-5.958c0,0-0.407-51.24-12.323-95.331
	C1666.39,880.302,1642.15,883.877,1564.694,908.305z"/>
<path fill="#367E99" d="M877.773-877.602c-0.631,0-1.261-0.242-1.74-0.726l-38.846-39.199c-0.952-0.96-0.945-2.512,0.016-3.464
	c0.961-0.954,2.511-0.944,3.464,0.016l38.846,39.199c0.952,0.96,0.945,2.512-0.016,3.464
	C879.019-877.838,878.397-877.602,877.773-877.602z"/>
<path fill="#367E99" d="M965.201-921.882c-0.603-0.185-1.135-0.601-1.452-1.203l-25.676-48.85c-0.63-1.197-0.169-2.679,1.029-3.308
	c1.198-0.631,2.678-0.168,3.308,1.029l25.676,48.85c0.63,1.197,0.169,2.679-1.029,3.308
	C966.462-921.743,965.797-921.699,965.201-921.882z"/>
<path fill="#367E99" d="M1067.412-938.388c-0.339-0.532-0.473-1.194-0.323-1.858l12.195-53.822c0.298-1.319,1.611-2.147,2.931-1.848
	c1.321,0.298,2.146,1.611,1.848,2.931l-12.195,53.822c-0.298,1.319-1.611,2.147-2.931,1.848
	C1068.281-937.464,1067.747-937.862,1067.412-938.388z"/>
<ellipse opacity="0.51" fill="#3E3B3A" cx="-343.54" cy="492.352" rx="80.953" ry="12.942"/>
<path fill="#050D0E" d="M-286.871,475.669c0,0-3.033,0.152-9.706,0c-6.673-0.152-13.828-7.148-13.828-7.148
	s-18.595,7.707-21.024,10.484h-0.276c0,0-7.486,2.427-5.363,5.315c2.123,2.888,10.009,2.874,14.407,2.268
	c4.398-0.607,11.071,0.758,11.071,0.758c18.653,2.73,28.662-5.763,28.662-5.763v-2.578L-286.871,475.669z"/>
<path fill="#050D0E" d="M-388.753,491.368c0,0,2.55,7.958,9.829,10.233s16.378,1.062,21.535-3.791c0,0,1.213-4.398,0-5.156
	c-1.213-0.758-6.589-4.641-7.162-7.174S-381.294,481.894-388.753,491.368z"/>
<g>
	<ellipse fill="#060707" cx="202.181" cy="256.207" rx="68.431" ry="20.127"/>
	<g>
		<defs>
			<path id="SVGID_1_" d="M156.256,270.134c11.976,3.028,27.553,4.857,44.584,4.857c22.409,0,42.302-3.168,54.784-8.064
				l-6.033-47.843l-93.701-5.814l-6.485,24.376l0.895,30.861"/>
		</defs>
		<clipPath id="SVGID_2_">
			<use xlink:href="#SVGID_1_"  overflow="visible"/>
		</clipPath>
		<g clip-path="url(#SVGID_2_)">
			<g>
				<g>
					<path fill="#4A9EDD" d="M235.878,222.603l-69.588,1.341c-1.849,24.265-1.792,128.39,10.957,187.487
						c6.784,2.244,11.796,3.615,18.716,2.044c3.406-34.737,3.22-153.104,3.22-153.104c2.315,0.513,3.657-0.6,6.338-1.043
						c0,0,1.703,97.317,6.046,154.147c6.92,1.572,11.814,2.2,18.598-0.044C242.407,352.843,235.878,222.603,235.878,222.603z"/>
				</g>
			</g>
			<g opacity="0.8">
				<path fill="#2494E6" d="M189.296,405.333c0,0-7.605-38.14-10.647-71.513c-2.322-25.476,1.56-83.94,3.527-110.182l-15.886,0.306
					c-1.849,24.265-1.792,128.39,10.957,187.487c6.679,2.209,11.649,3.558,18.404,2.1L189.296,405.333z"/>
			</g>
			<g>
				<g>
					<path fill="#230602" d="M164.949,224.222c0,0,33.407,2.59,70.698-0.518l0.388,9.193c0,0-26.026,7.381-71.086,0"/>
				</g>
				<g>
					<g>
						<g>
							<path fill="#BCBCBC" d="M194.971,236.498c5.12,0.867,10.364,1.001,15.522,0.398c-0.082-4.132-0.165-8.264-0.247-12.396
								c-4.743-0.864-9.617-1.005-14.402-0.416C194.897,228.141,194.601,232.349,194.971,236.498z"/>
						</g>
					</g>
					<g>
						<g>
							<path fill="#230602" d="M208.568,234.287c-0.006-2.598-0.011-5.196-0.017-7.793c-3.754-0.002-7.508-0.005-11.261-0.007
								c-0.183,2.458-0.366,4.916-0.549,7.373C200.639,234.542,204.631,234.687,208.568,234.287z"/>
						</g>
					</g>
					<g>
						<g>
							<path fill="#BCBCBC" d="M199.368,231.826c0.37-0.027,0.76-0.116,1.022-0.379c0.273-0.274,0.357-0.693,0.311-1.077
								c-0.046-0.384-0.206-0.744-0.364-1.097c-1.55-0.447-3.301-0.132-4.599,0.825C196.542,231.246,197.97,231.926,199.368,231.826
								z"/>
						</g>
					</g>
				</g>
			</g>
			<g>
				<path fill="#3C0605" d="M239.64,413.364c-2.089-2.962-5.151-5.007-8.438-5.696c-11.37-3.448-20.196,6.416-20.196,6.416
					c6.241,2.296,13.7,2.545,13.7,2.545l0.047-0.045c4.493,0.325,9.015,0.124,13.469-0.619c0.421-0.07,0.851-0.149,1.22-0.39
					c0.368-0.24,0.666-0.68,0.648-1.161C240.075,414.018,239.858,413.673,239.64,413.364z"/>
			</g>
			<g>
				<path fill="#3C0605" d="M194.892,414.318c-5.706-4.86-11.958-6.328-15.704-6.761c-0.575-0.088-1.154-0.143-1.734-0.149
					c-1.045-0.053-1.659-0.017-1.659-0.017l-0.039,0.132c-3.618,0.483-7.048,2.614-9.324,5.84c-0.218,0.309-0.435,0.655-0.45,1.05
					c-0.018,0.481,0.28,0.921,0.648,1.161c0.368,0.241,0.799,0.319,1.22,0.39c2.757,0.46,5.541,0.712,8.327,0.762
					C183.927,417.491,194.892,414.318,194.892,414.318z"/>
			</g>
		</g>
	</g>
	<g>
		<g>
			<path fill="#F3A56E" d="M86.003,86.385l0.402-2.578c0,0,5.472,7.588,7.051,8.084c1.579,0.496,13.816,2.226,15.648,1.348
				c0.308-0.148,0.747-0.352,1.263-0.579c-0.51-0.958-1.377-2.207-2.876-3.704c-3.649-3.647,1.533-5.768,1.533-5.768
				c-0.098,3.234,2.568,5.221,5.626,5.799c0.753,0.143,1.327,0.39,1.765,0.682l-0.026-0.127c1.178,0.388,2.135,0.835,2.928,1.305
				c0.117,0.045,0.235,0.088,0.34,0.147c1.024,0.58,1.791,1.328,2.387,2.307c0.443,0.655,0.67,1.246,0.781,1.684
				c0.418,1.209,0.707,2.681,0.919,4.513c0.18,1.552,0.999,4.615,2.131,8.177c-1.903,1.335-4.675,2.826-8.233,3.516
				c-0.356-1.257-0.714-2.185-1.07-2.673c-2.175-2.98-12.503-6.482-15.589-7.783c-3.086-1.302-14.446-4.847-20.046-17.22
				C80.936,83.517,82.586,83.704,86.003,86.385z"/>
			<path opacity="0.2" fill="#DA7B51" d="M116.448,90.599c-2.277,0.645-9.524,7.737-23.623,1.298l-0.516-0.853
				c0.467,0.446,0.869,0.761,1.147,0.848c1.579,0.496,13.816,2.226,15.648,1.348c0.308-0.148,0.747-0.352,1.263-0.579
				c-0.51-0.958-1.377-2.206-2.876-3.704c-3.649-3.647,1.533-5.768,1.533-5.768c-0.098,3.234,2.568,5.221,5.626,5.799
				c0.753,0.143,1.327,0.39,1.765,0.682l-0.026-0.127c1.178,0.388,2.135,0.835,2.928,1.305c0.117,0.045,0.235,0.088,0.34,0.147
				c0.874,0.495,1.552,1.122,2.105,1.901C120.083,91.649,117.783,90.221,116.448,90.599z"/>
		</g>
		<g>
			<g>
				<path fill="#230602" d="M163.499,217.513c0,0,33.407,2.59,70.698-0.518l0.388,9.193c0,0-26.026,7.381-71.086,0"/>
				<g>
					<g>
						<path fill="#BCBCBC" d="M193.52,229.789c5.12,0.867,10.364,1.001,15.522,0.398c-0.082-4.132-0.165-8.264-0.247-12.396
							c-4.743-0.864-9.617-1.005-14.402-0.416C193.446,221.432,193.151,225.64,193.52,229.789z"/>
					</g>
					<g>
						<path fill="#230602" d="M207.117,227.578c-0.006-2.598-0.011-5.196-0.017-7.793c-3.754-0.002-7.508-0.005-11.261-0.007
							c-0.183,2.458-0.366,4.916-0.549,7.373C199.189,227.833,203.18,227.978,207.117,227.578z"/>
					</g>
					<g>
						<path fill="#BCBCBC" d="M197.917,225.117c0.37-0.027,0.76-0.116,1.022-0.379c0.273-0.274,0.357-0.693,0.311-1.077
							c-0.046-0.384-0.206-0.744-0.364-1.097c-1.55-0.447-3.301-0.132-4.599,0.825C195.091,224.537,196.519,225.217,197.917,225.117
							z"/>
					</g>
				</g>
			</g>
			<g>
				<path fill="#F3A56E" d="M314.634,86.385l-0.402-2.578c0,0-5.472,7.588-7.051,8.084c-1.579,0.496-13.816,2.226-15.648,1.348
					c-0.308-0.148-0.747-0.352-1.263-0.579c0.51-0.958,1.377-2.207,2.876-3.704c3.649-3.647-1.533-5.768-1.533-5.768
					c0.098,3.234-2.568,5.221-5.626,5.799c-0.753,0.143-1.327,0.39-1.765,0.682l0.026-0.127c-1.178,0.388-2.135,0.835-2.928,1.305
					c-0.117,0.045-0.235,0.088-0.34,0.147c-1.024,0.58-1.791,1.328-2.387,2.307c-0.443,0.655-0.67,1.246-0.781,1.684
					c-0.418,1.209-0.707,2.681-0.919,4.513c-0.18,1.552-0.999,4.615-2.131,8.177c1.903,1.335,4.675,2.826,8.233,3.516
					c0.356-1.257,0.714-2.185,1.07-2.673c2.175-2.98,12.503-6.482,15.589-7.783c3.086-1.302,14.446-4.847,20.046-17.22
					C319.702,83.517,318.051,83.704,314.634,86.385z"/>
				<path opacity="0.2" fill="#DA7B51" d="M284.19,90.599c2.277,0.645,9.524,7.737,23.623,1.298l0.516-0.853
					c-0.467,0.446-0.869,0.761-1.147,0.848c-1.579,0.496-13.816,2.226-15.648,1.348c-0.308-0.148-0.747-0.352-1.263-0.579
					c0.51-0.958,1.377-2.206,2.876-3.704c3.649-3.647-1.533-5.768-1.533-5.768c0.098,3.234-2.568,5.221-5.626,5.799
					c-0.753,0.143-1.327,0.39-1.765,0.682l0.026-0.127c-1.178,0.388-2.135,0.835-2.928,1.305c-0.117,0.045-0.235,0.088-0.34,0.147
					c-0.874,0.495-1.552,1.122-2.105,1.901C280.555,91.649,282.854,90.221,284.19,90.599z"/>
			</g>
			<path fill="#01DAFF" d="M236.398,117.9c6.367,5.255,15.565,13.306,23.579,22.075l14.35-35.76c2.768,2.08,6.031,4.15,9.799,5.964
				c-0.441,3.827-3.516,29.765-7.11,41.509c-2.326,9.569-6.822,17.911-11.061,19.532c-0.659,0.252-1.281,0.401-1.868,0.477
				c-0.283,0.084-0.574,0.149-0.879,0.172c-6.416,0.494-28.13-18.26-28.13-18.26l1.096,66.594c0,0-18.302,1.613-36.228,0.671
				c-17.926,0.942-38.241-2.013-38.241-2.013l3.855-65.252c0,0-21.715,18.754-28.13,18.26c-0.305-0.023-0.596-0.088-0.879-0.172
				c-0.587-0.076-1.208-0.225-1.868-0.477c-4.24-1.621-8.735-9.963-11.061-19.532c-3.594-11.743-6.669-37.682-7.11-41.509
				c3.768-1.814,7.031-3.884,9.799-5.964l14.35,35.76c13.927-15.238,32.986-28.567,32.986-28.567s11.653-7.769,24.602-8.287
				c9.022-0.361,16.663,0.74,21.902,2.762C220.149,105.884,225.8,108.013,236.398,117.9z"/>
			<path fill="#09C5D8" d="M219.094,105.646c-9.569-1.993-29.744-0.307-35.25,0.504c2.286,4.633,5.105,12.102,9.02,14.36
				c0,0,1.062,0.856,2.741,1.336c0.63,0.18,1.346,0.307,2.125,0.316c1.299,0.015,2.774-0.298,4.316-1.241
				c0,0,3.015,1.919,5.345,0.959c0.113-0.046,0.268-0.122,0.436-0.209h0C209.936,120.58,215.448,115.604,219.094,105.646z"/>
			<path opacity="0.4" fill="#09C5D8" d="M179.897,215.637c-7.526-20.463-0.228-78.752,1.646-90.374
				c1.942-12.042,9.323-19.422,9.323-19.422l3.45-2.331c-11.282,1.659-20.671,7.898-20.671,7.898s-19.059,13.328-32.986,28.567
				l-14.35-35.76c-2.768,2.08-6.031,4.15-9.799,5.964c0.441,3.827,3.516,29.765,7.11,41.509c2.326,9.569,6.822,17.911,11.061,19.532
				c0.659,0.252,1.281,0.401,1.868,0.477c0.283,0.084,0.574,0.149,0.879,0.172c6.416,0.494,28.13-18.26,28.13-18.26l-0.719,58.537
				C164.84,212.146,171.071,214.186,179.897,215.637z"/>
			<g>
				<path fill="#F3A56E" d="M225.481,75.968c-1.056-0.616-3.231,0.206-4.094,0.976c-2.148-25.917-3.645-23.233-6.321-25.508
					c-2.741-2.33-26.176-0.274-35.084,12.197c0,0-2.279,7.838-2.167,17.631c-0.948-0.681-4.464-2.898-6.467,0.048
					c-2.26,3.323,2.314,13.092,8.093,12.552c0.012-0.001,0.024-0.004,0.036-0.005c0.232,0.847,0.487,1.691,0.779,2.529
					c0,0,5.482,15.349,12.608,19.461c0,0,4.248,3.426,9.182,0.411c0,0,3.015,1.919,5.345,0.959
					c2.083-0.858,14.123-8.403,15.091-29.96C229.001,84.067,227.112,76.919,225.481,75.968z"/>
				<path opacity="0.6" fill="#EA9563" d="M200.169,75.082l0.074-10.695c0,0-13.088-1.978-15.294,2.433
					c-2.107,4.214,2.004,8.583,2.004,8.583"/>
				<path opacity="0.6" fill="#EA9563" d="M207.408,67.026c0,0-0.659,6.806,0.154,8.377l13.516-0.565c0,0-0.194-5.267-0.36-7.503
					C220.553,65.098,209.226,60.597,207.408,67.026z"/>
				<g>
					<g>
						<path fill="#FFFFFF" d="M220.441,74.796c0,0-1.529-7.095-7.46-5.339c0,0-2.738,0.433-5.27,5.407c0,0-0.274,0.548,0.137,0.616
							C208.258,75.549,215.65,77.945,220.441,74.796z"/>
						<path opacity="0.4" fill="#D5D4CB" d="M207.711,74.865c1.264-2.483,2.579-3.834,3.58-4.565
							c-0.362,1.894-0.532,4.042-0.07,5.897c-1.859-0.268-3.205-0.688-3.373-0.716C207.437,75.412,207.711,74.865,207.711,74.865z"
							/>
					</g>
				</g>
				<g>
					<path fill="#FFFFFF" d="M186.807,75.552c0,0,1.59-7.379,7.759-5.552c0,0,2.847,0.451,5.481,5.623c0,0,0.285,0.569-0.142,0.641
						C199.477,76.335,191.79,78.826,186.807,75.552z"/>
				</g>
				<path opacity="0.4" fill="#D5D4CB" d="M186.807,75.552c0,0,0.838-3.888,3.657-5.32c-0.686,1.781-1.398,4.324-0.995,6.512
					C188.538,76.48,187.635,76.096,186.807,75.552z"/>
				<path fill="#3A1100" d="M196.683,59.293c0,0-12.236,2.906-12.863,10.368l0.69,1.493c0,0,3.993-6.222,13.802-8.193l-1.105-3.691"
					/>
				<path fill="#3A1100" d="M208.277,61.037c0,0,10.946,0.98,12.075,7.503l-0.488,1.203c0,0-3.191-4.068-12.251-5.118
					L208.277,61.037"/>
				<g>
					<defs>
						<path id="SVGID_3_" d="M186.807,75.552c0,0,1.59-7.379,7.759-5.552c0,0,2.847,0.451,5.481,5.623c0,0,0.285,0.569-0.142,0.641
							C199.477,76.335,191.79,78.826,186.807,75.552z"/>
					</defs>
					<clipPath id="SVGID_4_">
						<use xlink:href="#SVGID_3_"  overflow="visible"/>
					</clipPath>
					<g clip-path="url(#SVGID_4_)">
						<g>
							<g>
								<path fill="#7F4F3A" d="M196.563,75.461c-0.073,1.312-1.189,2.325-2.493,2.262c-1.304-0.063-2.302-1.178-2.229-2.49
									s1.189-2.325,2.493-2.262C195.638,73.034,196.636,74.149,196.563,75.461z"/>
								<path fill="#0D0306" d="M195.494,75.551c-0.044,0.786-0.713,1.393-1.494,1.355c-0.781-0.038-1.379-0.705-1.336-1.492
									c0.044-0.786,0.713-1.393,1.494-1.355C194.939,74.097,195.537,74.765,195.494,75.551z"/>
							</g>
							<path fill="none" d="M196.272,74.196c-0.379-0.695-1.091-1.183-1.939-1.224c-1.304-0.063-2.42,0.95-2.493,2.262
								c-0.028,0.497,0.099,0.965,0.337,1.358C192.96,75.237,194.496,74.301,196.272,74.196z"/>
						</g>
						<path fill="#FFFFFF" d="M195.959,75.971c-0.032,0.567-0.514,1.005-1.078,0.978s-0.995-0.509-0.964-1.077
							s0.514-1.005,1.078-0.978C195.559,74.921,195.99,75.403,195.959,75.971z"/>
					</g>
				</g>
				<g>
					<defs>
						<path id="SVGID_5_" d="M220.326,74.88c0,0-1.389-7.745-7.344-6.068c0,0-0.744,0.189-1.757,0.189h0.049
							c-0.033,0-0.045,0.687-0.079,0.712c-0.094,0.069-0.176,0.455-0.275,0.535c-0.049,0.04-0.096,0.247-0.146,0.29
							c-0.089,0.075-0.173,0.226-0.265,0.311c-0.046,0.042-0.092,0.132-0.139,0.177c-0.099,0.095-0.197,0.208-0.3,0.314
							c-0.076,0.079-0.155,0.182-0.233,0.268c-0.075,0.084-0.149,0.165-0.226,0.255c-0.07,0.083-0.142,0.181-0.214,0.269
							c-0.086,0.107-0.172,0.21-0.259,0.325c-0.048,0.064-0.098,0.14-0.146,0.207c-0.112,0.153-0.223,0.305-0.336,0.473
							c-0.024,0.036-0.049,0.079-0.073,0.116c-0.137,0.209-0.275,0.423-0.413,0.656c-0.163,0.274-0.326,0.565-0.488,0.873
							c0,0-0.281,0.544,0.129,0.618c0.025,0.004,0.077,0.019,0.151,0.039c0.054,0.015,0.115,0.032,0.193,0.054
							c0.057,0.016,0.113,0.031,0.184,0.051c0.075,0.021,0.154,0.042,0.243,0.065c0.064,0.017,0.124,0.033,0.195,0.051
							c0.106,0.027,0.222,0.056,0.343,0.086c0.063,0.015,0.118,0.03,0.184,0.045c0.188,0.045,0.389,0.09,0.605,0.136
							c0.061,0.013,0.128,0.025,0.191,0.038c0.162,0.033,0.327,0.066,0.501,0.097c0.093,0.017,0.101,0.027,0.197,0.044
							c0.097,0.017,0.202,0.03,0.202,0.045c0-0.001,0-0.003,0-0.004C216,76.575,217.474,76.699,220.326,74.88z"/>
					</defs>
					<clipPath id="SVGID_6_">
						<use xlink:href="#SVGID_5_"  overflow="visible"/>
					</clipPath>
					<g clip-path="url(#SVGID_6_)">
						<g>
							<g>
								<path fill="#7F4F3A" d="M211.396,74.435c0.07,1.262,1.144,2.235,2.397,2.175c1.254-0.06,2.214-1.132,2.143-2.394
									c-0.07-1.262-1.144-2.235-2.397-2.175C212.285,72.102,211.325,73.173,211.396,74.435z"/>
								<path fill="#0D0306" d="M212.424,74.522c0.042,0.756,0.685,1.339,1.436,1.303s1.326-0.678,1.284-1.434
									c-0.042-0.756-0.685-1.339-1.436-1.303C212.957,73.124,212.382,73.766,212.424,74.522z"/>
							</g>
							<path fill="none" d="M211.675,73.218c0.364-0.668,1.049-1.138,1.864-1.177c1.254-0.06,2.327,0.913,2.397,2.175
								c0.027,0.478-0.096,0.928-0.324,1.306C214.86,74.22,213.383,73.32,211.675,73.218z"/>
						</g>
						<path fill="#FFFFFF" d="M211.977,74.925c0.03,0.546,0.495,0.967,1.037,0.941c0.542-0.026,0.957-0.49,0.927-1.035
							c-0.03-0.546-0.495-0.967-1.037-0.941C212.361,73.916,211.946,74.38,211.977,74.925z"/>
					</g>
				</g>
				<path fill="#DA7B51" d="M209.206,84.191c0,0-3.495,4.42-7.195,3.392C202.011,87.583,206.842,91.489,209.206,84.191z"/>
				<g>
					<path fill="#DA7B51" d="M194.097,101.459c-0.13,0-0.257-0.061-0.337-0.176c-0.13-0.186-0.084-0.442,0.103-0.573
						c0.323-0.226,8.027-5.494,13.817-5.316c0.226,0.008,0.405,0.199,0.397,0.426c-0.008,0.227-0.199,0.386-0.426,0.397
						c-5.531-0.22-13.242,5.114-13.319,5.168C194.261,101.435,194.179,101.459,194.097,101.459z"/>
				</g>
				<g>
					<path fill="#DA7B51" d="M176.965,90.358c-0.116,0-0.231-0.049-0.312-0.144c-0.63-0.734-0.874-1.433-0.723-2.077
						c0.138-0.595,0.58-0.969,0.874-1.158c-0.398-3.255-3.75-3.999-3.896-4.03c-0.223-0.047-0.365-0.264-0.318-0.487
						c0.047-0.222,0.255-0.372,0.485-0.318c0.043,0.009,4.282,0.932,4.574,5.033l0.021,0.292l-0.268,0.116
						c-0.003,0.002-0.561,0.253-0.671,0.744c-0.106,0.467,0.239,0.993,0.546,1.351c0.148,0.172,0.128,0.432-0.043,0.58
						C177.155,90.325,177.06,90.358,176.965,90.358z"/>
				</g>
				<path opacity="0.2" fill="#DA7B51" d="M203.553,113.793l-2.467,0.685c-15.852-0.574-20.533-36.949-21.634-48.713
					c-0.666,2.977-1.715,8.777-1.638,15.499c-0.948-0.681-4.464-2.898-6.467,0.048c-2.26,3.323,2.314,13.092,8.093,12.552
					c0.012-0.001,0.024-0.004,0.036-0.005c0.232,0.847,0.487,1.691,0.779,2.529c0,0,5.482,15.349,12.608,19.461
					c0,0,4.248,3.426,9.182,0.411c0,0,3.015,1.919,5.345,0.959c0.113-0.046,0.268-0.122,0.436-0.209
					C204.212,116.821,203.553,113.793,203.553,113.793z"/>
				<g>
					<path fill="#DA7B51" d="M223.802,83.882c-0.048,0-0.096-0.008-0.145-0.026c-0.212-0.079-0.32-0.316-0.241-0.529
						c0.125-0.331,0.14-0.581,0.043-0.704c-0.141-0.183-0.561-0.203-0.742-0.181l-0.403,0.043l-0.051-0.401
						c-0.331-2.652,1.595-4.397,1.677-4.47c0.167-0.149,0.426-0.136,0.58,0.034c0.151,0.169,0.137,0.429-0.032,0.581
						c-0.016,0.014-1.506,1.376-1.437,3.393c0.332,0.028,0.777,0.137,1.057,0.494c0.289,0.369,0.315,0.874,0.08,1.502
						C224.125,83.78,223.969,83.882,223.802,83.882z"/>
				</g>
				<path fill="#3A1100" d="M219.156,55.225c-0.113-0.968-0.783-5.772-3.269-9.271l-0.371,1.336c-0.889-2.29-2.61-3.905-2.61-3.905
					l-7.222,2.384l4.035-3.72c0,0-21.379-1.645-32.686,17.474l-0.925,20.866l3.186,4.214l0.103-2.056c0,0-0.103-15.623,2.878-19.529
					c0,0,18.89-12.976,35.783-7.954c2.503,6.191,2.864,22.549,2.864,22.549l0.514-0.103
					C222.731,70.873,220.056,58.922,219.156,55.225z"/>
			</g>
			<path opacity="0.5" fill="#BCBFC1" d="M162.225,139.967c-0.111-0.009-0.183-0.014-0.183-0.014l-1.457,70.309
				c8.623,3.203,17.146,5.128,25.233,6.189C169.694,197.678,163.967,157.026,162.225,139.967z"/>
			<g>
				
					<rect x="169.787" y="31.576" transform="matrix(0.3511 0.9363 -0.9363 0.3511 147.6404 -148.3417)" fill="#8F9396" width="22.126" height="1.553"/>
			</g>
			<g>
				
					<rect x="202.344" y="17.291" transform="matrix(0.9461 0.324 -0.324 0.9461 19.9276 -64.3147)" fill="#8F9396" width="1.553" height="20.801"/>
			</g>
			<g>
				
					<rect x="217.364" y="18.769" transform="matrix(0.77 0.6381 -0.6381 0.77 69.6629 -132.1633)" fill="#8F9396" width="1.553" height="23.542"/>
			</g>
			<polygon fill="#BCC0C4" points="172.215,141.708 174.787,110.511 180.154,107.324 178.7,143.049 			"/>
			<polygon fill="#BCC0C4" points="223.874,143.944 225.942,109.002 230.303,111.685 229.241,142.379 			"/>
			<path fill="#D6D7D8" d="M250.29,226.181c0,0-47.563,16.253-97.755-2.39l1.793-86.522c0,0,54.375,4.302,96.441,0L250.29,226.181z"
				/>
			<g id="XMLID_1_">
				<path id="XMLID_9_" fill="#F0CC32" d="M169.379,214.898c-4.402-1.605-7.303-5.832-7.219-10.52
					c0.037-2.073,0.656-4.084,1.792-5.816l27.146-45.006c2.088-3.738,5.79-5.925,9.908-5.851c1.233,0.022,2.42,0.238,3.528,0.642
					c2.767,1.009,4.992,3.146,6.438,6.182l24.655,44.484c1.206,2.06,2.215,4.009,2.166,6.722c-0.053,2.934-1.244,5.671-3.356,7.709
					c-1.871,1.805-4.265,2.868-6.826,3.051l-0.016,0.043l-55.17-0.989l-0.007-0.013
					C171.371,215.468,170.354,215.253,169.379,214.898z"/>
				<path id="XMLID_8_" fill="#353168" d="M234.386,199.7l-24.676-44.523c-1.719-3.639-4.747-5.984-8.73-6.055
					c-3.749-0.067-6.912,2.007-8.657,5.145l-27.173,45.05c-0.964,1.462-1.541,3.206-1.574,5.087
					c-0.095,5.283,4.111,9.643,9.394,9.738c0.104,0.001,0.206-0.001,0.31-0.003l0.004,0.008l53.324,0.957l0-0.001
					c0.01,0,0.02,0.001,0.029,0.001c5.283,0.096,9.643-4.111,9.738-9.394C236.415,203.45,235.611,201.793,234.386,199.7z"/>
				<path id="XMLID_7_" fill="#EAB331" d="M173.024,211.155c-3.628-0.064-6.527-3.07-6.462-6.697
					c0.023-1.248,0.396-2.457,1.082-3.497l26.297-43.654l1.029-1.658c1.367-2.257,3.446-3.587,5.955-3.542
					c2.668,0.047,4.604,1.434,6.007,4.166l25.09,45.25c0.588,1.1,1.394,2.623,1.367,4.132c-0.064,3.614-3.047,6.505-6.656,6.463
					C226.733,212.119,173.07,211.157,173.024,211.155z"/>
				<path id="XMLID_6_" fill="#F0CC32" d="M228.439,202.179l0.002-0.003l-27.516-50.046l-29.291,49.021
					c-0.476,0.71-0.764,1.558-0.78,2.476c-0.046,2.542,1.978,4.639,4.519,4.685c0.067,0.001,0.132-0.005,0.198-0.007l0.005,0.009
					l48.496,0.871l0.011-0.017c0.119,0.011,0.237,0.022,0.357,0.025c2.542,0.046,4.639-1.979,4.684-4.52
					C229.142,203.76,228.887,202.905,228.439,202.179z"/>
				<path id="XMLID_5_" fill="#F6E434" d="M174.712,211.172c-2.829-0.187-5.041-2.559-4.99-5.424
					c0.024-1.332,0.536-2.539,1.358-3.46c0.133-0.407,0.321-0.788,0.554-1.136l29.284-49.007l0.003-0.037
					c-2.507-0.043-4.584,1.285-5.95,3.541l-1.029,1.658l-26.297,43.654c-0.686,1.039-1.059,2.249-1.082,3.497
					c-0.065,3.628,2.834,6.633,6.462,6.697c0.006,0.001,0.611,0.012,1.686,0.031L174.712,211.172z"/>
				<path id="XMLID_2_" fill="#353168" d="M200.152,205.681c-2.844-0.051-5.105-2.401-5.055-5.245
					c0.053-2.843,2.401-5.106,5.244-5.054c2.847,0.053,5.107,2.399,5.055,5.244C205.344,203.469,202.999,205.734,200.152,205.681z
					 M206.1,166.845c0.023-2.327-2.33-1.859-5.23-1.913c-2.907-0.053-5.258-0.596-5.301,1.745c-0.004,0.16,0.007,0.316,0.026,0.475
					l1.581,21.605c-0.033,1.817,1.411,3.317,3.225,3.35c1.817,0.034,3.316-1.411,3.349-3.229l2.382-21.579
					C206.136,167.138,206.123,166.988,206.1,166.845z"/>
			</g>
		</g>
	</g>
</g>
</svg>
