<?xml version="1.0" encoding="utf-8"?>
<!-- Generator: Adobe Illustrator 17.0.0, SVG Export Plug-In . SVG Version: 6.00 Build 0)  -->
<!DOCTYPE svg PUBLIC "-//W3C//DTD SVG 1.1//EN" "http://www.w3.org/Graphics/SVG/1.1/DTD/svg11.dtd">
<svg version="1.1" id="Layer_1" xmlns="http://www.w3.org/2000/svg" xmlns:xlink="http://www.w3.org/1999/xlink" x="0px" y="0px"
	 width="400px" height="294.232px" viewBox="0 0 400 294.232" enable-background="new 0 0 400 294.232" xml:space="preserve">
<path fill="#367E99" d="M877.773-877.602c-0.631,0-1.261-0.242-1.74-0.726l-38.846-39.199c-0.952-0.96-0.945-2.512,0.016-3.464
	c0.961-0.954,2.511-0.944,3.464,0.016l38.846,39.199c0.952,0.96,0.945,2.512-0.016,3.464
	C879.019-877.838,878.397-877.602,877.773-877.602z"/>
<path fill="#367E99" d="M965.201-921.882c-0.603-0.185-1.135-0.601-1.452-1.203l-25.676-48.85c-0.63-1.197-0.169-2.679,1.029-3.308
	c1.198-0.631,2.678-0.168,3.308,1.029l25.676,48.85c0.63,1.197,0.169,2.679-1.029,3.308
	C966.462-921.743,965.797-921.699,965.201-921.882z"/>
<path fill="#367E99" d="M1067.412-938.388c-0.339-0.532-0.473-1.194-0.323-1.858l12.195-53.822c0.298-1.319,1.611-2.147,2.931-1.848
	c1.321,0.298,2.146,1.611,1.848,2.931l-12.195,53.822c-0.298,1.319-1.611,2.147-2.931,1.848
	C1068.281-937.464,1067.747-937.862,1067.412-938.388z"/>
<g id="path-1_4_">
</g>
<g id="path-1_6_">
</g>
<polyline fill="#5C6B7B" points="216.833,110.833 208,111.667 204.223,110.853 202.833,102.333 205.667,97.167 208.667,95.833 
	217.167,95.5 218.5,98.5 217.333,104.167 216.333,106.667 "/>
<ellipse cx="309.18" cy="270.841" rx="52.18" ry="8.492"/>
<ellipse cx="68.18" cy="270.841" rx="52.18" ry="8.492"/>
<polyline fill="#F3A56E" points="280.659,225 278.189,184.842 318.751,176.5 324.454,199.229 321.5,235 306.512,242 "/>
<path fill="#04D2EF" d="M60.822,197.332c0,0,27.492,16.57,55.585,16.619L101,276c0,0-45.833,6.5-77-2.242L60.822,197.332z"/>
<path fill="#04D2EF" d="M273.457,275.75l4.731-75.25c0,0,18.02,22.422,45.566,7.193l20.662,67.724
	C344.417,275.417,318.751,282.497,273.457,275.75z"/>
<path fill="#DA7B51" d="M239.33,150.682l7.171,34.16c0,0,13.1-7.861,15.152-27.758c0,0,21.024,20.238,30.553,18.384
	c9.528-1.854,26.544-36.06,26.544-36.06s-11.349-31.245-11.15-33.547c0.199-2.302-18.506-18.133-18.506-18.133l-39.178-1.542
	l-11.172,15.096L231,112.313L239.33,150.682z"/>
<path fill="#DA7B51" d="M179.168,117.048l16.067,19.287c0,0-11.811,10.857-23.894,1.617l-10.24,17.852c0,0-41.35,2.285-44.204-1.475
	s7.716-62.234,7.716-62.234l9.629-3.016l23.628-0.469L179.168,117.048z"/>
<path fill="#9DA2A5" d="M269.119,105.062c-5.273-1.108-15.524-3.334-15.524-3.334l-10.597-5.038c-1.032,1.163-1.906,2.5-2.557,4.005
	l-34.452,79.731c0,0,1.553,1.474,4.809,2.423l0.146-0.29l22.601,9.726l34.435-79.69
	C269.043,110.135,269.386,107.549,269.119,105.062z"/>
<g>
	
		<rect x="158.417" y="89.898" transform="matrix(0.9963 0.086 -0.086 0.9963 9.72 -17.7595)" fill="#5C6B7B" width="105" height="28"/>
	<path fill="#526270" d="M195.613,88.524l-35.798-3.091l-2.409,27.896l68.553,5.919C210.558,109.484,200.387,95.906,195.613,88.524z
		"/>
</g>
<g>
	<path fill="#00E676" d="M232.481,110.862c-0.127-0.011-0.251-0.071-0.34-0.176c-0.178-0.211-0.151-0.527,0.061-0.704l4.861-4.089
		l-3.977-5.07c-0.17-0.217-0.133-0.531,0.085-0.702c0.217-0.171,0.532-0.133,0.702,0.085l4.574,5.831l-5.601,4.711
		C232.74,110.835,232.608,110.873,232.481,110.862z"/>
</g>
<g>
	<path fill="#00E676" d="M186.68,106.907c0.127,0.011,0.259-0.027,0.365-0.116c0.211-0.178,0.239-0.493,0.061-0.704l-4.088-4.861
		l4.788-4.314c0.205-0.185,0.222-0.501,0.037-0.706c-0.184-0.206-0.501-0.222-0.706-0.037l-5.506,4.96l4.71,5.601
		C186.429,106.837,186.552,106.896,186.68,106.907z"/>
</g>
<g>
	<path fill="#ED985F" d="M139.365,92.701l-1.233-4.121c0,0-8.229,25.553-14.431,35.39l0.643,0.306
		C124.343,124.275,136.89,101.019,139.365,92.701z"/>
	<path fill="#ED985F" d="M199.034,76.201c-0.109-0.253-0.399-0.368-0.653-0.259c-5.362,2.327-11.462,1.108-13.039,0.73
		c0.129-2.939-1.032-5.377-1.497-6.227l-1.004-0.087c0.007,0.107,0.038,0.217,0.099,0.313c0.018,0.029,1.986,2.934,1.689,6.366
		l-0.035,0.408l0.227,0.1c0.143,0.042,1.629,0.497,4.012,0.703c2.74,0.237,6.449,0.125,9.937-1.389
		C199.025,76.749,199.144,76.455,199.034,76.201z"/>
	<path fill="#ED985F" d="M172.013,86.57c-0.023,0.054-0.052,0.104-0.076,0.157c-14.538,5.805-33.805,1.852-33.805,1.852l0.695,3.573
		c8.355,3.823,21.765,0.171,28.14-1.971c2.242-0.728,3.606-1.31,3.606-1.31l0.805-1.111c-0.249,0.392-0.522,0.764-0.805,1.111
		c16.48,1.035,23.528-3.084,26.493-7.35C188.202,89.617,172.013,86.57,172.013,86.57z"/>
	<g>
		<path fill="#ED985F" d="M140.056,141.496c6.599-8.407,17.066-13.974,19.568-15.095c0.063-0.028,1.664-0.826,1.747-0.853
			c-5.583-9.118-1.628-19.97,0.78-24.372c-14.031,9.958-5.192,23.154-5.192,23.154C151.524,128.14,143.602,136.405,140.056,141.496z
			"/>
	</g>
	<g>
		<path fill="#ED985F" d="M169.273,114.268c-6.577-0.568-10.658-9.965-10.705-10.075l0.92-0.392
			c0.051,0.12,5.224,12.014,12.923,8.995l0.366,0.93C171.545,114.21,170.373,114.363,169.273,114.268z"/>
	</g>
</g>
<path fill="#526270" d="M236.114,120.125l8.241-17.941c0,0,3.472-7.27,10.907-8.134l-15.66,26.376L236.114,120.125z"/>
<path fill="#F3A56E" d="M275.353,91.233c0,0,11.234,17.147,20.503,21.877c0,0,5.243-21.343,15.701-25.53
	c-6.171-5.289-22.524-18.893-32.01-22.923c0,0-20.999,3.865-33.725,16.8c-5.489,5.186-9.29,10.601-9.29,10.601l27.864,2.406
	L275.353,91.233z"/>
<g>
	<path fill="#B3B8BD" d="M238.355,194.708l34.435-79.69c3.286-7.605-0.215-16.434-7.819-19.719
		c-7.607-3.289-16.434,0.215-19.719,7.819l-34.452,79.731L238.355,194.708z"/>
	<g>
		<path fill="#9DA2A5" d="M258.084,118.51c-5.082-0.439-8.859-4.93-8.42-10.011c0.439-5.082,4.93-8.859,10.011-8.42
			c5.082,0.439,8.859,4.93,8.42,10.011C267.657,115.171,263.166,118.948,258.084,118.51z M259.59,101.074
			c-4.532-0.391-8.538,2.978-8.929,7.51c-0.391,4.532,2.978,8.538,7.51,8.929c4.532,0.391,8.538-2.978,8.929-7.51
			C267.491,105.472,264.122,101.466,259.59,101.074z"/>
	</g>
	<path fill="#878C8E" d="M225.503,173.036l-1.585,3.791l5.116,2.139l2.139-5.116l-3.791-1.585
		C226.648,171.958,225.81,172.302,225.503,173.036z M223.424,178.008l-0.273,0.652c-0.307,0.734,0.037,1.572,0.771,1.879
		l0.652,0.273l0.827-1.977L223.424,178.008z M225.755,181.305l0.827-1.977l1.977,0.827l-0.827,1.977L225.755,181.305z
		 M233.513,177.126l0.273-0.652c0.307-0.734-0.037-1.572-0.771-1.879l-0.631-0.264l-0.827,1.977L233.513,177.126z M230.236,179.469
		l0.827-1.977l1.977,0.827l-0.827,1.977L230.236,179.469z M228.915,182.627l0.652,0.273c0.734,0.307,1.572-0.037,1.879-0.771
		l0.273-0.652l-1.977-0.827L228.915,182.627z M228.7,166.878l-0.324,0.774l7.234,3.025l1.713-4.097l-0.692-0.289l-1.389,3.322
		L228.7,166.878z M233.044,161.871c-0.631,1.508,0.047,3.036,1.656,3.709l0.185,0.077c0.701,0.269,1.482,0.236,2.183-0.069
		c0.654-0.302,1.182-0.822,1.463-1.495l0.042-0.101c0.298-0.713,0.314-1.497,0.088-2.214l-0.012-0.03l-0.715,0.108l0.004,0.049
		c0.209,0.59,0.211,1.214-0.027,1.783c-0.392,0.937-1.404,1.639-2.795,1.129l1.636-3.913l-0.04-0.017c0,0-0.236-0.123-0.358-0.174
		C234.885,160.105,233.589,160.567,233.044,161.871L233.044,161.871z M234.471,164.527c-0.85-0.546-1.159-1.466-0.793-2.342
		c0.273-0.652,0.959-1.203,2.105-0.796L234.471,164.527z M236.434,155.484l0.266,0.111c-0.687,0.097-1.288,0.562-1.553,1.195
		l-0.026,0.061c-0.58,1.386,0.121,2.804,1.731,3.477c1.631,0.682,3.114,0.224,3.685-1.141c0.452-1.08,0.004-1.842-0.213-2.124
		l0.795,0.333l0.307-0.734l-7.195-3.009l-0.315,0.753l2.527,1.057L236.434,155.484z M239.906,158.804
		c-0.4,0.958-1.479,1.248-2.702,0.737c-1.182-0.494-1.736-1.516-1.344-2.453c0.333-0.795,1.295-1.325,2.681-0.745
		C240.049,156.973,240.229,158.03,239.906,158.804z M238.725,150.29l0.04,0.017c-0.305,0.041-1.021,0.267-1.473,1.347
		c-0.571,1.365,0.094,2.696,1.683,3.361s3.061,0.179,3.64-1.207c0.315-0.753,0.263-1.375-0.141-1.95l0.713,0.298
		c0.998,0.417,1.306,1.287,0.836,2.409c-0.196,0.468-0.523,0.907-0.926,1.241l-0.038,0.031l0.512,0.549l0.038-0.031
		c0.487-0.419,0.876-0.95,1.115-1.522c0.503-1.202,0.428-2.741-1.264-3.449l-5.011-2.095l-0.315,0.753L238.725,150.29z
		 M241.986,153.425c-0.417,0.998-1.464,1.326-2.667,0.823c-1.223-0.512-1.677-1.371-1.268-2.35c0.452-1.08,1.295-1.325,2.58-0.788
		C241.904,151.619,242.395,152.447,241.986,153.425L241.986,153.425z M239.614,146.16c-0.631,1.508,0.056,3.015,1.646,3.68
		l0.184,0.077c0.701,0.269,1.482,0.236,2.183-0.069c0.654-0.302,1.182-0.822,1.463-1.495l0.042-0.101
		c0.298-0.713,0.314-1.497,0.088-2.214l-0.012-0.03l-0.723,0.129l0.004,0.049c0.209,0.59,0.211,1.214-0.027,1.783
		c-0.392,0.937-1.404,1.639-2.795,1.129l1.644-3.931l-0.04-0.017c0,0-0.236-0.123-0.358-0.174
		C241.464,144.372,240.167,144.835,239.614,146.16z M241.049,148.796c-0.85-0.546-1.159-1.466-0.793-2.342
		c0.273-0.652,0.959-1.203,2.105-0.796L241.049,148.796z M241.956,140.842c-0.063,0.093-0.098,0.175-0.159,0.268
		c-0.298,0.713-0.096,1.492,0.529,2.113l-1.162-0.486l-0.315,0.753l5.165,2.135l0.04,0.017l0.324-0.774l-2.18-0.911
		c-0.327-0.137-0.656-0.322-0.919-0.553c-0.693-0.577-0.971-1.34-0.699-1.992c0.034-0.082,0.068-0.163,0.123-0.236l0.017-0.04
		l-0.753-0.315L241.956,140.842z"/>
	<path opacity="0.3" fill="#A5A8AA" d="M270.309,99.212c1.23,2.549,1.897,6.221,0.271,11.176
		c-3.188,9.709-28.162,67.278-36.809,82.347l4.585,1.973l34.435-79.69C275.158,109.537,273.987,103.431,270.309,99.212z"/>
</g>
<g>
	<path fill="#ED985F" d="M273.457,87.739c-4.874,3.36-11.374,5.011-16.447,6.153l7.385,0.571l10.958-3.231c0,0-1.048-1.52,0,0
		C273.13,87.471,273.457,87.739,273.457,87.739z"/>
	<path fill="#ED985F" d="M280.659,98.215L280.659,98.215c0.538,0.64,1.096,1.285,1.675,1.927
		C281.81,99.484,281.261,98.836,280.659,98.215z"/>
</g>
<path fill="none" stroke="#ED985F" stroke-miterlimit="10" d="M299.264,115.29"/>
<path fill="#F3A56E" d="M262,142.333c0,0,4.318,5.054,4.97,9.125s5.539,58.631,36.467,60.8c14.641,0.93,19.79-8.328,19.79-8.328
	c9.091-31.669,6.992-88.727,5.254-95.716c-1.739-6.988-14.462-18.5-14.462-18.5s-2.292-1.981-3.676-3.17
	c-9.896,3.386-15.126,15.863-18.103,21.862c1.169,1.76,2.146,3.619,3.536,3.773l0.213,0.417l-9.789,17.374
	c0,0-1.356-3.502-3.821-7.904l0.001-0.001c-0.016-0.029-0.035-0.059-0.051-0.088c-0.231-0.411-0.468-0.827-0.718-1.251
	c-0.014-0.023-0.028-0.046-0.042-0.069c-0.227-0.385-0.464-0.775-0.707-1.167c-0.056-0.091-0.111-0.181-0.168-0.272
	c-0.243-0.388-0.494-0.779-0.751-1.171c-0.075-0.115-0.152-0.229-0.229-0.344c-0.241-0.361-0.487-0.723-0.74-1.084
	c-0.078-0.111-0.156-0.221-0.235-0.332c-0.233-0.327-0.472-0.653-0.715-0.978c-0.101-0.135-0.201-0.27-0.304-0.404
	c-0.275-0.36-0.556-0.717-0.842-1.071c-0.111-0.137-0.223-0.271-0.336-0.407c-0.246-0.296-0.495-0.588-0.749-0.877
	c-0.129-0.146-0.258-0.292-0.389-0.436c-0.263-0.29-0.53-0.575-0.801-0.856c-0.127-0.132-0.254-0.263-0.383-0.393
	c-0.316-0.317-0.637-0.627-0.964-0.929c-0.127-0.117-0.256-0.23-0.384-0.345c-0.107-0.096-0.213-0.195-0.321-0.288l-0.019-0.003
	c-2.884-2.494-6.149-4.315-9.738-4.688c0,0-5.845-1.541-9.428,2.087c-0.081,0.081-0.16,0.163-0.239,0.249
	c-0.135,0.15-0.265,0.305-0.392,0.471c-0.119,0.154-0.231,0.321-0.342,0.49c-0.088,0.136-0.179,0.265-0.263,0.411
	c-0.195,0.339-0.378,0.698-0.54,1.095c0,0-0.006,0.017-0.018,0.049c-0.006,0.016-0.014,0.039-0.023,0.064
	c-0.009,0.024-0.016,0.045-0.028,0.078c-0.014,0.041-0.031,0.09-0.05,0.145c-0.01,0.029-0.019,0.056-0.03,0.089
	c-0.023,0.069-0.048,0.144-0.075,0.229c-0.008,0.024-0.015,0.048-0.023,0.073c-0.032,0.101-0.066,0.208-0.103,0.328
	c-0.002,0.006-0.004,0.013-0.006,0.02c0,0-1.602,11.529,2.93,21.676C254.167,132.167,255.5,136,262,142.333z"/>
<g>
	<path fill="#ED985F" d="M254.283,123.618l-0.238-0.615c-0.119-0.307-2.875-7.564-0.582-12.137c0.815-1.625,2.167-2.711,4.019-3.229
		c1.128-0.315,2.249-0.428,3.333-0.334c6.087,0.526,9.19,7.201,9.319,7.485l0.286,0.628l-0.686,0.076
		c-5.289,0.585-14.828,7.661-14.924,7.733L254.283,123.618z M260.73,108.299c-0.963-0.083-1.965,0.018-2.978,0.301
		c-1.568,0.439-2.71,1.351-3.393,2.713c-1.731,3.449-0.198,8.883,0.403,10.708c2.052-1.477,9.269-6.48,14.153-7.415
		C268.022,113.001,265.221,108.687,260.73,108.299z"/>
</g>
<path fill="#ED985F" d="M265.451,140.726c0,0,11.664-3.342,16.014-9.156C281.464,131.569,280.518,142.529,265.451,140.726z"/>
<g>
	<path opacity="0.5" fill="#E58E53" d="M299.129,158.787l-12.469-29.014c-0.109-0.254-0.403-0.37-0.657-0.262
		c-0.254,0.109-0.371,0.403-0.262,0.657l12.469,29.014c0.076,0.175,0.24,0.285,0.417,0.301c0.079,0.007,0.162-0.005,0.24-0.039
		C299.12,159.335,299.238,159.041,299.129,158.787z"/>
	<polygon opacity="0.5" fill="#E58E53" points="295.856,113.109 286.66,129.773 291.324,140.624 	"/>
</g>
<path opacity="0.5" fill="#ED985F" d="M304.111,204.464c-20.65-3.452-29.813-31.761-31.059-35.528
	c-1.327-4.011-3.558-17.555-5.885-21.602c-1.101-1.916-2.846-3.956-4.167-4.167c1.935,1.624,3.602,5.994,3.97,8.292
	c0.652,4.071,5.539,58.631,36.467,60.8c13.63,1.01,19.135-7.372,19.79-8.328c0.654-0.956,1.226-4.701,1.226-4.701
	C317.656,207.05,304.111,204.464,304.111,204.464z"/>
<g>
	<path opacity="0.5" fill="#ED985F" d="M179.896,129.46c-8.491,14.352-27.049,36.673-27.049,36.673
		c-1.69,16.666-15.207,30.806-15.207,30.806c-21.967,21.951-60.375,4.71-75.407-3.413c-0.909,2.436-1.412,3.806-1.412,3.806
		c56.579,33.491,78.274,6.006,78.274,6.006c15.432-15.982,16.418-33.211,16.418-33.211
		C170.762,149.997,177.268,136.283,179.896,129.46z"/>
</g>
<path fill="#09C5D8" d="M287.154,208.651c-5.788-3.257-8.966-7.151-8.966-7.151l-4.731,74.253
	c8.878,1.322,16.973,2.089,24.271,2.477L287.154,208.651z"/>
<path fill="#09C5D8" d="M105.998,213.228l-23.062,64.495C93.694,277.035,101,276,101,276l15.407-62.049
	C112.911,213.945,109.424,213.682,105.998,213.228z"/>
<g>
	<path fill="#ED985F" d="M296.313,112.313c-0.101,0-0.201-0.03-0.289-0.092c-15.993-11.326-21.555-24.163-21.609-24.292
		c-0.107-0.254,0.012-0.547,0.266-0.655c0.252-0.107,0.549,0.01,0.655,0.266c0.054,0.125,5.521,12.714,21.267,23.865
		c0.226,0.16,0.278,0.472,0.119,0.697C296.623,112.239,296.469,112.313,296.313,112.313z"/>
</g>
<g>
	<path fill="#ED985F" d="M303.75,212c-0.009,0-0.018,0-0.027,0c-27.59-2-33.737-42.269-33.797-42.678
		c-0.039-0.273,0.15-0.652,0.424-0.691c0.267-0.045,0.526,0.087,0.566,0.361c0.058,0.401,6.089,40.08,32.861,41.541
		c0.275,0.015,0.487,0.485,0.472,0.761C304.234,211.56,304.014,212,303.75,212z"/>
</g>
<g>
	<path fill="#34414C" d="M170.732,108.502c-4.41,0-7.998-3.588-7.998-7.998s3.588-7.997,7.998-7.997s7.998,3.587,7.998,7.997
		S175.142,108.502,170.732,108.502z M170.732,93.507c-3.858,0-6.998,3.139-6.998,6.997s3.139,6.998,6.998,6.998
		s6.998-3.139,6.998-6.998S174.59,93.507,170.732,93.507z"/>
</g>
<g>
	<g>
		<path fill="#F3A56E" d="M60.822,197.332c0,0,39.06-106.535,56.635-124.088c0,0,37.298-10.581,81.551,0.016
			c0,0,3.747,17.638-28.448,15.611c0,0-17.711,7.504-31.195,3.831l-15.022,31.575l6.52,20.387l5.395,1.839
			c0,0,10.819-15.243,20.701-22.169c0,0-9.115-13.585,5.801-23.588l18.78,23.704c0,0-3.369,15.769-26.026,45.68
			c0,0-0.986,17.229-16.418,33.211C139.096,203.338,117.401,230.823,60.822,197.332z"/>
		<path fill="#ED985F" d="M139.365,92.701l-1.233-4.121c0,0-8.229,25.553-14.431,35.39l0.643,0.306
			C124.343,124.275,136.89,101.019,139.365,92.701z"/>
	</g>
	<path fill="#ED985F" d="M199.034,76.201c-0.109-0.253-0.399-0.368-0.653-0.259c-5.362,2.327-11.462,1.108-13.039,0.73
		c0.129-2.939-1.032-5.377-1.497-6.227l-1.004-0.087c0.007,0.107,0.038,0.217,0.099,0.313c0.018,0.029,1.986,2.934,1.689,6.366
		l-0.035,0.408l0.227,0.1c0.143,0.042,1.629,0.497,4.012,0.703c2.74,0.237,6.449,0.125,9.937-1.389
		C199.025,76.749,199.144,76.455,199.034,76.201z"/>
	<path fill="#ED985F" d="M172.013,86.57c-0.023,0.054-0.052,0.104-0.076,0.157c-14.538,5.805-33.805,1.852-33.805,1.852l0.695,3.573
		c8.355,3.823,21.765,0.171,28.14-1.971c2.242-0.728,3.606-1.31,3.606-1.31l0.805-1.111c-0.249,0.392-0.522,0.764-0.805,1.111
		c16.48,1.035,23.528-3.084,26.493-7.35C188.202,89.617,172.013,86.57,172.013,86.57z"/>
	<g>
		<path fill="#ED985F" d="M141.419,141.559c6.599-8.407,15.702-14.036,18.205-15.157c0.063-0.028,1.664-0.826,1.747-0.853
			c-5.583-9.118-1.628-19.97,0.78-24.372c-14.031,9.958-5.192,23.154-5.192,23.154C151.524,128.14,144.965,136.467,141.419,141.559z
			"/>
	</g>
	<g>
		<path fill="#ED985F" d="M169.273,114.268c-6.577-0.568-10.658-9.965-10.705-10.075l0.92-0.392
			c0.051,0.12,5.224,12.014,12.923,8.995l0.366,0.93C171.545,114.21,170.373,114.363,169.273,114.268z"/>
	</g>
</g>
<g>
	<g>
		<path fill="#00E676" d="M216.417,113.079c-0.118,0-0.237-0.006-0.357-0.018l-11.938-1.213c-0.93-0.095-1.768-0.545-2.359-1.27
			c-0.591-0.724-0.864-1.636-0.77-2.566l1.112-10.944c0.194-1.911,1.889-3.33,3.836-3.128l11.938,1.213
			c1.919,0.195,3.323,1.916,3.128,3.835l-1.111,10.944C219.713,111.726,218.218,113.079,216.417,113.079z M205.583,94.921
			c-1.286,0-2.354,0.966-2.483,2.248l-1.112,10.944c-0.067,0.664,0.127,1.315,0.55,1.833c0.422,0.517,1.021,0.839,1.685,0.907
			l11.938,1.213c1.384,0.146,2.601-0.869,2.74-2.235l1.111-10.943c0.139-1.372-0.864-2.601-2.235-2.74l-11.938-1.213
			C205.753,94.926,205.668,94.921,205.583,94.921z"/>
	</g>
	<g>
		<path fill="#00E676" d="M203.167,111.167l13.458,1.292l2.354-1.479l1.219-9.99l-0.057-4.328l-5.57-1.331l-9.743-0.999l-2.08,1.751
			l-1.08,9.167l-0.083,3.917C201.583,109.167,201.583,110.75,203.167,111.167z"/>
		<path fill="#5C6B7B" d="M213.441,99.811c1.08,0.635,1.856,1.681,2.151,2.899l-1.699-0.188c-0.456-1.009-1.412-1.701-2.513-1.818
			c-1.71-0.19-3.249,1.018-3.438,2.698c-0.189,1.68,1.046,3.195,2.757,3.385c1.101,0.126,2.186-0.339,2.854-1.223l1.699,0.188
			c-0.558,1.123-1.546,1.974-2.74,2.357l-0.217,1.934l-1.549-0.171l0.172-1.537c-0.26-0.008-0.519-0.036-0.774-0.086l-0.172,1.537
			l-1.549-0.172l0.217-1.934c-1.518-0.898-2.451-2.608-2.245-4.449c0.206-1.841,1.495-3.305,3.175-3.849l0.217-1.934l1.549,0.171
			l-0.172,1.537c0.26,0.008,0.519,0.036,0.774,0.086l0.172-1.537l1.549,0.172L213.441,99.811z"/>
	</g>
</g>
</svg>
