<?xml version="1.0" encoding="utf-8"?>
<!-- Generator: Adobe Illustrator 17.0.0, SVG Export Plug-In . SVG Version: 6.00 Build 0)  -->
<!DOCTYPE svg PUBLIC "-//W3C//DTD SVG 1.1//EN" "http://www.w3.org/Graphics/SVG/1.1/DTD/svg11.dtd">
<svg version="1.1" id="Layer_1" xmlns="http://www.w3.org/2000/svg" xmlns:xlink="http://www.w3.org/1999/xlink" x="0px" y="0px"
	 width="400px" height="294.232px" viewBox="0 0 400 294.232" enable-background="new 0 0 400 294.232" xml:space="preserve">
<path fill="#367E99" d="M877.773-877.602c-0.631,0-1.261-0.242-1.74-0.726l-38.846-39.199c-0.952-0.96-0.945-2.512,0.016-3.464
	c0.961-0.954,2.511-0.944,3.464,0.016l38.846,39.199c0.952,0.96,0.945,2.512-0.016,3.464
	C879.019-877.838,878.397-877.602,877.773-877.602z"/>
<path fill="#367E99" d="M965.201-921.882c-0.603-0.185-1.135-0.601-1.452-1.203l-25.676-48.85c-0.63-1.197-0.169-2.679,1.029-3.308
	c1.198-0.631,2.678-0.168,3.308,1.029l25.676,48.85c0.63,1.197,0.169,2.679-1.029,3.308
	C966.462-921.743,965.797-921.699,965.201-921.882z"/>
<path fill="#367E99" d="M1067.412-938.388c-0.339-0.532-0.473-1.194-0.323-1.858l12.195-53.822c0.298-1.319,1.611-2.147,2.931-1.848
	c1.321,0.298,2.146,1.611,1.848,2.931l-12.195,53.822c-0.298,1.319-1.611,2.147-2.931,1.848
	C1068.281-937.464,1067.747-937.862,1067.412-938.388z"/>
<g id="path-1_4_">
</g>
<g id="path-1_6_">
</g>
<path fill="#F3A56E" d="M-286.5,55"/>
<polygon fill="#4B5966" points="233.311,533.288 230.021,541.458 231.082,542.412 235.008,533.818 "/>
<path fill="none" stroke="#E08546" stroke-miterlimit="10" d="M577,53"/>
<g>
	<path fill="#02B2C4" d="M242.646,261.426l-1.17,0.073l-16.51-63.882c-0.107-0.415-0.439-0.809-0.946-1.168
		c-0.504-0.357-1.182-0.679-1.984-0.95c-0.799-0.27-1.724-0.491-2.729-0.647c-1.002-0.155-2.085-0.745-3.205-0.757L159.39,193
		c-0.007,0-0.013,0-0.02,0c-0.007,0-0.013,0-0.02,0s-0.013,0-0.02,0s-0.013,0-0.02,0c-1.11,0-2.19,0.562-3.196,0.698
		c-1.008,0.136-1.943,0.587-2.759,0.841c-0.819,0.254-1.519,0.685-2.051,1.029c-0.535,0.346-0.901,0.794-1.047,1.203l-22.367,62.576
		l-2.441-0.067l1.089,5.466c0.045,0.241,0.111,0.482,0.202,0.714c0.35,0.891,1.031,1.707,1.989,2.4
		c0.965,0.698,2.208,1.273,3.671,1.679c1.469,0.407,3.154,0.506,4.992,0.527L230.688,271c0.011,0,0.022,0,0.033,0s0.022,0,0.033,0
		c0.011,0,0.022,0,0.033,0c0.011,0,0.022,0,0.033,0c1.826,0,3.519-0.055,5.014-0.432c1.489-0.375,2.775-0.852,3.797-1.526
		c1.015-0.67,1.766-1.43,2.197-2.308c0.361-0.735,0.481-1.511,0.36-2.336L242.646,261.426z"/>
	<g>
		<g enable-background="new    ">
			<defs>
				<polygon id="SVGID_1_" enable-background="new    " points="121.858,266.691 148.282,189.862 223.241,190.384 245.465,267.407 
									"/>
			</defs>
			<clipPath id="SVGID_2_">
				<use xlink:href="#SVGID_1_"  overflow="visible"/>
			</clipPath>
			<g clip-path="url(#SVGID_2_)">
				<path fill="#01DAFF" d="M194.126,264.994l-22.734-0.263c-0.277-0.004-0.537-0.039-0.77-0.099
					c-0.233-0.061-0.439-0.146-0.609-0.251c-0.169-0.105-0.301-0.228-0.386-0.365c-0.085-0.136-0.123-0.285-0.103-0.44l0.179-1.488
					c0.015-0.152,0.085-0.295,0.197-0.425c0.112-0.13,0.268-0.246,0.455-0.344c0.187-0.097,0.406-0.175,0.646-0.229
					c0.24-0.053,0.501-0.082,0.773-0.081c0.002,0,0.004,0,0.007,0c0.002,0,0.004,0,0.007,0c0.002,0,0.004,0,0.007,0
					c0.002,0,0.004,0,0.007,0l22.282,0.249c0.271,0.004,0.53,0.038,0.767,0.096c0.237,0.058,0.45,0.141,0.631,0.243
					c0.181,0.102,0.329,0.222,0.433,0.355c0.104,0.133,0.164,0.279,0.17,0.432l0.027,1.491c0.002,0.158-0.051,0.307-0.15,0.441
					c-0.099,0.135-0.243,0.256-0.423,0.356c-0.18,0.101-0.394,0.182-0.633,0.237C194.666,264.966,194.403,264.996,194.126,264.994
					 M234.394,259.906c-0.002,0-0.004,0-0.007,0s-0.004,0-0.007,0c-0.002,0-0.004,0-0.007,0c-0.002,0-0.004,0-0.007,0
					l-102.613-1.162c-0.537-0.005-1.029-0.07-1.459-0.183c-0.429-0.113-0.795-0.273-1.081-0.47
					c-0.285-0.196-0.491-0.428-0.599-0.684c-0.108-0.255-0.119-0.534-0.017-0.826l21.651-62.888
					c0.042-0.125,0.151-0.243,0.314-0.349c0.162-0.106,0.377-0.201,0.63-0.281c0.253-0.079,0.544-0.142,0.858-0.185
					c0.314-0.043,0.651-0.065,0.998-0.063c0.003,0,0.006,0,0.008,0c0.003,0,0.006,0,0.008,0c0.003,0,0.006,0,0.008,0
					c0.003,0,0.006,0,0.008,0l66.439,0.689c0.351,0.004,0.69,0.033,1.003,0.082c0.314,0.049,0.602,0.118,0.85,0.203
					c0.249,0.085,0.458,0.185,0.612,0.295c0.155,0.111,0.256,0.232,0.288,0.358l15.473,63.367c0.073,0.292,0.034,0.57-0.098,0.822
					c-0.133,0.253-0.361,0.479-0.664,0.669c-0.304,0.19-0.685,0.343-1.123,0.448C235.425,259.853,234.929,259.909,234.394,259.906
					 M194.562,192.136c-0.001,0-0.003,0-0.004,0c-0.001,0-0.003,0-0.004,0s-0.003,0-0.004,0c-0.001,0-0.003,0-0.004,0l-14.17-0.146
					c-0.172-0.002-0.335-0.016-0.483-0.04c-0.147-0.024-0.278-0.058-0.387-0.099c-0.109-0.041-0.195-0.09-0.252-0.143
					c-0.057-0.053-0.085-0.111-0.078-0.172c0.005-0.061,0.045-0.118,0.112-0.17c0.068-0.052,0.163-0.098,0.28-0.137
					c0.117-0.039,0.254-0.069,0.406-0.09c0.152-0.021,0.318-0.032,0.491-0.031l14.058,0.148c0.171,0.002,0.335,0.016,0.484,0.04
					c0.149,0.024,0.284,0.057,0.398,0.098c0.114,0.041,0.207,0.089,0.273,0.142c0.065,0.053,0.103,0.111,0.107,0.172
					c0.001,0.06-0.032,0.117-0.093,0.169c-0.061,0.052-0.15,0.098-0.26,0.137c-0.11,0.039-0.242,0.07-0.389,0.091
					C194.894,192.126,194.732,192.137,194.562,192.136 M157.632,189.927c-1.124-0.008-2.219,0.064-3.238,0.2
					c-1.021,0.137-1.969,0.339-2.795,0.592c-0.83,0.255-1.539,0.561-2.078,0.906c-0.542,0.347-0.913,0.732-1.061,1.142
					l-23.842,65.896c-0.358,0.991-0.337,1.95,0.015,2.834c0.355,0.892,1.045,1.707,2.015,2.401c0.977,0.699,2.237,1.274,3.719,1.68
					c1.488,0.408,3.196,0.644,5.058,0.665l94.526,1.073c0.011,0,0.022,0,0.034,0c0.011,0,0.022,0,0.034,0c0.011,0,0.022,0,0.034,0
					c0.011,0,0.022,0,0.033,0c1.85,0.011,3.566-0.193,5.08-0.57c1.508-0.376,2.811-0.922,3.847-1.597
					c1.028-0.67,1.79-1.466,2.226-2.346c0.433-0.872,0.546-1.824,0.287-2.818l-17.371-66.434c-0.109-0.415-0.445-0.811-0.959-1.17
					c-0.511-0.357-1.197-0.68-2.011-0.951c-0.81-0.271-1.747-0.492-2.765-0.648c-1.015-0.156-2.112-0.247-3.247-0.259l-57.461-0.597
					c-0.007,0-0.014,0-0.02,0s-0.014,0-0.02,0s-0.014,0-0.02,0C157.646,189.927,157.639,189.927,157.632,189.927"/>
				<path fill="#5C6B7B" d="M161.835,205.569c0.061-0.253,0.247-0.491,0.532-0.706c0.284-0.214,0.665-0.405,1.117-0.564
					c0.451-0.159,0.973-0.285,1.54-0.371c0.566-0.086,1.178-0.131,1.81-0.127c0.006,0,0.012,0,0.018,0c0.006,0,0.012,0,0.018,0
					c0.006,0,0.012,0,0.018,0c0.006,0,0.012,0,0.018,0l38.24,0.484c0.641,0.007,1.256,0.065,1.819,0.163
					c0.565,0.098,1.079,0.238,1.518,0.408c0.44,0.17,0.804,0.372,1.067,0.595c0.264,0.224,0.425,0.469,0.458,0.725l2.045,17.329
					c0.038,0.325-0.072,0.634-0.304,0.915c-0.233,0.282-0.59,0.536-1.044,0.748c-0.455,0.213-1.007,0.384-1.63,0.501
					c-0.623,0.117-1.316,0.18-2.051,0.175c-0.007,0-0.014,0-0.021,0s-0.014,0-0.021,0c-0.007,0-0.014,0-0.021,0
					c-0.007,0-0.014,0-0.021,0l-44.449-0.586c-0.731-0.01-1.414-0.085-2.023-0.213c-0.608-0.128-1.141-0.307-1.574-0.526
					c-0.432-0.218-0.766-0.475-0.976-0.758c-0.209-0.282-0.296-0.589-0.237-0.908c0.001-0.005,0.002-0.01,0.003-0.015
					s0.002-0.01,0.003-0.015c0.001-0.005,0.002-0.01,0.003-0.015c0.001-0.005,0.002-0.01,0.004-0.015L161.835,205.569
					 M153.051,192.816c-0.346-0.002-0.684,0.02-0.998,0.063c-0.314,0.043-0.605,0.106-0.858,0.185
					c-0.253,0.079-0.468,0.174-0.63,0.281c-0.163,0.107-0.272,0.225-0.314,0.349L128.6,256.581c-0.102,0.291-0.091,0.57,0.017,0.826
					c0.108,0.256,0.313,0.488,0.599,0.684c0.286,0.197,0.652,0.357,1.081,0.47c0.43,0.113,0.922,0.178,1.459,0.183l102.613,1.162
					c0.002,0,0.004,0,0.007,0c0.002,0,0.004,0,0.007,0c0.002,0,0.004,0,0.007,0s0.004,0,0.007,0c0.535,0.003,1.031-0.053,1.47-0.158
					c0.438-0.105,0.819-0.257,1.123-0.448c0.304-0.19,0.531-0.416,0.664-0.669c0.133-0.252,0.171-0.529,0.098-0.822l-15.473-63.367
					c-0.032-0.127-0.133-0.248-0.288-0.358c-0.155-0.11-0.364-0.21-0.612-0.295c-0.248-0.085-0.536-0.154-0.85-0.203
					c-0.313-0.049-0.652-0.078-1.003-0.082l-66.439-0.689c-0.003,0-0.006,0-0.008,0c-0.003,0-0.006,0-0.008,0
					c-0.003,0-0.006,0-0.008,0C153.056,192.816,153.053,192.816,153.051,192.816"/>
				<path fill="#060707" d="M180.465,191.109c-0.173-0.001-0.339,0.01-0.491,0.031c-0.152,0.021-0.289,0.052-0.406,0.09
					c-0.117,0.039-0.212,0.085-0.28,0.137c-0.068,0.052-0.108,0.109-0.112,0.17c-0.007,0.061,0.021,0.119,0.078,0.172
					c0.057,0.053,0.143,0.102,0.252,0.143c0.109,0.041,0.24,0.075,0.387,0.099c0.147,0.024,0.31,0.038,0.483,0.04l14.17,0.146
					c0.001,0,0.003,0,0.004,0c0.001,0,0.003,0,0.004,0s0.003,0,0.004,0c0.001,0,0.003,0,0.004,0c0.171,0.001,0.333-0.01,0.48-0.031
					c0.147-0.021,0.279-0.052,0.389-0.091c0.11-0.039,0.199-0.085,0.26-0.137c0.061-0.052,0.094-0.109,0.093-0.169
					c-0.003-0.061-0.041-0.119-0.107-0.172c-0.065-0.053-0.159-0.101-0.273-0.142c-0.114-0.041-0.249-0.074-0.398-0.098
					c-0.149-0.024-0.313-0.038-0.484-0.04L180.465,191.109"/>
				<path fill="#060707" d="M171.775,261.009c-0.272-0.002-0.533,0.027-0.773,0.081c-0.24,0.053-0.459,0.132-0.646,0.229
					c-0.187,0.097-0.342,0.214-0.455,0.344c-0.112,0.13-0.182,0.274-0.197,0.425l-0.179,1.488c-0.019,0.155,0.018,0.304,0.103,0.44
					c0.085,0.136,0.217,0.26,0.386,0.365c0.169,0.105,0.376,0.191,0.609,0.251c0.233,0.061,0.493,0.096,0.77,0.099l22.734,0.263
					c0.277,0.002,0.54-0.028,0.779-0.083c0.239-0.055,0.453-0.136,0.633-0.237c0.179-0.101,0.324-0.221,0.423-0.356
					c0.099-0.135,0.152-0.284,0.15-0.441l-0.027-1.491c-0.006-0.153-0.066-0.299-0.17-0.432c-0.104-0.133-0.252-0.254-0.433-0.355
					c-0.181-0.102-0.395-0.185-0.631-0.243c-0.236-0.058-0.495-0.092-0.767-0.096l-22.282-0.249c-0.002,0-0.004,0-0.007,0
					c-0.002,0-0.004,0-0.007,0c-0.002,0-0.004,0-0.007,0C171.779,261.009,171.777,261.009,171.775,261.009"/>
				<path fill="#B3B8BD" d="M185.199,218.712c-0.385-0.003-0.769-0.013-1.151-0.032c-0.382-0.019-0.762-0.045-1.137-0.08
					c-0.376-0.035-0.748-0.077-1.114-0.128c-0.366-0.05-0.727-0.109-1.081-0.175c0.139-0.039,0.277-0.079,0.416-0.119
					c0.139-0.04,0.277-0.081,0.416-0.121c0.139-0.041,0.278-0.082,0.418-0.123c0.14-0.041,0.28-0.082,0.42-0.124l0.793-0.238
					c0.475-0.141,0.953-0.286,1.434-0.434c0.48-0.148,0.963-0.299,1.448-0.452c0.484-0.153,0.971-0.31,1.459-0.469
					c0.487-0.159,0.977-0.32,1.467-0.484c0.703-0.235,1.39-0.468,2.059-0.7c0.667-0.231,1.315-0.46,1.945-0.687
					c0.627-0.226,1.235-0.449,1.821-0.669c0.585-0.219,1.148-0.435,1.689-0.647c0.193,0.412,0.256,0.832,0.189,1.249
					c-0.067,0.419-0.266,0.834-0.595,1.234c-0.33,0.402-0.792,0.789-1.384,1.147c-0.595,0.36-1.32,0.692-2.174,0.983
					c-0.536,0.183-1.1,0.342-1.685,0.478c-0.587,0.136-1.194,0.248-1.816,0.337c-0.622,0.089-1.258,0.154-1.9,0.196
					C186.494,218.697,185.845,218.716,185.199,218.712 M193.122,209.708c1.121-0.29,2.181-0.55,3.167-0.776
					c0.982-0.225,1.891-0.417,2.712-0.573c0.819-0.155,1.55-0.274,2.181-0.353c0.629-0.079,1.158-0.119,1.572-0.117
					c0.06,0,0.117,0.002,0.173,0.004c0.055,0.002,0.108,0.005,0.158,0.009s0.098,0.009,0.143,0.015
					c0.045,0.006,0.087,0.013,0.127,0.021c0.002,0,0.005,0.001,0.007,0.001s0.005,0.001,0.007,0.001
					c0.002,0.001,0.005,0.001,0.007,0.002c0.002,0.001,0.005,0.001,0.007,0.002c0.022,0.005,0.043,0.01,0.064,0.015
					c0.02,0.005,0.04,0.011,0.059,0.017s0.037,0.012,0.053,0.019c0.017,0.007,0.033,0.014,0.048,0.021
					c0.023,0.011,0.045,0.023,0.063,0.036s0.035,0.026,0.049,0.04c0.014,0.014,0.026,0.029,0.036,0.044
					c0.01,0.016,0.017,0.032,0.022,0.049c0.002,0.006,0.003,0.012,0.005,0.018c0.001,0.006,0.002,0.012,0.003,0.018
					c0.001,0.006,0.001,0.013,0.001,0.019c0,0.006,0,0.013,0,0.019c-0.016,0.247-0.421,0.608-1.159,1.057
					c-0.743,0.452-1.825,0.995-3.191,1.602c-1.379,0.612-3.049,1.291-4.955,2.009c-1.926,0.725-4.094,1.491-6.444,2.269
					c-2.294,0.759-4.568,1.466-6.742,2.1c-2.193,0.64-4.278,1.204-6.17,1.673c-1.905,0.472-3.609,0.846-5.026,1.1
					c-1.422,0.256-2.551,0.391-3.299,0.386c-0.107-0.001-0.206-0.004-0.298-0.011c-0.091-0.007-0.174-0.016-0.249-0.028
					c-0.075-0.012-0.141-0.028-0.199-0.046c-0.058-0.018-0.107-0.04-0.148-0.064c-0.213-0.127-0.173-0.331,0.092-0.597
					c0.264-0.265,0.75-0.593,1.429-0.97c0.676-0.375,1.542-0.798,2.568-1.257c1.02-0.456,2.198-0.947,3.506-1.46
					c-0.729,0.39-1.324,0.733-1.797,1.031c-0.475,0.3-0.828,0.556-1.073,0.772c-0.245,0.217-0.382,0.394-0.425,0.535
					c-0.043,0.142,0.009,0.249,0.139,0.326c0.032,0.019,0.071,0.035,0.116,0.05c0.045,0.014,0.097,0.026,0.156,0.036
					c0.058,0.01,0.123,0.017,0.194,0.022c0.071,0.005,0.148,0.008,0.231,0.008c0.306,0.002,0.693-0.026,1.152-0.082
					c0.458-0.056,0.988-0.139,1.578-0.248c0.59-0.109,1.241-0.243,1.942-0.399c0.7-0.156,1.451-0.336,2.242-0.535
					c-0.159-0.057-0.314-0.116-0.465-0.177c-0.151-0.061-0.299-0.124-0.442-0.189c-0.144-0.065-0.284-0.132-0.42-0.201
					c-0.136-0.069-0.269-0.141-0.397-0.214c-0.954-0.539-1.596-1.133-1.941-1.744c-0.343-0.606-0.394-1.227-0.17-1.829
					c0.221-0.597,0.713-1.175,1.458-1.699c0.74-0.52,1.73-0.989,2.959-1.372c0.524-0.163,1.07-0.305,1.632-0.425
					c0.561-0.12,1.139-0.218,1.726-0.296c0.587-0.078,1.184-0.134,1.786-0.171c0.601-0.036,1.207-0.052,1.811-0.048
					c0.807,0.005,1.612,0.047,2.399,0.123c0.788,0.076,1.56,0.188,2.3,0.333c0.742,0.146,1.452,0.327,2.116,0.542
					c0.666,0.216,1.286,0.466,1.845,0.751c0.132,0.067,0.259,0.135,0.381,0.204c0.122,0.069,0.239,0.14,0.351,0.211
					c0.112,0.071,0.219,0.144,0.321,0.217c0.102,0.073,0.199,0.147,0.291,0.222c0.756-0.323,1.422-0.626,1.985-0.903
					c0.561-0.277,1.019-0.528,1.364-0.749c0.344-0.22,0.574-0.41,0.68-0.564c0.105-0.154,0.086-0.272-0.071-0.348
					c-0.043-0.021-0.096-0.04-0.159-0.057s-0.135-0.03-0.218-0.042s-0.175-0.02-0.277-0.026c-0.102-0.006-0.214-0.01-0.336-0.011
					c-0.261-0.002-0.566,0.009-0.918,0.033c-0.352,0.024-0.749,0.061-1.193,0.113c-0.444,0.052-0.935,0.117-1.473,0.198
					C194.342,209.5,193.756,209.596,193.122,209.708 M166.833,203.801c-0.632-0.004-1.244,0.041-1.81,0.127
					c-0.567,0.086-1.089,0.213-1.54,0.371c-0.452,0.159-0.833,0.35-1.117,0.564c-0.284,0.215-0.471,0.453-0.532,0.706
					c0.056-0.226,0.211-0.44,0.447-0.636c0.235-0.196,0.55-0.373,0.927-0.527c0.375-0.153,0.812-0.282,1.291-0.381
					c0.478-0.099,0.999-0.167,1.545-0.199c-0.181,0.076-0.348,0.156-0.498,0.242c-0.151,0.086-0.285,0.177-0.399,0.272
					c-0.114,0.095-0.209,0.195-0.28,0.298c-0.072,0.103-0.12,0.21-0.143,0.32l-3.761,17.054c-0.071,0.323,0.009,0.633,0.216,0.919
					c0.208,0.287,0.542,0.547,0.979,0.769c0.438,0.223,0.978,0.405,1.593,0.535c0.616,0.13,1.308,0.207,2.047,0.217l44.212,0.582
					c0.011,0,0.022,0,0.033,0.001c0.011,0,0.022,0,0.033,0.001c0.011,0,0.022,0,0.033,0c0.011,0,0.022,0,0.033,0
					c0.074,0,0.147,0,0.219-0.001c0.072-0.001,0.144-0.003,0.215-0.006c0.071-0.003,0.142-0.006,0.211-0.01
					c0.07-0.004,0.139-0.009,0.208-0.014c-0.228,0.13-0.487,0.248-0.774,0.353c-0.287,0.104-0.601,0.194-0.938,0.268
					c-0.337,0.073-0.698,0.13-1.078,0.168c-0.38,0.038-0.778,0.056-1.192,0.054c-0.006,0-0.012,0-0.019,0c-0.006,0-0.012,0-0.019,0
					c-0.006,0-0.012,0-0.019,0c-0.006,0-0.012,0-0.019,0l-44.449-0.586c-0.731-0.01-1.414-0.085-2.023-0.213
					c-0.608-0.128-1.141-0.307-1.574-0.526c-0.432-0.218-0.766-0.475-0.976-0.758c-0.209-0.282-0.296-0.589-0.237-0.908
					c-0.059,0.32,0.028,0.626,0.237,0.908c0.21,0.283,0.543,0.54,0.976,0.758c0.434,0.219,0.967,0.399,1.574,0.526
					c0.609,0.128,1.291,0.203,2.023,0.213l44.449,0.586c0.007,0,0.014,0,0.021,0c0.007,0,0.014,0,0.021,0c0.007,0,0.014,0,0.021,0
					s0.014,0,0.021,0c0.735,0.005,1.428-0.058,2.051-0.175c0.622-0.117,1.175-0.288,1.63-0.501c0.454-0.212,0.81-0.466,1.044-0.748
					c0.232-0.281,0.342-0.59,0.304-0.915l-2.045-17.329c-0.033-0.257-0.194-0.502-0.458-0.725c-0.263-0.223-0.627-0.425-1.067-0.595
					c-0.439-0.17-0.953-0.309-1.518-0.408c-0.564-0.098-1.179-0.156-1.819-0.163l-38.24-0.484c-0.006,0-0.012,0-0.018,0
					c-0.006,0-0.012,0-0.018,0c-0.006,0-0.012,0-0.018,0C166.845,203.801,166.839,203.801,166.833,203.801"/>
				<path fill="#AAADAF" d="M166.044,203.826c-0.546,0.032-1.067,0.1-1.545,0.199c-0.479,0.099-0.915,0.228-1.291,0.381
					c-0.376,0.154-0.692,0.331-0.927,0.527c-0.236,0.196-0.391,0.41-0.447,0.636l-4.141,17.224c-0.001,0.005-0.002,0.01-0.004,0.015
					c-0.001,0.005-0.002,0.01-0.003,0.015c-0.001,0.005-0.002,0.01-0.003,0.015s-0.002,0.01-0.003,0.015
					c-0.059,0.32,0.028,0.626,0.237,0.908c0.21,0.283,0.543,0.54,0.976,0.758c0.434,0.219,0.967,0.399,1.574,0.526
					c0.609,0.128,1.291,0.203,2.023,0.213l44.449,0.586c0.006,0,0.012,0,0.019,0c0.006,0,0.012,0,0.019,0c0.006,0,0.012,0,0.019,0
					c0.006,0,0.012,0,0.019,0c0.413,0.003,0.812-0.016,1.192-0.054c0.38-0.038,0.74-0.095,1.078-0.168
					c0.337-0.073,0.651-0.163,0.938-0.268c0.286-0.104,0.546-0.222,0.774-0.353c-0.069,0.005-0.138,0.01-0.208,0.014
					c-0.07,0.004-0.14,0.008-0.211,0.01c-0.071,0.003-0.143,0.005-0.215,0.006c-0.072,0.001-0.146,0.002-0.219,0.001
					c-0.011,0-0.022,0-0.033,0c-0.011,0-0.022,0-0.033,0c-0.011,0-0.022,0-0.033-0.001c-0.011,0-0.022,0-0.033-0.001l-44.212-0.582
					c-0.739-0.01-1.43-0.087-2.047-0.217c-0.615-0.13-1.155-0.313-1.593-0.535c-0.437-0.222-0.771-0.483-0.979-0.769
					c-0.207-0.285-0.287-0.596-0.216-0.919l3.761-17.054c0.022-0.11,0.071-0.217,0.143-0.32c0.071-0.103,0.166-0.202,0.28-0.298
					c0.114-0.095,0.248-0.186,0.399-0.272C165.696,203.983,165.863,203.902,166.044,203.826"/>
				<path fill="#B3B8BD" d="M203.777,208.186l0.008,0.075c0-0.007,0.001-0.013,0-0.019c0-0.006-0.001-0.013-0.001-0.019
					c-0.001-0.006-0.002-0.012-0.003-0.018C203.78,208.198,203.778,208.192,203.777,208.186"/>
				<g>
					<defs>
						<polyline id="SVGID_3_" points="167.703,207.655 203.745,207.896 205.135,220.708 165.704,220.452 167.703,207.655 						"/>
					</defs>
					<clipPath id="SVGID_4_">
						<use xlink:href="#SVGID_3_"  overflow="visible"/>
					</clipPath>
					<polyline clip-path="url(#SVGID_4_)" fill="#B3B8BD" points="203.353,207.939 203.382,207.945 203.375,207.943 
						203.368,207.942 203.36,207.94 203.353,207.939 					"/>
					<path clip-path="url(#SVGID_4_)" fill="#00E676" d="M202.753,207.89c-0.413-0.003-0.942,0.037-1.572,0.117
						c-0.63,0.079-1.362,0.198-2.181,0.353c-0.821,0.155-1.729,0.347-2.712,0.573c-0.986,0.226-2.046,0.486-3.167,0.776
						c0.634-0.112,1.22-0.208,1.758-0.289c0.538-0.081,1.029-0.147,1.473-0.198c0.444-0.052,0.842-0.089,1.193-0.113
						c0.352-0.024,0.658-0.035,0.918-0.033c0.122,0.001,0.234,0.004,0.336,0.011c0.102,0.006,0.194,0.015,0.277,0.026
						s0.155,0.025,0.218,0.042s0.116,0.035,0.159,0.057c0.157,0.077,0.176,0.195,0.071,0.348c-0.105,0.154-0.336,0.344-0.68,0.564
						c-0.345,0.221-0.804,0.473-1.364,0.749c-0.563,0.278-1.228,0.581-1.985,0.903c-0.092-0.075-0.189-0.149-0.291-0.222
						c-0.102-0.073-0.209-0.146-0.321-0.217c-0.112-0.071-0.229-0.142-0.351-0.211c-0.122-0.069-0.249-0.137-0.381-0.204
						c-0.559-0.285-1.179-0.535-1.845-0.751c-0.664-0.215-1.375-0.396-2.116-0.542c-0.74-0.146-1.512-0.257-2.3-0.333
						c-0.787-0.076-1.592-0.117-2.399-0.123c-0.604-0.004-1.21,0.012-1.811,0.048c-0.602,0.036-1.199,0.093-1.786,0.171
						c-0.588,0.078-1.165,0.176-1.726,0.296c-0.562,0.12-1.108,0.262-1.632,0.425c-1.228,0.384-2.219,0.852-2.959,1.372
						c-0.745,0.524-1.236,1.102-1.458,1.699c-0.223,0.602-0.172,1.224,0.17,1.829c0.345,0.611,0.987,1.205,1.941,1.744
						c0.129,0.074,0.261,0.145,0.397,0.214c0.136,0.069,0.276,0.136,0.42,0.201c0.144,0.065,0.291,0.128,0.442,0.189
						c0.151,0.061,0.306,0.12,0.465,0.177c-0.792,0.2-1.542,0.379-2.242,0.535c-0.702,0.157-1.352,0.291-1.942,0.399
						c-0.591,0.109-1.12,0.192-1.578,0.248c-0.459,0.056-0.846,0.084-1.152,0.082c-0.083-0.001-0.16-0.003-0.231-0.008
						c-0.071-0.005-0.136-0.012-0.194-0.022c-0.058-0.01-0.11-0.021-0.156-0.036c-0.045-0.014-0.084-0.031-0.116-0.05
						c-0.13-0.077-0.181-0.183-0.139-0.326c0.043-0.142,0.179-0.319,0.425-0.535c0.245-0.216,0.597-0.472,1.073-0.772
						c0.473-0.299,1.068-0.641,1.797-1.031c-1.307,0.513-2.485,1.004-3.506,1.46c-1.027,0.459-1.893,0.882-2.568,1.257
						c-0.679,0.377-1.165,0.705-1.429,0.97c-0.265,0.266-0.305,0.47-0.092,0.597c0.041,0.025,0.09,0.046,0.148,0.064
						c0.058,0.018,0.125,0.034,0.199,0.046c0.075,0.012,0.158,0.022,0.249,0.028c0.091,0.007,0.191,0.01,0.298,0.011
						c0.749,0.005,1.877-0.13,3.299-0.386c1.417-0.255,3.121-0.628,5.026-1.1c1.892-0.469,3.977-1.033,6.17-1.673
						c2.173-0.634,4.448-1.341,6.742-2.1c2.35-0.778,4.518-1.544,6.444-2.269c1.906-0.718,3.576-1.397,4.955-2.009
						c1.366-0.607,2.448-1.149,3.191-1.602c0.738-0.449,1.143-0.81,1.159-1.057l-0.008-0.075c-0.005-0.017-0.012-0.033-0.022-0.049
						c-0.01-0.016-0.021-0.03-0.036-0.044c-0.014-0.014-0.031-0.028-0.049-0.04s-0.04-0.025-0.063-0.036
						c-0.015-0.007-0.031-0.014-0.048-0.021c-0.017-0.007-0.035-0.013-0.053-0.019s-0.038-0.012-0.059-0.017
						c-0.02-0.005-0.042-0.01-0.064-0.015l-0.029-0.006c-0.04-0.008-0.082-0.015-0.127-0.021c-0.045-0.006-0.093-0.011-0.143-0.015
						s-0.103-0.007-0.158-0.009C202.87,207.892,202.813,207.89,202.753,207.89"/>
				</g>
				<path fill="#00E676" d="M196.5,213.03c-0.541,0.212-1.105,0.428-1.689,0.647c-0.586,0.22-1.194,0.443-1.821,0.669
					c-0.629,0.227-1.278,0.456-1.945,0.687c-0.669,0.232-1.356,0.465-2.059,0.7c-0.491,0.164-0.98,0.325-1.467,0.484
					c-0.488,0.159-0.975,0.316-1.459,0.469c-0.485,0.154-0.968,0.305-1.448,0.452c-0.481,0.148-0.959,0.293-1.434,0.434
					l-0.793,0.238c-0.141,0.041-0.281,0.082-0.42,0.124c-0.14,0.041-0.279,0.082-0.418,0.123c-0.139,0.041-0.278,0.081-0.416,0.121
					c-0.139,0.04-0.277,0.08-0.416,0.119c0.354,0.066,0.715,0.124,1.081,0.175c0.366,0.05,0.738,0.093,1.114,0.128
					c0.376,0.035,0.756,0.061,1.137,0.08c0.382,0.019,0.766,0.029,1.151,0.032c0.647,0.004,1.295-0.015,1.937-0.057
					c0.642-0.042,1.278-0.107,1.9-0.196c0.621-0.089,1.229-0.201,1.816-0.337c0.585-0.136,1.149-0.295,1.685-0.478
					c0.854-0.291,1.579-0.623,2.174-0.983c0.592-0.359,1.053-0.745,1.384-1.147c0.329-0.4,0.527-0.815,0.595-1.234
					C196.756,213.862,196.694,213.442,196.5,213.03"/>
			</g>
		</g>
	</g>
	<g>
		<path fill="#00E676" d="M195,149.75c-0.061,0-0.122-0.011-0.182-0.034c-10.54-4.12-19.648-0.174-19.74-0.134
			c-0.252,0.113-0.547-0.001-0.66-0.254c-0.112-0.252,0.001-0.547,0.253-0.66c0.386-0.171,9.568-4.159,20.511,0.116
			c0.257,0.101,0.384,0.391,0.284,0.648C195.389,149.629,195.2,149.75,195,149.75z"/>
	</g>
	<g>
		<path fill="#00E676" d="M199.25,144.733c-0.061,0-0.122-0.011-0.182-0.034c-15.1-5.902-28.109-0.245-28.239-0.187
			c-0.252,0.114-0.548-0.001-0.66-0.253c-0.113-0.252,0-0.548,0.253-0.66c0.134-0.06,13.527-5.881,29.011,0.168
			c0.257,0.101,0.384,0.391,0.284,0.648C199.639,144.613,199.45,144.733,199.25,144.733z"/>
	</g>
	<g>
		<path fill="#00E676" d="M202.75,139.733c-0.061,0-0.122-0.011-0.182-0.034c-18.823-7.355-35.078-0.303-35.24-0.23
			c-0.253,0.114-0.548-0.001-0.66-0.253c-0.112-0.252,0.001-0.548,0.253-0.66c0.166-0.074,16.789-7.301,36.01,0.212
			c0.258,0.101,0.385,0.391,0.284,0.648C203.139,139.613,202.95,139.733,202.75,139.733z"/>
	</g>
	<g>
		<path fill="#F3A56E" d="M286.185,169.198l10.577,26.19c0,0,32.235,1.188,50.2-21.789L339,156l-4.923-2H316"/>
		<path fill="#F3A56E" d="M324.662,177.966c0,0-32.9,9.381-50.328-17.8c0,0-20.663-45.356-9.95-54.31l-46.847-0.799
			c0,0-7.195,4.637-12.631,4.317c-5.436-0.32-8.314-2.558-8.634-7.195c0,0,0-3.677,11.832-8.154l0.64-3.038l-2.718-3.677
			c0,0-3.837-1.279-3.038-4.637c0.799-3.358,7.355-9.114,25.422-11.992c0,0,20.306-3.997,25.422-3.677
			c5.116,0.32,46.014,17.027,54.169,21.664c8.154,4.637,25.845,38.538,33,66.667l3.939,13.188
			C344.939,168.521,342.409,175.407,324.662,177.966z"/>
		<path opacity="0.5" fill="#E08546" d="M260.461,119.029l15.915-11.574l6.555-10.872c-4.637,3.358-15.989-0.959-17.748-3.677
			c-1.759-2.718,5.916-9.433,5.916-9.433c-9.114,3.997-21.905-1.439-21.905-1.439c-7.195,1.439-18.867-3.198-18.867-3.198
			c-4.781,3.985-19.693,4.97-27.886,5.207c0.342,2.338,3.104,3.267,3.104,3.267l2.718,3.677l-0.64,3.038
			c-11.832,4.477-11.832,8.154-11.832,8.154c0.32,4.637,3.198,6.875,8.634,7.195c5.436,0.32,12.631-4.317,12.631-4.317l46.847,0.799
			C261.004,108.28,260.157,113.178,260.461,119.029z"/>
		<path fill="#F3A56E" d="M5.702,163.09c0,0,22.981-17.632,29.97-27.236c0.188-0.258,0.364-0.51,0.528-0.756
			c6.267-9.4,35.093-63.085,35.093-63.085s34.467-20.053,60.369-20.68c0,0,26.32,2.089,33.422,6.058
			c7.102,3.969,9.191,6.893,8.773,10.444c0,0-5.333,4.968-5.431,5.013l-8.704,6.545c0,0,12.951,7.799,18.939,27.852
			c0,0,1.253,5.153-1.81,6.684c-3.064,1.532-13.23-1.393-20.193-12.812c0,0-4.874,2.228-11.559,0.418c0,0-12.812,6.545-19.496,8.077
			l3.203,4.735c0,0,16.433-7.102,19.775-7.102c3.342,0,32.447-0.139,32.447-0.139s3.342,5.988,0.139,10.027
			s-11.698,5.153-20.61,4.735c0,0-8.773,3.621-12.673,3.899c0,0-9.33,6.545-14.204,7.52l-7.799,6.963
			c0,0-13.647,18.939-18.104,22.56c0,0-23.117,25.972-41.708,27.434l-21.725,19.636C44.347,209.881,30.56,179.592,5.702,163.09z"/>
		<g>
			<path opacity="0.5" fill="#ED985F" d="M181.03,107.108c0,0-0.904,0.004-2.408,0.011c-6.005-19.957-18.899-27.724-18.899-27.724
				l8.704-6.545c0.098-0.045,5.431-5.013,5.431-5.013c0.212-1.799-0.222-3.437-1.622-5.131c-7.702,2.831-29.363-0.3-29.363-0.3
				c-4.735,3.342-17.825,1.671-17.825,1.671c-5.849,6.406-23.396,10.305-23.396,10.305l-26.574,5.381
				c0.495-2.816,2.179-10.633,5.933-12.905l-9.718,5.157l-5.065,9.54l-0.09,0.018C57.549,97.45,40.799,128.2,36.2,135.099
				c-0.164,0.246-0.34,0.498-0.528,0.756c-6.99,9.604-29.97,27.236-29.97,27.236c24.858,16.502,38.645,46.791,38.645,46.791
				l21.725-19.636c18.591-1.462,41.708-27.434,41.708-27.434c4.456-3.621,18.104-22.56,18.104-22.56l7.799-6.963
				c4.874-0.975,14.204-7.52,14.204-7.52c3.899-0.279,12.673-3.899,12.673-3.899c8.913,0.418,17.407-0.696,20.61-4.735
				C184.373,113.096,181.03,107.108,181.03,107.108z M148.583,107.247c-3.342,0-19.775,7.102-19.775,7.102l-3.203-4.735
				c6.684-1.532,19.496-8.077,19.496-8.077c6.684,1.81,11.559-0.418,11.559-0.418c1.455,2.387,3.051,4.397,4.692,6.079
				C155.321,107.225,149.913,107.247,148.583,107.247z"/>
			<path opacity="0.5" fill="#ED985F" d="M81.012,66.858l0.517-0.275C81.352,66.662,81.18,66.756,81.012,66.858z"/>
		</g>
		<g>
			<path opacity="0.5" fill="#E08546" d="M125.701,110.009c6.71-1.571,19.4-8.054,19.4-8.054c6.684,1.81,11.559-0.418,11.559-0.418
				c1.455,2.387,3.051,4.397,4.692,6.079c-6.031,0.027-11.439,0.049-12.769,0.049c-3.342,0-19.775,7.102-19.775,7.102l-1.168-1.726
				c3.703,5.93,6.547,11.371,7.574,15.374c0,0,15.876-8.356,22.142-8.356c6.267,0,15.458-0.836,23.813-6.684
				c0.39-0.273,0.85-0.469,1.372-0.595c-0.153-2.814-1.512-5.254-1.512-5.254s-0.904,0.004-2.408,0.011
				c-6.005-19.957-18.899-27.724-18.899-27.724l8.704-6.545c0.098-0.045,5.431-5.013,5.431-5.013
				c0.212-1.799-0.222-3.437-1.622-5.131c-7.702,2.831-29.363-0.3-29.363-0.3c-4.735,3.342-17.825,1.671-17.825,1.671
				c-5.849,6.406-23.396,10.305-23.396,10.305l-2.169,0.439C104.824,81.674,116.962,96.641,125.701,110.009z"/>
		</g>
		<g>
			<ellipse transform="matrix(0.9996 0.0287 -0.0287 0.9996 7.247 -9.7524)" cx="343.933" cy="248.009" rx="47.623" ry="7.75"/>
			<g>
				<path fill="#04D2EF" d="M345.985,167.763c0,0-26.912,14.987-55.952,13.868l15.416,67.101c0,0,47.105,8.627,79.684,0.888
					L345.985,167.763z"/>
				<path fill="#09C5D8" d="M302.688,181.261l21.361,70.005c-11.091-1.16-18.6-2.534-18.6-2.534l-14.339-66.926
					C294.724,181.945,299.128,181.588,302.688,181.261z"/>
			</g>
		</g>
		<g>
			<g>
				<polyline fill="#5C6B7B" points="194.714,86.249 197.285,78.337 196.394,77.56 189.272,75.679 187.231,78.61 186.01,82.675 
					185.247,84.304 188.33,85.423 192.079,85.947 194.091,86.275 				"/>
				<g>
					<path fill="#00E676" d="M192.955,87.609c-0.072-0.018-0.143-0.04-0.214-0.066l-7.047-2.578
						c-0.549-0.201-0.987-0.604-1.233-1.134c-0.246-0.53-0.271-1.125-0.07-1.674l2.364-6.46c0.413-1.128,1.659-1.726,2.808-1.303
						l7.047,2.578c1.133,0.415,1.718,1.674,1.303,2.807l-2.363,6.46C195.161,87.299,194.046,87.887,192.955,87.609z M189.194,74.934
						c-0.779-0.199-1.575,0.222-1.852,0.979l-2.364,6.46c-0.143,0.392-0.126,0.816,0.05,1.195c0.176,0.378,0.489,0.666,0.881,0.81
						l7.047,2.578c0.816,0.302,1.71-0.125,2.006-0.931l2.363-6.46c0.296-0.81-0.122-1.709-0.932-2.005l-7.047-2.578
						C189.296,74.963,189.245,74.947,189.194,74.934z"/>
				</g>
				<g>
					<path fill="#5C6B7B" d="M154.824,59.498l-6.37,18.261l68.481,23.888l6.37-18.261L154.824,59.498z M187.71,82.669
						c-0.876,0.72-2.035,0.86-3.016,0.467c0.136-0.096,0.276-0.196,0.416-0.299l0.2-0.147c0.476-0.352,0.971-0.738,1.475-1.152
						c0.725-0.597,1.392-1.189,1.972-1.744C188.949,80.836,188.585,81.949,187.71,82.669z M186.532,81.215
						c-2.688,2.205-5.159,3.634-5.521,3.193c-0.236-0.288,0.487-1.303,1.765-2.587c-0.699,0.97-0.857,1.44-0.711,1.617
						c0.166,0.202,0.902-0.101,1.904-0.734c-0.168-0.132-0.325-0.284-0.466-0.456c-1.05-1.28-0.863-3.169,0.417-4.219
						c1.28-1.05,3.169-0.863,4.219,0.417c0.141,0.172,0.259,0.356,0.356,0.547c0.817-0.859,1.258-1.522,1.092-1.724
						c-0.145-0.177-0.713-0.086-1.725,0.381c1.509-1.003,2.646-1.513,2.882-1.225C191.106,76.866,189.22,79.01,186.532,81.215z"/>
					<g>
						<g>
							<path fill="#00E676" d="M199.126,88.913c-0.083-0.029-0.156-0.09-0.197-0.176c-0.083-0.172-0.011-0.378,0.161-0.461
								l3.951-1.908l-1.798-4.072c-0.077-0.174,0.002-0.378,0.176-0.455c0.174-0.078,0.379,0.002,0.455,0.176l2.067,4.683
								l-4.552,2.198C199.304,88.939,199.209,88.942,199.126,88.913z"/>
						</g>
						<g>
							<path fill="#00E676" d="M173.05,79.449c0.083,0.029,0.178,0.026,0.264-0.015c0.172-0.083,0.244-0.289,0.161-0.461
								l-1.907-3.951l3.94-2.071c0.169-0.089,0.234-0.297,0.145-0.466c-0.088-0.169-0.298-0.234-0.466-0.145l-4.532,2.381
								l2.198,4.553C172.894,79.359,172.967,79.42,173.05,79.449z"/>
						</g>
						<path opacity="0.4" fill="#505F6D" d="M154.824,59.498l0.053,0.018c0.294,7.898,7.589,22.814,51.715,36.692
							c3.939,1.239,7.651,2.267,11.155,3.11l-0.813,2.33L148.454,77.76L154.824,59.498z"/>
						<g>
							<g>
								<path fill="#00E676" d="M189.026,88.373c-0.088-0.021-0.175-0.046-0.262-0.077l-8.632-3.016
									c-0.673-0.235-1.214-0.718-1.523-1.36c-0.309-0.641-0.35-1.366-0.116-2.038l2.765-7.913
									c0.483-1.382,1.991-2.133,3.398-1.638l8.633,3.016c1.388,0.485,2.123,2.009,1.638,3.397l-2.765,7.913
									C191.708,87.955,190.361,88.692,189.026,88.373z M184.217,72.995c-0.953-0.228-1.916,0.299-2.239,1.226l-2.765,7.913
									c-0.168,0.48-0.139,0.997,0.082,1.456c0.221,0.458,0.607,0.803,1.088,0.971l8.633,3.016c1,0.354,2.081-0.183,2.427-1.17
									l2.765-7.913c0.346-0.992-0.179-2.081-1.171-2.427l-8.633-3.016C184.342,73.028,184.28,73.01,184.217,72.995z"/>
							</g>
							<g>
								<path fill="#00E676" d="M179.545,84.606l9.745,3.344l2.007-0.679l2.675-7.187l0.725-3.218l-3.892-1.974l-7.044-2.468
									l-1.852,0.928l-2.426,6.602l-0.756,2.888C178.726,82.843,178.446,84.016,179.545,84.606z"/>
								<path fill="#5C6B7B" d="M189.174,78.012c0.688,0.662,1.077,1.575,1.08,2.53l-1.226-0.441
									c-0.159-0.829-0.745-1.511-1.54-1.793c-1.234-0.444-2.589,0.178-3.027,1.39c-0.438,1.212,0.208,2.554,1.443,2.998
									c0.793,0.289,1.68,0.136,2.332-0.401l1.226,0.44c-0.613,0.734-1.496,1.189-2.449,1.261l-0.504,1.395l-1.118-0.402l0.4-1.108
									c-0.191-0.052-0.378-0.119-0.559-0.201l-0.4,1.108l-1.117-0.402l0.504-1.395c-0.966-0.935-1.354-2.367-0.875-3.695
									c0.479-1.328,1.694-2.184,3.036-2.289l0.504-1.395l1.118,0.402l-0.4,1.108c0.191,0.052,0.378,0.119,0.559,0.201l0.4-1.108
									l1.117,0.402L189.174,78.012z"/>
							</g>
						</g>
					</g>
				</g>
				<g>
					<path fill="#34414C" d="M157.559,77.482c-3.306-1.539-4.744-5.481-3.204-8.787c1.539-3.306,5.481-4.743,8.787-3.204
						c3.306,1.539,4.744,5.481,3.205,8.787C164.807,77.583,160.865,79.021,157.559,77.482z M162.793,66.24
						c-2.893-1.347-6.342-0.089-7.688,2.803s-0.089,6.342,2.804,7.688c2.893,1.347,6.342,0.089,7.688-2.804
						S165.685,67.587,162.793,66.24z"/>
				</g>
			</g>
			<g>
				<g>
					<path fill="#B3B8BD" d="M236.987,150.532l-29.055-54.526c-2.773-5.203-0.848-11.391,4.298-13.821
						c5.148-2.432,11.566-0.181,14.339,5.022l29.07,54.554L236.987,150.532z"/>
					<g>
						<path fill="#9DA2A5" d="M210.932,92.497c-0.618-3.512,1.765-6.7,5.311-7.106c3.546-0.406,6.933,2.121,7.55,5.633
							c0.618,3.512-1.765,6.7-5.311,7.106C214.936,98.536,211.549,96.009,210.932,92.497z M211.627,92.417
							c0.551,3.132,3.572,5.386,6.734,5.024c3.162-0.362,5.287-3.206,4.737-6.338c-0.551-3.132-3.572-5.386-6.734-5.024
							C213.201,86.441,211.076,89.285,211.627,92.417z"/>
					</g>
					<path fill="#878C8E" d="M239.738,136.727l1.325,2.605l3.308-1.894l-1.789-3.515l-2.451,1.403
						C239.657,135.598,239.481,136.222,239.738,136.727z M241.476,140.144l0.228,0.448c0.257,0.504,0.845,0.692,1.32,0.42
						l0.422-0.241l-0.691-1.358L241.476,140.144z M244.21,140.333l-0.691-1.358l1.278-0.732l0.691,1.358L244.21,140.333z
						 M245.308,134.097l-0.228-0.448c-0.257-0.504-0.845-0.692-1.32-0.42l-0.408,0.234l0.691,1.358L245.308,134.097z
						 M245.149,136.993l-0.691-1.358l1.278-0.732l0.691,1.358L245.149,136.993z M246.253,139.163l0.422-0.241
						c0.475-0.272,0.65-0.896,0.393-1.401l-0.228-0.448l-1.278,0.732L246.253,139.163z M237.85,132.147l0.271,0.532l4.678-2.678
						l-1.432-2.815l-0.448,0.256l1.162,2.283L237.85,132.147z M237.058,127.447c0.527,1.036,1.622,1.35,2.663,0.754l0.12-0.069
						c0.44-0.271,0.756-0.723,0.893-1.253c0.119-0.503,0.069-1.034-0.166-1.496l-0.035-0.07c-0.249-0.49-0.656-0.854-1.131-1.052
						l-0.021-0.007l-0.247,0.449l0.028,0.02c0.401,0.151,0.73,0.432,0.93,0.823c0.328,0.644,0.267,1.528-0.594,2.076l-1.368-2.689
						l-0.026,0.015c0,0-0.166,0.076-0.245,0.121C236.91,125.616,236.602,126.551,237.058,127.447L237.058,127.447z M239.068,127.852
						c-0.65,0.228-1.267-0.016-1.574-0.617c-0.228-0.448-0.226-1.082,0.477-1.538L239.068,127.852z M235.131,122.656l0.172-0.098
						c-0.242,0.428-0.252,0.976-0.031,1.41l0.021,0.042c0.485,0.952,1.531,1.203,2.572,0.607c1.054-0.604,1.444-1.641,0.967-2.579
						c-0.378-0.742-0.97-0.837-1.211-0.843l0.514-0.294l-0.257-0.504l-4.653,2.664l0.263,0.518l1.634-0.936L235.131,122.656z
						 M238.362,122.217c0.335,0.658,0.029,1.393-0.762,1.846c-0.764,0.437-1.539,0.284-1.867-0.359
						c-0.278-0.546-0.147-1.325,0.749-1.838C237.457,121.307,238.091,121.685,238.362,122.217z M233.366,119.02l0.026-0.015
						c-0.108,0.189-0.294,0.693,0.084,1.435c0.477,0.938,1.463,1.169,2.49,0.581c1.027-0.588,1.398-1.632,0.914-2.584
						c-0.263-0.518-0.614-0.77-1.089-0.805l0.461-0.264c0.645-0.369,1.235-0.147,1.628,0.624c0.164,0.322,0.256,0.703,0.261,1.081
						l0.001,0.035l0.508-0.038l-0.001-0.035c-0.013-0.462-0.128-0.921-0.328-1.313c-0.42-0.826-1.264-1.481-2.358-0.855l-3.24,1.855
						l0.263,0.518L233.366,119.02z M236.41,118.615c0.349,0.686,0.076,1.42-0.701,1.866c-0.791,0.453-1.438,0.318-1.78-0.355
						c-0.378-0.742-0.147-1.325,0.683-1.801C235.421,117.843,236.068,117.943,236.41,118.615L236.41,118.615z M231.565,116.651
						c0.527,1.036,1.615,1.335,2.643,0.746l0.119-0.068c0.44-0.271,0.756-0.723,0.893-1.253c0.119-0.503,0.069-1.034-0.166-1.496
						l-0.035-0.07c-0.249-0.49-0.656-0.854-1.131-1.052l-0.021-0.007l-0.24,0.463l0.028,0.02c0.401,0.151,0.73,0.432,0.93,0.823
						c0.328,0.644,0.267,1.528-0.594,2.076l-1.374-2.701l-0.026,0.015c0,0-0.166,0.076-0.245,0.121
						C231.409,114.805,231.102,115.741,231.565,116.651z M233.568,117.042c-0.65,0.228-1.267-0.016-1.574-0.617
						c-0.228-0.448-0.226-1.082,0.477-1.538L233.568,117.042z M229.757,112.93c0.022,0.077,0.051,0.134,0.074,0.211
						c0.249,0.49,0.746,0.73,1.34,0.661l-0.751,0.43l0.263,0.518l3.326-1.923l0.026-0.015l-0.271-0.532l-1.409,0.807
						c-0.211,0.121-0.449,0.221-0.683,0.264c-0.6,0.126-1.121-0.064-1.349-0.512c-0.029-0.056-0.057-0.112-0.072-0.176l-0.014-0.028
						l-0.487,0.279L229.757,112.93z"/>
				</g>
				<path opacity="0.3" fill="#A5A8AA" d="M208.714,85.004c-0.71,1.791-0.956,4.349,0.489,7.749
					c2.832,6.664,23.891,46.052,30.886,56.319l-3.103,1.459l-29.055-54.526C205.933,92.256,206.385,88.001,208.714,85.004z"/>
			</g>
		</g>
		<path fill="#E08546" d="M146.653,72.923c-0.058-0.068-5.739-6.882-3.097-13.996c0.04-0.108-0.015-0.228-0.123-0.269
			c-0.109-0.04-0.228,0.015-0.268,0.123c-2.439,6.566,1.973,12.86,2.975,14.166c-7.597,2.263-15.739,1.833-16.49,1.787
			c-4.42-6.164-5.083-16.63-5.089-16.737c-0.007-0.111-0.098,0.003-0.208,0.003c-0.004,0-0.008,0-0.012,0
			c-0.115,0-0.203-0.094-0.196,0.021c0.006,0.108,0.673,10.639,5.136,16.908c-6.892,4.565-20.122,7.747-20.816,7.913
			c-0.524-12.118-8.745-19.669-8.829-19.745c-0.086-0.077-0.217-0.076-0.295,0.01c-0.078,0.086-0.071,0.215,0.015,0.292
			c0.083,0.075,8.295,7.606,8.704,19.695l0.002,0.047l0.022,0.042c0.098,0.186,9.805,18.639,10.421,26.031l0.005,0.062l0.038,0.049
			c0.079,0.102,7.913,10.359,8.939,21.446c0.01,0.108,0.101,0.229,0.208,0.229c0.007,0,0.013,0,0.02,0
			c0.115,0,0.2-0.152,0.189-0.267c-1.001-10.811-8.389-20.804-8.988-21.595c-0.636-7.145-9.162-23.656-10.34-25.907
			c0.944-0.227,14.205-3.473,21.057-8.075c0.865,0.052,9.224,0.473,16.924-1.896l0.303-0.094L146.653,72.923z"/>
		<path fill="#F3A56E" d="M162.4,82.45c-4.489,3.087-12.352,4.694-23.218,7.32c0,0-9.348,1.306-20.106,17.233
			c-7.381,10.929-15.095,38.684-48.41,47.313c0,0-18.173-1.671-17.965-16.92s9.818-36.347,29.453-44.285
			c0,0,41.987-17.756,48.462-23.813c0,0,17.669-6.823,29.313-7.34c0,0,5.781,0.308,7.661,5.112
			C167.592,67.07,171.831,75.966,162.4,82.45z"/>
		<g>
			<path fill="#E08546" d="M148.682,82.472l-0.039-0.231c-1.048-6.285-6.317-14.507-6.37-14.589l-0.14-0.217l0.245-0.082
				c6.504-2.168,11.655-3.267,15.311-3.267c4.531,0,5.256,1.716,5.341,1.983c1.09,1.911,1.274,3.847,0.549,5.755
				c-2.438,6.41-14.176,10.406-14.674,10.573L148.682,82.472z M142.747,67.653c0.834,1.335,5.206,8.537,6.251,14.289
				c1.648-0.589,12.016-4.496,14.208-10.259c0.683-1.797,0.504-3.625-0.534-5.434l-0.021-0.053
				c-0.004-0.014-0.511-1.709-4.961-1.709C154.122,64.486,149.096,65.551,142.747,67.653z"/>
		</g>
		<path opacity="0.5" fill="#ED985F" d="M66.002,152.924c-9.47-9.191-3.621-21.725,7.52-38.157
			c11.141-16.433,59.325-30.08,59.325-30.08c-5.513-2.573-7.024-8.296-7.415-11.894c-13.149,7.578-43.276,20.319-43.276,20.319
			c-19.636,7.938-29.245,29.036-29.453,44.285c-0.146,10.651,8.675,14.677,14.008,16.137
			C66.458,153.335,66.218,153.133,66.002,152.924z"/>
		<path fill="#E08546" d="M154.148,63.24l-0.059-0.624c-6.677,0.632-11.879,2.519-13.431,2.823
			c-0.032-0.001-0.064-0.002-0.097,0.007c-0.028,0.008-0.056,0.016-0.084,0.024c-0.134,0.018-0.224,0.015-0.267-0.011l0.033,0.078
			c-7.331,2.101-13.085,5.97-13.144,6.01c-6.584,4.527-48.821,23.179-49.247,23.367c-0.158,0.07-0.23,0.255-0.16,0.413
			c0.052,0.117,0.166,0.187,0.287,0.187c0.042,0,0.085-0.009,0.126-0.027c1.741-0.768,42.717-18.865,49.347-23.423
			c0.058-0.039,5.892-3.964,13.277-6.015c0.003-0.001,0.006-0.004,0.009-0.005C142.089,65.735,147.746,63.845,154.148,63.24z"/>
		<path opacity="0.5" fill="#ED985F" d="M162.897,48.893l0.517-0.275C163.237,48.697,163.065,48.791,162.897,48.893z"/>
		<path fill="#04D2EF" d="M9.462,155.152c0,0,27.991,19.218,36.347,58.071L0,259.5v-100C0,159.5-7.667,161.001,9.462,155.152z"/>
		<path fill="#09C5D8" d="M41.447,198.513C33.402,211.782,10.363,229.792,0,238.5V261l45.809-47.777
			C44.677,207.959,43.182,203.057,41.447,198.513z"/>
		<path fill="none" stroke="#E08546" stroke-miterlimit="10" d="M163.205,82.459c0,0-10.305,4.735-22.282,6.963
			c-11.976,2.228-15.597,10.862-20.332,15.736c0,0-5.71,7.659-9.052,15.04c-3.342,7.381-13.705,26.143-37.838,33.264"/>
		<path fill="#F3A56E" d="M212.9,97.862c0,0,9.593,15.509,24.303,18.707c0,0,4.592,1.716,11.832,8.634
			c8.171,7.807,22.065,45.088,50.045,42.69c0,0,19.826-3.198,12.311-27.181c-7.515-23.983-18.387-28.46-37.734-31.658
			c0,0-4.957,0.32-14.39-7.994s-25.742-13.591-31.658-14.55c-5.916-0.959-7.675-2.398-13.431,2.878
			C214.179,89.388,210.661,93.225,212.9,97.862z"/>
		<g>
			<path fill="#E08546" d="M269.37,81.846c-0.082-0.105-0.232-0.124-0.336-0.043c-0.066,0.051-4.504,3.569-6.276,10.152
				c-0.021-0.004-0.042-0.01-0.066-0.009c-5.705,0.325-14.44-5.259-15.842-6.183c0.032-0.048,0.048-0.107,0.039-0.168
				c-0.805-5.23,2.339-13.746,2.371-13.832c0.046-0.124-0.017-0.262-0.141-0.309c-0.124-0.046-0.262,0.017-0.309,0.141
				c-0.131,0.352-3.197,8.661-2.402,14.018c-5.158,1.893-13.146,1.507-17.85,1.047c-2.009-4.22-1.001-11.396-0.991-11.469
				c0.019-0.131-0.072-0.253-0.203-0.272c-0.13-0.016-0.253,0.072-0.272,0.203c-0.043,0.297-1.003,7.116,0.91,11.482
				c-1.959-0.204-3.23-0.406-3.272-0.412c-0.129-0.024-0.254,0.067-0.275,0.198c-0.022,0.131,0.067,0.254,0.198,0.275
				c0.044,0.007,1.469,0.233,3.64,0.451c0.035,0.02,0.075,0.032,0.116,0.032c0.021,0,0.042-0.009,0.064-0.015
				c4.715,0.462,12.754,0.855,18.011-1.037c1.089,0.731,9.642,6.342,15.712,6.342c0.15,0,0.297-0.005,0.444-0.012
				c-0.722,2.957-0.9,6.501,0.072,10.606c0.026,0.11,0.125,0.185,0.233,0.185c0.018,0,0.037-0.002,0.055-0.007
				c0.129-0.03,0.208-0.16,0.178-0.289c-3.162-13.353,6.056-20.668,6.149-20.74C269.432,82.101,269.451,81.951,269.37,81.846z"/>
			<g>
				<path fill="#E08546" d="M273.977,108.134c-0.025,0-0.051-0.004-0.077-0.013c-0.126-0.042-0.193-0.178-0.15-0.304
					c3.221-9.544,12.804-18.007,12.9-18.091c0.099-0.087,0.251-0.078,0.338,0.022c0.087,0.1,0.077,0.251-0.022,0.338
					c-0.096,0.084-9.583,8.463-12.762,17.884C274.171,108.071,274.077,108.134,273.977,108.134z"/>
			</g>
		</g>
		<g>
			<path fill="#E08546" d="M273.094,109.488c-3.279,0-10.807-5.049-14.075-8.168c-2.856-2.727-7.614-5.397-11.438-7.542
				c-0.85-0.477-1.66-0.932-2.404-1.361c-4.063-2.344-15.614-5.05-15.731-5.077c-0.193-0.045-0.314-0.238-0.269-0.432
				c0.045-0.194,0.24-0.315,0.432-0.269c0.479,0.111,11.772,2.758,15.927,5.155c0.742,0.428,1.55,0.881,2.397,1.357
				c3.858,2.165,8.66,4.86,11.582,7.648c3.657,3.49,11.734,8.628,14.034,7.912c2.365-0.739,7.432-6.304,8.067-10.266
				c0.031-0.196,0.214-0.331,0.412-0.298c0.196,0.031,0.33,0.216,0.298,0.412c-0.682,4.262-5.986,10.034-8.562,10.839
				C273.568,109.459,273.343,109.488,273.094,109.488z"/>
		</g>
		<g>
			<path fill="#E08546" d="M298.25,167.656c-20.169,0.001-35.968-20.813-38.979-26.373c-0.25-0.46-0.522-0.976-0.818-1.537
				c-3.478-6.584-9.952-18.839-21.369-22.838c-12.945-4.535-18.952-11.302-23.12-17.323c-4.447-6.423-0.068-10.427-0.023-10.467
				c0.148-0.131,0.375-0.118,0.507,0.03c0.132,0.148,0.119,0.375-0.029,0.507c-0.163,0.146-3.937,3.635,0.136,9.52
				c4.103,5.926,10.016,12.586,22.767,17.053c11.683,4.093,18.243,16.51,21.768,23.181c0.295,0.558,0.566,1.072,0.814,1.53
				c2.968,5.479,18.527,25.997,38.335,25.997c1.313,0,2.642-0.09,3.989-0.28c0.192-0.034,0.378,0.109,0.406,0.306
				c0.028,0.197-0.109,0.378-0.306,0.406C300.951,167.564,299.591,167.656,298.25,167.656z"/>
		</g>
		<path opacity="0.5" fill="#ED985F" d="M239.761,95.143c12.791,7.035,18.547,17.588,25.262,20.466
			c6.715,2.878,8.954,6.715,19.187,4.797c5.859-1.099,14.967,3.155,23.125,9.869c-7.314-14.999-17.551-18.556-33.677-21.221
			c0,0-4.956,0.32-14.39-7.994c-9.433-8.314-25.742-13.591-31.658-14.55c-5.916-0.959-7.675-2.398-13.431,2.878
			c0,0-0.086,0.093-0.221,0.268C219.677,89.323,230.548,90.076,239.761,95.143z"/>
		<g>
			<path fill="#E08546" d="M222.797,104.387l-0.227-0.117c-2.876-1.477-6.096-4.565-6.804-8.136
				c-0.433-2.185,0.147-4.292,1.679-6.095c1.328-1.562,3.311-2.354,5.894-2.354c4.452,0,9.099,2.327,9.294,2.425l0.388,0.196
				l-0.373,0.223c-5.056,3.034-9.702,13.517-9.749,13.623L222.797,104.387z M223.339,88.166c-2.436,0-4.296,0.735-5.529,2.186
				c-1.454,1.711-1.983,3.625-1.573,5.69c0.659,3.322,3.614,6.218,6.329,7.684c0.717-1.581,4.798-10.25,9.464-13.37
				C230.817,89.798,226.953,88.166,223.339,88.166z"/>
		</g>
		<g>
			<path fill="#E08546" d="M240.721,113c-0.001,0-0.003,0-0.004,0c-0.133,0-0.238,0.034-0.236-0.099
				c0.14-7.912,7.994-15.058,8.073-15.13c0.098-0.089,0.25-0.045,0.339,0.053c0.089,0.098,0.082,0.268-0.016,0.357
				c-0.078,0.071-7.78,7.017-7.915,14.72C240.958,113.032,240.851,113,240.721,113z"/>
		</g>
		<g>
			<path fill="#E08546" d="M131.732,85.174c-0.037,0-0.075-0.01-0.109-0.031c-5.031-3.075-6.711-10.406-6.78-10.717
				c-0.025-0.113,0.046-0.224,0.159-0.249c0.114-0.024,0.224,0.047,0.249,0.159c0.016,0.074,1.711,7.47,6.589,10.451
				c0.098,0.06,0.129,0.189,0.069,0.287C131.871,85.139,131.803,85.174,131.732,85.174z"/>
		</g>
	</g>
</g>
</svg>
