<?xml version="1.0" encoding="utf-8"?>
<!-- Generator: Adobe Illustrator 17.0.0, SVG Export Plug-In . SVG Version: 6.00 Build 0)  -->
<!DOCTYPE svg PUBLIC "-//W3C//DTD SVG 1.1//EN" "http://www.w3.org/Graphics/SVG/1.1/DTD/svg11.dtd">
<svg version="1.1" id="Layer_1" xmlns="http://www.w3.org/2000/svg" xmlns:xlink="http://www.w3.org/1999/xlink" x="0px" y="0px"
	 width="400px" height="294.232px" viewBox="0 0 400 294.232" enable-background="new 0 0 400 294.232" xml:space="preserve">
<path fill="#367E99" d="M877.773-877.602c-0.631,0-1.261-0.242-1.74-0.726l-38.846-39.199c-0.952-0.96-0.945-2.512,0.016-3.464
	c0.961-0.954,2.511-0.944,3.464,0.016l38.846,39.199c0.952,0.96,0.945,2.512-0.016,3.464
	C879.019-877.838,878.397-877.602,877.773-877.602z"/>
<path fill="#367E99" d="M965.201-921.882c-0.603-0.185-1.135-0.601-1.452-1.203l-25.676-48.85c-0.63-1.197-0.169-2.679,1.029-3.308
	c1.198-0.631,2.678-0.168,3.308,1.029l25.676,48.85c0.63,1.197,0.169,2.679-1.029,3.308
	C966.462-921.743,965.797-921.699,965.201-921.882z"/>
<path fill="#367E99" d="M1067.412-938.388c-0.339-0.532-0.473-1.194-0.323-1.858l12.195-53.822c0.298-1.319,1.611-2.147,2.931-1.848
	c1.321,0.298,2.146,1.611,1.848,2.931l-12.195,53.822c-0.298,1.319-1.611,2.147-2.931,1.848
	C1068.281-937.464,1067.747-937.862,1067.412-938.388z"/>
<ellipse opacity="0.51" fill="#3E3B3A" cx="-343.54" cy="492.352" rx="80.953" ry="12.942"/>
<g>
	<path fill="#F3B48D" d="M-398.934,217.708l-9.738,20.954l-32.677-17.49c0,0,4.288-16.201-7.688-21.968c0,0-6.337-7.266-6.21-17.743
		c0,0-1.884-9.299-4.755-8.768c-2.87,0.53-10.96,8.578,1.861,23.533l-6.485,1.795c0,0-4.436-3.19-6.083,0.232
		s-0.908,5.534-0.908,5.534s-3.359,2.598-0.887,6.949c0,0-3.073,2.735-0.264,6.02c0,0-2.003,4.02,1.787,6.251l1.424,0.213
		c0,0,10.255,6.606,14.839,5.476c4.584-1.13,5.434-1.072,5.434-1.072s38.395,28.411,40.318,29.161s4.14,2.345,5.186,1.267
		s16.877-26.298,16.877-26.298S-393.949,219.757-398.934,217.708z"/>
	<g>
		<path fill="#EE9E72" d="M-467.334,222.896c0,0-0.904,0.272-1.858,0.15c2.445,1.044,6.104,1.868,6.607-2.29l-0.052-0.047
			c0.965,0.178,2.986,0.26,4.819-1.49c2.325-1.166,6.107-2.366,6.107-2.366c-3.007-3.546-3.016-10.882-3.002-11.883
			c0.257-2.471-1.037-6.303-11.116-7.094c0,0,10.631,2.24,8.87,6.243c0,0-1.359,1.988-4.365,1.528c0,0,6.54,0.624,3.83,5.524
			c0,0-1.531,1.721-3.939,1.616c0,0,4.094,2.44,1.764,4.362c-2.27,1.872-4.213,1.674-6.115,0.686l-1.39-1.269
			C-467.173,216.568-463.897,221.359-467.334,222.896z M-455.238,206.87l-0.085,0.326c-0.016-0.03-0.019-0.059-0.035-0.089
			C-455.358,207.107-455.309,207.02-455.238,206.87z"/>
		<path fill="#EE7757" d="M-469.287,223.006c0.032,0.013,0.064,0.027,0.095,0.04c-0.034-0.004-0.067-0.015-0.101-0.021
			L-469.287,223.006z"/>
	</g>
	<path fill="#EE9E72" d="M-386.904,231.755l-2.131-3.364c0,0-13.729,26.698-16.475,26.078s-42.703-28.523-42.703-28.523
		s-9.391,3.862-15.368,0.568c0,0,5.095,3.501,13.882,1.058l8.511,6.027l26.026,18.968c0,0,8.373,5.929,10.153,6.046
		c1.779,0.116,16.573-23.555,18.882-26.892"/>
	<g>
		<path fill="#1D1D1B" d="M-405.65,259.264c-0.373-0.023-1.138-0.215-3.435-1.574c-0.223-0.102-0.442-0.199-0.656-0.282
			c-0.307-0.12-1.297-0.711-6.3-4.278c-7.35-5.239-19.46-14.13-26.019-18.961l-8.268-5.855c-0.194,0.023-0.46,0.063-0.802,0.123
			c-0.617,0.147-1.217,0.269-1.772,0.357c-0.645,0.141-1.389,0.312-2.322,0.542c-1.422,0.351-3.467,0.043-6.048-0.905
			c-1.967-0.556-3.066-1.27-3.167-1.338c-2.918-1.389-5.413-2.938-5.891-3.24l-1.329-0.2l-0.161-0.057
			c-3.508-2.062-2.468-5.56-2.079-6.56c-2.274-2.883-0.474-5.378,0.232-6.17c-1.961-3.772,0.2-6.314,0.936-7.026
			c-0.154-0.726-0.366-2.728,1.006-5.578c0.403-0.838,0.994-1.398,1.755-1.665c1.863-0.652,4.107,0.674,4.811,1.139l5.612-1.553
			c-6.898-8.278-7.244-14.203-6.292-17.74c0.861-3.202,3.043-5.288,4.705-5.87c0.155-0.054,0.303-0.093,0.438-0.118
			c3.211-0.594,5.073,8.123,5.284,9.213c-0.118,9.651,5.42,16.625,6.043,17.377c11.082,5.417,8.455,19.686,7.923,22.097
			l31.954,17.104l9.719-20.912l0.396,0.163c3.271,1.343,7.298,6.641,10.109,10.862c0.977,1.47,1.706,2.657,1.997,3.139l1.411-0.064
			l-0.513,0.743c-0.506,0.731-1.636,2.477-3.068,4.689c-3.57,5.517-8.967,13.856-12.503,18.606c-1.614,2.46-1.986,2.946-2.131,3.095
			c-0.235,0.243-0.544,0.392-0.924,0.451c-0.137,0.096-0.253,0.161-0.364,0.199C-405.461,259.255-405.56,259.269-405.65,259.264z
			 M-405.21,258.145c0.231-0.022,0.379-0.077,0.495-0.199c0.094-0.098,0.481-0.609,2.04-2.983
			c3.533-4.747,8.919-13.072,12.484-18.58c1.075-1.66,1.981-3.061,2.584-3.97l-0.159,0.007l-0.137-0.232
			c-0.008-0.014-0.847-1.432-2.118-3.343c-3.658-5.494-6.941-9.135-9.307-10.339l-9.749,20.98l-33.096-17.714l-0.31-0.167
			l0.089-0.342c0.043-0.158,4.05-15.912-7.449-21.449l-0.144-0.109c-0.065-0.074-6.447-7.517-6.311-17.949
			c-0.746-3.683-2.553-8.728-4.233-8.417c-1.174,0.209-3.541,1.982-4.442,5.339c-0.916,3.407-0.521,9.202,6.56,17.463l0.459,0.534
			l-7.111,1.968l-0.367-0.005l-0.096-0.067c-0.101-0.07-2.478-1.709-4.145-1.126c-0.536,0.188-0.944,0.584-1.244,1.208
			c-1.534,3.186-0.895,5.176-0.889,5.192l0.105,0.304l-0.251,0.197c-0.125,0.098-3.016,2.428-0.774,6.374l0.177,0.314l-0.268,0.24
			c-0.111,0.102-2.704,2.493-0.221,5.396l0.19,0.226l-0.13,0.264c-0.074,0.148-1.739,3.628,1.54,5.622l1.336,0.201l0.176,0.064
			c0.034,0.023,3.468,2.219,7.182,3.833l-0.028,0.069c0.462,0.203,1.058,0.428,1.779,0.631c2.442,0.896,4.311,1.194,5.556,0.886
			c0.943-0.234,1.694-0.404,2.371-0.552c0.558-0.09,1.137-0.207,1.757-0.356c0.512-0.088,0.853-0.135,1.059-0.156l0.165-0.015
			l8.553,6.056c6.526,4.807,18.583,13.661,26.037,18.975c4.808,3.428,5.873,4.074,6.079,4.154c0.232,0.091,0.468,0.194,0.747,0.324
			c1.994,1.178,2.752,1.432,3.037,1.469c0.029-0.014,0.088-0.049,0.191-0.128l0.103-0.082L-405.21,258.145z"/>
	</g>
</g>
<path fill="#050D0E" d="M-286.871,475.669c0,0-3.033,0.152-9.706,0c-6.673-0.152-13.828-7.148-13.828-7.148
	s-18.595,7.707-21.024,10.484h-0.276c0,0-7.486,2.427-5.363,5.315c2.123,2.888,10.009,2.874,14.407,2.268
	c4.398-0.607,11.071,0.758,11.071,0.758c18.653,2.73,28.662-5.763,28.662-5.763v-2.578L-286.871,475.669z"/>
<path fill="#050D0E" d="M-388.753,491.368c0,0,2.55,7.958,9.829,10.233s16.378,1.062,21.535-3.791c0,0,1.213-4.398,0-5.156
	c-1.213-0.758-6.589-4.641-7.162-7.174S-381.294,481.894-388.753,491.368z"/>
<g>
	<path fill="#0B3744" d="M-374.23,299.238c0,0,48.185,9.512,74.005-7.583c0,0,0.112,19.539,0,21.013
		c-0.112,1.474-6.212,52.429-6.574,60.618s-2.637,14.246-5.822,24.184c-3.185,9.938-2.73,53.719-0.91,59.126
		c1.82,5.407,3.64,12.244,3.64,12.244l-27.311,15.456c0,0-1.806-14.766-1.806-18.074c0-3.309-0.455-48.816,5.914-70.876
		c6.369-22.059,4.55-57.691,3.64-76.271l-13.649,4.167c0,0-10.919,50.057-12.739,61.653s-4.55,30.249-5.459,39.348
		c-0.91,9.099,0.455,40.491,0.91,47.77l-1.82,15.014c0,0-13.676-7.279-26.856,4.095c0,0,0.442-9.554,0-15.014
		c-0.442-5.459,9.113-80.761,9.113-80.761L-374.23,299.238z"/>
	<g>
		<path fill="#052831" d="M-361.301,424.242c0.754-7.543,2.758-21.643,4.459-32.854l0,0c-6.475-0.688-18.337-13.169-18.337-13.169
			l3.764-63.103l16.953-1.983c-8.644,1.129-16.953-4.423-16.953-4.423l-0.911-9.133c-1.217-0.204-1.904-0.339-1.904-0.339
			l-5.725,96.107c0,0-9.554,75.301-9.113,80.761c0.442,5.459,0,15.014,0,15.014c13.18-11.374,26.856-4.095,26.856-4.095l1.82-15.014
			C-360.846,464.733-362.211,433.341-361.301,424.242z"/>
		<path fill="#052831" d="M-312.621,397.471c1.179-3.68,2.232-6.826,3.111-9.747c-8.893-0.471-16.052-4.582-20.557-8.058
			c-0.702,5.639-1.67,10.978-3.027,15.68c-6.369,22.059-5.914,67.567-5.914,70.876c0,3.309,1.806,18.074,1.806,18.074l27.311-15.456
			c0,0-1.82-6.837-3.64-12.244C-315.351,451.19-315.806,407.408-312.621,397.471z"/>
	</g>
	<g>
		<path fill="#052831" d="M-389.553,492.06l0.049-1.057c0.004-0.094,0.435-9.588,0.001-14.955
			c-0.087-1.072,0.176-4.617,0.805-10.839c0.176-1.74,0.375-3.64,0.594-5.662c0.601-5.564,1.388-12.47,2.341-20.526
			c2.487-21.061,5.346-43.601,5.374-43.827l5.747-96.506l0.566,0.018c0.315,0.06,0.897,0.167,1.742,0.31
			c4.121,0.696,15.093,2.313,27.918,2.313c18.997,0,33.786-3.415,43.956-10.149l0.702-0.464l0.004,0.841
			c0.004,0.799,0.112,19.575-0.002,21.051c-0.028,0.363-0.398,3.561-0.96,8.402c-1.733,14.93-5.339,46-5.613,52.201
			c-0.235,5.33-1.262,9.671-2.73,14.55c-0.257,0.855-0.533,1.738-0.819,2.639l-1.034,3.217c-0.415,1.28-0.816,2.516-1.238,3.828
			c-0.211,0.659-0.393,1.397-0.564,2.262c-0.084,0.428-0.165,0.887-0.243,1.37c-0.447,2.774-0.806,6.52-1.067,11.134
			c-0.041,0.727-0.079,1.464-0.115,2.214c-0.202,4.285-0.32,9.199-0.342,14.214c-0.004,0.805-0.004,1.605-0.004,2.403
			c0.02,12.316,0.61,22.961,1.401,25.314c0.228,0.679,0.457,1.379,0.682,2.088c0.225,0.704,0.445,1.416,0.659,2.118
			c1.267,4.164,2.297,8.026,2.308,8.065l0.091,0.339l-28.209,15.964l-0.366-3.035c-0.212-1.797-0.513-4.395-0.79-6.995
			c-0.49-4.573-0.738-7.526-0.738-8.774l-0.007-3.091l0.007-2.79c0.025-4.914,0.114-9.846,0.263-14.658
			c0.026-0.835,0.054-1.69,0.085-2.554c0.536-14.889,1.939-35.286,5.584-47.909c0.324-1.12,0.651-2.394,1-3.896
			c0.14-0.606,0.267-1.23,0.395-1.855l0.155-0.752c0.092-0.444,0.184-0.889,0.269-1.34c0.193-1.038,0.373-2.094,0.541-3.163
			l0.121-0.762c0.192-1.262,0.371-2.54,0.532-3.839c2.552-20.503,1.365-45.112,0.639-59.932l-12.836,3.918
			c-0.854,3.922-10.947,50.347-12.677,61.367c-0.312,1.987-0.652,4.192-1.004,6.51l-4.276,31.138
			c-0.064,0.585-0.124,1.148-0.177,1.672c-0.876,8.767,0.403,39.554,0.912,47.697l-1.902,15.755l-0.586-0.311
			c-0.043-0.023-4.292-2.241-10.21-2.241c-5.879,0-11.308,2.113-16.136,6.279L-389.553,492.06z M-373.789,299.685l-5.695,95.592
			c-0.031,0.256-2.889,22.792-5.377,43.85c-0.952,8.052-1.739,14.957-2.34,20.517c-0.219,2.021-0.418,3.917-0.594,5.657
			c-0.614,6.08-0.884,9.671-0.803,10.672c0.354,4.372,0.141,11.418,0.043,14.043c4.797-3.874,10.154-5.836,15.937-5.836
			c4.92,0,8.654,1.438,10.048,2.065l1.743-14.384c-0.389-6.101-1.859-38.287-0.911-47.76c0.052-0.528,0.113-1.095,0.177-1.683
			l2.705-20.516l1.576-10.658c0.352-2.321,0.692-4.526,1.004-6.517c1.801-11.475,12.635-61.179,12.744-61.68l0.057-0.259
			l14.462-4.415l0.046,0.934c0.726,14.823,1.942,39.634-0.634,60.323c-0.162,1.308-0.342,2.593-0.536,3.865l-0.122,0.768
			c-0.169,1.075-0.351,2.142-0.546,3.186c-0.086,0.458-0.18,0.908-0.272,1.358l-0.155,0.748c-0.129,0.633-0.258,1.265-0.399,1.878
			c-0.353,1.519-0.684,2.808-1.012,3.944c-3.619,12.534-5.015,32.851-5.548,47.689c-0.031,0.864-0.06,1.715-0.085,2.55
			c-0.149,4.804-0.238,9.728-0.263,14.633l-0.007,2.787l0.007,3.091c0,1.2,0.253,4.199,0.732,8.678
			c0.277,2.596,0.578,5.191,0.788,6.984l0.2,1.679l26.411-14.946c-0.279-1.031-1.162-4.26-2.208-7.693
			c-0.212-0.698-0.433-1.408-0.656-2.109c-0.223-0.704-0.45-1.4-0.676-2.072c-0.833-2.474-1.429-13.004-1.449-25.605
			c-0.001-0.798,0-1.601,0.004-2.406c0.022-5.028,0.141-9.956,0.344-14.253c0.036-0.754,0.074-1.495,0.115-2.221
			c0.263-4.646,0.626-8.424,1.078-11.23c0.08-0.494,0.163-0.963,0.249-1.4c0.178-0.901,0.369-1.672,0.568-2.293
			c0.444-1.386,0.846-2.623,1.232-3.816l1.061-3.298c0.284-0.896,0.559-1.775,0.816-2.627c1.448-4.813,2.461-9.092,2.692-14.326
			c0.276-6.234,3.884-37.326,5.619-52.267c0.54-4.655,0.93-8.019,0.956-8.365c0.098-1.266,0.023-16.401,0.004-20.144
			c-10.293,6.534-25.007,9.845-43.757,9.845c-12.894,0-23.925-1.626-28.07-2.325C-373.04,299.819-373.481,299.741-373.789,299.685z"
			/>
	</g>
</g>
<g>
	<path fill="#333333" d="M-370.221,221.458l-0.689,1.315l-9.161,17.49c0,0-20.178-8.493-30.49-18.805l30.49-43.979l24.353-5.241
		c0,0,29.581-4.028,50.608,0l32.249,26.169l-12.048,31.24l-15.803-13.042v62.177v7.583v5.156c0,0-24.512,16.075-74.005,7.583
		l3.585-5.459l-1.82-6.066C-372.95,287.578-367.188,242.993-370.221,221.458z"/>
	<path fill="#262425" d="M-410.56,221.458c0,0,19.865,14.85,30.49,18.805l9.849-18.805c0,0,3.767-14.768,0-30.028
		c0,0-2.426,24.264-4.853,30.937c-2.426,6.673-5.763,13.647-5.763,13.647S-399.034,232.075-410.56,221.458z"/>
	<path fill="#262425" d="M-370.221,191.43c0,0,12.435,70.975-2.73,96.148c0,0,7.92-58.103,3.05-67.572L-370.221,191.43z"/>
	<path fill="#262425" d="M-272.86,198.407c0,0-11.526,25.644-14.559,24.65c-3.033-0.994-13.952-12.519-18.805-37.39
		c0,0,4.246,87.133,2.73,91.337c-1.517,4.204-19.715,15.426-38.216,15.123c0,0,15.772,5.921,38.52-8.717l2.479-3.416l1.16-61.874
		l14.642,11.527"/>
	<path fill="none" stroke="#262425" stroke-width="0.5" stroke-miterlimit="10" d="M-305.109,172.238
		c-21.026-4.028-50.608,0-50.608,0l-24.353,5.241l-30.49,43.979c6.918,6.918,18.269,13.013,24.997,16.278
		c1.98,1.039,3.848,1.914,5.493,2.526l9.161-17.49l0.689-1.315c3.033,21.535-2.73,66.12-2.73,66.12l1.82,6.066l-3.585,5.459
		c49.493,8.492,74.005-7.583,74.005-7.583v-5.156v-6.371l1.16-61.874l14.642,11.527l12.048-31.24L-305.109,172.238z"/>
</g>
<g>
	<g>
		<path fill="#F3B48D" d="M-330.675,153.054c0,0-1.517,13.567,8.492,17.51c0,0-13.952,17.895-33.363,1.517
			c0,0,7.886-2.32,5.459-24.666l17.895,5.639"/>
		<path fill="#EE9E72" d="M-349.727,151.764l0.06,5.591c0,0,10.394,7.269,20.804,6.809c0,0-2.245-3.752-1.711-6.189
			S-349.727,151.764-349.727,151.764z"/>
		<g>
			<path fill="#1D1D1B" d="M-339.047,179.535c-5.561,0-11.165-2.353-16.689-7.014l-0.647-0.546l0.811-0.238
				c0.072-0.022,7.478-2.601,5.136-24.181l-0.076-0.692l18.559,5.85l-0.274,0.867l-17.232-5.431
				c1.834,18.171-3.213,22.972-5.148,24.127c5.823,4.747,11.704,6.846,17.501,6.248c7.602-0.788,12.849-6.087,14.276-7.69
				c-9.578-4.31-8.211-17.601-8.195-17.738l0.905,0.101c-0.015,0.132-1.357,13.268,8.207,17.036l0.566,0.223l-0.374,0.48
				c-0.239,0.307-5.962,7.52-15.28,8.492C-337.682,179.5-338.364,179.535-339.047,179.535z"/>
		</g>
	</g>
	<g>
		<g>
			<path fill="#3E2114" d="M-378.136,103.113l-8.189-22.513l8.189-3.932l-4.095-2.892c0,0,4.55-32.757,55.96-22.748
				c0,0,28.207,12.575,36.851-1.902c0,0,6.369,11.104,0,16.512l6.824-3.895c0,0-1.365,19.788-11.374,27.284h-54.14l-15.014,33.883
				h-7.279L-378.136,103.113z"/>
			<path fill="#1E0D0B" d="M-287.002,54.275c-4.549,6.989-10.461,7.106-12.735,9.742c-2.275,2.636-34.724,5.988-34.724,5.988
				l8.336-8.374c-4.55,4.8-15.468,8.393-30.482,8.374c-15.014-0.02-22.293,15.235-22.293,15.235l-7.004-6.076l-0.423,0.203
				l8.189,22.513l7.734,19.796h7.279l15.014-33.883h54.14c10.009-7.496,11.374-27.284,11.374-27.284l-6.824,3.895
				C-286.282,61.741-286.24,57.696-287.002,54.275z"/>
			<g>
				<path fill="#1D1D1B" d="M-362.475,122.848h-8.492l-7.961-20.374l-8.478-23.309l7.536-3.618l-3.282-2.318l0.076-0.549
					c0.036-0.254,3.94-25.434,38.791-25.434c5.566,0,11.704,0.645,18.244,1.918l0.196,0.062c0.112,0.05,11.314,4.987,21.504,4.987
					c6.835,0,11.611-2.195,14.196-6.524l0.797-1.335l0.773,1.349c0.227,0.395,4.606,8.168,2.301,14.153l4.759-2.716l-0.116,1.695
					c-0.057,0.825-1.511,20.293-11.736,27.95l-0.243,0.181h-53.851L-362.475,122.848z M-369.725,121.028h6.066l15.014-33.883h54.423
					c7.677-5.995,10.003-19.839,10.595-24.706l-5.286,3.017l-1.041-1.484c4.492-3.813,1.85-11.034,0.474-14.021
					c-3.062,4.036-8.052,6.081-14.862,6.081c-10.189,0-20.94-4.574-22.148-5.102c-6.387-1.238-12.374-1.865-17.796-1.865
					c-30.817,0-36.171,19.703-36.895,23.329l4.889,3.453l-8.842,4.246l7.908,21.739L-369.725,121.028z"/>
			</g>
		</g>
		<g>
			<path fill="#F3B48D" d="M-370.882,124.408c0,0,6.174,22.637,14.667,25.67c8.492,3.033,29.312,10.726,29.312,10.726
				s14.862,2.73,21.231-7.583c6.369-10.312,15.772-25.781,7.279-76.129h-7.886l2.426-5.156c0,0-30.634,10.312-59.751,6.369
				l-1.82,32.15l-3.943,6.078c0,0-3.64-14.267-8.189-16.39c-4.55-2.123-9.402,2.73-10.312,4.853
				C-388.777,107.12-390.9,128.048-370.882,124.408z"/>
			<path fill="#F3B48D" d="M-298.392,77.093h-7.886l2.427-5.156c0,0-24.978,8.405-51.262,7.134
				c-1.272,10.461-6.122,45.946,10.516,74.566c8.042,2.345,17.695,7.168,17.695,7.168s14.862,2.73,21.231-7.583
				S-289.9,127.441-298.392,77.093z"/>
			<path fill="#EE9E72" d="M-298.392,77.093h-7.886l2.427-5.156c0,0-13.392,4.501-30.877,6.416l14.851,3.103
				c0,0,2.469,10.009,1.689,14.255c-0.779,4.246,2.14,19.298,3.96,23.544c0,0-2.616,16.492-2.313,18.615
				c0.231,1.62,2.743,13.478,0.421,22.513c3.84-0.936,7.85-2.954,10.449-7.161C-299.302,142.909-289.9,127.441-298.392,77.093z"/>
			<path fill="#EF9565" d="M-318.986,93.706c0,0,3.033,19.315,7.279,25.033c0,0-6.369,7.234-15.772-0.652c0,0,5.763,3.336,12.132,0
				C-315.346,118.087-321.715,103.599-318.986,93.706z"/>
			<g>
				<path fill="#FDFCFB" d="M-337.925,128.549c0,0,18.653,8.165,27.752,3.085c0,0-3.412,7.886-5.232,8.341
					S-330.873,143.511-337.925,128.549z"/>
				<g>
					<path fill="#EF9565" d="M-320.247,141.219c-5.623,0-13.328-2.125-18.1-12.253l-0.517-1.097l1.111,0.486
						c0.108,0.047,10.873,4.711,19.855,4.711c3.061,0,5.582-0.541,7.493-1.607l1.173-0.655l-0.533,1.232
						c-0.585,1.352-3.6,8.117-5.539,8.602C-316.172,140.856-317.966,141.219-320.247,141.219z M-336.992,129.652
						c4.592,8.775,11.588,10.658,16.744,10.658c2.183,0,3.895-0.346,4.721-0.553c0.979-0.244,3.008-3.899,4.417-6.948
						c-1.864,0.776-4.141,1.168-6.79,1.168C-325.348,133.977-333.958,130.853-336.992,129.652z"/>
				</g>
			</g>
			<g>
				<path fill="#1D1D1B" d="M-376.533,120.641c-0.208,0-0.416-0.079-0.575-0.238c-2.807-2.807-3.93-5.212-3.337-7.148
					c0.462-1.512,1.831-2.297,2.784-2.671c-1.198-2.448-2.452-3.756-3.651-3.798c-0.021,0-0.04-0.001-0.06-0.001
					c-1.745,0-3.169,2.618-3.182,2.645c-0.208,0.397-0.7,0.55-1.098,0.342c-0.398-0.209-0.551-0.701-0.342-1.098
					c0.078-0.147,1.966-3.607,4.739-3.513c2.025,0.07,3.865,1.953,5.468,5.597l0.407,0.925l-0.994,0.2
					c-0.021,0.004-2.088,0.435-2.517,1.853c-0.273,0.905,0.013,2.596,2.934,5.517c0.318,0.318,0.318,0.832,0,1.15
					C-376.117,120.562-376.325,120.641-376.533,120.641z"/>
			</g>
			<g>
				<path fill="#1D1D1B" d="M-322.528,161.411c-2.604,0-4.382-0.321-4.455-0.334c-0.284-0.098-20.99-7.748-29.383-10.746
					c-8.09-2.889-13.944-22.424-14.841-25.58c-1.425,0.239-2.785,0.36-4.047,0.36c0,0-0.001,0-0.002,0
					c-4.919,0-8.594-1.791-10.922-5.324c-3.792-5.751-2.632-13.917-2.106-15.146c0.846-1.973,4.464-5.654,8.365-5.654
					c0.889,0,1.751,0.191,2.559,0.569c4.022,1.877,7.239,12.374,8.17,15.699l3.322-5.121l1.841-32.52l0.488,0.067
					c4.383,0.594,9.073,0.894,13.942,0.894c23.8-0.001,45.387-7.172,45.603-7.244l1.01-0.34l-2.575,5.472h7.554l0.064,0.379
					c8.554,50.712-1.011,66.197-7.341,76.444C-309.65,160.355-317.962,161.411-322.528,161.411z M-326.745,160.202
					c0.037,0,1.769,0.299,4.216,0.299c5.347,0,12.543-1.335,16.471-7.693c6.242-10.106,15.668-25.363,7.282-75.436h-8.219
					l2.288-4.861c-4.539,1.405-23.855,6.972-44.892,6.973c-4.729,0-9.294-0.282-13.577-0.838l-1.799,31.781l-4.574,7.051
					l-0.257-1.007c-0.036-0.141-3.638-14.082-7.94-16.09c-0.688-0.321-1.419-0.483-2.174-0.483c-3.456,0-6.786,3.371-7.528,5.103
					c-0.433,1.008-1.55,8.858,2.029,14.286c2.149,3.261,5.569,4.915,10.163,4.915c0.001,0,0.002,0,0.002,0
					c1.328,0,2.771-0.14,4.292-0.417l0.411-0.075l0.11,0.403c0.061,0.224,6.209,22.443,14.381,25.362
					C-347.678,152.468-327.025,160.099-326.745,160.202L-326.745,160.202z"/>
			</g>
			<g>
				<g>
					<circle fill="#1D1D1B" cx="-344.598" cy="100.715" r="4.398"/>
					<circle fill="#FFFFFF" cx="-345.001" cy="98.842" r="1.873"/>
				</g>
				<g>
					<circle fill="#1D1D1B" cx="-305.775" cy="102.029" r="4.398"/>
					<circle fill="#FFFFFF" cx="-306.178" cy="100.156" r="1.873"/>
				</g>
				<path fill="#1D1D1B" d="M-354.737,93.414c0,0,11.101-4.421,20.074-1.033l0.202-5.152c0,0-10.269-1.314-20.193,4.064
					L-354.737,93.414z"/>
				<path fill="#AF351A" d="M-285.574,94.8l-0.06-1.818l-27.571,0.909l-13.901,0.002l-32.91-1.816l-20.114,5.554l0.211,1.357
					l19.031-4.994c-0.159,1.737-1.097,14.64,5.892,16.546c1.261,0.344,5.347,1.344,10.191,1.344c4.183,0,8.932-0.746,12.915-3.304
					c4.205-2.701,7.053-7.698,7.994-13.438l-1.137,0.569h7.886c0,0.55,0.098,13.485,8.592,15.445
					c1.297,0.299,4.02,0.825,7.122,0.825c3.718,0,7.982-0.755,10.99-3.558c3.144-2.929,4.261-7.497,3.329-13.572L-285.574,94.8z
					 M-332.875,107.049c-8.112,5.212-20.282,2.108-21.644,1.735c-4.855-1.324-4.925-11.133-4.542-14.8l-0.905-0.095l32.807,1.822
					h1.194C-326.838,100.845-329.159,104.662-332.875,107.049z M-291.685,107.092c-4.861,4.527-13.829,2.899-16.463,2.291
					c-7.083-1.635-7.181-13.545-7.181-13.672l2.153-0.001l25.147-0.829l-0.899,0.141
					C-288.062,100.521-288.99,104.581-291.685,107.092z"/>
				<path fill="#1D1D1B" d="M-297.913,93.414c0,0-11.101-4.421-20.074-1.033l-0.202-5.152c0,0,10.269-1.314,20.193,4.064
					L-297.913,93.414z"/>
			</g>
		</g>
	</g>
</g>
<g>
	<g>
		<g>
			<path fill="#F3A56E" d="M87.102,90.995c-0.015,2.381,0.201,5.635,2.112,9.726l-4.99-0.009c0,0-2.534-3.162-4.392-1.046
				c-1.859,2.116-1.751,3.773-1.751,3.773s-2.917,1.187-2.018,4.788c0,0-2.74,1.342-1.388,4.248c0,0-2.231,2.473,0.032,4.821
				l0.975,0.436c0,0,6.01,6.762,9.51,6.868c3.5,0.106,4.095,0.316,4.095,0.316s1.181,1.515,2.996,3.837l6.62-4.32l-2.661-2.546
				c0,0,6.29-10.72-1.117-17.225c0,0-2.16-4.525-1.583-10.377c0,0,0.771-5.657-1.38-6.797
				C90.009,86.348,87.121,87.911,87.102,90.995z"/>
			<g>
				<path fill="#DA7B51" d="M77.334,117.944c0,0-0.7,0.014-1.357-0.263c1.539,1.233,3.989,2.55,5.176-0.32l-0.028-0.044
					c0.654,0.319,2.082,0.781,3.739-0.105c1.893-0.37,4.834-0.474,4.834-0.474c-1.442-3.132,0.013-8.374,0.222-9.087
					c0.676-1.714,0.514-4.709-6.528-7.282c0,0,7.149,3.717,5.093,6.227c0,0-1.366,1.15-3.422,0.222c0,0,4.548,1.748,1.636,4.709
					c0,0-1.437,0.925-3.136,0.37c0,0,2.439,2.558,0.391,3.467c-1.995,0.885-3.343,0.357-4.505-0.728l-0.74-1.183
					C78.709,113.456,80.095,117.53,77.334,117.944z M89.167,108.904l-0.126,0.216c-0.005-0.024-0.002-0.046-0.007-0.071
					C89.034,109.05,89.086,108.998,89.167,108.904z"/>
				<path fill="#EE7757" d="M75.917,117.633c0.02,0.016,0.04,0.032,0.06,0.048c-0.023-0.01-0.045-0.024-0.068-0.035L75.917,117.633z
					"/>
			</g>
			<path fill="#DA7B51" d="M90.386,123.931c0,0,1.308,1.587,3.314,4.005l-1.388,0.934l-3.312-4.073
				c-6.764-0.005-9.707-3.521-9.707-3.521C82.908,124.819,90.386,123.931,90.386,123.931z"/>
		</g>
		<g>
			<path fill="#F3A56E" d="M299.493,91.995c0.015,2.381-0.201,5.635-2.112,9.726l4.99-0.009c0,0,2.534-3.162,4.392-1.046
				c1.859,2.116,1.751,3.773,1.751,3.773s2.917,1.187,2.018,4.788c0,0,2.74,1.342,1.388,4.248c0,0,2.231,2.473-0.032,4.821
				l-0.975,0.436c0,0-6.01,6.762-9.51,6.868c-3.5,0.106-4.095,0.316-4.095,0.316s-1.181,1.515-2.996,3.837l-6.62-4.32l2.661-2.546
				c0,0-6.29-10.72,1.117-17.225c0,0,2.16-4.525,1.583-10.377c0,0-0.771-5.657,1.38-6.797S299.473,88.911,299.493,91.995z"/>
			<g>
				<path fill="#DA7B51" d="M307.886,114.456l-0.74,1.183c-1.162,1.084-2.51,1.613-4.505,0.728
					c-2.047-0.909,0.391-3.467,0.391-3.467c-1.699,0.555-3.136-0.37-3.136-0.37c-2.912-2.961,1.636-4.709,1.636-4.709
					c-2.056,0.928-3.422-0.222-3.422-0.222c-2.055-2.51,5.093-6.227,5.093-6.227c-7.043,2.572-7.204,5.568-6.528,7.282
					c0.209,0.712,1.664,5.954,0.222,9.087c0,0,2.941,0.104,4.834,0.474c1.658,0.885,3.086,0.424,3.739,0.105l-0.028,0.044
					c1.187,2.87,3.638,1.553,5.176,0.32c-0.657,0.277-1.357,0.263-1.357,0.263C306.499,118.53,307.886,114.456,307.886,114.456z
					 M297.561,110.05c-0.005,0.025-0.002,0.046-0.007,0.071l-0.126-0.216C297.508,109.998,297.561,110.05,297.561,110.05z"/>
				<path fill="#EE7757" d="M310.678,118.633c-0.02,0.016-0.04,0.032-0.06,0.048c0.023-0.01,0.045-0.024,0.068-0.035
					L310.678,118.633z"/>
			</g>
			<path fill="#DA7B51" d="M296.208,124.931c0,0-1.308,1.587-3.314,4.005l1.388,0.934l3.312-4.073
				c6.764-0.005,9.707-3.521,9.707-3.521C303.686,125.819,296.208,124.931,296.208,124.931z"/>
		</g>
		<path fill="#01DAFF" d="M287.25,120.5l-27.847,28.485l-6.425-7.01c-8.014-8.769-17.213-16.819-23.579-22.075
			c-10.599-9.887-16.249-12.017-16.249-12.017c-5.24-2.022-12.88-3.123-21.902-2.762c-11.697,0.468-22.335,6.852-24.282,8.081
			c0.082-0.128,0.158-0.266,0.242-0.391c-1.795,1.214-4.062,2.902-6.764,5.187c-0.365,0.279-0.737,0.566-1.126,0.867l-0.004,0.098
			c-1.029,0.894-2.113,1.868-3.259,2.937c-6.367,5.255-15.565,13.306-23.579,22.075l-6.425,7.01L99.25,119.25
			c-1.625,3.057-7.357,7.76-10,11c2.022,3.279,13.258,23.382,21.491,32.494c5.945,7.409,13.227,12.911,17.799,12.996
			c0.229,0.06,0.461,0.109,0.705,0.128c5.348,0.411,23.313-12.965,29.148-17.432l-3.688,62.424c0,0,20.315,2.955,38.241,2.013
			c17.926,0.942,36.228-0.671,36.228-0.671l-1.096-66.594c0,0,21.715,18.754,28.13,18.26c0.244-0.019,0.476-0.068,0.705-0.128
			c4.571-0.085,11.853-5.588,17.799-12.996c8.233-9.112,19.767-25.715,21.789-28.994C293.857,128.51,288.875,123.557,287.25,120.5z"
			/>
		<path opacity="0.4" fill="#09C5D8" d="M174.787,222.754c-13.405-49.949,7.779-100.898,15.822-117.588
			c-11.442,0.668-21.732,6.829-23.643,8.036c0.082-0.128,0.158-0.266,0.242-0.391c-1.795,1.214-4.062,2.902-6.764,5.187
			c-0.365,0.279-0.737,0.566-1.126,0.867l-0.004,0.098c-1.029,0.894-2.113,1.868-3.259,2.937
			c-6.367,5.255-15.565,13.306-23.579,22.075l-6.425,7.01L99.25,119.25c-1.625,3.057-7.357,7.76-10,11
			c2.022,3.279,13.258,23.382,21.491,32.494c5.945,7.409,13.227,12.911,17.799,12.996c0.229,0.06,0.461,0.109,0.705,0.128
			c5.348,0.411,23.313-12.965,29.148-17.432l-3.688,62.424C154.704,220.86,163.587,222.151,174.787,222.754z"/>
	</g>
	<ellipse fill="#060707" cx="195.181" cy="258.207" rx="68.431" ry="20.127"/>
	<g>
		<defs>
			<path id="SVGID_1_" d="M149.256,272.134c11.976,3.028,27.553,4.857,44.584,4.857c22.409,0,42.302-3.168,54.784-8.064
				l-6.033-47.843l-93.701-5.814l-6.485,24.376l0.895,30.861"/>
		</defs>
		<clipPath id="SVGID_2_">
			<use xlink:href="#SVGID_1_"  overflow="visible"/>
		</clipPath>
		<g clip-path="url(#SVGID_2_)">
			<g>
				<g>
					<path fill="#4A9EDD" d="M228.878,224.603l-69.588,1.341c-1.849,24.265-1.792,128.39,10.957,187.487
						c6.784,2.244,11.796,3.615,18.716,2.044c3.406-34.737,3.22-153.104,3.22-153.104c2.315,0.513,3.657-0.6,6.338-1.043
						c0,0,1.703,97.317,6.046,154.147c6.92,1.572,11.814,2.2,18.598-0.044C235.407,354.843,228.878,224.603,228.878,224.603z"/>
				</g>
			</g>
			<g opacity="0.8">
				<path fill="#2494E6" d="M182.296,407.333c0,0-7.605-38.14-10.647-71.513c-2.322-25.476,1.56-83.94,3.527-110.182l-15.886,0.306
					c-1.849,24.265-1.792,128.39,10.957,187.487c6.679,2.209,11.649,3.558,18.404,2.1L182.296,407.333z"/>
			</g>
			<g>
				<g>
					<path fill="#230602" d="M157.949,226.222c0,0,33.407,2.59,70.698-0.518l0.388,9.193c0,0-26.026,7.381-71.086,0"/>
				</g>
				<g>
					<g>
						<g>
							<path fill="#BCBCBC" d="M187.971,238.498c5.12,0.867,10.364,1.001,15.522,0.398c-0.082-4.132-0.165-8.264-0.247-12.396
								c-4.743-0.864-9.617-1.005-14.402-0.416C187.897,230.141,187.601,234.349,187.971,238.498z"/>
						</g>
					</g>
					<g>
						<g>
							<path fill="#230602" d="M201.568,236.287c-0.006-2.598-0.011-5.196-0.017-7.793c-3.754-0.002-7.508-0.005-11.261-0.007
								c-0.183,2.458-0.366,4.916-0.549,7.373C193.639,236.542,197.631,236.687,201.568,236.287z"/>
						</g>
					</g>
					<g>
						<g>
							<path fill="#BCBCBC" d="M192.368,233.826c0.37-0.027,0.76-0.116,1.022-0.379c0.273-0.274,0.357-0.693,0.311-1.077
								c-0.046-0.384-0.206-0.744-0.364-1.097c-1.55-0.447-3.301-0.132-4.599,0.825C189.542,233.246,190.97,233.926,192.368,233.826
								z"/>
						</g>
					</g>
				</g>
			</g>
			<g>
				<path fill="#3C0605" d="M232.64,415.364c-2.089-2.962-5.151-5.007-8.438-5.696c-11.37-3.448-20.196,6.416-20.196,6.416
					c6.241,2.296,13.7,2.545,13.7,2.545l0.047-0.045c4.493,0.325,9.015,0.124,13.469-0.619c0.421-0.07,0.851-0.149,1.22-0.39
					c0.368-0.24,0.666-0.68,0.648-1.161C233.075,416.018,232.858,415.673,232.64,415.364z"/>
			</g>
			<g>
				<path fill="#3C0605" d="M187.892,416.318c-5.706-4.86-11.958-6.328-15.704-6.761c-0.575-0.088-1.154-0.143-1.734-0.149
					c-1.045-0.053-1.659-0.017-1.659-0.017l-0.039,0.132c-3.618,0.483-7.048,2.614-9.324,5.84c-0.218,0.309-0.435,0.655-0.45,1.05
					c-0.018,0.481,0.28,0.921,0.648,1.161c0.368,0.241,0.799,0.319,1.22,0.39c2.757,0.46,5.541,0.712,8.327,0.762
					C176.927,419.491,187.892,416.318,187.892,416.318z"/>
			</g>
		</g>
	</g>
	<g>
		<path fill="#230602" d="M156.499,219.513c0,0,33.407,2.59,70.698-0.518l0.388,9.193c0,0-26.026,7.381-71.086,0"/>
		<g>
			<g>
				<path fill="#BCBCBC" d="M186.52,231.789c5.12,0.867,10.364,1.001,15.522,0.398c-0.082-4.132-0.165-8.264-0.247-12.396
					c-4.743-0.864-9.617-1.005-14.402-0.416C186.446,223.432,186.151,227.64,186.52,231.789z"/>
			</g>
			<g>
				<path fill="#230602" d="M200.117,229.578c-0.006-2.598-0.011-5.196-0.017-7.793c-3.754-0.002-7.508-0.005-11.261-0.007
					c-0.183,2.458-0.366,4.916-0.549,7.373C192.189,229.833,196.18,229.978,200.117,229.578z"/>
			</g>
			<g>
				<path fill="#BCBCBC" d="M190.917,227.117c0.37-0.027,0.76-0.116,1.022-0.379c0.273-0.274,0.357-0.693,0.311-1.077
					c-0.046-0.384-0.206-0.744-0.364-1.097c-1.55-0.447-3.301-0.132-4.599,0.825C188.091,226.537,189.519,227.217,190.917,227.117z"
					/>
			</g>
		</g>
	</g>
	<path fill="#09C5D8" d="M212.094,107.646c-9.344-5.896-29.094-1.396-35.25,0.504c2.286,4.633,5.105,12.102,9.02,14.36
		c0,0,1.062,0.856,2.741,1.336c0.63,0.18,1.346,0.307,2.125,0.316c1.299,0.015,2.774-0.298,4.316-1.241c0,0,3.015,1.919,5.345,0.959
		c0.113-0.046,0.268-0.122,0.436-0.209h0C202.936,122.58,208.448,117.604,212.094,107.646z"/>
	<path opacity="0.5" fill="#BCBFC1" d="M155.225,141.967c-0.111-0.009-0.183-0.014-0.183-0.014l-1.457,70.309
		c8.623,3.203,17.146,5.128,25.233,6.189C162.694,199.678,156.967,159.026,155.225,141.967z"/>
	<polygon fill="#BCC0C4" points="165.215,143.708 167.787,112.511 173.154,109.324 171.7,145.049 	"/>
	<polygon fill="#BCC0C4" points="216.874,145.944 218.942,111.002 223.303,113.685 222.241,144.379 	"/>
	<path fill="#D6D7D8" d="M243.29,228.181c0,0-47.563,16.253-97.755-2.39l1.793-86.522c0,0,54.375,4.302,96.441,0L243.29,228.181z"/>
	<polygon fill="#00E676" points="162.887,187.538 181.869,221.592 195.182,221.592 231.174,164.157 210.959,152.721 
		186.481,206.174 	"/>
	<g>
		<path fill="#0A9EA5" d="M195.813,114.526c-4.795,0-8.537-1.712-8.775-1.823c-0.25-0.117-0.357-0.415-0.241-0.665
			c0.117-0.249,0.413-0.36,0.665-0.241c0.085,0.041,8.683,3.962,16.297-0.234c0.24-0.135,0.545-0.046,0.679,0.196
			c0.134,0.241,0.046,0.546-0.196,0.679C201.386,114.012,198.44,114.526,195.813,114.526z"/>
	</g>
	<path fill="#F3A56E" d="M186.25,92.5l1,18.75c0,0,8.25,4.25,16.75-0.25l1.5-13.25"/>
	<path opacity="0.5" fill="#DA7B51" d="M204.25,93.5L201,90l-14.5,1.5l0.488,13.665c0.298,0.212,0.598,0.413,0.902,0.588
		c0,0,0.281,0.227,0.784,0.516c0.88,0.507,2.44,1.209,4.364,1.231c1.374,0.016,2.934-0.316,4.565-1.312c0,0,0.611,0.388,1.504,0.74
		c0.51,0.201,1.113,0.39,1.747,0.488c0.317,0.049,0.642,0.075,0.966,0.069c0.487-0.01,0.975-0.093,1.437-0.283
		c0.192-0.079,0.468-0.215,0.805-0.407L204.25,93.5z"/>
	<path fill="#F3A56E" d="M222.39,60.57c-1.117-0.652-3.418,0.218-4.331,1.033c-2.272-27.414-3.855-24.574-6.686-26.981
		c-2.899-2.464-27.687-0.29-37.11,12.901c0,0-2.41,8.291-2.292,18.649c-1.003-0.72-4.722-3.065-6.841,0.051
		c-2.39,3.515,2.447,13.848,8.56,13.277c0.013-0.001,0.026-0.004,0.038-0.006c0.246,0.896,0.516,1.789,0.824,2.675
		c0,0,5.798,16.236,13.336,20.584c0,0,4.494,3.624,9.712,0.435c0,0,3.189,2.029,5.653,1.015c2.203-0.907,14.939-8.888,15.962-31.69
		C226.114,69.136,224.115,61.576,222.39,60.57z"/>
	<path opacity="0.6" fill="#EA9563" d="M195.617,59.633l0.078-11.312c0,0-13.844-2.092-16.177,2.574
		c-2.229,4.458,1.94,7.064,1.94,7.064"/>
	<path opacity="0.6" fill="#EA9563" d="M202.917,51.917c0,0-0.34,6.394,0.52,8.055l14.297-0.598c0,0-0.205-5.571-0.381-7.937
		C217.178,49.072,204.839,45.117,202.917,51.917z"/>
	<path fill="#3A1100" d="M196.587,49.336c0,0-11.951-5.841-17.474-0.163l-0.438,1.683c0,0,7.441-2.404,16.781,2.572l1.575-3.758"/>
	<path fill="#3A1100" d="M201.679,49.133c0,0,10.722-4.49,15,1.053l0.178,1.506c0,0-5.034-2.368-14.027,1.125L201.679,49.133"/>
	<path fill="#DA7B51" d="M205.176,69.268c0,0-3.696,4.675-7.61,3.588C197.566,72.855,202.676,76.987,205.176,69.268z"/>
	<g>
		<path fill="#DA7B51" d="M171.074,75.791c-0.122,0-0.245-0.052-0.33-0.152c-0.666-0.776-0.924-1.516-0.764-2.197
			c0.146-0.629,0.613-1.025,0.924-1.225c-0.421-3.443-3.967-4.23-4.121-4.263c-0.236-0.049-0.386-0.279-0.336-0.515
			c0.049-0.234,0.27-0.393,0.513-0.336c0.046,0.009,4.529,0.986,4.838,5.323l0.022,0.309l-0.284,0.122
			c-0.003,0.002-0.593,0.268-0.71,0.787c-0.112,0.493,0.253,1.05,0.578,1.429c0.156,0.182,0.136,0.457-0.046,0.613
			C171.274,75.756,171.174,75.791,171.074,75.791z"/>
	</g>
	<path opacity="0.2" fill="#DA7B51" d="M199.197,100.579l-2.609,0.725c-16.767-0.607-21.719-39.082-22.883-51.525
		c-0.704,3.149-1.814,9.284-1.733,16.394c-1.003-0.72-4.722-3.065-6.841,0.051c-2.39,3.515,2.447,13.848,8.56,13.277
		c0.013-0.001,0.026-0.004,0.038-0.006c0.246,0.896,0.516,1.789,0.824,2.675c0,0,5.798,16.236,13.336,20.584
		c0,0,4.494,3.624,9.712,0.435c0,0,3.189,2.029,5.653,1.015c0.119-0.049,0.283-0.129,0.461-0.221
		C199.893,103.782,199.197,100.579,199.197,100.579z"/>
	<g>
		<path fill="#DA7B51" d="M220.614,68.942c-0.051,0-0.102-0.008-0.153-0.028c-0.224-0.084-0.338-0.335-0.255-0.56
			c0.133-0.35,0.148-0.614,0.046-0.745c-0.149-0.194-0.593-0.215-0.785-0.192l-0.426,0.046l-0.054-0.424
			c-0.35-2.805,1.687-4.651,1.773-4.728c0.177-0.157,0.45-0.144,0.613,0.036c0.16,0.179,0.144,0.454-0.034,0.614
			c-0.017,0.015-1.593,1.456-1.52,3.589c0.352,0.03,0.822,0.144,1.118,0.522c0.306,0.39,0.333,0.924,0.085,1.588
			C220.956,68.834,220.791,68.942,220.614,68.942z"/>
	</g>
	<path fill="#3A1100" d="M215.7,38.63c-0.12-1.023-0.828-6.106-3.457-9.806l-0.392,1.413c-0.94-2.423-2.76-4.131-2.76-4.131
		l-7.639,2.521l4.268-3.935c0,0-22.614-1.74-34.573,18.482l-0.978,22.07l3.37,4.458l0.109-2.174c0,0-0.109-16.525,3.044-20.657
		c0,0,19.981-13.725,37.849-8.413c2.647,6.548,3.03,23.851,3.03,23.851l0.544-0.109C219.481,55.181,216.652,42.54,215.7,38.63z"/>
	<g>
		<defs>
			<path id="SVGID_3_" d="M181.484,60.13c0,0,1.681-7.805,8.207-5.873c0,0,3.012,0.477,5.797,5.948c0,0,0.301,0.602-0.151,0.678
				C194.885,60.958,186.754,63.593,181.484,60.13z"/>
		</defs>
		<clipPath id="SVGID_4_">
			<use xlink:href="#SVGID_3_"  overflow="visible"/>
		</clipPath>
		<g clip-path="url(#SVGID_4_)">
			<g>
				<path fill="none" d="M191.495,58.695c-0.401-0.735-1.154-1.252-2.05-1.295c-1.379-0.067-2.56,1.005-2.637,2.392
					c-0.029,0.526,0.105,1.02,0.357,1.437C187.992,59.797,189.616,58.807,191.495,58.695z"/>
			</g>
		</g>
	</g>
	<path fill="#F3A56E" d="M195.581,60.51c-0.02-0.158-0.093-0.305-0.093-0.305c-2.786-5.471-5.797-5.948-5.797-5.948
		c-5.887-1.983-7.6,3.746-8.201,5.62C184.113,59.359,190.234,58.172,195.581,60.51z"/>
	<path fill="#FFFFFF" d="M186.875,80.125c0,0,13.974,2.286,24.75,1.625c0,0-5.411,12.9-14.137,11.379S186.875,80.125,186.875,80.125
		z"/>
	<path fill="#F3A56E" d="M217.06,59.331c0,0-4.677-4.181-9.16-2.296c-4.561,1.917-4.495,2.644-4.495,2.644s2.587-6.66,7.512-6.429
		C210.917,53.25,215.601,52.836,217.06,59.331z"/>
	<g>
		<g>
			<path fill="#FFFFFF" d="M216.587,59.13c0,0-1.681-7.805-8.207-5.873c0,0-3.012,0.477-5.797,5.948c0,0-0.301,0.602,0.151,0.678
				C203.185,59.958,211.316,62.593,216.587,59.13z"/>
		</g>
		<g>
			<path opacity="0.4" fill="#D5D4CB" d="M216.587,59.13c0,0-0.887-4.112-3.869-5.627c0.726,1.884,1.479,4.574,1.052,6.888
				C214.756,60.112,215.711,59.705,216.587,59.13z"/>
			<g>
				<defs>
					<path id="SVGID_5_" d="M216.587,59.13c0,0-1.681-7.805-8.207-5.873c0,0-3.012,0.477-5.797,5.948c0,0-0.301,0.602,0.151,0.678
						C203.185,59.958,211.316,62.593,216.587,59.13z"/>
				</defs>
				<clipPath id="SVGID_6_">
					<use xlink:href="#SVGID_5_"  overflow="visible"/>
				</clipPath>
				<g clip-path="url(#SVGID_6_)">
					<g>
						<g>
							<path fill="#7F4F3A" d="M206.268,59.034c0.077,1.388,1.258,2.459,2.637,2.392s2.435-1.245,2.358-2.633
								c-0.077-1.388-1.258-2.459-2.637-2.392C207.246,56.467,206.19,57.646,206.268,59.034z"/>
							<path fill="#0D0306" d="M207.398,59.129c0.046,0.831,0.754,1.473,1.58,1.433s1.459-0.746,1.413-1.578
								c-0.046-0.831-0.754-1.473-1.58-1.433S207.352,58.298,207.398,59.129z"/>
						</g>
						<path fill="none" d="M206.575,57.695c0.401-0.735,1.154-1.252,2.05-1.295c1.379-0.067,2.56,1.005,2.637,2.392
							c0.029,0.526-0.105,1.02-0.357,1.437C210.078,58.797,208.454,57.807,206.575,57.695z"/>
					</g>
					<path fill="#FFFFFF" d="M206.907,59.573c0.033,0.6,0.544,1.063,1.14,1.035s1.053-0.539,1.02-1.139
						c-0.033-0.6-0.544-1.063-1.14-1.035C207.33,58.463,206.873,58.973,206.907,59.573z"/>
				</g>
			</g>
		</g>
	</g>
	<path fill="#3A1100" d="M195.534,59.522c0.002-0.1-0.035-0.198-0.133-0.242c-6.095-2.759-13.906-0.657-13.985-0.635
		c-0.138,0.038-0.219,0.181-0.181,0.319c0.037,0.138,0.177,0.216,0.319,0.181c0.073-0.02,7.022-1.878,12.809,0.278
		c-2.053-0.109-6.409-0.175-9.085,0.973c-0.127,0.054-0.186,0.201-0.131,0.328c0.04,0.095,0.133,0.151,0.229,0.151
		c0.033,0,0.066-0.007,0.099-0.021c3.4-1.456,9.911-0.86,9.976-0.854c0.135,0.011,0.259-0.088,0.272-0.226
		C195.733,59.652,195.648,59.554,195.534,59.522z"/>
	<path fill="#F3A56E" d="M209.875,56.063c3.011-0.104,5.367,1.459,6.613,2.521c-0.674-2.131-2.455-7.559-8.071-5.667
		c0,0-2.928,0.797-5.667,5.978C204.268,57.773,206.936,56.164,209.875,56.063z"/>
	<g>
		<path fill="#3A1100" d="M216.844,59.406c-0.081,0-0.161-0.04-0.209-0.113c-1.757-2.68-6.02-3.071-6.063-3.075
			c-3.335-0.422-7.752,2.886-7.796,2.919c-0.111,0.083-0.268,0.062-0.351-0.048c-0.083-0.11-0.062-0.268,0.048-0.351
			c0.188-0.142,4.622-3.468,8.151-3.018c0.175,0.015,4.539,0.417,6.428,3.299c0.076,0.115,0.044,0.271-0.072,0.346
			C216.938,59.393,216.891,59.406,216.844,59.406z"/>
	</g>
</g>
</svg>
