<?xml version="1.0" encoding="utf-8"?>
<!-- Generator: Adobe Illustrator 17.0.0, SVG Export Plug-In . SVG Version: 6.00 Build 0)  -->
<!DOCTYPE svg PUBLIC "-//W3C//DTD SVG 1.1//EN" "http://www.w3.org/Graphics/SVG/1.1/DTD/svg11.dtd">
<svg version="1.1" id="Layer_1" xmlns="http://www.w3.org/2000/svg" xmlns:xlink="http://www.w3.org/1999/xlink" x="0px" y="0px"
	 width="400px" height="294.232px" viewBox="0 0 400 294.232" enable-background="new 0 0 400 294.232" xml:space="preserve">
<path fill="#367E99" d="M877.773-877.602c-0.631,0-1.261-0.242-1.74-0.726l-38.846-39.199c-0.952-0.96-0.945-2.512,0.016-3.464
	c0.961-0.954,2.511-0.944,3.464,0.016l38.846,39.199c0.952,0.96,0.945,2.512-0.016,3.464
	C879.019-877.838,878.397-877.602,877.773-877.602z"/>
<path fill="#367E99" d="M965.201-921.882c-0.603-0.185-1.135-0.601-1.452-1.203l-25.676-48.85c-0.63-1.197-0.169-2.679,1.029-3.308
	c1.198-0.631,2.678-0.168,3.308,1.029l25.676,48.85c0.63,1.197,0.169,2.679-1.029,3.308
	C966.462-921.743,965.797-921.699,965.201-921.882z"/>
<path fill="#367E99" d="M1067.412-938.388c-0.339-0.532-0.473-1.194-0.323-1.858l12.195-53.822c0.298-1.319,1.611-2.147,2.931-1.848
	c1.321,0.298,2.146,1.611,1.848,2.931l-12.195,53.822c-0.298,1.319-1.611,2.147-2.931,1.848
	C1068.281-937.464,1067.747-937.862,1067.412-938.388z"/>
<ellipse cx="101.18" cy="555.841" rx="52.18" ry="8.492"/>
<ellipse cx="-139.82" cy="555.841" rx="52.18" ry="8.492"/>
<path fill="#F3A56E" d="M501.389-83l0.447-15.378c-6.409,4.942-12.823,10.081-19.222,15.378H501.389z"/>
<g>
	<defs>
		<rect id="SVGID_1_" x="-1" y="-1" width="401" height="295"/>
	</defs>
	<clipPath id="SVGID_2_">
		<use xlink:href="#SVGID_1_"  overflow="visible"/>
	</clipPath>
	<g clip-path="url(#SVGID_2_)">
		<g>
			<path fill="#F3A56E" d="M513.09-84l0.455-15.659C507.019-94.626,500.488-89,493.972-84H513.09z"/>
			<path fill="#F3A56E" d="M411-6.12c-84,85.995-150.766,174.921-150.766,174.921c18.965,25.793,47.067,34.138,72.101,25.793
				C342.888,191.076,376,161.541,411,128.548V-6.12z"/>
		</g>
		<path opacity="0.7" fill="#ED985F" d="M304.408,113.059c-27.393,33.27-44.207,55.742-44.207,55.742
			c18.965,25.793,47.083,34.138,72.117,25.793C342.871,191.076,376,161.541,411,128.548v-35.35
			C376,105.982,337.397,111.302,304.408,113.059z"/>
		<g>
			<path fill="#F3A56E" d="M111.662,116.324c0,0,13.373,24.092,9.177,40.174S74.118,246.5,0,280.5V257l1-71.802l87.758-88.103"/>
			<path opacity="0.7" fill="#ED985F" d="M79.318,166.668c12.314-8.851,29.317-12.19,42.281-13.408
				c1.991-15.883-9.851-36.936-9.851-36.936L88.801,97.095L1,185.198v64.684C20,213.732,60.931,179.884,79.318,166.668z"/>
		</g>
		<path fill="#F3A56E" d="M0.31,67.203c0,0,71.846-15.208,84.956-11.013s23.074,24.123,23.074,32.514S-0.214,132.231-0.214,132.231
			L0.31,67.203z"/>
		<path opacity="0.7" fill="#ED985F" d="M94.836,62.28c-8.191-0.64-17.663-1.389-23.729-1.895
			c-12.586-1.049-16.781,6.293-25.172,14.684c-4.874,4.874-27.621,12.402-45.832,17.857l-0.317,39.305
			c0,0,108.555-35.136,108.555-43.527C108.341,82.522,102.928,70.081,94.836,62.28z"/>
		<path fill="#5C6B7B" d="M336,138.853c0,1.738-1.409,3.147-3.147,3.147H64.147c-1.738,0-3.147-1.409-3.147-3.147V68.147
			C61,66.409,62.409,65,64.147,65h268.707c1.738,0,3.147,1.409,3.147,3.147V138.853z"/>
		<g>
			<path fill="#00E676" d="M148.624,121.29c0.284-0.001,0.567-0.111,0.783-0.329c0.431-0.436,0.428-1.138-0.008-1.569l-10.019-9.921
				l9.712-10.503c0.416-0.45,0.389-1.152-0.061-1.568c-0.449-0.418-1.153-0.39-1.568,0.061l-11.17,12.077l11.544,11.43
				C148.056,121.184,148.34,121.291,148.624,121.29z"/>
		</g>
		<path fill="none" stroke="#00E676" stroke-miterlimit="10" d="M193.297,86.082"/>
		<g>
			<path fill="#00E676" d="M256.138,121.29c-0.284-0.001-0.567-0.111-0.783-0.329c-0.431-0.436-0.428-1.138,0.008-1.569
				l10.019-9.921l-9.712-10.503c-0.416-0.45-0.389-1.152,0.061-1.568c0.449-0.418,1.153-0.39,1.568,0.061l11.17,12.077
				l-11.544,11.43C256.706,121.184,256.422,121.291,256.138,121.29z"/>
		</g>
		<path opacity="0.4" fill="#465766" d="M61,72.25c0,0,19.042-5.839,30.559,1.071c13.985,8.391,18.879,38.108,18.879,38.108
			l-26.571,31.815l-11.537-0.35L61,72.25z"/>
		<path opacity="0.4" fill="#465766" d="M277.982,130.896l62.162,14.551l7.367-63.043c-20.135-27.762-40.374-17.339-40.374-17.339
			c-32.411,12.777-30.993,33.503-30.993,33.503C273.856,107.188,272.513,118.014,277.982,130.896z"/>
		<rect x="-1" y="-1" fill="none" width="401" height="297"/>
		<path fill="#465766" d="M95.875,72.25c-3.828,0-7.495,0.698-10.885,1.968c1.082,0.49,2.29,1.135,3.572,2.002
			c2.333-0.629,4.784-0.97,7.313-0.97c15.508,0,28.125,12.617,28.125,28.125S111.383,131.5,95.875,131.5
			c-2.223,0-4.384-0.267-6.46-0.757c-0.754,0.94-1.462,1.799-2.106,2.549c2.723,0.781,5.595,1.208,8.566,1.208
			c17.163,0,31.125-13.962,31.125-31.125S113.038,72.25,95.875,72.25z"/>
		<path opacity="0.4" fill="#465766" d="M308.5,138C189.489,153.33,93.606,95.431,61,72.489v66.364c0,1.738,1.409,3.147,3.147,3.147
			h268.707c1.738,0,3.147-1.409,3.147-3.147v-4.813C327.41,135.416,318.267,136.742,308.5,138z"/>
		<g>
			<path fill="#F3A56E" d="M0.31,106.185c0,0,0.66-0.435,1.87-1.207c9.467-6.038,52.613-32.666,76.793-32.356
				c0,0,20.103,1.224,26.396,36.535c0,0-41.779,65.552-104.709,90.725L0.31,106.185z"/>
			<g>
				<path fill="#ED985F" d="M47.867,151.214c-8.07,0-14.541-4.554-19.234-13.535c-0.177-0.366-3.755-8.017,0.215-19.426
					c5.184-14.899,20.282-28.725,44.874-41.094l0.746-0.375l0.729,0.407c0.505,0.283,12.511,7.248,23.081,35.433l0.301,0.803
					l-0.511,0.688C96.941,115.63,70.244,151.214,47.867,151.214z M74.326,80.381c-28.869,14.692-39.004,29.103-42.412,38.642
					c-3.665,10.255-0.498,17.183-0.466,17.252c4.139,7.919,9.518,11.794,16.419,11.794c19.204,0,43.335-30.205,47.156-35.15
					C86.348,90.187,76.88,82.21,74.326,80.381z"/>
			</g>
		</g>
		<g>
			<path fill="#B3B8BD" d="M445.03,356.049l-76.83-258.4c-7.332-24.66-33.265-38.706-57.923-31.374
				c-24.671,7.33-38.706,33.265-31.374,57.923l76.87,258.533L445.03,356.049z"/>
			<g>
				<path fill="#9DA2A5" d="M340.142,135.272c-12.976,9.083-30.921,5.917-40.005-7.059c-9.083-12.976-5.917-30.921,7.059-40.005
					c12.976-9.083,30.921-5.917,40.005,7.059S353.118,126.189,340.142,135.272z M308.977,90.753
					c-11.572,8.101-14.396,24.108-6.296,35.68s24.108,14.396,35.68,6.296c11.572-8.101,14.396-24.108,6.296-35.68
					S320.549,82.652,308.977,90.753z"/>
			</g>
			<path fill="#878C8E" d="M371.231,330.056l3.781,12.187l16.446-5.102l-5.102-16.446l-12.187,3.781
				C371.809,325.208,370.499,327.696,371.231,330.056z M376.19,346.041l0.65,2.096c0.732,2.36,3.22,3.67,5.58,2.938l2.096-0.65
				l-1.971-6.355L376.19,346.041z M388.315,349.246l-1.971-6.355l6.355-1.971l1.971,6.355L388.315,349.246z M398.459,323.832
				l-0.65-2.096c-0.732-2.36-3.22-3.67-5.58-2.938l-2.029,0.629l1.971,6.355L398.459,323.832z M395.323,335.941l-1.971-6.355
				l6.355-1.971l1.971,6.355L395.323,335.941z M398.473,346.094l2.096-0.65c2.36-0.732,3.67-3.22,2.938-5.58l-0.65-2.096
				l-6.355,1.971L398.473,346.094z M366.571,309.02l0.772,2.489l23.256-7.215l-4.086-13.17l-2.225,0.69l3.314,10.681L366.571,309.02
				z M366.937,288.439c1.504,4.849,6.162,7.136,11.337,5.531l0.595-0.185c2.204-0.758,4-2.393,5.061-4.514
				c0.956-2.021,1.175-4.313,0.504-6.476l-0.101-0.326c-0.711-2.292-2.236-4.191-4.203-5.447l-0.088-0.046l-1.487,1.681l0.107,0.108
				c1.674,0.99,2.922,2.469,3.49,4.301c0.934,3.012-0.077,6.701-4.404,8.259l-3.903-12.58l-0.129,0.04c0,0-0.807,0.177-1.201,0.299
				C367.801,280.563,365.636,284.247,366.937,288.439L366.937,288.439z M375.63,291.92c-3.112,0.392-5.682-1.181-6.555-3.997
				c-0.65-2.096-0.114-4.775,3.426-6.089L375.63,291.92z M362.277,266.472l0.854-0.265c-1.444,1.6-1.948,3.906-1.317,5.94
				l0.061,0.197c1.382,4.456,5.877,6.436,11.052,4.831c5.242-1.626,7.861-5.672,6.5-10.061c-1.077-3.472-3.661-4.395-4.739-4.634
				l2.556-0.793l-0.732-2.36l-23.132,7.176l0.751,2.422l8.124-2.521L362.277,266.472z M377.163,267.459
				c0.955,3.079-1.034,5.92-4.967,7.14c-3.798,1.178-7.155-0.151-8.09-3.163c-0.793-2.556,0.444-5.737,4.899-7.119
				C373.855,262.812,376.391,264.97,377.163,267.459z M357.381,249.537l0.129-0.04c-0.644,0.705-1.9,2.671-0.823,6.144
				c1.361,4.388,5.599,6.234,10.706,4.649c5.108-1.585,7.645-5.674,6.263-10.129c-0.751-2.422-2.114-3.797-4.224-4.362l2.292-0.711
				c3.208-0.995,5.675,0.463,6.794,4.07c0.467,1.506,0.562,3.201,0.27,4.801l-0.027,0.15l2.313,0.287l0.027-0.15
				c0.326-1.967,0.192-4.008-0.378-5.845c-1.199-3.866-4.445-7.38-9.884-5.693l-16.109,4.998l0.751,2.422L357.381,249.537z
				 M371.398,250.504c0.995,3.208-0.844,6.076-4.709,7.276c-3.933,1.22-6.726,0.079-7.702-3.068
				c-1.077-3.472,0.444-5.737,4.573-7.018C367.601,246.366,370.422,247.358,371.398,250.504L371.398,250.504z M351.268,237.932
				c1.504,4.849,6.142,7.069,11.254,5.483l0.59-0.183c2.204-0.758,4-2.393,5.061-4.514c0.956-2.021,1.175-4.313,0.504-6.476
				l-0.101-0.326c-0.711-2.292-2.236-4.191-4.203-5.447l-0.088-0.046l-1.466,1.748l0.107,0.108c1.674,0.99,2.922,2.469,3.49,4.301
				c0.934,3.012-0.077,6.701-4.404,8.259l-3.921-12.637l-0.129,0.04c0,0-0.807,0.177-1.201,0.299
				C352.109,229.984,349.946,233.673,351.268,237.932z M359.94,241.346c-3.112,0.392-5.682-1.181-6.555-3.997
				c-0.65-2.096-0.114-4.775,3.426-6.089L359.94,241.346z M346.247,220.599c0.034,0.347,0.116,0.611,0.155,0.956
				c0.711,2.292,2.744,3.744,5.471,3.976l-3.736,1.159l0.751,2.422l16.554-5.21l0.129-0.04l-0.772-2.489l-7.007,2.174
				c-1.05,0.326-2.203,0.542-3.289,0.516c-2.8,0.007-4.985-1.256-5.635-3.352c-0.082-0.264-0.162-0.523-0.177-0.807l-0.04-0.129
				l-2.422,0.751L346.247,220.599z"/>
			<path opacity="0.3" fill="#A5A8AA" d="M330.79,64.954c8.01,3.617,16.917,11.033,22.919,26.074
				c11.761,29.474,67.028,216.342,76.471,269.461l14.85-4.439L368.2,97.649C362.916,79.877,347.957,67.671,330.79,64.954z"/>
		</g>
		<g>
			<path fill="#F3A56E" d="M387.3,234.755c0,0-92.02-78.27-104.606-121.272c0,0-5.629-23.14,16.921-39.921
				c0,0,17.867-14.192,44.089,8.882C369.924,105.518,403,139.573,403,139.573v109.604L387.3,234.755z"/>
			<g>
				<path fill="#ED985F" d="M331.06,142.233c-9.512,0.376-28.231-3.197-46.728-31.342l-0.389-0.593l0.186-0.685
					c0.085-0.312,8.89-31.282,40.822-36.291l0.719-0.113l0.552,0.475c1.355,1.168,33.173,28.812,32.255,46.729
					C357.963,130.448,346.823,141.611,331.06,142.233z M287.369,109.78c12.995,19.504,28.446,29.907,43.566,29.31
					c13.838-0.547,23.965-10.366,24.398-18.837c0.778-15.198-26.391-39.948-30.62-43.703
					C297.871,81.166,288.787,105.442,287.369,109.78z"/>
			</g>
			<path opacity="0.7" fill="#ED985F" d="M335.907,141.146c-19.937,5.082-43.059-23.926-53.55-39.026
				c-0.796,6.677,0.345,11.363,0.345,11.363c12.586,43.002,104.593,121.272,104.593,121.272L403,249.177v-23.115
				C371,203.822,335.907,141.146,335.907,141.146z"/>
		</g>
		<rect fill="none" width="400" height="294"/>
		<polygon fill="#00E676" points="178.387,99.256 190.559,121.092 199.095,121.092 222.174,84.263 209.212,76.93 193.516,111.206 		
			"/>
	</g>
</g>
</svg>
