<?xml version="1.0" encoding="utf-8"?>
<!-- Generator: Adobe Illustrator 17.0.0, SVG Export Plug-In . SVG Version: 6.00 Build 0)  -->
<!DOCTYPE svg PUBLIC "-//W3C//DTD SVG 1.1//EN" "http://www.w3.org/Graphics/SVG/1.1/DTD/svg11.dtd">
<svg version="1.1" id="Layer_1" xmlns="http://www.w3.org/2000/svg" xmlns:xlink="http://www.w3.org/1999/xlink" x="0px" y="0px"
	 width="400px" height="294.232px" viewBox="0 0 400 294.232" enable-background="new 0 0 400 294.232" xml:space="preserve">
<path fill="#367E99" d="M877.773-877.602c-0.631,0-1.261-0.242-1.74-0.726l-38.846-39.199c-0.952-0.96-0.945-2.512,0.016-3.464
	c0.961-0.954,2.511-0.944,3.464,0.016l38.846,39.199c0.952,0.96,0.945,2.512-0.016,3.464
	C879.019-877.838,878.397-877.602,877.773-877.602z"/>
<path fill="#367E99" d="M965.201-921.882c-0.603-0.185-1.135-0.601-1.452-1.203l-25.676-48.85c-0.63-1.197-0.169-2.679,1.029-3.308
	c1.198-0.631,2.678-0.168,3.308,1.029l25.676,48.85c0.63,1.197,0.169,2.679-1.029,3.308
	C966.462-921.743,965.797-921.699,965.201-921.882z"/>
<path fill="#367E99" d="M1067.412-938.388c-0.339-0.532-0.473-1.194-0.323-1.858l12.195-53.822c0.298-1.319,1.611-2.147,2.931-1.848
	c1.321,0.298,2.146,1.611,1.848,2.931l-12.195,53.822c-0.298,1.319-1.611,2.147-2.931,1.848
	C1068.281-937.464,1067.747-937.862,1067.412-938.388z"/>
<ellipse opacity="0.51" fill="#3E3B3A" cx="-343.54" cy="492.352" rx="80.953" ry="12.942"/>
<g>
	<path fill="#F3B48D" d="M-398.934,217.708l-9.738,20.954l-32.677-17.49c0,0,4.288-16.201-7.688-21.968c0,0-6.337-7.266-6.21-17.743
		c0,0-1.884-9.299-4.755-8.768c-2.87,0.53-10.96,8.578,1.861,23.533l-6.485,1.795c0,0-4.436-3.19-6.083,0.232
		s-0.908,5.534-0.908,5.534s-3.359,2.598-0.887,6.949c0,0-3.073,2.735-0.264,6.02c0,0-2.003,4.02,1.787,6.251l1.424,0.213
		c0,0,10.255,6.606,14.839,5.476c4.584-1.13,5.434-1.072,5.434-1.072s38.395,28.411,40.318,29.161s4.14,2.345,5.186,1.267
		s16.877-26.298,16.877-26.298S-393.949,219.757-398.934,217.708z"/>
	<g>
		<path fill="#EE9E72" d="M-467.334,222.896c0,0-0.904,0.272-1.858,0.15c2.445,1.044,6.104,1.868,6.607-2.29l-0.052-0.047
			c0.965,0.178,2.986,0.26,4.819-1.49c2.325-1.166,6.107-2.366,6.107-2.366c-3.007-3.546-3.016-10.882-3.002-11.883
			c0.257-2.471-1.037-6.303-11.116-7.094c0,0,10.631,2.24,8.87,6.243c0,0-1.359,1.988-4.365,1.528c0,0,6.54,0.624,3.83,5.524
			c0,0-1.531,1.721-3.939,1.616c0,0,4.094,2.44,1.764,4.362c-2.27,1.872-4.213,1.674-6.115,0.686l-1.39-1.269
			C-467.173,216.568-463.897,221.359-467.334,222.896z M-455.238,206.87l-0.085,0.326c-0.016-0.03-0.019-0.059-0.035-0.089
			C-455.358,207.107-455.309,207.02-455.238,206.87z"/>
		<path fill="#EE7757" d="M-469.287,223.006c0.032,0.013,0.064,0.027,0.095,0.04c-0.034-0.004-0.067-0.015-0.101-0.021
			L-469.287,223.006z"/>
	</g>
	<path fill="#EE9E72" d="M-386.904,231.755l-2.131-3.364c0,0-13.729,26.698-16.475,26.078s-42.703-28.523-42.703-28.523
		s-9.391,3.862-15.368,0.568c0,0,5.095,3.501,13.882,1.058l8.511,6.027l26.026,18.968c0,0,8.373,5.929,10.153,6.046
		c1.779,0.116,16.573-23.555,18.882-26.892"/>
	<g>
		<path fill="#1D1D1B" d="M-405.65,259.264c-0.373-0.023-1.138-0.215-3.435-1.574c-0.223-0.102-0.442-0.199-0.656-0.282
			c-0.307-0.12-1.297-0.711-6.3-4.278c-7.35-5.239-19.46-14.13-26.019-18.961l-8.268-5.855c-0.194,0.023-0.46,0.063-0.802,0.123
			c-0.617,0.147-1.217,0.269-1.772,0.357c-0.645,0.141-1.389,0.312-2.322,0.542c-1.422,0.351-3.467,0.043-6.048-0.905
			c-1.967-0.556-3.066-1.27-3.167-1.338c-2.918-1.389-5.413-2.938-5.891-3.24l-1.329-0.2l-0.161-0.057
			c-3.508-2.062-2.468-5.56-2.079-6.56c-2.274-2.883-0.474-5.378,0.232-6.17c-1.961-3.772,0.2-6.314,0.936-7.026
			c-0.154-0.726-0.366-2.728,1.006-5.578c0.403-0.838,0.994-1.398,1.755-1.665c1.863-0.652,4.107,0.674,4.811,1.139l5.612-1.553
			c-6.898-8.278-7.244-14.203-6.292-17.74c0.861-3.202,3.043-5.288,4.705-5.87c0.155-0.054,0.303-0.093,0.438-0.118
			c3.211-0.594,5.073,8.123,5.284,9.213c-0.118,9.651,5.42,16.625,6.043,17.377c11.082,5.417,8.455,19.686,7.923,22.097
			l31.954,17.104l9.719-20.912l0.396,0.163c3.271,1.343,7.298,6.641,10.109,10.862c0.977,1.47,1.706,2.657,1.997,3.139l1.411-0.064
			l-0.513,0.743c-0.506,0.731-1.636,2.477-3.068,4.689c-3.57,5.517-8.967,13.856-12.503,18.606c-1.614,2.46-1.986,2.946-2.131,3.095
			c-0.235,0.243-0.544,0.392-0.924,0.451c-0.137,0.096-0.253,0.161-0.364,0.199C-405.461,259.255-405.56,259.269-405.65,259.264z
			 M-405.21,258.145c0.231-0.022,0.379-0.077,0.495-0.199c0.094-0.098,0.481-0.609,2.04-2.983
			c3.533-4.747,8.919-13.072,12.484-18.58c1.075-1.66,1.981-3.061,2.584-3.97l-0.159,0.007l-0.137-0.232
			c-0.008-0.014-0.847-1.432-2.118-3.343c-3.658-5.494-6.941-9.135-9.307-10.339l-9.749,20.98l-33.096-17.714l-0.31-0.167
			l0.089-0.342c0.043-0.158,4.05-15.912-7.449-21.449l-0.144-0.109c-0.065-0.074-6.447-7.517-6.311-17.949
			c-0.746-3.683-2.553-8.728-4.233-8.417c-1.174,0.209-3.541,1.982-4.442,5.339c-0.916,3.407-0.521,9.202,6.56,17.463l0.459,0.534
			l-7.111,1.968l-0.367-0.005l-0.096-0.067c-0.101-0.07-2.478-1.709-4.145-1.126c-0.536,0.188-0.944,0.584-1.244,1.208
			c-1.534,3.186-0.895,5.176-0.889,5.192l0.105,0.304l-0.251,0.197c-0.125,0.098-3.016,2.428-0.774,6.374l0.177,0.314l-0.268,0.24
			c-0.111,0.102-2.704,2.493-0.221,5.396l0.19,0.226l-0.13,0.264c-0.074,0.148-1.739,3.628,1.54,5.622l1.336,0.201l0.176,0.064
			c0.034,0.023,3.468,2.219,7.182,3.833l-0.028,0.069c0.462,0.203,1.058,0.428,1.779,0.631c2.442,0.896,4.311,1.194,5.556,0.886
			c0.943-0.234,1.694-0.404,2.371-0.552c0.558-0.09,1.137-0.207,1.757-0.356c0.512-0.088,0.853-0.135,1.059-0.156l0.165-0.015
			l8.553,6.056c6.526,4.807,18.583,13.661,26.037,18.975c4.808,3.428,5.873,4.074,6.079,4.154c0.232,0.091,0.468,0.194,0.747,0.324
			c1.994,1.178,2.752,1.432,3.037,1.469c0.029-0.014,0.088-0.049,0.191-0.128l0.103-0.082L-405.21,258.145z"/>
	</g>
</g>
<path fill="#050D0E" d="M-286.871,475.669c0,0-3.033,0.152-9.706,0c-6.673-0.152-13.828-7.148-13.828-7.148
	s-18.595,7.707-21.024,10.484h-0.276c0,0-7.486,2.427-5.363,5.315c2.123,2.888,10.009,2.874,14.407,2.268
	c4.398-0.607,11.071,0.758,11.071,0.758c18.653,2.73,28.662-5.763,28.662-5.763v-2.578L-286.871,475.669z"/>
<path fill="#050D0E" d="M-388.753,491.368c0,0,2.55,7.958,9.829,10.233s16.378,1.062,21.535-3.791c0,0,1.213-4.398,0-5.156
	c-1.213-0.758-6.589-4.641-7.162-7.174S-381.294,481.894-388.753,491.368z"/>
<g>
	<path fill="#0B3744" d="M-374.23,299.238c0,0,48.185,9.512,74.005-7.583c0,0,0.112,19.539,0,21.013
		c-0.112,1.474-6.212,52.429-6.574,60.618s-2.637,14.246-5.822,24.184c-3.185,9.938-2.73,53.719-0.91,59.126
		c1.82,5.407,3.64,12.244,3.64,12.244l-27.311,15.456c0,0-1.806-14.766-1.806-18.074c0-3.309-0.455-48.816,5.914-70.876
		c6.369-22.059,4.55-57.691,3.64-76.271l-13.649,4.167c0,0-10.919,50.057-12.739,61.653s-4.55,30.249-5.459,39.348
		c-0.91,9.099,0.455,40.491,0.91,47.77l-1.82,15.014c0,0-13.676-7.279-26.856,4.095c0,0,0.442-9.554,0-15.014
		c-0.442-5.459,9.113-80.761,9.113-80.761L-374.23,299.238z"/>
	<g>
		<path fill="#052831" d="M-361.301,424.242c0.754-7.543,2.758-21.643,4.459-32.854l0,0c-6.475-0.688-18.337-13.169-18.337-13.169
			l3.764-63.103l16.953-1.983c-8.644,1.129-16.953-4.423-16.953-4.423l-0.911-9.133c-1.217-0.204-1.904-0.339-1.904-0.339
			l-5.725,96.107c0,0-9.554,75.301-9.113,80.761c0.442,5.459,0,15.014,0,15.014c13.18-11.374,26.856-4.095,26.856-4.095l1.82-15.014
			C-360.846,464.733-362.211,433.341-361.301,424.242z"/>
		<path fill="#052831" d="M-312.621,397.471c1.179-3.68,2.232-6.826,3.111-9.747c-8.893-0.471-16.052-4.582-20.557-8.058
			c-0.702,5.639-1.67,10.978-3.027,15.68c-6.369,22.059-5.914,67.567-5.914,70.876c0,3.309,1.806,18.074,1.806,18.074l27.311-15.456
			c0,0-1.82-6.837-3.64-12.244C-315.351,451.19-315.806,407.408-312.621,397.471z"/>
	</g>
	<g>
		<path fill="#052831" d="M-389.553,492.06l0.049-1.057c0.004-0.094,0.435-9.588,0.001-14.955
			c-0.087-1.072,0.176-4.617,0.805-10.839c0.176-1.74,0.375-3.64,0.594-5.662c0.601-5.564,1.388-12.47,2.341-20.526
			c2.487-21.061,5.346-43.601,5.374-43.827l5.747-96.506l0.566,0.018c0.315,0.06,0.897,0.167,1.742,0.31
			c4.121,0.696,15.093,2.313,27.918,2.313c18.997,0,33.786-3.415,43.956-10.149l0.702-0.464l0.004,0.841
			c0.004,0.799,0.112,19.575-0.002,21.051c-0.028,0.363-0.398,3.561-0.96,8.402c-1.733,14.93-5.339,46-5.613,52.201
			c-0.235,5.33-1.262,9.671-2.73,14.55c-0.257,0.855-0.533,1.738-0.819,2.639l-1.034,3.217c-0.415,1.28-0.816,2.516-1.238,3.828
			c-0.211,0.659-0.393,1.397-0.564,2.262c-0.084,0.428-0.165,0.887-0.243,1.37c-0.447,2.774-0.806,6.52-1.067,11.134
			c-0.041,0.727-0.079,1.464-0.115,2.214c-0.202,4.285-0.32,9.199-0.342,14.214c-0.004,0.805-0.004,1.605-0.004,2.403
			c0.02,12.316,0.61,22.961,1.401,25.314c0.228,0.679,0.457,1.379,0.682,2.088c0.225,0.704,0.445,1.416,0.659,2.118
			c1.267,4.164,2.297,8.026,2.308,8.065l0.091,0.339l-28.209,15.964l-0.366-3.035c-0.212-1.797-0.513-4.395-0.79-6.995
			c-0.49-4.573-0.738-7.526-0.738-8.774l-0.007-3.091l0.007-2.79c0.025-4.914,0.114-9.846,0.263-14.658
			c0.026-0.835,0.054-1.69,0.085-2.554c0.536-14.889,1.939-35.286,5.584-47.909c0.324-1.12,0.651-2.394,1-3.896
			c0.14-0.606,0.267-1.23,0.395-1.855l0.155-0.752c0.092-0.444,0.184-0.889,0.269-1.34c0.193-1.038,0.373-2.094,0.541-3.163
			l0.121-0.762c0.192-1.262,0.371-2.54,0.532-3.839c2.552-20.503,1.365-45.112,0.639-59.932l-12.836,3.918
			c-0.854,3.922-10.947,50.347-12.677,61.367c-0.312,1.987-0.652,4.192-1.004,6.51l-4.276,31.138
			c-0.064,0.585-0.124,1.148-0.177,1.672c-0.876,8.767,0.403,39.554,0.912,47.697l-1.902,15.755l-0.586-0.311
			c-0.043-0.023-4.292-2.241-10.21-2.241c-5.879,0-11.308,2.113-16.136,6.279L-389.553,492.06z M-373.789,299.685l-5.695,95.592
			c-0.031,0.256-2.889,22.792-5.377,43.85c-0.952,8.052-1.739,14.957-2.34,20.517c-0.219,2.021-0.418,3.917-0.594,5.657
			c-0.614,6.08-0.884,9.671-0.803,10.672c0.354,4.372,0.141,11.418,0.043,14.043c4.797-3.874,10.154-5.836,15.937-5.836
			c4.92,0,8.654,1.438,10.048,2.065l1.743-14.384c-0.389-6.101-1.859-38.287-0.911-47.76c0.052-0.528,0.113-1.095,0.177-1.683
			l2.705-20.516l1.576-10.658c0.352-2.321,0.692-4.526,1.004-6.517c1.801-11.475,12.635-61.179,12.744-61.68l0.057-0.259
			l14.462-4.415l0.046,0.934c0.726,14.823,1.942,39.634-0.634,60.323c-0.162,1.308-0.342,2.593-0.536,3.865l-0.122,0.768
			c-0.169,1.075-0.351,2.142-0.546,3.186c-0.086,0.458-0.18,0.908-0.272,1.358l-0.155,0.748c-0.129,0.633-0.258,1.265-0.399,1.878
			c-0.353,1.519-0.684,2.808-1.012,3.944c-3.619,12.534-5.015,32.851-5.548,47.689c-0.031,0.864-0.06,1.715-0.085,2.55
			c-0.149,4.804-0.238,9.728-0.263,14.633l-0.007,2.787l0.007,3.091c0,1.2,0.253,4.199,0.732,8.678
			c0.277,2.596,0.578,5.191,0.788,6.984l0.2,1.679l26.411-14.946c-0.279-1.031-1.162-4.26-2.208-7.693
			c-0.212-0.698-0.433-1.408-0.656-2.109c-0.223-0.704-0.45-1.4-0.676-2.072c-0.833-2.474-1.429-13.004-1.449-25.605
			c-0.001-0.798,0-1.601,0.004-2.406c0.022-5.028,0.141-9.956,0.344-14.253c0.036-0.754,0.074-1.495,0.115-2.221
			c0.263-4.646,0.626-8.424,1.078-11.23c0.08-0.494,0.163-0.963,0.249-1.4c0.178-0.901,0.369-1.672,0.568-2.293
			c0.444-1.386,0.846-2.623,1.232-3.816l1.061-3.298c0.284-0.896,0.559-1.775,0.816-2.627c1.448-4.813,2.461-9.092,2.692-14.326
			c0.276-6.234,3.884-37.326,5.619-52.267c0.54-4.655,0.93-8.019,0.956-8.365c0.098-1.266,0.023-16.401,0.004-20.144
			c-10.293,6.534-25.007,9.845-43.757,9.845c-12.894,0-23.925-1.626-28.07-2.325C-373.04,299.819-373.481,299.741-373.789,299.685z"
			/>
	</g>
</g>
<g>
	<path fill="#333333" d="M-370.221,221.458l-0.689,1.315l-9.161,17.49c0,0-20.178-8.493-30.49-18.805l30.49-43.979l24.353-5.241
		c0,0,29.581-4.028,50.608,0l32.249,26.169l-12.048,31.24l-15.803-13.042v62.177v7.583v5.156c0,0-24.512,16.075-74.005,7.583
		l3.585-5.459l-1.82-6.066C-372.95,287.578-367.188,242.993-370.221,221.458z"/>
	<path fill="#262425" d="M-410.56,221.458c0,0,19.865,14.85,30.49,18.805l9.849-18.805c0,0,3.767-14.768,0-30.028
		c0,0-2.426,24.264-4.853,30.937c-2.426,6.673-5.763,13.647-5.763,13.647S-399.034,232.075-410.56,221.458z"/>
	<path fill="#262425" d="M-370.221,191.43c0,0,12.435,70.975-2.73,96.148c0,0,7.92-58.103,3.05-67.572L-370.221,191.43z"/>
	<path fill="#262425" d="M-272.86,198.407c0,0-11.526,25.644-14.559,24.65c-3.033-0.994-13.952-12.519-18.805-37.39
		c0,0,4.246,87.133,2.73,91.337c-1.517,4.204-19.715,15.426-38.216,15.123c0,0,15.772,5.921,38.52-8.717l2.479-3.416l1.16-61.874
		l14.642,11.527"/>
	<path fill="none" stroke="#262425" stroke-width="0.5" stroke-miterlimit="10" d="M-305.109,172.238
		c-21.026-4.028-50.608,0-50.608,0l-24.353,5.241l-30.49,43.979c6.918,6.918,18.269,13.013,24.997,16.278
		c1.98,1.039,3.848,1.914,5.493,2.526l9.161-17.49l0.689-1.315c3.033,21.535-2.73,66.12-2.73,66.12l1.82,6.066l-3.585,5.459
		c49.493,8.492,74.005-7.583,74.005-7.583v-5.156v-6.371l1.16-61.874l14.642,11.527l12.048-31.24L-305.109,172.238z"/>
</g>
<g>
	<g>
		<path fill="#F3B48D" d="M-330.675,153.054c0,0-1.517,13.567,8.492,17.51c0,0-13.952,17.895-33.363,1.517
			c0,0,7.886-2.32,5.459-24.666l17.895,5.639"/>
		<path fill="#EE9E72" d="M-349.727,151.764l0.06,5.591c0,0,10.394,7.269,20.804,6.809c0,0-2.245-3.752-1.711-6.189
			S-349.727,151.764-349.727,151.764z"/>
		<g>
			<path fill="#1D1D1B" d="M-339.047,179.535c-5.561,0-11.165-2.353-16.689-7.014l-0.647-0.546l0.811-0.238
				c0.072-0.022,7.478-2.601,5.136-24.181l-0.076-0.692l18.559,5.85l-0.274,0.867l-17.232-5.431
				c1.834,18.171-3.213,22.972-5.148,24.127c5.823,4.747,11.704,6.846,17.501,6.248c7.602-0.788,12.849-6.087,14.276-7.69
				c-9.578-4.31-8.211-17.601-8.195-17.738l0.905,0.101c-0.015,0.132-1.357,13.268,8.207,17.036l0.566,0.223l-0.374,0.48
				c-0.239,0.307-5.962,7.52-15.28,8.492C-337.682,179.5-338.364,179.535-339.047,179.535z"/>
		</g>
	</g>
	<g>
		<g>
			<path fill="#3E2114" d="M-378.136,103.113l-8.189-22.513l8.189-3.932l-4.095-2.892c0,0,4.55-32.757,55.96-22.748
				c0,0,28.207,12.575,36.851-1.902c0,0,6.369,11.104,0,16.512l6.824-3.895c0,0-1.365,19.788-11.374,27.284h-54.14l-15.014,33.883
				h-7.279L-378.136,103.113z"/>
			<path fill="#1E0D0B" d="M-287.002,54.275c-4.549,6.989-10.461,7.106-12.735,9.742c-2.275,2.636-34.724,5.988-34.724,5.988
				l8.336-8.374c-4.55,4.8-15.468,8.393-30.482,8.374c-15.014-0.02-22.293,15.235-22.293,15.235l-7.004-6.076l-0.423,0.203
				l8.189,22.513l7.734,19.796h7.279l15.014-33.883h54.14c10.009-7.496,11.374-27.284,11.374-27.284l-6.824,3.895
				C-286.282,61.741-286.24,57.696-287.002,54.275z"/>
			<g>
				<path fill="#1D1D1B" d="M-362.475,122.848h-8.492l-7.961-20.374l-8.478-23.309l7.536-3.618l-3.282-2.318l0.076-0.549
					c0.036-0.254,3.94-25.434,38.791-25.434c5.566,0,11.704,0.645,18.244,1.918l0.196,0.062c0.112,0.05,11.314,4.987,21.504,4.987
					c6.835,0,11.611-2.195,14.196-6.524l0.797-1.335l0.773,1.349c0.227,0.395,4.606,8.168,2.301,14.153l4.759-2.716l-0.116,1.695
					c-0.057,0.825-1.511,20.293-11.736,27.95l-0.243,0.181h-53.851L-362.475,122.848z M-369.725,121.028h6.066l15.014-33.883h54.423
					c7.677-5.995,10.003-19.839,10.595-24.706l-5.286,3.017l-1.041-1.484c4.492-3.813,1.85-11.034,0.474-14.021
					c-3.062,4.036-8.052,6.081-14.862,6.081c-10.189,0-20.94-4.574-22.148-5.102c-6.387-1.238-12.374-1.865-17.796-1.865
					c-30.817,0-36.171,19.703-36.895,23.329l4.889,3.453l-8.842,4.246l7.908,21.739L-369.725,121.028z"/>
			</g>
		</g>
		<g>
			<path fill="#F3B48D" d="M-370.882,124.408c0,0,6.174,22.637,14.667,25.67c8.492,3.033,29.312,10.726,29.312,10.726
				s14.862,2.73,21.231-7.583c6.369-10.312,15.772-25.781,7.279-76.129h-7.886l2.426-5.156c0,0-30.634,10.312-59.751,6.369
				l-1.82,32.15l-3.943,6.078c0,0-3.64-14.267-8.189-16.39c-4.55-2.123-9.402,2.73-10.312,4.853
				C-388.777,107.12-390.9,128.048-370.882,124.408z"/>
			<path fill="#F3B48D" d="M-298.392,77.093h-7.886l2.427-5.156c0,0-24.978,8.405-51.262,7.134
				c-1.272,10.461-6.122,45.946,10.516,74.566c8.042,2.345,17.695,7.168,17.695,7.168s14.862,2.73,21.231-7.583
				S-289.9,127.441-298.392,77.093z"/>
			<path fill="#EE9E72" d="M-298.392,77.093h-7.886l2.427-5.156c0,0-13.392,4.501-30.877,6.416l14.851,3.103
				c0,0,2.469,10.009,1.689,14.255c-0.779,4.246,2.14,19.298,3.96,23.544c0,0-2.616,16.492-2.313,18.615
				c0.231,1.62,2.743,13.478,0.421,22.513c3.84-0.936,7.85-2.954,10.449-7.161C-299.302,142.909-289.9,127.441-298.392,77.093z"/>
			<path fill="#EF9565" d="M-318.986,93.706c0,0,3.033,19.315,7.279,25.033c0,0-6.369,7.234-15.772-0.652c0,0,5.763,3.336,12.132,0
				C-315.346,118.087-321.715,103.599-318.986,93.706z"/>
			<g>
				<path fill="#FDFCFB" d="M-337.925,128.549c0,0,18.653,8.165,27.752,3.085c0,0-3.412,7.886-5.232,8.341
					S-330.873,143.511-337.925,128.549z"/>
				<g>
					<path fill="#EF9565" d="M-320.247,141.219c-5.623,0-13.328-2.125-18.1-12.253l-0.517-1.097l1.111,0.486
						c0.108,0.047,10.873,4.711,19.855,4.711c3.061,0,5.582-0.541,7.493-1.607l1.173-0.655l-0.533,1.232
						c-0.585,1.352-3.6,8.117-5.539,8.602C-316.172,140.856-317.966,141.219-320.247,141.219z M-336.992,129.652
						c4.592,8.775,11.588,10.658,16.744,10.658c2.183,0,3.895-0.346,4.721-0.553c0.979-0.244,3.008-3.899,4.417-6.948
						c-1.864,0.776-4.141,1.168-6.79,1.168C-325.348,133.977-333.958,130.853-336.992,129.652z"/>
				</g>
			</g>
			<g>
				<path fill="#1D1D1B" d="M-376.533,120.641c-0.208,0-0.416-0.079-0.575-0.238c-2.807-2.807-3.93-5.212-3.337-7.148
					c0.462-1.512,1.831-2.297,2.784-2.671c-1.198-2.448-2.452-3.756-3.651-3.798c-0.021,0-0.04-0.001-0.06-0.001
					c-1.745,0-3.169,2.618-3.182,2.645c-0.208,0.397-0.7,0.55-1.098,0.342c-0.398-0.209-0.551-0.701-0.342-1.098
					c0.078-0.147,1.966-3.607,4.739-3.513c2.025,0.07,3.865,1.953,5.468,5.597l0.407,0.925l-0.994,0.2
					c-0.021,0.004-2.088,0.435-2.517,1.853c-0.273,0.905,0.013,2.596,2.934,5.517c0.318,0.318,0.318,0.832,0,1.15
					C-376.117,120.562-376.325,120.641-376.533,120.641z"/>
			</g>
			<g>
				<path fill="#1D1D1B" d="M-322.528,161.411c-2.604,0-4.382-0.321-4.455-0.334c-0.284-0.098-20.99-7.748-29.383-10.746
					c-8.09-2.889-13.944-22.424-14.841-25.58c-1.425,0.239-2.785,0.36-4.047,0.36c0,0-0.001,0-0.002,0
					c-4.919,0-8.594-1.791-10.922-5.324c-3.792-5.751-2.632-13.917-2.106-15.146c0.846-1.973,4.464-5.654,8.365-5.654
					c0.889,0,1.751,0.191,2.559,0.569c4.022,1.877,7.239,12.374,8.17,15.699l3.322-5.121l1.841-32.52l0.488,0.067
					c4.383,0.594,9.073,0.894,13.942,0.894c23.8-0.001,45.387-7.172,45.603-7.244l1.01-0.34l-2.575,5.472h7.554l0.064,0.379
					c8.554,50.712-1.011,66.197-7.341,76.444C-309.65,160.355-317.962,161.411-322.528,161.411z M-326.745,160.202
					c0.037,0,1.769,0.299,4.216,0.299c5.347,0,12.543-1.335,16.471-7.693c6.242-10.106,15.668-25.363,7.282-75.436h-8.219
					l2.288-4.861c-4.539,1.405-23.855,6.972-44.892,6.973c-4.729,0-9.294-0.282-13.577-0.838l-1.799,31.781l-4.574,7.051
					l-0.257-1.007c-0.036-0.141-3.638-14.082-7.94-16.09c-0.688-0.321-1.419-0.483-2.174-0.483c-3.456,0-6.786,3.371-7.528,5.103
					c-0.433,1.008-1.55,8.858,2.029,14.286c2.149,3.261,5.569,4.915,10.163,4.915c0.001,0,0.002,0,0.002,0
					c1.328,0,2.771-0.14,4.292-0.417l0.411-0.075l0.11,0.403c0.061,0.224,6.209,22.443,14.381,25.362
					C-347.678,152.468-327.025,160.099-326.745,160.202L-326.745,160.202z"/>
			</g>
			<g>
				<g>
					<circle fill="#1D1D1B" cx="-344.598" cy="100.715" r="4.398"/>
					<circle fill="#FFFFFF" cx="-345.001" cy="98.842" r="1.873"/>
				</g>
				<g>
					<circle fill="#1D1D1B" cx="-305.775" cy="102.029" r="4.398"/>
					<circle fill="#FFFFFF" cx="-306.178" cy="100.156" r="1.873"/>
				</g>
				<path fill="#1D1D1B" d="M-354.737,93.414c0,0,11.101-4.421,20.074-1.033l0.202-5.152c0,0-10.269-1.314-20.193,4.064
					L-354.737,93.414z"/>
				<path fill="#AF351A" d="M-285.574,94.8l-0.06-1.818l-27.571,0.909l-13.901,0.002l-32.91-1.816l-20.114,5.554l0.211,1.357
					l19.031-4.994c-0.159,1.737-1.097,14.64,5.892,16.546c1.261,0.344,5.347,1.344,10.191,1.344c4.183,0,8.932-0.746,12.915-3.304
					c4.205-2.701,7.053-7.698,7.994-13.438l-1.137,0.569h7.886c0,0.55,0.098,13.485,8.592,15.445
					c1.297,0.299,4.02,0.825,7.122,0.825c3.718,0,7.982-0.755,10.99-3.558c3.144-2.929,4.261-7.497,3.329-13.572L-285.574,94.8z
					 M-332.875,107.049c-8.112,5.212-20.282,2.108-21.644,1.735c-4.855-1.324-4.925-11.133-4.542-14.8l-0.905-0.095l32.807,1.822
					h1.194C-326.838,100.845-329.159,104.662-332.875,107.049z M-291.685,107.092c-4.861,4.527-13.829,2.899-16.463,2.291
					c-7.083-1.635-7.181-13.545-7.181-13.672l2.153-0.001l25.147-0.829l-0.899,0.141
					C-288.062,100.521-288.99,104.581-291.685,107.092z"/>
				<path fill="#1D1D1B" d="M-297.913,93.414c0,0-11.101-4.421-20.074-1.033l-0.202-5.152c0,0,10.269-1.314,20.193,4.064
					L-297.913,93.414z"/>
			</g>
		</g>
	</g>
</g>
<g>
	<g>
		<path fill="#EE7757" d="M97.917,122.633c0.02,0.016,0.04,0.032,0.06,0.048c-0.023-0.01-0.045-0.024-0.068-0.035L97.917,122.633z"
			/>
	</g>
</g>
<g>
	<path fill="#F3A56E" d="M335.561,118.05c0,0-0.052-0.052-0.133-0.145l0.126,0.216C335.559,118.096,335.555,118.074,335.561,118.05z
		"/>
	<path fill="#EE7757" d="M348.678,126.633c-0.02,0.016-0.04,0.032-0.06,0.048c0.023-0.01,0.045-0.024,0.068-0.035L348.678,126.633z"
		/>
</g>
<g>
	<path fill="#01DAFF" d="M236.398,124.9c-10.599-9.887-16.249-12.017-16.249-12.017c-5.24-2.022-12.88-3.123-21.902-2.762
		c-10.442,0.418-24.606,7.169-28.665,9.401l-0.037-0.029c0,0-37.795,12.507-52.045,44.257c0,0,2.75,25.25,24.75,32
		c0,0,0.5-8.25,4.75-12.25l-6-19c0,0,8.195-7.96,26.395-13.684l-3.314,75.359c5.863,0.734,21.613,2.447,35.864,1.698
		c17.926,0.942,36.228-0.671,36.228-0.671l-0.801-48.703l-0.189-11.479c1.767,5.221,4.406,12.582,7.317,12.73
		c9.833,0.5,19.75-5.5,20.167-19.417C263.064,147.08,236.398,124.9,236.398,124.9z"/>
	<path opacity="0.6" fill="#09C5D8" d="M177.365,115.812c-3.487,1.486-6.307,2.897-7.784,3.71l-0.037-0.029
		c0,0-37.795,12.507-52.045,44.257c0,0,2.75,25.25,24.75,32c0,0,0.5-8.25,4.75-12.25l-6-19c0,0,8.195-7.96,26.395-13.684
		l-3.314,75.359c5.266,0.659,18.507,2.107,31.474,1.853C182.03,194.157,178.357,140.638,177.365,115.812z"/>
	<ellipse fill="#060707" cx="201.181" cy="263.207" rx="68.431" ry="20.127"/>
	<g>
		<defs>
			<path id="SVGID_1_" d="M155.256,277.134c11.976,3.028,27.553,4.857,44.584,4.857c22.409,0,42.302-3.168,54.784-8.064
				l-6.033-47.843l-93.701-5.814l-6.485,24.376l0.895,30.861"/>
		</defs>
		<clipPath id="SVGID_2_">
			<use xlink:href="#SVGID_1_"  overflow="visible"/>
		</clipPath>
		<g clip-path="url(#SVGID_2_)">
			<g>
				<g>
					<path fill="#4A9EDD" d="M234.878,229.603l-69.588,1.341c-1.849,24.265-1.792,128.39,10.957,187.487
						c6.784,2.244,11.796,3.615,18.716,2.044c3.406-34.737,3.22-153.104,3.22-153.104c2.315,0.513,3.657-0.6,6.338-1.043
						c0,0,1.703,97.317,6.046,154.147c6.92,1.572,11.814,2.2,18.598-0.044C241.407,359.843,234.878,229.603,234.878,229.603z"/>
				</g>
			</g>
			<g opacity="0.8">
				<path fill="#2494E6" d="M188.296,412.333c0,0-7.605-38.14-10.647-71.513c-2.322-25.476,1.56-83.94,3.527-110.182l-15.886,0.306
					c-1.849,24.265-1.792,128.39,10.957,187.487c6.679,2.209,11.649,3.558,18.404,2.1L188.296,412.333z"/>
			</g>
			<g>
				<g>
					<g>
						<path fill="#BCBCBC" d="M193.971,243.498c5.12,0.867,10.364,1.001,15.522,0.398c-0.082-4.132-0.165-8.264-0.247-12.396
							c-4.743-0.864-9.617-1.005-14.402-0.416C193.897,235.141,193.601,239.349,193.971,243.498z"/>
					</g>
				</g>
				<g>
					<g>
						<path fill="#230602" d="M207.568,241.287c-0.006-2.598-0.011-5.196-0.017-7.793c-3.754-0.002-7.508-0.005-11.261-0.007
							c-0.183,2.458-0.366,4.916-0.549,7.373C199.639,241.542,203.631,241.687,207.568,241.287z"/>
					</g>
				</g>
				<g>
					<g>
						<path fill="#BCBCBC" d="M198.368,238.826c0.37-0.027,0.76-0.116,1.022-0.379c0.273-0.274,0.357-0.693,0.311-1.077
							c-0.046-0.384-0.206-0.744-0.364-1.097c-1.55-0.447-3.301-0.132-4.599,0.825C195.542,238.246,196.97,238.926,198.368,238.826z
							"/>
					</g>
				</g>
			</g>
			<g>
				<path fill="#3C0605" d="M238.64,420.364c-2.089-2.962-5.151-5.007-8.438-5.696c-11.37-3.448-20.196,6.416-20.196,6.416
					c6.241,2.296,13.7,2.545,13.7,2.545l0.047-0.045c4.493,0.325,9.015,0.124,13.469-0.619c0.421-0.07,0.851-0.149,1.22-0.39
					c0.368-0.24,0.666-0.68,0.648-1.161C239.075,421.018,238.858,420.673,238.64,420.364z"/>
			</g>
			<g>
				<path fill="#3C0605" d="M193.892,421.318c-5.706-4.86-11.958-6.328-15.704-6.761c-0.575-0.088-1.154-0.143-1.734-0.149
					c-1.045-0.053-1.659-0.017-1.659-0.017l-0.039,0.132c-3.618,0.483-7.048,2.614-9.324,5.84c-0.218,0.309-0.435,0.655-0.45,1.05
					c-0.018,0.481,0.28,0.921,0.648,1.161c0.368,0.241,0.799,0.319,1.22,0.39c2.757,0.46,5.541,0.712,8.327,0.762
					C182.927,424.491,193.892,421.318,193.892,421.318z"/>
			</g>
		</g>
	</g>
	<g>
		<path fill="#230602" d="M162.499,224.513c0,0,33.407,2.59,70.698-0.518l0.388,9.193c0,0-26.026,7.381-71.086,0"/>
		<g>
			<g>
				<path fill="#BCBCBC" d="M192.52,236.789c5.12,0.867,10.364,1.001,15.522,0.398c-0.082-4.132-0.165-8.264-0.247-12.396
					c-4.743-0.864-9.617-1.005-14.402-0.416C192.446,228.432,192.151,232.64,192.52,236.789z"/>
			</g>
			<g>
				<path fill="#230602" d="M206.117,234.578c-0.006-2.598-0.011-5.196-0.017-7.793c-3.754-0.002-7.508-0.005-11.261-0.007
					c-0.183,2.458-0.366,4.916-0.549,7.373C198.189,234.833,202.18,234.978,206.117,234.578z"/>
			</g>
			<g>
				<path fill="#BCBCBC" d="M196.917,232.117c0.37-0.027,0.76-0.116,1.022-0.379c0.273-0.274,0.357-0.693,0.311-1.077
					c-0.046-0.384-0.206-0.744-0.364-1.097c-1.55-0.447-3.301-0.132-4.599,0.825C194.091,231.537,195.519,232.217,196.917,232.117z"
					/>
			</g>
		</g>
	</g>
	<path fill="#09C5D8" d="M218.094,112.646c-9.344-5.896-29.687-0.797-35.844,1.104c2.286,4.633,5.699,11.502,9.613,13.76
		c0,0,1.062,0.856,2.741,1.336c0.63,0.18,1.346,0.307,2.125,0.316c1.299,0.015,2.774-0.298,4.316-1.241c0,0,3.015,1.919,5.345,0.959
		c0.113-0.046,0.268-0.122,0.436-0.209h0C208.936,127.58,214.448,122.604,218.094,112.646z"/>
	<path opacity="0.5" fill="#BCBFC1" d="M161.225,146.967c-0.111-0.009-0.183-0.014-0.183-0.014l-1.457,70.309
		c8.623,3.203,17.146,5.128,25.233,6.189C168.694,204.678,162.967,164.026,161.225,146.967z"/>
	<polygon fill="#BCC0C4" points="171.215,148.708 173.787,117.511 179.833,114.333 177.7,150.049 	"/>
	<polygon fill="#BCC0C4" points="222.874,150.944 224.942,116.002 229.303,118.685 228.241,149.379 	"/>
	<path fill="#D6D7D8" d="M249.29,233.181c0,0-47.563,16.253-97.755-2.39l1.793-86.522c0,0,54.375,4.302,96.441,0L249.29,233.181z"/>
	<path fill="#FFFFFF" d="M194.875,85.125c0,0,13.974,2.286,24.75,1.625c0,0-5.411,12.9-14.137,11.379S194.875,85.125,194.875,85.125
		z"/>
	<g>
		<path fill="#DA7B51" d="M226.614,75.942c-0.051,0-0.102-0.008-0.153-0.028c-0.224-0.084-0.338-0.335-0.255-0.56
			c0.133-0.35,0.148-0.614,0.046-0.745c-0.149-0.194-0.593-0.215-0.785-0.192l-0.426,0.046l-0.054-0.424
			c-0.35-2.805,1.687-4.651,1.773-4.728c0.177-0.157,0.45-0.144,0.613,0.036c0.16,0.179,0.144,0.454-0.034,0.614
			c-0.017,0.015-1.593,1.456-1.52,3.589c0.352,0.03,0.822,0.144,1.118,0.522c0.306,0.39,0.333,0.924,0.085,1.588
			C226.956,75.834,226.791,75.942,226.614,75.942z"/>
	</g>
	<g>
		<path fill="#F3A56E" d="M192.25,98.5l1,18.75c0,0,8.25,4.25,16.75-0.25l1.5-13.25"/>
		<path opacity="0.5" fill="#DA7B51" d="M210.25,99.5L207,96l-14.5,1.5l0.488,13.665c0.298,0.212,0.598,0.413,0.902,0.588
			c0,0,0.281,0.227,0.784,0.516c0.88,0.507,2.44,1.209,4.364,1.231c1.374,0.016,2.934-0.316,4.565-1.312c0,0,0.611,0.388,1.504,0.74
			c0.51,0.201,1.113,0.39,1.747,0.488c0.317,0.049,0.642,0.075,0.966,0.069c0.487-0.01,0.975-0.093,1.437-0.283
			c0.192-0.079,0.468-0.215,0.805-0.407L210.25,99.5z"/>
		<path fill="#F3A56E" d="M228.39,66.57c-1.117-0.652-3.418,0.218-4.331,1.033c-2.272-27.414-3.855-24.574-6.686-26.981
			c-2.899-2.464-27.687-0.29-37.11,12.901c0,0-2.41,8.291-2.292,18.649c-1.003-0.72-4.722-3.065-6.841,0.051
			c-2.39,3.515,2.447,13.848,8.56,13.277c0.013-0.001,0.026-0.004,0.038-0.006c0.246,0.896,0.516,1.789,0.824,2.675
			c0,0,5.798,16.236,13.336,20.584c0,0,4.494,3.624,9.712,0.435c0,0,3.189,2.029,5.653,1.015c2.203-0.907,14.939-8.888,15.962-31.69
			C232.114,75.136,230.115,67.576,228.39,66.57z"/>
		<path opacity="0.6" fill="#EA9563" d="M201.617,65.633l0.078-11.312c0,0-13.844-2.092-16.177,2.574
			c-2.229,4.458,1.94,7.064,1.94,7.064"/>
		<path opacity="0.6" fill="#EA9563" d="M209.083,55.25c0,0-0.506,9.061,0.353,10.722l14.297-0.598c0,0-0.205-5.571-0.381-7.937
			C223.178,55.072,211.006,48.451,209.083,55.25z"/>
		<path fill="#3A1100" d="M200.551,50.538c0,0-13.156,1.965-14.487,9.772l0.593,1.635c0,0,4.766-6.199,15.282-7.396l-0.833-3.989"/>
		<path fill="#3A1100" d="M210.733,50.117c0,0,11.385,2.343,11.79,9.333l-0.703,1.343c0,0-2.82-4.795-12.216-6.986L210.733,50.117"
			/>
		<path fill="#DA7B51" d="M211.176,75.268c0,0-3.696,4.675-7.61,3.588C203.566,78.855,208.676,82.987,211.176,75.268z"/>
		<g>
			<path fill="#DA7B51" d="M177.074,81.791c-0.122,0-0.245-0.052-0.33-0.152c-0.666-0.776-0.924-1.516-0.764-2.197
				c0.146-0.629,0.613-1.025,0.924-1.225c-0.421-3.443-3.967-4.23-4.121-4.263c-0.236-0.049-0.386-0.279-0.336-0.515
				c0.049-0.234,0.27-0.393,0.513-0.336c0.046,0.009,4.529,0.986,4.838,5.323l0.022,0.309l-0.284,0.122
				c-0.003,0.002-0.593,0.268-0.71,0.787c-0.112,0.493,0.253,1.05,0.578,1.429c0.156,0.182,0.136,0.457-0.046,0.613
				C177.274,81.756,177.174,81.791,177.074,81.791z"/>
		</g>
		<path opacity="0.2" fill="#DA7B51" d="M205.197,106.579l-2.609,0.725c-16.767-0.607-21.719-39.082-22.883-51.525
			c-0.704,3.149-1.814,9.284-1.733,16.394c-1.003-0.72-4.722-3.065-6.841,0.051c-2.39,3.515,2.447,13.848,8.56,13.277
			c0.013-0.001,0.026-0.004,0.038-0.006c0.246,0.896,0.516,1.789,0.824,2.675c0,0,5.798,16.236,13.336,20.584
			c0,0,4.494,3.624,9.712,0.435c0,0,3.189,2.029,5.653,1.015c0.119-0.049,0.283-0.129,0.461-0.221
			C205.893,109.782,205.197,106.579,205.197,106.579z"/>
		<path fill="#3A1100" d="M221.7,44.63c-0.12-1.023-0.828-6.106-3.457-9.806l-0.392,1.413c-0.94-2.423-2.76-4.131-2.76-4.131
			l-7.639,2.521l4.268-3.935c0,0-22.614-1.74-34.573,18.482l-0.978,22.07l3.37,4.458l0.109-2.174c0,0-0.109-16.525,3.044-20.657
			c0,0,19.981-13.725,37.849-8.413c2.647,6.548,3.03,23.851,3.03,23.851l0.544-0.109C225.481,61.181,222.652,48.54,221.7,44.63z"/>
		<g>
			<defs>
				<path id="SVGID_3_" d="M187.484,66.13c0,0,1.681-7.805,8.207-5.873c0,0,3.012,0.477,5.797,5.948c0,0,0.301,0.602-0.151,0.678
					C200.885,66.958,192.754,69.593,187.484,66.13z"/>
			</defs>
			<clipPath id="SVGID_4_">
				<use xlink:href="#SVGID_3_"  overflow="visible"/>
			</clipPath>
			<g clip-path="url(#SVGID_4_)">
				<g>
					<path fill="none" d="M197.495,64.695c-0.401-0.735-1.154-1.252-2.05-1.295c-1.379-0.067-2.56,1.005-2.637,2.392
						c-0.029,0.526,0.105,1.02,0.357,1.437C193.992,65.797,195.616,64.807,197.495,64.695z"/>
				</g>
			</g>
		</g>
		<path fill="#F3A56E" d="M201.581,66.51c-0.02-0.158-0.093-0.305-0.093-0.305c-2.786-5.471-5.797-5.948-5.797-5.948
			c-5.887-1.983-7.6,3.746-8.201,5.62C190.113,65.359,196.234,64.172,201.581,66.51z"/>
		<path fill="#F3A56E" d="M223.06,65.331c0,0-4.677-4.181-9.16-2.296c-4.561,1.917-4.495,2.644-4.495,2.644s2.587-6.66,7.512-6.429
			C216.917,59.25,221.601,58.836,223.06,65.331z"/>
		<g>
			<g>
				<g>
					<path fill="#FFFFFF" d="M222.115,65.186c0,0-1.629-7.56-7.949-5.688c0,0-2.917,0.462-5.615,5.761c0,0-0.292,0.583,0.146,0.656
						C209.135,65.988,217.011,68.54,222.115,65.186z"/>
				</g>
				<g>
					<path opacity="0.4" fill="#D5D4CB" d="M222.115,65.186c0,0-0.859-3.983-3.747-5.451c0.703,1.825,1.433,4.43,1.019,6.672
						C220.342,66.137,221.267,65.743,222.115,65.186z"/>
					<g>
						<defs>
							<path id="SVGID_5_" d="M222.115,65.186c0,0-1.629-7.56-7.949-5.688c0,0-2.917,0.462-5.615,5.761c0,0-0.292,0.583,0.146,0.656
								C209.135,65.988,217.011,68.54,222.115,65.186z"/>
						</defs>
						<clipPath id="SVGID_6_">
							<use xlink:href="#SVGID_5_"  overflow="visible"/>
						</clipPath>
						<g clip-path="url(#SVGID_6_)">
							<g>
								<g>
									<path fill="#7F4F3A" d="M212.12,65.093c0.075,1.344,1.218,2.382,2.554,2.317c1.336-0.064,2.358-1.206,2.284-2.551
										c-0.075-1.344-1.218-2.382-2.554-2.317S212.046,63.749,212.12,65.093z"/>
									<path fill="#0D0306" d="M213.216,65.185c0.045,0.805,0.73,1.427,1.53,1.388s1.413-0.723,1.368-1.528
										c-0.045-0.805-0.73-1.427-1.53-1.388C213.784,63.696,213.171,64.38,213.216,65.185z"/>
								</g>
								<path fill="none" d="M212.418,63.797c0.388-0.712,1.118-1.212,1.986-1.254c1.336-0.064,2.48,0.973,2.554,2.317
									c0.028,0.509-0.102,0.988-0.345,1.392C215.812,64.864,214.238,63.905,212.418,63.797z"/>
							</g>
							<path fill="#FFFFFF" d="M212.739,65.615c0.032,0.581,0.527,1.03,1.105,1.002c0.578-0.028,1.02-0.522,0.988-1.103
								c-0.032-0.581-0.527-1.03-1.105-1.002S212.707,65.034,212.739,65.615z"/>
						</g>
					</g>
				</g>
			</g>
			<path fill="#F3A56E" d="M215.816,63.688c2.916-0.101,5.55,0.664,6.757,1.692c-0.653-2.064-2.932-8.045-8.371-6.213
				c0,0-2.836,0.772-5.489,5.79C210.184,63.872,212.97,63.786,215.816,63.688z"/>
			<g>
				<path fill="#3A1100" d="M208.069,65.624c-0.164,0-0.323-0.082-0.415-0.233c-0.138-0.228-0.066-0.525,0.162-0.664
					c0.219-0.133,5.465-3.228,14.852-0.127c0.254,0.084,0.392,0.358,0.308,0.612c-0.084,0.253-0.358,0.393-0.612,0.307
					c-8.929-2.949-13.995,0.006-14.045,0.035C208.24,65.602,208.154,65.624,208.069,65.624z"/>
			</g>
		</g>
		<g>
			<g>
				<g>
					<path fill="#FFFFFF" d="M187.479,65.999c0,0,1.648-7.649,8.043-5.755c0,0,2.952,0.467,5.682,5.829c0,0,0.295,0.59-0.148,0.664
						C200.613,66.81,192.644,69.393,187.479,65.999z"/>
				</g>
				<g>
					<path opacity="0.4" fill="#D5D4CB" d="M187.479,65.999c0,0,0.869-4.03,3.791-5.515c-0.712,1.846-1.449,4.482-1.031,6.75
						C189.274,66.961,188.337,66.563,187.479,65.999z"/>
					<g>
						<defs>
							<path id="SVGID_7_" d="M187.479,65.999c0,0,1.648-7.649,8.043-5.755c0,0,2.952,0.467,5.682,5.829c0,0,0.295,0.59-0.148,0.664
								C200.613,66.81,192.644,69.393,187.479,65.999z"/>
						</defs>
						<clipPath id="SVGID_8_">
							<use xlink:href="#SVGID_7_"  overflow="visible"/>
						</clipPath>
						<g clip-path="url(#SVGID_8_)">
							<g>
								<g>
									<path fill="#7F4F3A" d="M197.592,65.905c-0.076,1.36-1.233,2.41-2.585,2.345c-1.352-0.065-2.386-1.221-2.311-2.581
										c0.076-1.36,1.233-2.41,2.585-2.345S197.668,64.545,197.592,65.905z"/>
									<path fill="#0D0306" d="M196.484,65.998c-0.045,0.815-0.739,1.444-1.549,1.405c-0.81-0.039-1.43-0.731-1.384-1.546
										s0.739-1.444,1.549-1.405C195.909,64.491,196.529,65.183,196.484,65.998z"/>
								</g>
								<path fill="none" d="M197.291,64.593c-0.393-0.72-1.131-1.227-2.01-1.269c-1.352-0.065-2.509,0.985-2.585,2.345
									c-0.029,0.515,0.103,1,0.35,1.408C193.857,65.673,195.449,64.703,197.291,64.593z"/>
							</g>
							<path fill="#FFFFFF" d="M196.966,66.433c-0.033,0.588-0.533,1.042-1.118,1.014c-0.585-0.028-1.032-0.528-0.999-1.116
								c0.033-0.588,0.533-1.042,1.118-1.014C196.551,65.345,196.999,65.845,196.966,66.433z"/>
						</g>
					</g>
				</g>
			</g>
			<path fill="#F3A56E" d="M193.853,64.483c-2.951-0.102-5.616,0.671-6.837,1.712c0.66-2.089,2.967-8.14,8.47-6.286
				c0,0,2.869,0.781,5.554,5.859C199.552,64.669,196.733,64.582,193.853,64.483z"/>
			<g>
				<path fill="#3A1100" d="M201.692,66.442c0.166,0,0.327-0.083,0.42-0.235c0.14-0.231,0.067-0.531-0.164-0.672
					c-0.222-0.135-5.53-3.266-15.027-0.128c-0.257,0.085-0.397,0.362-0.312,0.619c0.085,0.257,0.363,0.397,0.619,0.311
					c9.034-2.984,14.16,0.006,14.211,0.035C201.518,66.42,201.605,66.442,201.692,66.442z"/>
			</g>
		</g>
		<g>
			<path fill="#DA7B51" d="M195.875,94.25c-0.153,0-0.304-0.069-0.402-0.201c-0.165-0.222-0.119-0.535,0.103-0.7
				c0.425-0.316,10.511-7.733,19.114-6.595c0.274,0.037,0.466,0.288,0.43,0.562c-0.036,0.274-0.291,0.466-0.561,0.431
				c-8.208-1.089-18.285,6.33-18.386,6.405C196.084,94.218,195.979,94.25,195.875,94.25z"/>
		</g>
		<g>
			<path fill="#DA7B51" d="M203.375,93.375c-0.167,0-0.331-0.084-0.425-0.236c-0.146-0.234-0.074-0.543,0.161-0.688
				c0.153-0.095,3.782-2.325,6.889-2.325c0.276,0,0.5,0.224,0.5,0.5s-0.224,0.5-0.5,0.5c-2.825,0-6.326,2.153-6.361,2.175
				C203.557,93.351,203.465,93.375,203.375,93.375z"/>
		</g>
	</g>
	<g>
		<path fill="#0A9EA5" d="M201.813,119.526c-4.795,0-8.537-1.712-8.775-1.823c-0.25-0.117-0.357-0.415-0.241-0.665
			c0.117-0.249,0.413-0.36,0.665-0.241c0.085,0.041,8.683,3.962,16.297-0.234c0.24-0.135,0.545-0.046,0.679,0.196
			c0.134,0.241,0.046,0.546-0.196,0.679C207.386,119.012,204.44,119.526,201.813,119.526z"/>
	</g>
	<g>
		<g id="x">
			<g>
				<polygon fill="#EC0101" points="234.5,213.623 214.287,193.43 234.5,173.237 221.03,159.766 200.836,179.969 180.634,159.766 
					167.173,173.237 187.366,193.43 167.173,213.623 180.634,227.093 200.836,206.89 221.03,227.093 				"/>
			</g>
		</g>
	</g>
	<g>
		<path fill="#DA7B51" d="M226.614,75.942c-0.051,0-0.102-0.008-0.153-0.028c-0.224-0.084-0.338-0.335-0.255-0.56
			c0.133-0.35,0.148-0.614,0.046-0.745c-0.149-0.194-0.593-0.215-0.785-0.192l-0.426,0.046l-0.054-0.424
			c-0.35-2.805,1.687-4.651,1.773-4.728c0.177-0.157,0.45-0.144,0.613,0.036c0.16,0.179,0.144,0.454-0.034,0.614
			c-0.017,0.015-1.593,1.456-1.52,3.589c0.352,0.03,0.822,0.144,1.118,0.522c0.306,0.39,0.333,0.924,0.085,1.588
			C226.956,75.834,226.791,75.942,226.614,75.942z"/>
	</g>
	<polygon fill="#D60D0D" points="230.179,168.915 200.5,194.5 172.429,167.976 167.173,173.237 187.366,193.43 167.173,213.623 
		180.634,227.093 200.836,206.89 221.03,227.093 234.5,213.623 214.287,193.43 234.5,173.237 	"/>
	<path fill="#01DAFF" d="M170,107.75"/>
	<path fill="#F3A56E" d="M178.235,178.438L160,180.447v-1.114c0,0,14.272-4.783,15.454-5.255c1.182-0.473,0.799-2.942,0.799-2.942
		l-20.926,3.808c-1.182-0.355-1.433-4.085-1.433-4.085c-5.2,0.236-7.711,8.022-8.42,9.676c-0.163,0.38-0.093,0.373-0.008,0.274
		c-0.013,0.517-0.035,1.067-0.063,1.65L141,195.25c0,0,1.907,1.212,5.616,1.028c0.03,0.059,0.054,0.123,0.085,0.18
		c5.367-0.358,9.819-3.248,9.819-3.248s10.396,0.473,14.296,0.118c3.9-0.355,3.183-2.245,3.183-2.245l-14.433-1.773l1.151-0.827
		c0,0,12.466,0.236,14.239-0.236c1.773-0.473,1.06-2.955,1.06-2.955L161,185.174v-1.182c0,0,12.695-1.655,15.295-2.009
		C178.895,181.629,178.235,178.438,178.235,178.438z"/>
	<path fill="#F3A56E" d="M252.393,148.356c0,0,0.826-1.439,0.091-4.158c-0.253-0.934-0.851-1.345-1.527-1.481
		c-11.29-0.175-9.297,3.888-9.297,3.888s0.72,1.634,2.974,1.708c0,0-4.853-0.435-3.544,3.506c0,0,0.882,1.463,2.652,1.714
		c0,0-3.317,1.222-1.879,2.94c1.4,1.674,2.844,1.794,4.365,1.333l1.186-0.736c0,0-1.185,1.188-1.516,2.467
		c-0.104,0.272-0.173,0.525-0.147,0.714c0.125,0.917,1.458,3.125,3.917,1.917l-0.015-0.033c2.646-1.218,1.815-4.166,1.815-4.166
		c2.495-2.012,0.627-4.425,0.627-4.425C254.487,150.707,252.393,148.356,252.393,148.356z"/>
	<path fill="#BCC0C4" d="M238.878,126.971"/>
	<path opacity="0.2" fill="#DA7B51" d="M147.359,176.281c-0.979,1.822-1.59,3.567-1.885,4.254c-0.163,0.38-0.093,0.373-0.008,0.274
		c-0.013,0.517-0.035,1.067-0.063,1.65L141,195.25c0,0,1.907,1.212,5.616,1.028c0.03,0.059,0.054,0.123,0.085,0.18
		c2.982-0.199,5.678-1.179,7.488-2.011C150.224,189.255,148.241,181.128,147.359,176.281z"/>
	<g>
		<path fill="#DA7B51" d="M247.643,149.281c-2.036,0-3.742-0.345-3.86-0.37c-0.135-0.028-0.222-0.16-0.194-0.295
			c0.028-0.135,0.154-0.225,0.296-0.194c0.047,0.009,4.796,0.968,7.853-0.319c0.126-0.053,0.274,0.007,0.327,0.133
			c0.054,0.127-0.006,0.274-0.134,0.328C250.62,149.115,249.052,149.281,247.643,149.281z"/>
	</g>
	<g>
		<path fill="#DA7B51" d="M248.568,154.406c-2.445,0-4.745-0.594-4.89-0.632c-0.134-0.035-0.213-0.172-0.179-0.305
			c0.036-0.133,0.167-0.216,0.306-0.178c0.053,0.013,5.227,1.348,8.186,0.024c0.127-0.057,0.274,0,0.331,0.126
			c0.056,0.126,0,0.274-0.126,0.33C251.134,154.248,249.831,154.406,248.568,154.406z"/>
	</g>
	<g>
		<path fill="#8F9396" d="M206.333,24.833c-0.133,0-0.266-0.053-0.363-0.157c-0.189-0.201-0.181-0.517,0.02-0.707l12-11.333
			c0.201-0.19,0.519-0.181,0.707,0.02c0.189,0.201,0.181,0.517-0.02,0.707l-12,11.333C206.58,24.788,206.456,24.833,206.333,24.833z
			"/>
	</g>
	<g>
		<path fill="#8F9396" d="M216.667,27.167c-0.198,0-0.386-0.119-0.464-0.314c-0.103-0.256,0.021-0.547,0.278-0.65l20-8
			c0.255-0.104,0.547,0.022,0.649,0.279c0.103,0.256-0.021,0.547-0.278,0.65l-20,8C216.792,27.155,216.729,27.167,216.667,27.167z"
			/>
	</g>
	<g>
		<path fill="#8F9396" d="M222.999,34.5c-0.244,0-0.457-0.179-0.494-0.428c-0.039-0.273,0.149-0.527,0.423-0.567l29.667-4.333
			c0.267-0.043,0.526,0.148,0.567,0.422c0.039,0.273-0.149,0.527-0.423,0.567l-29.667,4.333
			C223.048,34.499,223.023,34.5,222.999,34.5z"/>
	</g>
</g>
</svg>
